M48
; DRILL file {KiCad 9.0.4} date 2025-09-25T16:13:09-0400
; FORMAT={-:-/ absolute / metric / decimal}
; #@! TF.CreationDate,2025-09-25T16:13:09-04:00
; #@! TF.GenerationSoftware,Kicad,Pcbnew,9.0.4
; #@! TF.FileFunction,Plated,1,2,PTH
FMAT,2
METRIC
; #@! TA.AperFunction,Plated,PTH,ViaDrill
T1C0.254
; #@! TA.AperFunction,Plated,PTH,ComponentDrill
T2C0.800
; #@! TA.AperFunction,Plated,PTH,ComponentDrill
T3C0.900
; #@! TA.AperFunction,Plated,PTH,ComponentDrill
T4C1.000
%
G90
G05
T1
X157.4Y-92.6
X162.3Y-98.9
T2
X137.0Y-101.19
X137.0Y-108.81
X140.22Y-116.5
X140.22Y-124.12
X141.05Y-101.19
X141.05Y-108.81
X142.76Y-116.5
X142.76Y-124.12
X143.256Y-88.011
X143.256Y-95.631
X143.3Y-76.5
X143.3Y-84.12
X145.1Y-101.19
X145.1Y-108.81
X145.3Y-116.5
X145.3Y-124.12
X145.796Y-88.011
X145.796Y-95.631
X145.84Y-76.5
X145.84Y-84.12
X147.84Y-116.5
X147.84Y-124.12
X148.336Y-88.011
X148.336Y-95.631
X148.38Y-76.5
X148.38Y-84.12
X149.15Y-101.19
X149.15Y-108.81
X150.38Y-116.5
X150.38Y-124.12
X150.876Y-88.011
X150.876Y-95.631
X150.92Y-76.5
X150.92Y-84.12
X152.92Y-116.5
X152.92Y-124.12
X153.2Y-101.19
X153.2Y-108.81
X153.416Y-88.011
X153.416Y-95.631
X153.46Y-76.5
X153.46Y-84.12
X155.46Y-116.5
X155.46Y-124.12
X155.956Y-88.011
X155.956Y-95.631
X156.0Y-76.5
X156.0Y-84.12
X157.25Y-101.19
X157.25Y-108.81
X158.0Y-116.5
X158.0Y-124.12
X158.496Y-88.011
X158.496Y-95.631
X158.54Y-76.5
X158.54Y-84.12
X161.036Y-88.011
X161.036Y-95.631
X161.08Y-76.5
X161.08Y-84.12
X161.3Y-101.19
X161.3Y-108.81
X163.576Y-88.011
X163.576Y-95.631
X165.35Y-101.19
X165.35Y-108.81
X166.116Y-88.011
X166.116Y-95.631
X169.0Y-116.5
X169.0Y-124.12
X174.69Y-101.19
X174.69Y-108.81
X175.0Y-95.0
X177.23Y-101.19
X177.23Y-108.81
X179.77Y-101.19
X179.77Y-108.81
X182.31Y-101.19
X182.31Y-108.81
X182.62Y-95.0
T3
X107.46Y-67.5
X110.0Y-67.5
X119.96Y-67.5
X122.5Y-67.5
X132.46Y-67.5
X135.0Y-67.5
X145.0Y-67.5
X147.54Y-67.5
X157.5Y-67.5
X160.04Y-67.5
X170.0Y-67.5
X172.54Y-67.5
X182.5Y-67.5
X185.04Y-67.5
X195.0Y-67.5
X197.54Y-67.5
T4
X103.6Y-123.86
X103.6Y-126.4
X187.5Y-95.0
X187.5Y-100.0
X187.5Y-103.5
X187.5Y-108.5
M30
