%TF.GenerationSoftware,KiCad,Pcbnew,9.0.4*%
%TF.CreationDate,2026-02-01T13:51:19-05:00*%
%TF.ProjectId,Practice,50726163-7469-4636-952e-6b696361645f,1.2*%
%TF.SameCoordinates,Original*%
%TF.FileFunction,Drillmap*%
%TF.FilePolarity,Positive*%
%FSLAX45Y45*%
G04 Gerber Fmt 4.5, Leading zero omitted, Abs format (unit mm)*
G04 Created by KiCad (PCBNEW 9.0.4) date 2026-02-01 13:51:19*
%MOMM*%
%LPD*%
G01*
G04 APERTURE LIST*
%ADD10C,0.050000*%
%ADD11C,0.200000*%
%ADD12C,0.100000*%
%ADD13C,0.110000*%
G04 APERTURE END LIST*
D10*
X21000000Y-6000000D02*
X10000000Y-6000000D01*
X21000000Y-13000000D02*
X21000000Y-6000000D01*
X10000000Y-13000000D02*
X21000000Y-13000000D01*
X10000000Y-6000000D02*
X10000000Y-13000000D01*
D11*
D12*
X15725000Y-9245000D02*
X15755000Y-9275000D01*
X15755000Y-9245000D02*
X15725000Y-9275000D01*
X16215000Y-9875000D02*
X16245000Y-9905000D01*
X16245000Y-9875000D02*
X16215000Y-9905000D01*
X13740000Y-10119000D02*
G75*
G02*
X13660000Y-10119000I-40000J0D01*
G01*
X13660000Y-10119000D02*
G75*
G02*
X13740000Y-10119000I40000J0D01*
G01*
X13740000Y-10881000D02*
G75*
G02*
X13660000Y-10881000I-40000J0D01*
G01*
X13660000Y-10881000D02*
G75*
G02*
X13740000Y-10881000I40000J0D01*
G01*
X14062000Y-11650000D02*
G75*
G02*
X13982000Y-11650000I-40000J0D01*
G01*
X13982000Y-11650000D02*
G75*
G02*
X14062000Y-11650000I40000J0D01*
G01*
X14062000Y-12412000D02*
G75*
G02*
X13982000Y-12412000I-40000J0D01*
G01*
X13982000Y-12412000D02*
G75*
G02*
X14062000Y-12412000I40000J0D01*
G01*
X14145000Y-10119000D02*
G75*
G02*
X14065000Y-10119000I-40000J0D01*
G01*
X14065000Y-10119000D02*
G75*
G02*
X14145000Y-10119000I40000J0D01*
G01*
X14145000Y-10881000D02*
G75*
G02*
X14065000Y-10881000I-40000J0D01*
G01*
X14065000Y-10881000D02*
G75*
G02*
X14145000Y-10881000I40000J0D01*
G01*
X14316000Y-11650000D02*
G75*
G02*
X14236000Y-11650000I-40000J0D01*
G01*
X14236000Y-11650000D02*
G75*
G02*
X14316000Y-11650000I40000J0D01*
G01*
X14316000Y-12412000D02*
G75*
G02*
X14236000Y-12412000I-40000J0D01*
G01*
X14236000Y-12412000D02*
G75*
G02*
X14316000Y-12412000I40000J0D01*
G01*
X14365600Y-8801100D02*
G75*
G02*
X14285600Y-8801100I-40000J0D01*
G01*
X14285600Y-8801100D02*
G75*
G02*
X14365600Y-8801100I40000J0D01*
G01*
X14365600Y-9563100D02*
G75*
G02*
X14285600Y-9563100I-40000J0D01*
G01*
X14285600Y-9563100D02*
G75*
G02*
X14365600Y-9563100I40000J0D01*
G01*
X14370000Y-7650000D02*
G75*
G02*
X14290000Y-7650000I-40000J0D01*
G01*
X14290000Y-7650000D02*
G75*
G02*
X14370000Y-7650000I40000J0D01*
G01*
X14370000Y-8412000D02*
G75*
G02*
X14290000Y-8412000I-40000J0D01*
G01*
X14290000Y-8412000D02*
G75*
G02*
X14370000Y-8412000I40000J0D01*
G01*
X14550000Y-10119000D02*
G75*
G02*
X14470000Y-10119000I-40000J0D01*
G01*
X14470000Y-10119000D02*
G75*
G02*
X14550000Y-10119000I40000J0D01*
G01*
X14550000Y-10881000D02*
G75*
G02*
X14470000Y-10881000I-40000J0D01*
G01*
X14470000Y-10881000D02*
G75*
G02*
X14550000Y-10881000I40000J0D01*
G01*
X14570000Y-11650000D02*
G75*
G02*
X14490000Y-11650000I-40000J0D01*
G01*
X14490000Y-11650000D02*
G75*
G02*
X14570000Y-11650000I40000J0D01*
G01*
X14570000Y-12412000D02*
G75*
G02*
X14490000Y-12412000I-40000J0D01*
G01*
X14490000Y-12412000D02*
G75*
G02*
X14570000Y-12412000I40000J0D01*
G01*
X14619600Y-8801100D02*
G75*
G02*
X14539600Y-8801100I-40000J0D01*
G01*
X14539600Y-8801100D02*
G75*
G02*
X14619600Y-8801100I40000J0D01*
G01*
X14619600Y-9563100D02*
G75*
G02*
X14539600Y-9563100I-40000J0D01*
G01*
X14539600Y-9563100D02*
G75*
G02*
X14619600Y-9563100I40000J0D01*
G01*
X14624000Y-7650000D02*
G75*
G02*
X14544000Y-7650000I-40000J0D01*
G01*
X14544000Y-7650000D02*
G75*
G02*
X14624000Y-7650000I40000J0D01*
G01*
X14624000Y-8412000D02*
G75*
G02*
X14544000Y-8412000I-40000J0D01*
G01*
X14544000Y-8412000D02*
G75*
G02*
X14624000Y-8412000I40000J0D01*
G01*
X14824000Y-11650000D02*
G75*
G02*
X14744000Y-11650000I-40000J0D01*
G01*
X14744000Y-11650000D02*
G75*
G02*
X14824000Y-11650000I40000J0D01*
G01*
X14824000Y-12412000D02*
G75*
G02*
X14744000Y-12412000I-40000J0D01*
G01*
X14744000Y-12412000D02*
G75*
G02*
X14824000Y-12412000I40000J0D01*
G01*
X14873600Y-8801100D02*
G75*
G02*
X14793600Y-8801100I-40000J0D01*
G01*
X14793600Y-8801100D02*
G75*
G02*
X14873600Y-8801100I40000J0D01*
G01*
X14873600Y-9563100D02*
G75*
G02*
X14793600Y-9563100I-40000J0D01*
G01*
X14793600Y-9563100D02*
G75*
G02*
X14873600Y-9563100I40000J0D01*
G01*
X14878000Y-7650000D02*
G75*
G02*
X14798000Y-7650000I-40000J0D01*
G01*
X14798000Y-7650000D02*
G75*
G02*
X14878000Y-7650000I40000J0D01*
G01*
X14878000Y-8412000D02*
G75*
G02*
X14798000Y-8412000I-40000J0D01*
G01*
X14798000Y-8412000D02*
G75*
G02*
X14878000Y-8412000I40000J0D01*
G01*
X14955000Y-10119000D02*
G75*
G02*
X14875000Y-10119000I-40000J0D01*
G01*
X14875000Y-10119000D02*
G75*
G02*
X14955000Y-10119000I40000J0D01*
G01*
X14955000Y-10881000D02*
G75*
G02*
X14875000Y-10881000I-40000J0D01*
G01*
X14875000Y-10881000D02*
G75*
G02*
X14955000Y-10881000I40000J0D01*
G01*
X15078000Y-11650000D02*
G75*
G02*
X14998000Y-11650000I-40000J0D01*
G01*
X14998000Y-11650000D02*
G75*
G02*
X15078000Y-11650000I40000J0D01*
G01*
X15078000Y-12412000D02*
G75*
G02*
X14998000Y-12412000I-40000J0D01*
G01*
X14998000Y-12412000D02*
G75*
G02*
X15078000Y-12412000I40000J0D01*
G01*
X15127600Y-8801100D02*
G75*
G02*
X15047600Y-8801100I-40000J0D01*
G01*
X15047600Y-8801100D02*
G75*
G02*
X15127600Y-8801100I40000J0D01*
G01*
X15127600Y-9563100D02*
G75*
G02*
X15047600Y-9563100I-40000J0D01*
G01*
X15047600Y-9563100D02*
G75*
G02*
X15127600Y-9563100I40000J0D01*
G01*
X15132000Y-7650000D02*
G75*
G02*
X15052000Y-7650000I-40000J0D01*
G01*
X15052000Y-7650000D02*
G75*
G02*
X15132000Y-7650000I40000J0D01*
G01*
X15132000Y-8412000D02*
G75*
G02*
X15052000Y-8412000I-40000J0D01*
G01*
X15052000Y-8412000D02*
G75*
G02*
X15132000Y-8412000I40000J0D01*
G01*
X15332000Y-11650000D02*
G75*
G02*
X15252000Y-11650000I-40000J0D01*
G01*
X15252000Y-11650000D02*
G75*
G02*
X15332000Y-11650000I40000J0D01*
G01*
X15332000Y-12412000D02*
G75*
G02*
X15252000Y-12412000I-40000J0D01*
G01*
X15252000Y-12412000D02*
G75*
G02*
X15332000Y-12412000I40000J0D01*
G01*
X15360000Y-10119000D02*
G75*
G02*
X15280000Y-10119000I-40000J0D01*
G01*
X15280000Y-10119000D02*
G75*
G02*
X15360000Y-10119000I40000J0D01*
G01*
X15360000Y-10881000D02*
G75*
G02*
X15280000Y-10881000I-40000J0D01*
G01*
X15280000Y-10881000D02*
G75*
G02*
X15360000Y-10881000I40000J0D01*
G01*
X15381600Y-8801100D02*
G75*
G02*
X15301600Y-8801100I-40000J0D01*
G01*
X15301600Y-8801100D02*
G75*
G02*
X15381600Y-8801100I40000J0D01*
G01*
X15381600Y-9563100D02*
G75*
G02*
X15301600Y-9563100I-40000J0D01*
G01*
X15301600Y-9563100D02*
G75*
G02*
X15381600Y-9563100I40000J0D01*
G01*
X15386000Y-7650000D02*
G75*
G02*
X15306000Y-7650000I-40000J0D01*
G01*
X15306000Y-7650000D02*
G75*
G02*
X15386000Y-7650000I40000J0D01*
G01*
X15386000Y-8412000D02*
G75*
G02*
X15306000Y-8412000I-40000J0D01*
G01*
X15306000Y-8412000D02*
G75*
G02*
X15386000Y-8412000I40000J0D01*
G01*
X15586000Y-11650000D02*
G75*
G02*
X15506000Y-11650000I-40000J0D01*
G01*
X15506000Y-11650000D02*
G75*
G02*
X15586000Y-11650000I40000J0D01*
G01*
X15586000Y-12412000D02*
G75*
G02*
X15506000Y-12412000I-40000J0D01*
G01*
X15506000Y-12412000D02*
G75*
G02*
X15586000Y-12412000I40000J0D01*
G01*
X15635600Y-8801100D02*
G75*
G02*
X15555600Y-8801100I-40000J0D01*
G01*
X15555600Y-8801100D02*
G75*
G02*
X15635600Y-8801100I40000J0D01*
G01*
X15635600Y-9563100D02*
G75*
G02*
X15555600Y-9563100I-40000J0D01*
G01*
X15555600Y-9563100D02*
G75*
G02*
X15635600Y-9563100I40000J0D01*
G01*
X15640000Y-7650000D02*
G75*
G02*
X15560000Y-7650000I-40000J0D01*
G01*
X15560000Y-7650000D02*
G75*
G02*
X15640000Y-7650000I40000J0D01*
G01*
X15640000Y-8412000D02*
G75*
G02*
X15560000Y-8412000I-40000J0D01*
G01*
X15560000Y-8412000D02*
G75*
G02*
X15640000Y-8412000I40000J0D01*
G01*
X15765000Y-10119000D02*
G75*
G02*
X15685000Y-10119000I-40000J0D01*
G01*
X15685000Y-10119000D02*
G75*
G02*
X15765000Y-10119000I40000J0D01*
G01*
X15765000Y-10881000D02*
G75*
G02*
X15685000Y-10881000I-40000J0D01*
G01*
X15685000Y-10881000D02*
G75*
G02*
X15765000Y-10881000I40000J0D01*
G01*
X15840000Y-11650000D02*
G75*
G02*
X15760000Y-11650000I-40000J0D01*
G01*
X15760000Y-11650000D02*
G75*
G02*
X15840000Y-11650000I40000J0D01*
G01*
X15840000Y-12412000D02*
G75*
G02*
X15760000Y-12412000I-40000J0D01*
G01*
X15760000Y-12412000D02*
G75*
G02*
X15840000Y-12412000I40000J0D01*
G01*
X15889600Y-8801100D02*
G75*
G02*
X15809600Y-8801100I-40000J0D01*
G01*
X15809600Y-8801100D02*
G75*
G02*
X15889600Y-8801100I40000J0D01*
G01*
X15889600Y-9563100D02*
G75*
G02*
X15809600Y-9563100I-40000J0D01*
G01*
X15809600Y-9563100D02*
G75*
G02*
X15889600Y-9563100I40000J0D01*
G01*
X15894000Y-7650000D02*
G75*
G02*
X15814000Y-7650000I-40000J0D01*
G01*
X15814000Y-7650000D02*
G75*
G02*
X15894000Y-7650000I40000J0D01*
G01*
X15894000Y-8412000D02*
G75*
G02*
X15814000Y-8412000I-40000J0D01*
G01*
X15814000Y-8412000D02*
G75*
G02*
X15894000Y-8412000I40000J0D01*
G01*
X16143600Y-8801100D02*
G75*
G02*
X16063600Y-8801100I-40000J0D01*
G01*
X16063600Y-8801100D02*
G75*
G02*
X16143600Y-8801100I40000J0D01*
G01*
X16143600Y-9563100D02*
G75*
G02*
X16063600Y-9563100I-40000J0D01*
G01*
X16063600Y-9563100D02*
G75*
G02*
X16143600Y-9563100I40000J0D01*
G01*
X16148000Y-7650000D02*
G75*
G02*
X16068000Y-7650000I-40000J0D01*
G01*
X16068000Y-7650000D02*
G75*
G02*
X16148000Y-7650000I40000J0D01*
G01*
X16148000Y-8412000D02*
G75*
G02*
X16068000Y-8412000I-40000J0D01*
G01*
X16068000Y-8412000D02*
G75*
G02*
X16148000Y-8412000I40000J0D01*
G01*
X16170000Y-10119000D02*
G75*
G02*
X16090000Y-10119000I-40000J0D01*
G01*
X16090000Y-10119000D02*
G75*
G02*
X16170000Y-10119000I40000J0D01*
G01*
X16170000Y-10881000D02*
G75*
G02*
X16090000Y-10881000I-40000J0D01*
G01*
X16090000Y-10881000D02*
G75*
G02*
X16170000Y-10881000I40000J0D01*
G01*
X16397600Y-8801100D02*
G75*
G02*
X16317600Y-8801100I-40000J0D01*
G01*
X16317600Y-8801100D02*
G75*
G02*
X16397600Y-8801100I40000J0D01*
G01*
X16397600Y-9563100D02*
G75*
G02*
X16317600Y-9563100I-40000J0D01*
G01*
X16317600Y-9563100D02*
G75*
G02*
X16397600Y-9563100I40000J0D01*
G01*
X16575000Y-10119000D02*
G75*
G02*
X16495000Y-10119000I-40000J0D01*
G01*
X16495000Y-10119000D02*
G75*
G02*
X16575000Y-10119000I40000J0D01*
G01*
X16575000Y-10881000D02*
G75*
G02*
X16495000Y-10881000I-40000J0D01*
G01*
X16495000Y-10881000D02*
G75*
G02*
X16575000Y-10881000I40000J0D01*
G01*
X16651600Y-8801100D02*
G75*
G02*
X16571600Y-8801100I-40000J0D01*
G01*
X16571600Y-8801100D02*
G75*
G02*
X16651600Y-8801100I40000J0D01*
G01*
X16651600Y-9563100D02*
G75*
G02*
X16571600Y-9563100I-40000J0D01*
G01*
X16571600Y-9563100D02*
G75*
G02*
X16651600Y-9563100I40000J0D01*
G01*
X16940000Y-11650000D02*
G75*
G02*
X16860000Y-11650000I-40000J0D01*
G01*
X16860000Y-11650000D02*
G75*
G02*
X16940000Y-11650000I40000J0D01*
G01*
X16940000Y-12412000D02*
G75*
G02*
X16860000Y-12412000I-40000J0D01*
G01*
X16860000Y-12412000D02*
G75*
G02*
X16940000Y-12412000I40000J0D01*
G01*
X17159000Y-8500000D02*
G75*
G02*
X17079000Y-8500000I-40000J0D01*
G01*
X17079000Y-8500000D02*
G75*
G02*
X17159000Y-8500000I40000J0D01*
G01*
X17509000Y-10119000D02*
G75*
G02*
X17429000Y-10119000I-40000J0D01*
G01*
X17429000Y-10119000D02*
G75*
G02*
X17509000Y-10119000I40000J0D01*
G01*
X17509000Y-10881000D02*
G75*
G02*
X17429000Y-10881000I-40000J0D01*
G01*
X17429000Y-10881000D02*
G75*
G02*
X17509000Y-10881000I40000J0D01*
G01*
X17540000Y-9500000D02*
G75*
G02*
X17460000Y-9500000I-40000J0D01*
G01*
X17460000Y-9500000D02*
G75*
G02*
X17540000Y-9500000I40000J0D01*
G01*
X17763000Y-10119000D02*
G75*
G02*
X17683000Y-10119000I-40000J0D01*
G01*
X17683000Y-10119000D02*
G75*
G02*
X17763000Y-10119000I40000J0D01*
G01*
X17763000Y-10881000D02*
G75*
G02*
X17683000Y-10881000I-40000J0D01*
G01*
X17683000Y-10881000D02*
G75*
G02*
X17763000Y-10881000I40000J0D01*
G01*
X17921000Y-8500000D02*
G75*
G02*
X17841000Y-8500000I-40000J0D01*
G01*
X17841000Y-8500000D02*
G75*
G02*
X17921000Y-8500000I40000J0D01*
G01*
X18017000Y-10119000D02*
G75*
G02*
X17937000Y-10119000I-40000J0D01*
G01*
X17937000Y-10119000D02*
G75*
G02*
X18017000Y-10119000I40000J0D01*
G01*
X18017000Y-10881000D02*
G75*
G02*
X17937000Y-10881000I-40000J0D01*
G01*
X17937000Y-10881000D02*
G75*
G02*
X18017000Y-10881000I40000J0D01*
G01*
X18140000Y-11650000D02*
G75*
G02*
X18060000Y-11650000I-40000J0D01*
G01*
X18060000Y-11650000D02*
G75*
G02*
X18140000Y-11650000I40000J0D01*
G01*
X18140000Y-12412000D02*
G75*
G02*
X18060000Y-12412000I-40000J0D01*
G01*
X18060000Y-12412000D02*
G75*
G02*
X18140000Y-12412000I40000J0D01*
G01*
X18271000Y-10119000D02*
G75*
G02*
X18191000Y-10119000I-40000J0D01*
G01*
X18191000Y-10119000D02*
G75*
G02*
X18271000Y-10119000I40000J0D01*
G01*
X18271000Y-10881000D02*
G75*
G02*
X18191000Y-10881000I-40000J0D01*
G01*
X18191000Y-10881000D02*
G75*
G02*
X18271000Y-10881000I40000J0D01*
G01*
X18302000Y-9500000D02*
G75*
G02*
X18222000Y-9500000I-40000J0D01*
G01*
X18222000Y-9500000D02*
G75*
G02*
X18302000Y-9500000I40000J0D01*
G01*
X10746000Y-6705000D02*
X10746000Y-6795000D01*
X10701000Y-6750000D02*
X10791000Y-6750000D01*
X11000000Y-6705000D02*
X11000000Y-6795000D01*
X10955000Y-6750000D02*
X11045000Y-6750000D01*
X11996000Y-6705000D02*
X11996000Y-6795000D01*
X11951000Y-6750000D02*
X12041000Y-6750000D01*
X12250000Y-6705000D02*
X12250000Y-6795000D01*
X12205000Y-6750000D02*
X12295000Y-6750000D01*
X13246000Y-6705000D02*
X13246000Y-6795000D01*
X13201000Y-6750000D02*
X13291000Y-6750000D01*
X13500000Y-6705000D02*
X13500000Y-6795000D01*
X13455000Y-6750000D02*
X13545000Y-6750000D01*
X14500000Y-6705000D02*
X14500000Y-6795000D01*
X14455000Y-6750000D02*
X14545000Y-6750000D01*
X14754000Y-6705000D02*
X14754000Y-6795000D01*
X14709000Y-6750000D02*
X14799000Y-6750000D01*
X15750000Y-6705000D02*
X15750000Y-6795000D01*
X15705000Y-6750000D02*
X15795000Y-6750000D01*
X16004000Y-6705000D02*
X16004000Y-6795000D01*
X15959000Y-6750000D02*
X16049000Y-6750000D01*
X17000000Y-6705000D02*
X17000000Y-6795000D01*
X16955000Y-6750000D02*
X17045000Y-6750000D01*
X17254000Y-6705000D02*
X17254000Y-6795000D01*
X17209000Y-6750000D02*
X17299000Y-6750000D01*
X18250000Y-6705000D02*
X18250000Y-6795000D01*
X18205000Y-6750000D02*
X18295000Y-6750000D01*
X18504000Y-6705000D02*
X18504000Y-6795000D01*
X18459000Y-6750000D02*
X18549000Y-6750000D01*
X19500000Y-6705000D02*
X19500000Y-6795000D01*
X19455000Y-6750000D02*
X19545000Y-6750000D01*
X19754000Y-6705000D02*
X19754000Y-6795000D01*
X19709000Y-6750000D02*
X19799000Y-6750000D01*
X10585356Y-11785356D02*
X10585356Y-11714644D01*
X10514644Y-11714644D01*
X10514644Y-11785356D01*
X10585356Y-11785356D01*
X10625000Y-11700000D02*
X10475000Y-11700000D01*
X10475000Y-11800000D02*
G75*
G02*
X10475000Y-11700000I0J50000D01*
G01*
X10475000Y-11800000D02*
X10625000Y-11800000D01*
X10625000Y-11800000D02*
G75*
G03*
X10625000Y-11700000I0J50000D01*
G01*
X10585356Y-12685356D02*
X10585356Y-12614644D01*
X10514644Y-12614644D01*
X10514644Y-12685356D01*
X10585356Y-12685356D01*
X10625000Y-12600000D02*
X10475000Y-12600000D01*
X10475000Y-12700000D02*
G75*
G02*
X10475000Y-12600000I0J50000D01*
G01*
X10475000Y-12700000D02*
X10625000Y-12700000D01*
X10625000Y-12700000D02*
G75*
G03*
X10625000Y-12600000I0J50000D01*
G01*
X10685356Y-12235356D02*
X10685356Y-12164644D01*
X10614644Y-12164644D01*
X10614644Y-12235356D01*
X10685356Y-12235356D01*
X10600000Y-12135000D02*
X10600000Y-12265000D01*
X10700000Y-12265000D02*
G75*
G02*
X10600000Y-12265000I-50000J0D01*
G01*
X10700000Y-12265000D02*
X10700000Y-12135000D01*
X10700000Y-12135000D02*
G75*
G03*
X10600000Y-12135000I-50000J0D01*
G01*
X11285356Y-12235356D02*
X11285356Y-12164644D01*
X11214644Y-12164644D01*
X11214644Y-12235356D01*
X11285356Y-12235356D01*
X11200000Y-12100000D02*
X11200000Y-12300000D01*
X11300000Y-12300000D02*
G75*
G02*
X11200000Y-12300000I-50000J0D01*
G01*
X11300000Y-12300000D02*
X11300000Y-12100000D01*
X11300000Y-12100000D02*
G75*
G03*
X11200000Y-12100000I-50000J0D01*
G01*
X12560356Y-11610356D02*
X12560356Y-11539644D01*
X12489644Y-11539644D01*
X12489644Y-11610356D01*
X12560356Y-11610356D01*
X13060356Y-11610356D02*
X13060356Y-11539644D01*
X12989644Y-11539644D01*
X12989644Y-11610356D01*
X13060356Y-11610356D01*
X18785356Y-9535356D02*
X18785356Y-9464644D01*
X18714644Y-9464644D01*
X18714644Y-9535356D01*
X18785356Y-9535356D01*
X18785356Y-10035356D02*
X18785356Y-9964644D01*
X18714644Y-9964644D01*
X18714644Y-10035356D01*
X18785356Y-10035356D01*
X18785356Y-10385356D02*
X18785356Y-10314644D01*
X18714644Y-10314644D01*
X18714644Y-10385356D01*
X18785356Y-10385356D01*
X18785356Y-10885356D02*
X18785356Y-10814644D01*
X18714644Y-10814644D01*
X18714644Y-10885356D01*
X18785356Y-10885356D01*
D13*
X12000000Y-12255000D02*
X12055000Y-12200000D01*
X12000000Y-12145000D01*
X11945000Y-12200000D01*
X12000000Y-12255000D01*
X13016000Y-12255000D02*
X13071000Y-12200000D01*
X13016000Y-12145000D01*
X12961000Y-12200000D01*
X13016000Y-12255000D01*
D11*
X10258277Y-13313984D02*
X10258277Y-13113984D01*
X10258277Y-13113984D02*
X10305896Y-13113984D01*
X10305896Y-13113984D02*
X10334467Y-13123508D01*
X10334467Y-13123508D02*
X10353515Y-13142555D01*
X10353515Y-13142555D02*
X10363039Y-13161603D01*
X10363039Y-13161603D02*
X10372563Y-13199698D01*
X10372563Y-13199698D02*
X10372563Y-13228269D01*
X10372563Y-13228269D02*
X10363039Y-13266365D01*
X10363039Y-13266365D02*
X10353515Y-13285412D01*
X10353515Y-13285412D02*
X10334467Y-13304460D01*
X10334467Y-13304460D02*
X10305896Y-13313984D01*
X10305896Y-13313984D02*
X10258277Y-13313984D01*
X10458277Y-13313984D02*
X10458277Y-13180650D01*
X10458277Y-13218746D02*
X10467801Y-13199698D01*
X10467801Y-13199698D02*
X10477324Y-13190174D01*
X10477324Y-13190174D02*
X10496372Y-13180650D01*
X10496372Y-13180650D02*
X10515420Y-13180650D01*
X10582086Y-13313984D02*
X10582086Y-13180650D01*
X10582086Y-13113984D02*
X10572563Y-13123508D01*
X10572563Y-13123508D02*
X10582086Y-13133031D01*
X10582086Y-13133031D02*
X10591610Y-13123508D01*
X10591610Y-13123508D02*
X10582086Y-13113984D01*
X10582086Y-13113984D02*
X10582086Y-13133031D01*
X10705896Y-13313984D02*
X10686848Y-13304460D01*
X10686848Y-13304460D02*
X10677324Y-13285412D01*
X10677324Y-13285412D02*
X10677324Y-13113984D01*
X10810658Y-13313984D02*
X10791610Y-13304460D01*
X10791610Y-13304460D02*
X10782086Y-13285412D01*
X10782086Y-13285412D02*
X10782086Y-13113984D01*
X11039229Y-13313984D02*
X11039229Y-13113984D01*
X11039229Y-13113984D02*
X11105896Y-13256841D01*
X11105896Y-13256841D02*
X11172563Y-13113984D01*
X11172563Y-13113984D02*
X11172563Y-13313984D01*
X11353515Y-13313984D02*
X11353515Y-13209222D01*
X11353515Y-13209222D02*
X11343991Y-13190174D01*
X11343991Y-13190174D02*
X11324943Y-13180650D01*
X11324943Y-13180650D02*
X11286848Y-13180650D01*
X11286848Y-13180650D02*
X11267801Y-13190174D01*
X11353515Y-13304460D02*
X11334467Y-13313984D01*
X11334467Y-13313984D02*
X11286848Y-13313984D01*
X11286848Y-13313984D02*
X11267801Y-13304460D01*
X11267801Y-13304460D02*
X11258277Y-13285412D01*
X11258277Y-13285412D02*
X11258277Y-13266365D01*
X11258277Y-13266365D02*
X11267801Y-13247317D01*
X11267801Y-13247317D02*
X11286848Y-13237793D01*
X11286848Y-13237793D02*
X11334467Y-13237793D01*
X11334467Y-13237793D02*
X11353515Y-13228269D01*
X11448753Y-13180650D02*
X11448753Y-13380650D01*
X11448753Y-13190174D02*
X11467801Y-13180650D01*
X11467801Y-13180650D02*
X11505896Y-13180650D01*
X11505896Y-13180650D02*
X11524943Y-13190174D01*
X11524943Y-13190174D02*
X11534467Y-13199698D01*
X11534467Y-13199698D02*
X11543991Y-13218746D01*
X11543991Y-13218746D02*
X11543991Y-13275888D01*
X11543991Y-13275888D02*
X11534467Y-13294936D01*
X11534467Y-13294936D02*
X11524943Y-13304460D01*
X11524943Y-13304460D02*
X11505896Y-13313984D01*
X11505896Y-13313984D02*
X11467801Y-13313984D01*
X11467801Y-13313984D02*
X11448753Y-13304460D01*
X11629705Y-13294936D02*
X11639229Y-13304460D01*
X11639229Y-13304460D02*
X11629705Y-13313984D01*
X11629705Y-13313984D02*
X11620182Y-13304460D01*
X11620182Y-13304460D02*
X11629705Y-13294936D01*
X11629705Y-13294936D02*
X11629705Y-13313984D01*
X11629705Y-13190174D02*
X11639229Y-13199698D01*
X11639229Y-13199698D02*
X11629705Y-13209222D01*
X11629705Y-13209222D02*
X11620182Y-13199698D01*
X11620182Y-13199698D02*
X11629705Y-13190174D01*
X11629705Y-13190174D02*
X11629705Y-13209222D01*
D12*
X9967500Y-13627500D02*
X9997500Y-13657500D01*
X9997500Y-13627500D02*
X9967500Y-13657500D01*
D11*
X10296372Y-13533984D02*
X10315420Y-13533984D01*
X10315420Y-13533984D02*
X10334467Y-13543508D01*
X10334467Y-13543508D02*
X10343991Y-13553031D01*
X10343991Y-13553031D02*
X10353515Y-13572079D01*
X10353515Y-13572079D02*
X10363039Y-13610174D01*
X10363039Y-13610174D02*
X10363039Y-13657793D01*
X10363039Y-13657793D02*
X10353515Y-13695888D01*
X10353515Y-13695888D02*
X10343991Y-13714936D01*
X10343991Y-13714936D02*
X10334467Y-13724460D01*
X10334467Y-13724460D02*
X10315420Y-13733984D01*
X10315420Y-13733984D02*
X10296372Y-13733984D01*
X10296372Y-13733984D02*
X10277324Y-13724460D01*
X10277324Y-13724460D02*
X10267801Y-13714936D01*
X10267801Y-13714936D02*
X10258277Y-13695888D01*
X10258277Y-13695888D02*
X10248753Y-13657793D01*
X10248753Y-13657793D02*
X10248753Y-13610174D01*
X10248753Y-13610174D02*
X10258277Y-13572079D01*
X10258277Y-13572079D02*
X10267801Y-13553031D01*
X10267801Y-13553031D02*
X10277324Y-13543508D01*
X10277324Y-13543508D02*
X10296372Y-13533984D01*
X10448753Y-13714936D02*
X10458277Y-13724460D01*
X10458277Y-13724460D02*
X10448753Y-13733984D01*
X10448753Y-13733984D02*
X10439229Y-13724460D01*
X10439229Y-13724460D02*
X10448753Y-13714936D01*
X10448753Y-13714936D02*
X10448753Y-13733984D01*
X10524944Y-13533984D02*
X10648753Y-13533984D01*
X10648753Y-13533984D02*
X10582086Y-13610174D01*
X10582086Y-13610174D02*
X10610658Y-13610174D01*
X10610658Y-13610174D02*
X10629705Y-13619698D01*
X10629705Y-13619698D02*
X10639229Y-13629222D01*
X10639229Y-13629222D02*
X10648753Y-13648269D01*
X10648753Y-13648269D02*
X10648753Y-13695888D01*
X10648753Y-13695888D02*
X10639229Y-13714936D01*
X10639229Y-13714936D02*
X10629705Y-13724460D01*
X10629705Y-13724460D02*
X10610658Y-13733984D01*
X10610658Y-13733984D02*
X10553515Y-13733984D01*
X10553515Y-13733984D02*
X10534467Y-13724460D01*
X10534467Y-13724460D02*
X10524944Y-13714936D01*
X10772563Y-13533984D02*
X10791610Y-13533984D01*
X10791610Y-13533984D02*
X10810658Y-13543508D01*
X10810658Y-13543508D02*
X10820182Y-13553031D01*
X10820182Y-13553031D02*
X10829705Y-13572079D01*
X10829705Y-13572079D02*
X10839229Y-13610174D01*
X10839229Y-13610174D02*
X10839229Y-13657793D01*
X10839229Y-13657793D02*
X10829705Y-13695888D01*
X10829705Y-13695888D02*
X10820182Y-13714936D01*
X10820182Y-13714936D02*
X10810658Y-13724460D01*
X10810658Y-13724460D02*
X10791610Y-13733984D01*
X10791610Y-13733984D02*
X10772563Y-13733984D01*
X10772563Y-13733984D02*
X10753515Y-13724460D01*
X10753515Y-13724460D02*
X10743991Y-13714936D01*
X10743991Y-13714936D02*
X10734467Y-13695888D01*
X10734467Y-13695888D02*
X10724944Y-13657793D01*
X10724944Y-13657793D02*
X10724944Y-13610174D01*
X10724944Y-13610174D02*
X10734467Y-13572079D01*
X10734467Y-13572079D02*
X10743991Y-13553031D01*
X10743991Y-13553031D02*
X10753515Y-13543508D01*
X10753515Y-13543508D02*
X10772563Y-13533984D01*
X10963039Y-13533984D02*
X10982086Y-13533984D01*
X10982086Y-13533984D02*
X11001134Y-13543508D01*
X11001134Y-13543508D02*
X11010658Y-13553031D01*
X11010658Y-13553031D02*
X11020182Y-13572079D01*
X11020182Y-13572079D02*
X11029705Y-13610174D01*
X11029705Y-13610174D02*
X11029705Y-13657793D01*
X11029705Y-13657793D02*
X11020182Y-13695888D01*
X11020182Y-13695888D02*
X11010658Y-13714936D01*
X11010658Y-13714936D02*
X11001134Y-13724460D01*
X11001134Y-13724460D02*
X10982086Y-13733984D01*
X10982086Y-13733984D02*
X10963039Y-13733984D01*
X10963039Y-13733984D02*
X10943991Y-13724460D01*
X10943991Y-13724460D02*
X10934467Y-13714936D01*
X10934467Y-13714936D02*
X10924944Y-13695888D01*
X10924944Y-13695888D02*
X10915420Y-13657793D01*
X10915420Y-13657793D02*
X10915420Y-13610174D01*
X10915420Y-13610174D02*
X10924944Y-13572079D01*
X10924944Y-13572079D02*
X10934467Y-13553031D01*
X10934467Y-13553031D02*
X10943991Y-13543508D01*
X10943991Y-13543508D02*
X10963039Y-13533984D01*
X11115420Y-13733984D02*
X11115420Y-13600650D01*
X11115420Y-13619698D02*
X11124944Y-13610174D01*
X11124944Y-13610174D02*
X11143991Y-13600650D01*
X11143991Y-13600650D02*
X11172563Y-13600650D01*
X11172563Y-13600650D02*
X11191610Y-13610174D01*
X11191610Y-13610174D02*
X11201134Y-13629222D01*
X11201134Y-13629222D02*
X11201134Y-13733984D01*
X11201134Y-13629222D02*
X11210658Y-13610174D01*
X11210658Y-13610174D02*
X11229705Y-13600650D01*
X11229705Y-13600650D02*
X11258277Y-13600650D01*
X11258277Y-13600650D02*
X11277324Y-13610174D01*
X11277324Y-13610174D02*
X11286848Y-13629222D01*
X11286848Y-13629222D02*
X11286848Y-13733984D01*
X11382086Y-13733984D02*
X11382086Y-13600650D01*
X11382086Y-13619698D02*
X11391610Y-13610174D01*
X11391610Y-13610174D02*
X11410658Y-13600650D01*
X11410658Y-13600650D02*
X11439229Y-13600650D01*
X11439229Y-13600650D02*
X11458277Y-13610174D01*
X11458277Y-13610174D02*
X11467801Y-13629222D01*
X11467801Y-13629222D02*
X11467801Y-13733984D01*
X11467801Y-13629222D02*
X11477324Y-13610174D01*
X11477324Y-13610174D02*
X11496372Y-13600650D01*
X11496372Y-13600650D02*
X11524943Y-13600650D01*
X11524943Y-13600650D02*
X11543991Y-13610174D01*
X11543991Y-13610174D02*
X11553515Y-13629222D01*
X11553515Y-13629222D02*
X11553515Y-13733984D01*
X11943991Y-13524460D02*
X11772563Y-13781603D01*
X12201134Y-13533984D02*
X12220182Y-13533984D01*
X12220182Y-13533984D02*
X12239229Y-13543508D01*
X12239229Y-13543508D02*
X12248753Y-13553031D01*
X12248753Y-13553031D02*
X12258277Y-13572079D01*
X12258277Y-13572079D02*
X12267801Y-13610174D01*
X12267801Y-13610174D02*
X12267801Y-13657793D01*
X12267801Y-13657793D02*
X12258277Y-13695888D01*
X12258277Y-13695888D02*
X12248753Y-13714936D01*
X12248753Y-13714936D02*
X12239229Y-13724460D01*
X12239229Y-13724460D02*
X12220182Y-13733984D01*
X12220182Y-13733984D02*
X12201134Y-13733984D01*
X12201134Y-13733984D02*
X12182086Y-13724460D01*
X12182086Y-13724460D02*
X12172563Y-13714936D01*
X12172563Y-13714936D02*
X12163039Y-13695888D01*
X12163039Y-13695888D02*
X12153515Y-13657793D01*
X12153515Y-13657793D02*
X12153515Y-13610174D01*
X12153515Y-13610174D02*
X12163039Y-13572079D01*
X12163039Y-13572079D02*
X12172563Y-13553031D01*
X12172563Y-13553031D02*
X12182086Y-13543508D01*
X12182086Y-13543508D02*
X12201134Y-13533984D01*
X12353515Y-13714936D02*
X12363039Y-13724460D01*
X12363039Y-13724460D02*
X12353515Y-13733984D01*
X12353515Y-13733984D02*
X12343991Y-13724460D01*
X12343991Y-13724460D02*
X12353515Y-13714936D01*
X12353515Y-13714936D02*
X12353515Y-13733984D01*
X12486848Y-13533984D02*
X12505896Y-13533984D01*
X12505896Y-13533984D02*
X12524944Y-13543508D01*
X12524944Y-13543508D02*
X12534467Y-13553031D01*
X12534467Y-13553031D02*
X12543991Y-13572079D01*
X12543991Y-13572079D02*
X12553515Y-13610174D01*
X12553515Y-13610174D02*
X12553515Y-13657793D01*
X12553515Y-13657793D02*
X12543991Y-13695888D01*
X12543991Y-13695888D02*
X12534467Y-13714936D01*
X12534467Y-13714936D02*
X12524944Y-13724460D01*
X12524944Y-13724460D02*
X12505896Y-13733984D01*
X12505896Y-13733984D02*
X12486848Y-13733984D01*
X12486848Y-13733984D02*
X12467801Y-13724460D01*
X12467801Y-13724460D02*
X12458277Y-13714936D01*
X12458277Y-13714936D02*
X12448753Y-13695888D01*
X12448753Y-13695888D02*
X12439229Y-13657793D01*
X12439229Y-13657793D02*
X12439229Y-13610174D01*
X12439229Y-13610174D02*
X12448753Y-13572079D01*
X12448753Y-13572079D02*
X12458277Y-13553031D01*
X12458277Y-13553031D02*
X12467801Y-13543508D01*
X12467801Y-13543508D02*
X12486848Y-13533984D01*
X12743991Y-13733984D02*
X12629706Y-13733984D01*
X12686848Y-13733984D02*
X12686848Y-13533984D01*
X12686848Y-13533984D02*
X12667801Y-13562555D01*
X12667801Y-13562555D02*
X12648753Y-13581603D01*
X12648753Y-13581603D02*
X12629706Y-13591127D01*
X12934467Y-13733984D02*
X12820182Y-13733984D01*
X12877325Y-13733984D02*
X12877325Y-13533984D01*
X12877325Y-13533984D02*
X12858277Y-13562555D01*
X12858277Y-13562555D02*
X12839229Y-13581603D01*
X12839229Y-13581603D02*
X12820182Y-13591127D01*
X13048753Y-13619698D02*
X13029706Y-13610174D01*
X13029706Y-13610174D02*
X13020182Y-13600650D01*
X13020182Y-13600650D02*
X13010658Y-13581603D01*
X13010658Y-13581603D02*
X13010658Y-13572079D01*
X13010658Y-13572079D02*
X13020182Y-13553031D01*
X13020182Y-13553031D02*
X13029706Y-13543508D01*
X13029706Y-13543508D02*
X13048753Y-13533984D01*
X13048753Y-13533984D02*
X13086848Y-13533984D01*
X13086848Y-13533984D02*
X13105896Y-13543508D01*
X13105896Y-13543508D02*
X13115420Y-13553031D01*
X13115420Y-13553031D02*
X13124944Y-13572079D01*
X13124944Y-13572079D02*
X13124944Y-13581603D01*
X13124944Y-13581603D02*
X13115420Y-13600650D01*
X13115420Y-13600650D02*
X13105896Y-13610174D01*
X13105896Y-13610174D02*
X13086848Y-13619698D01*
X13086848Y-13619698D02*
X13048753Y-13619698D01*
X13048753Y-13619698D02*
X13029706Y-13629222D01*
X13029706Y-13629222D02*
X13020182Y-13638746D01*
X13020182Y-13638746D02*
X13010658Y-13657793D01*
X13010658Y-13657793D02*
X13010658Y-13695888D01*
X13010658Y-13695888D02*
X13020182Y-13714936D01*
X13020182Y-13714936D02*
X13029706Y-13724460D01*
X13029706Y-13724460D02*
X13048753Y-13733984D01*
X13048753Y-13733984D02*
X13086848Y-13733984D01*
X13086848Y-13733984D02*
X13105896Y-13724460D01*
X13105896Y-13724460D02*
X13115420Y-13714936D01*
X13115420Y-13714936D02*
X13124944Y-13695888D01*
X13124944Y-13695888D02*
X13124944Y-13657793D01*
X13124944Y-13657793D02*
X13115420Y-13638746D01*
X13115420Y-13638746D02*
X13105896Y-13629222D01*
X13105896Y-13629222D02*
X13086848Y-13619698D01*
X13201134Y-13533984D02*
X13201134Y-13572079D01*
X13277325Y-13533984D02*
X13277325Y-13572079D01*
X13572563Y-13810174D02*
X13563039Y-13800650D01*
X13563039Y-13800650D02*
X13543991Y-13772079D01*
X13543991Y-13772079D02*
X13534468Y-13753031D01*
X13534468Y-13753031D02*
X13524944Y-13724460D01*
X13524944Y-13724460D02*
X13515420Y-13676841D01*
X13515420Y-13676841D02*
X13515420Y-13638746D01*
X13515420Y-13638746D02*
X13524944Y-13591127D01*
X13524944Y-13591127D02*
X13534468Y-13562555D01*
X13534468Y-13562555D02*
X13543991Y-13543508D01*
X13543991Y-13543508D02*
X13563039Y-13514936D01*
X13563039Y-13514936D02*
X13572563Y-13505412D01*
X13639229Y-13553031D02*
X13648753Y-13543508D01*
X13648753Y-13543508D02*
X13667801Y-13533984D01*
X13667801Y-13533984D02*
X13715420Y-13533984D01*
X13715420Y-13533984D02*
X13734468Y-13543508D01*
X13734468Y-13543508D02*
X13743991Y-13553031D01*
X13743991Y-13553031D02*
X13753515Y-13572079D01*
X13753515Y-13572079D02*
X13753515Y-13591127D01*
X13753515Y-13591127D02*
X13743991Y-13619698D01*
X13743991Y-13619698D02*
X13629706Y-13733984D01*
X13629706Y-13733984D02*
X13753515Y-13733984D01*
X13991610Y-13733984D02*
X13991610Y-13533984D01*
X14077325Y-13733984D02*
X14077325Y-13629222D01*
X14077325Y-13629222D02*
X14067801Y-13610174D01*
X14067801Y-13610174D02*
X14048753Y-13600650D01*
X14048753Y-13600650D02*
X14020182Y-13600650D01*
X14020182Y-13600650D02*
X14001134Y-13610174D01*
X14001134Y-13610174D02*
X13991610Y-13619698D01*
X14201134Y-13733984D02*
X14182087Y-13724460D01*
X14182087Y-13724460D02*
X14172563Y-13714936D01*
X14172563Y-13714936D02*
X14163039Y-13695888D01*
X14163039Y-13695888D02*
X14163039Y-13638746D01*
X14163039Y-13638746D02*
X14172563Y-13619698D01*
X14172563Y-13619698D02*
X14182087Y-13610174D01*
X14182087Y-13610174D02*
X14201134Y-13600650D01*
X14201134Y-13600650D02*
X14229706Y-13600650D01*
X14229706Y-13600650D02*
X14248753Y-13610174D01*
X14248753Y-13610174D02*
X14258277Y-13619698D01*
X14258277Y-13619698D02*
X14267801Y-13638746D01*
X14267801Y-13638746D02*
X14267801Y-13695888D01*
X14267801Y-13695888D02*
X14258277Y-13714936D01*
X14258277Y-13714936D02*
X14248753Y-13724460D01*
X14248753Y-13724460D02*
X14229706Y-13733984D01*
X14229706Y-13733984D02*
X14201134Y-13733984D01*
X14382087Y-13733984D02*
X14363039Y-13724460D01*
X14363039Y-13724460D02*
X14353515Y-13705412D01*
X14353515Y-13705412D02*
X14353515Y-13533984D01*
X14534468Y-13724460D02*
X14515420Y-13733984D01*
X14515420Y-13733984D02*
X14477325Y-13733984D01*
X14477325Y-13733984D02*
X14458277Y-13724460D01*
X14458277Y-13724460D02*
X14448753Y-13705412D01*
X14448753Y-13705412D02*
X14448753Y-13629222D01*
X14448753Y-13629222D02*
X14458277Y-13610174D01*
X14458277Y-13610174D02*
X14477325Y-13600650D01*
X14477325Y-13600650D02*
X14515420Y-13600650D01*
X14515420Y-13600650D02*
X14534468Y-13610174D01*
X14534468Y-13610174D02*
X14543991Y-13629222D01*
X14543991Y-13629222D02*
X14543991Y-13648269D01*
X14543991Y-13648269D02*
X14448753Y-13667317D01*
X14620182Y-13724460D02*
X14639230Y-13733984D01*
X14639230Y-13733984D02*
X14677325Y-13733984D01*
X14677325Y-13733984D02*
X14696372Y-13724460D01*
X14696372Y-13724460D02*
X14705896Y-13705412D01*
X14705896Y-13705412D02*
X14705896Y-13695888D01*
X14705896Y-13695888D02*
X14696372Y-13676841D01*
X14696372Y-13676841D02*
X14677325Y-13667317D01*
X14677325Y-13667317D02*
X14648753Y-13667317D01*
X14648753Y-13667317D02*
X14629706Y-13657793D01*
X14629706Y-13657793D02*
X14620182Y-13638746D01*
X14620182Y-13638746D02*
X14620182Y-13629222D01*
X14620182Y-13629222D02*
X14629706Y-13610174D01*
X14629706Y-13610174D02*
X14648753Y-13600650D01*
X14648753Y-13600650D02*
X14677325Y-13600650D01*
X14677325Y-13600650D02*
X14696372Y-13610174D01*
X14772563Y-13810174D02*
X14782087Y-13800650D01*
X14782087Y-13800650D02*
X14801134Y-13772079D01*
X14801134Y-13772079D02*
X14810658Y-13753031D01*
X14810658Y-13753031D02*
X14820182Y-13724460D01*
X14820182Y-13724460D02*
X14829706Y-13676841D01*
X14829706Y-13676841D02*
X14829706Y-13638746D01*
X14829706Y-13638746D02*
X14820182Y-13591127D01*
X14820182Y-13591127D02*
X14810658Y-13562555D01*
X14810658Y-13562555D02*
X14801134Y-13543508D01*
X14801134Y-13543508D02*
X14782087Y-13514936D01*
X14782087Y-13514936D02*
X14772563Y-13505412D01*
D12*
X9997500Y-13906500D02*
G75*
G02*
X9917500Y-13906500I-40000J0D01*
G01*
X9917500Y-13906500D02*
G75*
G02*
X9997500Y-13906500I40000J0D01*
G01*
D11*
X10296372Y-13797984D02*
X10315420Y-13797984D01*
X10315420Y-13797984D02*
X10334467Y-13807508D01*
X10334467Y-13807508D02*
X10343991Y-13817031D01*
X10343991Y-13817031D02*
X10353515Y-13836079D01*
X10353515Y-13836079D02*
X10363039Y-13874174D01*
X10363039Y-13874174D02*
X10363039Y-13921793D01*
X10363039Y-13921793D02*
X10353515Y-13959888D01*
X10353515Y-13959888D02*
X10343991Y-13978936D01*
X10343991Y-13978936D02*
X10334467Y-13988460D01*
X10334467Y-13988460D02*
X10315420Y-13997984D01*
X10315420Y-13997984D02*
X10296372Y-13997984D01*
X10296372Y-13997984D02*
X10277324Y-13988460D01*
X10277324Y-13988460D02*
X10267801Y-13978936D01*
X10267801Y-13978936D02*
X10258277Y-13959888D01*
X10258277Y-13959888D02*
X10248753Y-13921793D01*
X10248753Y-13921793D02*
X10248753Y-13874174D01*
X10248753Y-13874174D02*
X10258277Y-13836079D01*
X10258277Y-13836079D02*
X10267801Y-13817031D01*
X10267801Y-13817031D02*
X10277324Y-13807508D01*
X10277324Y-13807508D02*
X10296372Y-13797984D01*
X10448753Y-13978936D02*
X10458277Y-13988460D01*
X10458277Y-13988460D02*
X10448753Y-13997984D01*
X10448753Y-13997984D02*
X10439229Y-13988460D01*
X10439229Y-13988460D02*
X10448753Y-13978936D01*
X10448753Y-13978936D02*
X10448753Y-13997984D01*
X10572563Y-13883698D02*
X10553515Y-13874174D01*
X10553515Y-13874174D02*
X10543991Y-13864650D01*
X10543991Y-13864650D02*
X10534467Y-13845603D01*
X10534467Y-13845603D02*
X10534467Y-13836079D01*
X10534467Y-13836079D02*
X10543991Y-13817031D01*
X10543991Y-13817031D02*
X10553515Y-13807508D01*
X10553515Y-13807508D02*
X10572563Y-13797984D01*
X10572563Y-13797984D02*
X10610658Y-13797984D01*
X10610658Y-13797984D02*
X10629705Y-13807508D01*
X10629705Y-13807508D02*
X10639229Y-13817031D01*
X10639229Y-13817031D02*
X10648753Y-13836079D01*
X10648753Y-13836079D02*
X10648753Y-13845603D01*
X10648753Y-13845603D02*
X10639229Y-13864650D01*
X10639229Y-13864650D02*
X10629705Y-13874174D01*
X10629705Y-13874174D02*
X10610658Y-13883698D01*
X10610658Y-13883698D02*
X10572563Y-13883698D01*
X10572563Y-13883698D02*
X10553515Y-13893222D01*
X10553515Y-13893222D02*
X10543991Y-13902746D01*
X10543991Y-13902746D02*
X10534467Y-13921793D01*
X10534467Y-13921793D02*
X10534467Y-13959888D01*
X10534467Y-13959888D02*
X10543991Y-13978936D01*
X10543991Y-13978936D02*
X10553515Y-13988460D01*
X10553515Y-13988460D02*
X10572563Y-13997984D01*
X10572563Y-13997984D02*
X10610658Y-13997984D01*
X10610658Y-13997984D02*
X10629705Y-13988460D01*
X10629705Y-13988460D02*
X10639229Y-13978936D01*
X10639229Y-13978936D02*
X10648753Y-13959888D01*
X10648753Y-13959888D02*
X10648753Y-13921793D01*
X10648753Y-13921793D02*
X10639229Y-13902746D01*
X10639229Y-13902746D02*
X10629705Y-13893222D01*
X10629705Y-13893222D02*
X10610658Y-13883698D01*
X10772563Y-13797984D02*
X10791610Y-13797984D01*
X10791610Y-13797984D02*
X10810658Y-13807508D01*
X10810658Y-13807508D02*
X10820182Y-13817031D01*
X10820182Y-13817031D02*
X10829705Y-13836079D01*
X10829705Y-13836079D02*
X10839229Y-13874174D01*
X10839229Y-13874174D02*
X10839229Y-13921793D01*
X10839229Y-13921793D02*
X10829705Y-13959888D01*
X10829705Y-13959888D02*
X10820182Y-13978936D01*
X10820182Y-13978936D02*
X10810658Y-13988460D01*
X10810658Y-13988460D02*
X10791610Y-13997984D01*
X10791610Y-13997984D02*
X10772563Y-13997984D01*
X10772563Y-13997984D02*
X10753515Y-13988460D01*
X10753515Y-13988460D02*
X10743991Y-13978936D01*
X10743991Y-13978936D02*
X10734467Y-13959888D01*
X10734467Y-13959888D02*
X10724944Y-13921793D01*
X10724944Y-13921793D02*
X10724944Y-13874174D01*
X10724944Y-13874174D02*
X10734467Y-13836079D01*
X10734467Y-13836079D02*
X10743991Y-13817031D01*
X10743991Y-13817031D02*
X10753515Y-13807508D01*
X10753515Y-13807508D02*
X10772563Y-13797984D01*
X10963039Y-13797984D02*
X10982086Y-13797984D01*
X10982086Y-13797984D02*
X11001134Y-13807508D01*
X11001134Y-13807508D02*
X11010658Y-13817031D01*
X11010658Y-13817031D02*
X11020182Y-13836079D01*
X11020182Y-13836079D02*
X11029705Y-13874174D01*
X11029705Y-13874174D02*
X11029705Y-13921793D01*
X11029705Y-13921793D02*
X11020182Y-13959888D01*
X11020182Y-13959888D02*
X11010658Y-13978936D01*
X11010658Y-13978936D02*
X11001134Y-13988460D01*
X11001134Y-13988460D02*
X10982086Y-13997984D01*
X10982086Y-13997984D02*
X10963039Y-13997984D01*
X10963039Y-13997984D02*
X10943991Y-13988460D01*
X10943991Y-13988460D02*
X10934467Y-13978936D01*
X10934467Y-13978936D02*
X10924944Y-13959888D01*
X10924944Y-13959888D02*
X10915420Y-13921793D01*
X10915420Y-13921793D02*
X10915420Y-13874174D01*
X10915420Y-13874174D02*
X10924944Y-13836079D01*
X10924944Y-13836079D02*
X10934467Y-13817031D01*
X10934467Y-13817031D02*
X10943991Y-13807508D01*
X10943991Y-13807508D02*
X10963039Y-13797984D01*
X11115420Y-13997984D02*
X11115420Y-13864650D01*
X11115420Y-13883698D02*
X11124944Y-13874174D01*
X11124944Y-13874174D02*
X11143991Y-13864650D01*
X11143991Y-13864650D02*
X11172563Y-13864650D01*
X11172563Y-13864650D02*
X11191610Y-13874174D01*
X11191610Y-13874174D02*
X11201134Y-13893222D01*
X11201134Y-13893222D02*
X11201134Y-13997984D01*
X11201134Y-13893222D02*
X11210658Y-13874174D01*
X11210658Y-13874174D02*
X11229705Y-13864650D01*
X11229705Y-13864650D02*
X11258277Y-13864650D01*
X11258277Y-13864650D02*
X11277324Y-13874174D01*
X11277324Y-13874174D02*
X11286848Y-13893222D01*
X11286848Y-13893222D02*
X11286848Y-13997984D01*
X11382086Y-13997984D02*
X11382086Y-13864650D01*
X11382086Y-13883698D02*
X11391610Y-13874174D01*
X11391610Y-13874174D02*
X11410658Y-13864650D01*
X11410658Y-13864650D02*
X11439229Y-13864650D01*
X11439229Y-13864650D02*
X11458277Y-13874174D01*
X11458277Y-13874174D02*
X11467801Y-13893222D01*
X11467801Y-13893222D02*
X11467801Y-13997984D01*
X11467801Y-13893222D02*
X11477324Y-13874174D01*
X11477324Y-13874174D02*
X11496372Y-13864650D01*
X11496372Y-13864650D02*
X11524943Y-13864650D01*
X11524943Y-13864650D02*
X11543991Y-13874174D01*
X11543991Y-13874174D02*
X11553515Y-13893222D01*
X11553515Y-13893222D02*
X11553515Y-13997984D01*
X11943991Y-13788460D02*
X11772563Y-14045603D01*
X12201134Y-13797984D02*
X12220182Y-13797984D01*
X12220182Y-13797984D02*
X12239229Y-13807508D01*
X12239229Y-13807508D02*
X12248753Y-13817031D01*
X12248753Y-13817031D02*
X12258277Y-13836079D01*
X12258277Y-13836079D02*
X12267801Y-13874174D01*
X12267801Y-13874174D02*
X12267801Y-13921793D01*
X12267801Y-13921793D02*
X12258277Y-13959888D01*
X12258277Y-13959888D02*
X12248753Y-13978936D01*
X12248753Y-13978936D02*
X12239229Y-13988460D01*
X12239229Y-13988460D02*
X12220182Y-13997984D01*
X12220182Y-13997984D02*
X12201134Y-13997984D01*
X12201134Y-13997984D02*
X12182086Y-13988460D01*
X12182086Y-13988460D02*
X12172563Y-13978936D01*
X12172563Y-13978936D02*
X12163039Y-13959888D01*
X12163039Y-13959888D02*
X12153515Y-13921793D01*
X12153515Y-13921793D02*
X12153515Y-13874174D01*
X12153515Y-13874174D02*
X12163039Y-13836079D01*
X12163039Y-13836079D02*
X12172563Y-13817031D01*
X12172563Y-13817031D02*
X12182086Y-13807508D01*
X12182086Y-13807508D02*
X12201134Y-13797984D01*
X12353515Y-13978936D02*
X12363039Y-13988460D01*
X12363039Y-13988460D02*
X12353515Y-13997984D01*
X12353515Y-13997984D02*
X12343991Y-13988460D01*
X12343991Y-13988460D02*
X12353515Y-13978936D01*
X12353515Y-13978936D02*
X12353515Y-13997984D01*
X12486848Y-13797984D02*
X12505896Y-13797984D01*
X12505896Y-13797984D02*
X12524944Y-13807508D01*
X12524944Y-13807508D02*
X12534467Y-13817031D01*
X12534467Y-13817031D02*
X12543991Y-13836079D01*
X12543991Y-13836079D02*
X12553515Y-13874174D01*
X12553515Y-13874174D02*
X12553515Y-13921793D01*
X12553515Y-13921793D02*
X12543991Y-13959888D01*
X12543991Y-13959888D02*
X12534467Y-13978936D01*
X12534467Y-13978936D02*
X12524944Y-13988460D01*
X12524944Y-13988460D02*
X12505896Y-13997984D01*
X12505896Y-13997984D02*
X12486848Y-13997984D01*
X12486848Y-13997984D02*
X12467801Y-13988460D01*
X12467801Y-13988460D02*
X12458277Y-13978936D01*
X12458277Y-13978936D02*
X12448753Y-13959888D01*
X12448753Y-13959888D02*
X12439229Y-13921793D01*
X12439229Y-13921793D02*
X12439229Y-13874174D01*
X12439229Y-13874174D02*
X12448753Y-13836079D01*
X12448753Y-13836079D02*
X12458277Y-13817031D01*
X12458277Y-13817031D02*
X12467801Y-13807508D01*
X12467801Y-13807508D02*
X12486848Y-13797984D01*
X12620182Y-13797984D02*
X12743991Y-13797984D01*
X12743991Y-13797984D02*
X12677325Y-13874174D01*
X12677325Y-13874174D02*
X12705896Y-13874174D01*
X12705896Y-13874174D02*
X12724944Y-13883698D01*
X12724944Y-13883698D02*
X12734467Y-13893222D01*
X12734467Y-13893222D02*
X12743991Y-13912269D01*
X12743991Y-13912269D02*
X12743991Y-13959888D01*
X12743991Y-13959888D02*
X12734467Y-13978936D01*
X12734467Y-13978936D02*
X12724944Y-13988460D01*
X12724944Y-13988460D02*
X12705896Y-13997984D01*
X12705896Y-13997984D02*
X12648753Y-13997984D01*
X12648753Y-13997984D02*
X12629706Y-13988460D01*
X12629706Y-13988460D02*
X12620182Y-13978936D01*
X12934467Y-13997984D02*
X12820182Y-13997984D01*
X12877325Y-13997984D02*
X12877325Y-13797984D01*
X12877325Y-13797984D02*
X12858277Y-13826555D01*
X12858277Y-13826555D02*
X12839229Y-13845603D01*
X12839229Y-13845603D02*
X12820182Y-13855127D01*
X13115420Y-13797984D02*
X13020182Y-13797984D01*
X13020182Y-13797984D02*
X13010658Y-13893222D01*
X13010658Y-13893222D02*
X13020182Y-13883698D01*
X13020182Y-13883698D02*
X13039229Y-13874174D01*
X13039229Y-13874174D02*
X13086848Y-13874174D01*
X13086848Y-13874174D02*
X13105896Y-13883698D01*
X13105896Y-13883698D02*
X13115420Y-13893222D01*
X13115420Y-13893222D02*
X13124944Y-13912269D01*
X13124944Y-13912269D02*
X13124944Y-13959888D01*
X13124944Y-13959888D02*
X13115420Y-13978936D01*
X13115420Y-13978936D02*
X13105896Y-13988460D01*
X13105896Y-13988460D02*
X13086848Y-13997984D01*
X13086848Y-13997984D02*
X13039229Y-13997984D01*
X13039229Y-13997984D02*
X13020182Y-13988460D01*
X13020182Y-13988460D02*
X13010658Y-13978936D01*
X13201134Y-13797984D02*
X13201134Y-13836079D01*
X13277325Y-13797984D02*
X13277325Y-13836079D01*
X13572563Y-14074174D02*
X13563039Y-14064650D01*
X13563039Y-14064650D02*
X13543991Y-14036079D01*
X13543991Y-14036079D02*
X13534468Y-14017031D01*
X13534468Y-14017031D02*
X13524944Y-13988460D01*
X13524944Y-13988460D02*
X13515420Y-13940841D01*
X13515420Y-13940841D02*
X13515420Y-13902746D01*
X13515420Y-13902746D02*
X13524944Y-13855127D01*
X13524944Y-13855127D02*
X13534468Y-13826555D01*
X13534468Y-13826555D02*
X13543991Y-13807508D01*
X13543991Y-13807508D02*
X13563039Y-13778936D01*
X13563039Y-13778936D02*
X13572563Y-13769412D01*
X13677325Y-13883698D02*
X13658277Y-13874174D01*
X13658277Y-13874174D02*
X13648753Y-13864650D01*
X13648753Y-13864650D02*
X13639229Y-13845603D01*
X13639229Y-13845603D02*
X13639229Y-13836079D01*
X13639229Y-13836079D02*
X13648753Y-13817031D01*
X13648753Y-13817031D02*
X13658277Y-13807508D01*
X13658277Y-13807508D02*
X13677325Y-13797984D01*
X13677325Y-13797984D02*
X13715420Y-13797984D01*
X13715420Y-13797984D02*
X13734468Y-13807508D01*
X13734468Y-13807508D02*
X13743991Y-13817031D01*
X13743991Y-13817031D02*
X13753515Y-13836079D01*
X13753515Y-13836079D02*
X13753515Y-13845603D01*
X13753515Y-13845603D02*
X13743991Y-13864650D01*
X13743991Y-13864650D02*
X13734468Y-13874174D01*
X13734468Y-13874174D02*
X13715420Y-13883698D01*
X13715420Y-13883698D02*
X13677325Y-13883698D01*
X13677325Y-13883698D02*
X13658277Y-13893222D01*
X13658277Y-13893222D02*
X13648753Y-13902746D01*
X13648753Y-13902746D02*
X13639229Y-13921793D01*
X13639229Y-13921793D02*
X13639229Y-13959888D01*
X13639229Y-13959888D02*
X13648753Y-13978936D01*
X13648753Y-13978936D02*
X13658277Y-13988460D01*
X13658277Y-13988460D02*
X13677325Y-13997984D01*
X13677325Y-13997984D02*
X13715420Y-13997984D01*
X13715420Y-13997984D02*
X13734468Y-13988460D01*
X13734468Y-13988460D02*
X13743991Y-13978936D01*
X13743991Y-13978936D02*
X13753515Y-13959888D01*
X13753515Y-13959888D02*
X13753515Y-13921793D01*
X13753515Y-13921793D02*
X13743991Y-13902746D01*
X13743991Y-13902746D02*
X13734468Y-13893222D01*
X13734468Y-13893222D02*
X13715420Y-13883698D01*
X13924944Y-13864650D02*
X13924944Y-13997984D01*
X13877325Y-13788460D02*
X13829706Y-13931317D01*
X13829706Y-13931317D02*
X13953515Y-13931317D01*
X14182087Y-13997984D02*
X14182087Y-13797984D01*
X14267801Y-13997984D02*
X14267801Y-13893222D01*
X14267801Y-13893222D02*
X14258277Y-13874174D01*
X14258277Y-13874174D02*
X14239230Y-13864650D01*
X14239230Y-13864650D02*
X14210658Y-13864650D01*
X14210658Y-13864650D02*
X14191610Y-13874174D01*
X14191610Y-13874174D02*
X14182087Y-13883698D01*
X14391610Y-13997984D02*
X14372563Y-13988460D01*
X14372563Y-13988460D02*
X14363039Y-13978936D01*
X14363039Y-13978936D02*
X14353515Y-13959888D01*
X14353515Y-13959888D02*
X14353515Y-13902746D01*
X14353515Y-13902746D02*
X14363039Y-13883698D01*
X14363039Y-13883698D02*
X14372563Y-13874174D01*
X14372563Y-13874174D02*
X14391610Y-13864650D01*
X14391610Y-13864650D02*
X14420182Y-13864650D01*
X14420182Y-13864650D02*
X14439230Y-13874174D01*
X14439230Y-13874174D02*
X14448753Y-13883698D01*
X14448753Y-13883698D02*
X14458277Y-13902746D01*
X14458277Y-13902746D02*
X14458277Y-13959888D01*
X14458277Y-13959888D02*
X14448753Y-13978936D01*
X14448753Y-13978936D02*
X14439230Y-13988460D01*
X14439230Y-13988460D02*
X14420182Y-13997984D01*
X14420182Y-13997984D02*
X14391610Y-13997984D01*
X14572563Y-13997984D02*
X14553515Y-13988460D01*
X14553515Y-13988460D02*
X14543991Y-13969412D01*
X14543991Y-13969412D02*
X14543991Y-13797984D01*
X14724944Y-13988460D02*
X14705896Y-13997984D01*
X14705896Y-13997984D02*
X14667801Y-13997984D01*
X14667801Y-13997984D02*
X14648753Y-13988460D01*
X14648753Y-13988460D02*
X14639230Y-13969412D01*
X14639230Y-13969412D02*
X14639230Y-13893222D01*
X14639230Y-13893222D02*
X14648753Y-13874174D01*
X14648753Y-13874174D02*
X14667801Y-13864650D01*
X14667801Y-13864650D02*
X14705896Y-13864650D01*
X14705896Y-13864650D02*
X14724944Y-13874174D01*
X14724944Y-13874174D02*
X14734468Y-13893222D01*
X14734468Y-13893222D02*
X14734468Y-13912269D01*
X14734468Y-13912269D02*
X14639230Y-13931317D01*
X14810658Y-13988460D02*
X14829706Y-13997984D01*
X14829706Y-13997984D02*
X14867801Y-13997984D01*
X14867801Y-13997984D02*
X14886849Y-13988460D01*
X14886849Y-13988460D02*
X14896372Y-13969412D01*
X14896372Y-13969412D02*
X14896372Y-13959888D01*
X14896372Y-13959888D02*
X14886849Y-13940841D01*
X14886849Y-13940841D02*
X14867801Y-13931317D01*
X14867801Y-13931317D02*
X14839230Y-13931317D01*
X14839230Y-13931317D02*
X14820182Y-13921793D01*
X14820182Y-13921793D02*
X14810658Y-13902746D01*
X14810658Y-13902746D02*
X14810658Y-13893222D01*
X14810658Y-13893222D02*
X14820182Y-13874174D01*
X14820182Y-13874174D02*
X14839230Y-13864650D01*
X14839230Y-13864650D02*
X14867801Y-13864650D01*
X14867801Y-13864650D02*
X14886849Y-13874174D01*
X14963039Y-14074174D02*
X14972563Y-14064650D01*
X14972563Y-14064650D02*
X14991611Y-14036079D01*
X14991611Y-14036079D02*
X15001134Y-14017031D01*
X15001134Y-14017031D02*
X15010658Y-13988460D01*
X15010658Y-13988460D02*
X15020182Y-13940841D01*
X15020182Y-13940841D02*
X15020182Y-13902746D01*
X15020182Y-13902746D02*
X15010658Y-13855127D01*
X15010658Y-13855127D02*
X15001134Y-13826555D01*
X15001134Y-13826555D02*
X14991611Y-13807508D01*
X14991611Y-13807508D02*
X14972563Y-13778936D01*
X14972563Y-13778936D02*
X14963039Y-13769412D01*
D12*
X9952500Y-14125500D02*
X9952500Y-14215500D01*
X9907500Y-14170500D02*
X9997500Y-14170500D01*
D11*
X10296372Y-14061984D02*
X10315420Y-14061984D01*
X10315420Y-14061984D02*
X10334467Y-14071508D01*
X10334467Y-14071508D02*
X10343991Y-14081031D01*
X10343991Y-14081031D02*
X10353515Y-14100079D01*
X10353515Y-14100079D02*
X10363039Y-14138174D01*
X10363039Y-14138174D02*
X10363039Y-14185793D01*
X10363039Y-14185793D02*
X10353515Y-14223888D01*
X10353515Y-14223888D02*
X10343991Y-14242936D01*
X10343991Y-14242936D02*
X10334467Y-14252460D01*
X10334467Y-14252460D02*
X10315420Y-14261984D01*
X10315420Y-14261984D02*
X10296372Y-14261984D01*
X10296372Y-14261984D02*
X10277324Y-14252460D01*
X10277324Y-14252460D02*
X10267801Y-14242936D01*
X10267801Y-14242936D02*
X10258277Y-14223888D01*
X10258277Y-14223888D02*
X10248753Y-14185793D01*
X10248753Y-14185793D02*
X10248753Y-14138174D01*
X10248753Y-14138174D02*
X10258277Y-14100079D01*
X10258277Y-14100079D02*
X10267801Y-14081031D01*
X10267801Y-14081031D02*
X10277324Y-14071508D01*
X10277324Y-14071508D02*
X10296372Y-14061984D01*
X10448753Y-14242936D02*
X10458277Y-14252460D01*
X10458277Y-14252460D02*
X10448753Y-14261984D01*
X10448753Y-14261984D02*
X10439229Y-14252460D01*
X10439229Y-14252460D02*
X10448753Y-14242936D01*
X10448753Y-14242936D02*
X10448753Y-14261984D01*
X10553515Y-14261984D02*
X10591610Y-14261984D01*
X10591610Y-14261984D02*
X10610658Y-14252460D01*
X10610658Y-14252460D02*
X10620182Y-14242936D01*
X10620182Y-14242936D02*
X10639229Y-14214365D01*
X10639229Y-14214365D02*
X10648753Y-14176269D01*
X10648753Y-14176269D02*
X10648753Y-14100079D01*
X10648753Y-14100079D02*
X10639229Y-14081031D01*
X10639229Y-14081031D02*
X10629705Y-14071508D01*
X10629705Y-14071508D02*
X10610658Y-14061984D01*
X10610658Y-14061984D02*
X10572563Y-14061984D01*
X10572563Y-14061984D02*
X10553515Y-14071508D01*
X10553515Y-14071508D02*
X10543991Y-14081031D01*
X10543991Y-14081031D02*
X10534467Y-14100079D01*
X10534467Y-14100079D02*
X10534467Y-14147698D01*
X10534467Y-14147698D02*
X10543991Y-14166746D01*
X10543991Y-14166746D02*
X10553515Y-14176269D01*
X10553515Y-14176269D02*
X10572563Y-14185793D01*
X10572563Y-14185793D02*
X10610658Y-14185793D01*
X10610658Y-14185793D02*
X10629705Y-14176269D01*
X10629705Y-14176269D02*
X10639229Y-14166746D01*
X10639229Y-14166746D02*
X10648753Y-14147698D01*
X10772563Y-14061984D02*
X10791610Y-14061984D01*
X10791610Y-14061984D02*
X10810658Y-14071508D01*
X10810658Y-14071508D02*
X10820182Y-14081031D01*
X10820182Y-14081031D02*
X10829705Y-14100079D01*
X10829705Y-14100079D02*
X10839229Y-14138174D01*
X10839229Y-14138174D02*
X10839229Y-14185793D01*
X10839229Y-14185793D02*
X10829705Y-14223888D01*
X10829705Y-14223888D02*
X10820182Y-14242936D01*
X10820182Y-14242936D02*
X10810658Y-14252460D01*
X10810658Y-14252460D02*
X10791610Y-14261984D01*
X10791610Y-14261984D02*
X10772563Y-14261984D01*
X10772563Y-14261984D02*
X10753515Y-14252460D01*
X10753515Y-14252460D02*
X10743991Y-14242936D01*
X10743991Y-14242936D02*
X10734467Y-14223888D01*
X10734467Y-14223888D02*
X10724944Y-14185793D01*
X10724944Y-14185793D02*
X10724944Y-14138174D01*
X10724944Y-14138174D02*
X10734467Y-14100079D01*
X10734467Y-14100079D02*
X10743991Y-14081031D01*
X10743991Y-14081031D02*
X10753515Y-14071508D01*
X10753515Y-14071508D02*
X10772563Y-14061984D01*
X10963039Y-14061984D02*
X10982086Y-14061984D01*
X10982086Y-14061984D02*
X11001134Y-14071508D01*
X11001134Y-14071508D02*
X11010658Y-14081031D01*
X11010658Y-14081031D02*
X11020182Y-14100079D01*
X11020182Y-14100079D02*
X11029705Y-14138174D01*
X11029705Y-14138174D02*
X11029705Y-14185793D01*
X11029705Y-14185793D02*
X11020182Y-14223888D01*
X11020182Y-14223888D02*
X11010658Y-14242936D01*
X11010658Y-14242936D02*
X11001134Y-14252460D01*
X11001134Y-14252460D02*
X10982086Y-14261984D01*
X10982086Y-14261984D02*
X10963039Y-14261984D01*
X10963039Y-14261984D02*
X10943991Y-14252460D01*
X10943991Y-14252460D02*
X10934467Y-14242936D01*
X10934467Y-14242936D02*
X10924944Y-14223888D01*
X10924944Y-14223888D02*
X10915420Y-14185793D01*
X10915420Y-14185793D02*
X10915420Y-14138174D01*
X10915420Y-14138174D02*
X10924944Y-14100079D01*
X10924944Y-14100079D02*
X10934467Y-14081031D01*
X10934467Y-14081031D02*
X10943991Y-14071508D01*
X10943991Y-14071508D02*
X10963039Y-14061984D01*
X11115420Y-14261984D02*
X11115420Y-14128650D01*
X11115420Y-14147698D02*
X11124944Y-14138174D01*
X11124944Y-14138174D02*
X11143991Y-14128650D01*
X11143991Y-14128650D02*
X11172563Y-14128650D01*
X11172563Y-14128650D02*
X11191610Y-14138174D01*
X11191610Y-14138174D02*
X11201134Y-14157222D01*
X11201134Y-14157222D02*
X11201134Y-14261984D01*
X11201134Y-14157222D02*
X11210658Y-14138174D01*
X11210658Y-14138174D02*
X11229705Y-14128650D01*
X11229705Y-14128650D02*
X11258277Y-14128650D01*
X11258277Y-14128650D02*
X11277324Y-14138174D01*
X11277324Y-14138174D02*
X11286848Y-14157222D01*
X11286848Y-14157222D02*
X11286848Y-14261984D01*
X11382086Y-14261984D02*
X11382086Y-14128650D01*
X11382086Y-14147698D02*
X11391610Y-14138174D01*
X11391610Y-14138174D02*
X11410658Y-14128650D01*
X11410658Y-14128650D02*
X11439229Y-14128650D01*
X11439229Y-14128650D02*
X11458277Y-14138174D01*
X11458277Y-14138174D02*
X11467801Y-14157222D01*
X11467801Y-14157222D02*
X11467801Y-14261984D01*
X11467801Y-14157222D02*
X11477324Y-14138174D01*
X11477324Y-14138174D02*
X11496372Y-14128650D01*
X11496372Y-14128650D02*
X11524943Y-14128650D01*
X11524943Y-14128650D02*
X11543991Y-14138174D01*
X11543991Y-14138174D02*
X11553515Y-14157222D01*
X11553515Y-14157222D02*
X11553515Y-14261984D01*
X11943991Y-14052460D02*
X11772563Y-14309603D01*
X12201134Y-14061984D02*
X12220182Y-14061984D01*
X12220182Y-14061984D02*
X12239229Y-14071508D01*
X12239229Y-14071508D02*
X12248753Y-14081031D01*
X12248753Y-14081031D02*
X12258277Y-14100079D01*
X12258277Y-14100079D02*
X12267801Y-14138174D01*
X12267801Y-14138174D02*
X12267801Y-14185793D01*
X12267801Y-14185793D02*
X12258277Y-14223888D01*
X12258277Y-14223888D02*
X12248753Y-14242936D01*
X12248753Y-14242936D02*
X12239229Y-14252460D01*
X12239229Y-14252460D02*
X12220182Y-14261984D01*
X12220182Y-14261984D02*
X12201134Y-14261984D01*
X12201134Y-14261984D02*
X12182086Y-14252460D01*
X12182086Y-14252460D02*
X12172563Y-14242936D01*
X12172563Y-14242936D02*
X12163039Y-14223888D01*
X12163039Y-14223888D02*
X12153515Y-14185793D01*
X12153515Y-14185793D02*
X12153515Y-14138174D01*
X12153515Y-14138174D02*
X12163039Y-14100079D01*
X12163039Y-14100079D02*
X12172563Y-14081031D01*
X12172563Y-14081031D02*
X12182086Y-14071508D01*
X12182086Y-14071508D02*
X12201134Y-14061984D01*
X12353515Y-14242936D02*
X12363039Y-14252460D01*
X12363039Y-14252460D02*
X12353515Y-14261984D01*
X12353515Y-14261984D02*
X12343991Y-14252460D01*
X12343991Y-14252460D02*
X12353515Y-14242936D01*
X12353515Y-14242936D02*
X12353515Y-14261984D01*
X12486848Y-14061984D02*
X12505896Y-14061984D01*
X12505896Y-14061984D02*
X12524944Y-14071508D01*
X12524944Y-14071508D02*
X12534467Y-14081031D01*
X12534467Y-14081031D02*
X12543991Y-14100079D01*
X12543991Y-14100079D02*
X12553515Y-14138174D01*
X12553515Y-14138174D02*
X12553515Y-14185793D01*
X12553515Y-14185793D02*
X12543991Y-14223888D01*
X12543991Y-14223888D02*
X12534467Y-14242936D01*
X12534467Y-14242936D02*
X12524944Y-14252460D01*
X12524944Y-14252460D02*
X12505896Y-14261984D01*
X12505896Y-14261984D02*
X12486848Y-14261984D01*
X12486848Y-14261984D02*
X12467801Y-14252460D01*
X12467801Y-14252460D02*
X12458277Y-14242936D01*
X12458277Y-14242936D02*
X12448753Y-14223888D01*
X12448753Y-14223888D02*
X12439229Y-14185793D01*
X12439229Y-14185793D02*
X12439229Y-14138174D01*
X12439229Y-14138174D02*
X12448753Y-14100079D01*
X12448753Y-14100079D02*
X12458277Y-14081031D01*
X12458277Y-14081031D02*
X12467801Y-14071508D01*
X12467801Y-14071508D02*
X12486848Y-14061984D01*
X12620182Y-14061984D02*
X12743991Y-14061984D01*
X12743991Y-14061984D02*
X12677325Y-14138174D01*
X12677325Y-14138174D02*
X12705896Y-14138174D01*
X12705896Y-14138174D02*
X12724944Y-14147698D01*
X12724944Y-14147698D02*
X12734467Y-14157222D01*
X12734467Y-14157222D02*
X12743991Y-14176269D01*
X12743991Y-14176269D02*
X12743991Y-14223888D01*
X12743991Y-14223888D02*
X12734467Y-14242936D01*
X12734467Y-14242936D02*
X12724944Y-14252460D01*
X12724944Y-14252460D02*
X12705896Y-14261984D01*
X12705896Y-14261984D02*
X12648753Y-14261984D01*
X12648753Y-14261984D02*
X12629706Y-14252460D01*
X12629706Y-14252460D02*
X12620182Y-14242936D01*
X12924944Y-14061984D02*
X12829706Y-14061984D01*
X12829706Y-14061984D02*
X12820182Y-14157222D01*
X12820182Y-14157222D02*
X12829706Y-14147698D01*
X12829706Y-14147698D02*
X12848753Y-14138174D01*
X12848753Y-14138174D02*
X12896372Y-14138174D01*
X12896372Y-14138174D02*
X12915420Y-14147698D01*
X12915420Y-14147698D02*
X12924944Y-14157222D01*
X12924944Y-14157222D02*
X12934467Y-14176269D01*
X12934467Y-14176269D02*
X12934467Y-14223888D01*
X12934467Y-14223888D02*
X12924944Y-14242936D01*
X12924944Y-14242936D02*
X12915420Y-14252460D01*
X12915420Y-14252460D02*
X12896372Y-14261984D01*
X12896372Y-14261984D02*
X12848753Y-14261984D01*
X12848753Y-14261984D02*
X12829706Y-14252460D01*
X12829706Y-14252460D02*
X12820182Y-14242936D01*
X13105896Y-14128650D02*
X13105896Y-14261984D01*
X13058277Y-14052460D02*
X13010658Y-14195317D01*
X13010658Y-14195317D02*
X13134467Y-14195317D01*
X13201134Y-14061984D02*
X13201134Y-14100079D01*
X13277325Y-14061984D02*
X13277325Y-14100079D01*
X13572563Y-14338174D02*
X13563039Y-14328650D01*
X13563039Y-14328650D02*
X13543991Y-14300079D01*
X13543991Y-14300079D02*
X13534468Y-14281031D01*
X13534468Y-14281031D02*
X13524944Y-14252460D01*
X13524944Y-14252460D02*
X13515420Y-14204841D01*
X13515420Y-14204841D02*
X13515420Y-14166746D01*
X13515420Y-14166746D02*
X13524944Y-14119127D01*
X13524944Y-14119127D02*
X13534468Y-14090555D01*
X13534468Y-14090555D02*
X13543991Y-14071508D01*
X13543991Y-14071508D02*
X13563039Y-14042936D01*
X13563039Y-14042936D02*
X13572563Y-14033412D01*
X13753515Y-14261984D02*
X13639229Y-14261984D01*
X13696372Y-14261984D02*
X13696372Y-14061984D01*
X13696372Y-14061984D02*
X13677325Y-14090555D01*
X13677325Y-14090555D02*
X13658277Y-14109603D01*
X13658277Y-14109603D02*
X13639229Y-14119127D01*
X13924944Y-14061984D02*
X13886848Y-14061984D01*
X13886848Y-14061984D02*
X13867801Y-14071508D01*
X13867801Y-14071508D02*
X13858277Y-14081031D01*
X13858277Y-14081031D02*
X13839229Y-14109603D01*
X13839229Y-14109603D02*
X13829706Y-14147698D01*
X13829706Y-14147698D02*
X13829706Y-14223888D01*
X13829706Y-14223888D02*
X13839229Y-14242936D01*
X13839229Y-14242936D02*
X13848753Y-14252460D01*
X13848753Y-14252460D02*
X13867801Y-14261984D01*
X13867801Y-14261984D02*
X13905896Y-14261984D01*
X13905896Y-14261984D02*
X13924944Y-14252460D01*
X13924944Y-14252460D02*
X13934468Y-14242936D01*
X13934468Y-14242936D02*
X13943991Y-14223888D01*
X13943991Y-14223888D02*
X13943991Y-14176269D01*
X13943991Y-14176269D02*
X13934468Y-14157222D01*
X13934468Y-14157222D02*
X13924944Y-14147698D01*
X13924944Y-14147698D02*
X13905896Y-14138174D01*
X13905896Y-14138174D02*
X13867801Y-14138174D01*
X13867801Y-14138174D02*
X13848753Y-14147698D01*
X13848753Y-14147698D02*
X13839229Y-14157222D01*
X13839229Y-14157222D02*
X13829706Y-14176269D01*
X14182087Y-14261984D02*
X14182087Y-14061984D01*
X14267801Y-14261984D02*
X14267801Y-14157222D01*
X14267801Y-14157222D02*
X14258277Y-14138174D01*
X14258277Y-14138174D02*
X14239230Y-14128650D01*
X14239230Y-14128650D02*
X14210658Y-14128650D01*
X14210658Y-14128650D02*
X14191610Y-14138174D01*
X14191610Y-14138174D02*
X14182087Y-14147698D01*
X14391610Y-14261984D02*
X14372563Y-14252460D01*
X14372563Y-14252460D02*
X14363039Y-14242936D01*
X14363039Y-14242936D02*
X14353515Y-14223888D01*
X14353515Y-14223888D02*
X14353515Y-14166746D01*
X14353515Y-14166746D02*
X14363039Y-14147698D01*
X14363039Y-14147698D02*
X14372563Y-14138174D01*
X14372563Y-14138174D02*
X14391610Y-14128650D01*
X14391610Y-14128650D02*
X14420182Y-14128650D01*
X14420182Y-14128650D02*
X14439230Y-14138174D01*
X14439230Y-14138174D02*
X14448753Y-14147698D01*
X14448753Y-14147698D02*
X14458277Y-14166746D01*
X14458277Y-14166746D02*
X14458277Y-14223888D01*
X14458277Y-14223888D02*
X14448753Y-14242936D01*
X14448753Y-14242936D02*
X14439230Y-14252460D01*
X14439230Y-14252460D02*
X14420182Y-14261984D01*
X14420182Y-14261984D02*
X14391610Y-14261984D01*
X14572563Y-14261984D02*
X14553515Y-14252460D01*
X14553515Y-14252460D02*
X14543991Y-14233412D01*
X14543991Y-14233412D02*
X14543991Y-14061984D01*
X14724944Y-14252460D02*
X14705896Y-14261984D01*
X14705896Y-14261984D02*
X14667801Y-14261984D01*
X14667801Y-14261984D02*
X14648753Y-14252460D01*
X14648753Y-14252460D02*
X14639230Y-14233412D01*
X14639230Y-14233412D02*
X14639230Y-14157222D01*
X14639230Y-14157222D02*
X14648753Y-14138174D01*
X14648753Y-14138174D02*
X14667801Y-14128650D01*
X14667801Y-14128650D02*
X14705896Y-14128650D01*
X14705896Y-14128650D02*
X14724944Y-14138174D01*
X14724944Y-14138174D02*
X14734468Y-14157222D01*
X14734468Y-14157222D02*
X14734468Y-14176269D01*
X14734468Y-14176269D02*
X14639230Y-14195317D01*
X14810658Y-14252460D02*
X14829706Y-14261984D01*
X14829706Y-14261984D02*
X14867801Y-14261984D01*
X14867801Y-14261984D02*
X14886849Y-14252460D01*
X14886849Y-14252460D02*
X14896372Y-14233412D01*
X14896372Y-14233412D02*
X14896372Y-14223888D01*
X14896372Y-14223888D02*
X14886849Y-14204841D01*
X14886849Y-14204841D02*
X14867801Y-14195317D01*
X14867801Y-14195317D02*
X14839230Y-14195317D01*
X14839230Y-14195317D02*
X14820182Y-14185793D01*
X14820182Y-14185793D02*
X14810658Y-14166746D01*
X14810658Y-14166746D02*
X14810658Y-14157222D01*
X14810658Y-14157222D02*
X14820182Y-14138174D01*
X14820182Y-14138174D02*
X14839230Y-14128650D01*
X14839230Y-14128650D02*
X14867801Y-14128650D01*
X14867801Y-14128650D02*
X14886849Y-14138174D01*
X14963039Y-14338174D02*
X14972563Y-14328650D01*
X14972563Y-14328650D02*
X14991611Y-14300079D01*
X14991611Y-14300079D02*
X15001134Y-14281031D01*
X15001134Y-14281031D02*
X15010658Y-14252460D01*
X15010658Y-14252460D02*
X15020182Y-14204841D01*
X15020182Y-14204841D02*
X15020182Y-14166746D01*
X15020182Y-14166746D02*
X15010658Y-14119127D01*
X15010658Y-14119127D02*
X15001134Y-14090555D01*
X15001134Y-14090555D02*
X14991611Y-14071508D01*
X14991611Y-14071508D02*
X14972563Y-14042936D01*
X14972563Y-14042936D02*
X14963039Y-14033412D01*
D12*
X9982856Y-14469856D02*
X9982856Y-14399144D01*
X9912144Y-14399144D01*
X9912144Y-14469856D01*
X9982856Y-14469856D01*
D11*
X10363039Y-14525984D02*
X10248753Y-14525984D01*
X10305896Y-14525984D02*
X10305896Y-14325984D01*
X10305896Y-14325984D02*
X10286848Y-14354555D01*
X10286848Y-14354555D02*
X10267801Y-14373603D01*
X10267801Y-14373603D02*
X10248753Y-14383127D01*
X10448753Y-14506936D02*
X10458277Y-14516460D01*
X10458277Y-14516460D02*
X10448753Y-14525984D01*
X10448753Y-14525984D02*
X10439229Y-14516460D01*
X10439229Y-14516460D02*
X10448753Y-14506936D01*
X10448753Y-14506936D02*
X10448753Y-14525984D01*
X10582086Y-14325984D02*
X10601134Y-14325984D01*
X10601134Y-14325984D02*
X10620182Y-14335508D01*
X10620182Y-14335508D02*
X10629705Y-14345031D01*
X10629705Y-14345031D02*
X10639229Y-14364079D01*
X10639229Y-14364079D02*
X10648753Y-14402174D01*
X10648753Y-14402174D02*
X10648753Y-14449793D01*
X10648753Y-14449793D02*
X10639229Y-14487888D01*
X10639229Y-14487888D02*
X10629705Y-14506936D01*
X10629705Y-14506936D02*
X10620182Y-14516460D01*
X10620182Y-14516460D02*
X10601134Y-14525984D01*
X10601134Y-14525984D02*
X10582086Y-14525984D01*
X10582086Y-14525984D02*
X10563039Y-14516460D01*
X10563039Y-14516460D02*
X10553515Y-14506936D01*
X10553515Y-14506936D02*
X10543991Y-14487888D01*
X10543991Y-14487888D02*
X10534467Y-14449793D01*
X10534467Y-14449793D02*
X10534467Y-14402174D01*
X10534467Y-14402174D02*
X10543991Y-14364079D01*
X10543991Y-14364079D02*
X10553515Y-14345031D01*
X10553515Y-14345031D02*
X10563039Y-14335508D01*
X10563039Y-14335508D02*
X10582086Y-14325984D01*
X10772563Y-14325984D02*
X10791610Y-14325984D01*
X10791610Y-14325984D02*
X10810658Y-14335508D01*
X10810658Y-14335508D02*
X10820182Y-14345031D01*
X10820182Y-14345031D02*
X10829705Y-14364079D01*
X10829705Y-14364079D02*
X10839229Y-14402174D01*
X10839229Y-14402174D02*
X10839229Y-14449793D01*
X10839229Y-14449793D02*
X10829705Y-14487888D01*
X10829705Y-14487888D02*
X10820182Y-14506936D01*
X10820182Y-14506936D02*
X10810658Y-14516460D01*
X10810658Y-14516460D02*
X10791610Y-14525984D01*
X10791610Y-14525984D02*
X10772563Y-14525984D01*
X10772563Y-14525984D02*
X10753515Y-14516460D01*
X10753515Y-14516460D02*
X10743991Y-14506936D01*
X10743991Y-14506936D02*
X10734467Y-14487888D01*
X10734467Y-14487888D02*
X10724944Y-14449793D01*
X10724944Y-14449793D02*
X10724944Y-14402174D01*
X10724944Y-14402174D02*
X10734467Y-14364079D01*
X10734467Y-14364079D02*
X10743991Y-14345031D01*
X10743991Y-14345031D02*
X10753515Y-14335508D01*
X10753515Y-14335508D02*
X10772563Y-14325984D01*
X10963039Y-14325984D02*
X10982086Y-14325984D01*
X10982086Y-14325984D02*
X11001134Y-14335508D01*
X11001134Y-14335508D02*
X11010658Y-14345031D01*
X11010658Y-14345031D02*
X11020182Y-14364079D01*
X11020182Y-14364079D02*
X11029705Y-14402174D01*
X11029705Y-14402174D02*
X11029705Y-14449793D01*
X11029705Y-14449793D02*
X11020182Y-14487888D01*
X11020182Y-14487888D02*
X11010658Y-14506936D01*
X11010658Y-14506936D02*
X11001134Y-14516460D01*
X11001134Y-14516460D02*
X10982086Y-14525984D01*
X10982086Y-14525984D02*
X10963039Y-14525984D01*
X10963039Y-14525984D02*
X10943991Y-14516460D01*
X10943991Y-14516460D02*
X10934467Y-14506936D01*
X10934467Y-14506936D02*
X10924944Y-14487888D01*
X10924944Y-14487888D02*
X10915420Y-14449793D01*
X10915420Y-14449793D02*
X10915420Y-14402174D01*
X10915420Y-14402174D02*
X10924944Y-14364079D01*
X10924944Y-14364079D02*
X10934467Y-14345031D01*
X10934467Y-14345031D02*
X10943991Y-14335508D01*
X10943991Y-14335508D02*
X10963039Y-14325984D01*
X11115420Y-14525984D02*
X11115420Y-14392650D01*
X11115420Y-14411698D02*
X11124944Y-14402174D01*
X11124944Y-14402174D02*
X11143991Y-14392650D01*
X11143991Y-14392650D02*
X11172563Y-14392650D01*
X11172563Y-14392650D02*
X11191610Y-14402174D01*
X11191610Y-14402174D02*
X11201134Y-14421222D01*
X11201134Y-14421222D02*
X11201134Y-14525984D01*
X11201134Y-14421222D02*
X11210658Y-14402174D01*
X11210658Y-14402174D02*
X11229705Y-14392650D01*
X11229705Y-14392650D02*
X11258277Y-14392650D01*
X11258277Y-14392650D02*
X11277324Y-14402174D01*
X11277324Y-14402174D02*
X11286848Y-14421222D01*
X11286848Y-14421222D02*
X11286848Y-14525984D01*
X11382086Y-14525984D02*
X11382086Y-14392650D01*
X11382086Y-14411698D02*
X11391610Y-14402174D01*
X11391610Y-14402174D02*
X11410658Y-14392650D01*
X11410658Y-14392650D02*
X11439229Y-14392650D01*
X11439229Y-14392650D02*
X11458277Y-14402174D01*
X11458277Y-14402174D02*
X11467801Y-14421222D01*
X11467801Y-14421222D02*
X11467801Y-14525984D01*
X11467801Y-14421222D02*
X11477324Y-14402174D01*
X11477324Y-14402174D02*
X11496372Y-14392650D01*
X11496372Y-14392650D02*
X11524943Y-14392650D01*
X11524943Y-14392650D02*
X11543991Y-14402174D01*
X11543991Y-14402174D02*
X11553515Y-14421222D01*
X11553515Y-14421222D02*
X11553515Y-14525984D01*
X11943991Y-14316460D02*
X11772563Y-14573603D01*
X12201134Y-14325984D02*
X12220182Y-14325984D01*
X12220182Y-14325984D02*
X12239229Y-14335508D01*
X12239229Y-14335508D02*
X12248753Y-14345031D01*
X12248753Y-14345031D02*
X12258277Y-14364079D01*
X12258277Y-14364079D02*
X12267801Y-14402174D01*
X12267801Y-14402174D02*
X12267801Y-14449793D01*
X12267801Y-14449793D02*
X12258277Y-14487888D01*
X12258277Y-14487888D02*
X12248753Y-14506936D01*
X12248753Y-14506936D02*
X12239229Y-14516460D01*
X12239229Y-14516460D02*
X12220182Y-14525984D01*
X12220182Y-14525984D02*
X12201134Y-14525984D01*
X12201134Y-14525984D02*
X12182086Y-14516460D01*
X12182086Y-14516460D02*
X12172563Y-14506936D01*
X12172563Y-14506936D02*
X12163039Y-14487888D01*
X12163039Y-14487888D02*
X12153515Y-14449793D01*
X12153515Y-14449793D02*
X12153515Y-14402174D01*
X12153515Y-14402174D02*
X12163039Y-14364079D01*
X12163039Y-14364079D02*
X12172563Y-14345031D01*
X12172563Y-14345031D02*
X12182086Y-14335508D01*
X12182086Y-14335508D02*
X12201134Y-14325984D01*
X12353515Y-14506936D02*
X12363039Y-14516460D01*
X12363039Y-14516460D02*
X12353515Y-14525984D01*
X12353515Y-14525984D02*
X12343991Y-14516460D01*
X12343991Y-14516460D02*
X12353515Y-14506936D01*
X12353515Y-14506936D02*
X12353515Y-14525984D01*
X12486848Y-14325984D02*
X12505896Y-14325984D01*
X12505896Y-14325984D02*
X12524944Y-14335508D01*
X12524944Y-14335508D02*
X12534467Y-14345031D01*
X12534467Y-14345031D02*
X12543991Y-14364079D01*
X12543991Y-14364079D02*
X12553515Y-14402174D01*
X12553515Y-14402174D02*
X12553515Y-14449793D01*
X12553515Y-14449793D02*
X12543991Y-14487888D01*
X12543991Y-14487888D02*
X12534467Y-14506936D01*
X12534467Y-14506936D02*
X12524944Y-14516460D01*
X12524944Y-14516460D02*
X12505896Y-14525984D01*
X12505896Y-14525984D02*
X12486848Y-14525984D01*
X12486848Y-14525984D02*
X12467801Y-14516460D01*
X12467801Y-14516460D02*
X12458277Y-14506936D01*
X12458277Y-14506936D02*
X12448753Y-14487888D01*
X12448753Y-14487888D02*
X12439229Y-14449793D01*
X12439229Y-14449793D02*
X12439229Y-14402174D01*
X12439229Y-14402174D02*
X12448753Y-14364079D01*
X12448753Y-14364079D02*
X12458277Y-14345031D01*
X12458277Y-14345031D02*
X12467801Y-14335508D01*
X12467801Y-14335508D02*
X12486848Y-14325984D01*
X12620182Y-14325984D02*
X12743991Y-14325984D01*
X12743991Y-14325984D02*
X12677325Y-14402174D01*
X12677325Y-14402174D02*
X12705896Y-14402174D01*
X12705896Y-14402174D02*
X12724944Y-14411698D01*
X12724944Y-14411698D02*
X12734467Y-14421222D01*
X12734467Y-14421222D02*
X12743991Y-14440269D01*
X12743991Y-14440269D02*
X12743991Y-14487888D01*
X12743991Y-14487888D02*
X12734467Y-14506936D01*
X12734467Y-14506936D02*
X12724944Y-14516460D01*
X12724944Y-14516460D02*
X12705896Y-14525984D01*
X12705896Y-14525984D02*
X12648753Y-14525984D01*
X12648753Y-14525984D02*
X12629706Y-14516460D01*
X12629706Y-14516460D02*
X12620182Y-14506936D01*
X12839229Y-14525984D02*
X12877325Y-14525984D01*
X12877325Y-14525984D02*
X12896372Y-14516460D01*
X12896372Y-14516460D02*
X12905896Y-14506936D01*
X12905896Y-14506936D02*
X12924944Y-14478365D01*
X12924944Y-14478365D02*
X12934467Y-14440269D01*
X12934467Y-14440269D02*
X12934467Y-14364079D01*
X12934467Y-14364079D02*
X12924944Y-14345031D01*
X12924944Y-14345031D02*
X12915420Y-14335508D01*
X12915420Y-14335508D02*
X12896372Y-14325984D01*
X12896372Y-14325984D02*
X12858277Y-14325984D01*
X12858277Y-14325984D02*
X12839229Y-14335508D01*
X12839229Y-14335508D02*
X12829706Y-14345031D01*
X12829706Y-14345031D02*
X12820182Y-14364079D01*
X12820182Y-14364079D02*
X12820182Y-14411698D01*
X12820182Y-14411698D02*
X12829706Y-14430746D01*
X12829706Y-14430746D02*
X12839229Y-14440269D01*
X12839229Y-14440269D02*
X12858277Y-14449793D01*
X12858277Y-14449793D02*
X12896372Y-14449793D01*
X12896372Y-14449793D02*
X12915420Y-14440269D01*
X12915420Y-14440269D02*
X12924944Y-14430746D01*
X12924944Y-14430746D02*
X12934467Y-14411698D01*
X13105896Y-14392650D02*
X13105896Y-14525984D01*
X13058277Y-14316460D02*
X13010658Y-14459317D01*
X13010658Y-14459317D02*
X13134467Y-14459317D01*
X13201134Y-14325984D02*
X13201134Y-14364079D01*
X13277325Y-14325984D02*
X13277325Y-14364079D01*
X13572563Y-14602174D02*
X13563039Y-14592650D01*
X13563039Y-14592650D02*
X13543991Y-14564079D01*
X13543991Y-14564079D02*
X13534468Y-14545031D01*
X13534468Y-14545031D02*
X13524944Y-14516460D01*
X13524944Y-14516460D02*
X13515420Y-14468841D01*
X13515420Y-14468841D02*
X13515420Y-14430746D01*
X13515420Y-14430746D02*
X13524944Y-14383127D01*
X13524944Y-14383127D02*
X13534468Y-14354555D01*
X13534468Y-14354555D02*
X13543991Y-14335508D01*
X13543991Y-14335508D02*
X13563039Y-14306936D01*
X13563039Y-14306936D02*
X13572563Y-14297412D01*
X13734468Y-14325984D02*
X13696372Y-14325984D01*
X13696372Y-14325984D02*
X13677325Y-14335508D01*
X13677325Y-14335508D02*
X13667801Y-14345031D01*
X13667801Y-14345031D02*
X13648753Y-14373603D01*
X13648753Y-14373603D02*
X13639229Y-14411698D01*
X13639229Y-14411698D02*
X13639229Y-14487888D01*
X13639229Y-14487888D02*
X13648753Y-14506936D01*
X13648753Y-14506936D02*
X13658277Y-14516460D01*
X13658277Y-14516460D02*
X13677325Y-14525984D01*
X13677325Y-14525984D02*
X13715420Y-14525984D01*
X13715420Y-14525984D02*
X13734468Y-14516460D01*
X13734468Y-14516460D02*
X13743991Y-14506936D01*
X13743991Y-14506936D02*
X13753515Y-14487888D01*
X13753515Y-14487888D02*
X13753515Y-14440269D01*
X13753515Y-14440269D02*
X13743991Y-14421222D01*
X13743991Y-14421222D02*
X13734468Y-14411698D01*
X13734468Y-14411698D02*
X13715420Y-14402174D01*
X13715420Y-14402174D02*
X13677325Y-14402174D01*
X13677325Y-14402174D02*
X13658277Y-14411698D01*
X13658277Y-14411698D02*
X13648753Y-14421222D01*
X13648753Y-14421222D02*
X13639229Y-14440269D01*
X13991610Y-14525984D02*
X13991610Y-14325984D01*
X14077325Y-14525984D02*
X14077325Y-14421222D01*
X14077325Y-14421222D02*
X14067801Y-14402174D01*
X14067801Y-14402174D02*
X14048753Y-14392650D01*
X14048753Y-14392650D02*
X14020182Y-14392650D01*
X14020182Y-14392650D02*
X14001134Y-14402174D01*
X14001134Y-14402174D02*
X13991610Y-14411698D01*
X14201134Y-14525984D02*
X14182087Y-14516460D01*
X14182087Y-14516460D02*
X14172563Y-14506936D01*
X14172563Y-14506936D02*
X14163039Y-14487888D01*
X14163039Y-14487888D02*
X14163039Y-14430746D01*
X14163039Y-14430746D02*
X14172563Y-14411698D01*
X14172563Y-14411698D02*
X14182087Y-14402174D01*
X14182087Y-14402174D02*
X14201134Y-14392650D01*
X14201134Y-14392650D02*
X14229706Y-14392650D01*
X14229706Y-14392650D02*
X14248753Y-14402174D01*
X14248753Y-14402174D02*
X14258277Y-14411698D01*
X14258277Y-14411698D02*
X14267801Y-14430746D01*
X14267801Y-14430746D02*
X14267801Y-14487888D01*
X14267801Y-14487888D02*
X14258277Y-14506936D01*
X14258277Y-14506936D02*
X14248753Y-14516460D01*
X14248753Y-14516460D02*
X14229706Y-14525984D01*
X14229706Y-14525984D02*
X14201134Y-14525984D01*
X14382087Y-14525984D02*
X14363039Y-14516460D01*
X14363039Y-14516460D02*
X14353515Y-14497412D01*
X14353515Y-14497412D02*
X14353515Y-14325984D01*
X14534468Y-14516460D02*
X14515420Y-14525984D01*
X14515420Y-14525984D02*
X14477325Y-14525984D01*
X14477325Y-14525984D02*
X14458277Y-14516460D01*
X14458277Y-14516460D02*
X14448753Y-14497412D01*
X14448753Y-14497412D02*
X14448753Y-14421222D01*
X14448753Y-14421222D02*
X14458277Y-14402174D01*
X14458277Y-14402174D02*
X14477325Y-14392650D01*
X14477325Y-14392650D02*
X14515420Y-14392650D01*
X14515420Y-14392650D02*
X14534468Y-14402174D01*
X14534468Y-14402174D02*
X14543991Y-14421222D01*
X14543991Y-14421222D02*
X14543991Y-14440269D01*
X14543991Y-14440269D02*
X14448753Y-14459317D01*
X14620182Y-14516460D02*
X14639230Y-14525984D01*
X14639230Y-14525984D02*
X14677325Y-14525984D01*
X14677325Y-14525984D02*
X14696372Y-14516460D01*
X14696372Y-14516460D02*
X14705896Y-14497412D01*
X14705896Y-14497412D02*
X14705896Y-14487888D01*
X14705896Y-14487888D02*
X14696372Y-14468841D01*
X14696372Y-14468841D02*
X14677325Y-14459317D01*
X14677325Y-14459317D02*
X14648753Y-14459317D01*
X14648753Y-14459317D02*
X14629706Y-14449793D01*
X14629706Y-14449793D02*
X14620182Y-14430746D01*
X14620182Y-14430746D02*
X14620182Y-14421222D01*
X14620182Y-14421222D02*
X14629706Y-14402174D01*
X14629706Y-14402174D02*
X14648753Y-14392650D01*
X14648753Y-14392650D02*
X14677325Y-14392650D01*
X14677325Y-14392650D02*
X14696372Y-14402174D01*
X14943992Y-14449793D02*
X15096373Y-14449793D01*
X15020182Y-14525984D02*
X15020182Y-14373603D01*
X15429706Y-14392650D02*
X15429706Y-14525984D01*
X15382087Y-14316460D02*
X15334468Y-14459317D01*
X15334468Y-14459317D02*
X15458277Y-14459317D01*
X15677325Y-14516460D02*
X15696373Y-14525984D01*
X15696373Y-14525984D02*
X15734468Y-14525984D01*
X15734468Y-14525984D02*
X15753515Y-14516460D01*
X15753515Y-14516460D02*
X15763039Y-14497412D01*
X15763039Y-14497412D02*
X15763039Y-14487888D01*
X15763039Y-14487888D02*
X15753515Y-14468841D01*
X15753515Y-14468841D02*
X15734468Y-14459317D01*
X15734468Y-14459317D02*
X15705896Y-14459317D01*
X15705896Y-14459317D02*
X15686849Y-14449793D01*
X15686849Y-14449793D02*
X15677325Y-14430746D01*
X15677325Y-14430746D02*
X15677325Y-14421222D01*
X15677325Y-14421222D02*
X15686849Y-14402174D01*
X15686849Y-14402174D02*
X15705896Y-14392650D01*
X15705896Y-14392650D02*
X15734468Y-14392650D01*
X15734468Y-14392650D02*
X15753515Y-14402174D01*
X15877325Y-14525984D02*
X15858277Y-14516460D01*
X15858277Y-14516460D02*
X15848754Y-14497412D01*
X15848754Y-14497412D02*
X15848754Y-14325984D01*
X15982087Y-14525984D02*
X15963039Y-14516460D01*
X15963039Y-14516460D02*
X15953515Y-14506936D01*
X15953515Y-14506936D02*
X15943992Y-14487888D01*
X15943992Y-14487888D02*
X15943992Y-14430746D01*
X15943992Y-14430746D02*
X15953515Y-14411698D01*
X15953515Y-14411698D02*
X15963039Y-14402174D01*
X15963039Y-14402174D02*
X15982087Y-14392650D01*
X15982087Y-14392650D02*
X16010658Y-14392650D01*
X16010658Y-14392650D02*
X16029706Y-14402174D01*
X16029706Y-14402174D02*
X16039230Y-14411698D01*
X16039230Y-14411698D02*
X16048754Y-14430746D01*
X16048754Y-14430746D02*
X16048754Y-14487888D01*
X16048754Y-14487888D02*
X16039230Y-14506936D01*
X16039230Y-14506936D02*
X16029706Y-14516460D01*
X16029706Y-14516460D02*
X16010658Y-14525984D01*
X16010658Y-14525984D02*
X15982087Y-14525984D01*
X16105896Y-14392650D02*
X16182087Y-14392650D01*
X16134468Y-14325984D02*
X16134468Y-14497412D01*
X16134468Y-14497412D02*
X16143992Y-14516460D01*
X16143992Y-14516460D02*
X16163039Y-14525984D01*
X16163039Y-14525984D02*
X16182087Y-14525984D01*
X16239230Y-14516460D02*
X16258277Y-14525984D01*
X16258277Y-14525984D02*
X16296373Y-14525984D01*
X16296373Y-14525984D02*
X16315420Y-14516460D01*
X16315420Y-14516460D02*
X16324944Y-14497412D01*
X16324944Y-14497412D02*
X16324944Y-14487888D01*
X16324944Y-14487888D02*
X16315420Y-14468841D01*
X16315420Y-14468841D02*
X16296373Y-14459317D01*
X16296373Y-14459317D02*
X16267801Y-14459317D01*
X16267801Y-14459317D02*
X16248754Y-14449793D01*
X16248754Y-14449793D02*
X16239230Y-14430746D01*
X16239230Y-14430746D02*
X16239230Y-14421222D01*
X16239230Y-14421222D02*
X16248754Y-14402174D01*
X16248754Y-14402174D02*
X16267801Y-14392650D01*
X16267801Y-14392650D02*
X16296373Y-14392650D01*
X16296373Y-14392650D02*
X16315420Y-14402174D01*
X16391611Y-14602174D02*
X16401135Y-14592650D01*
X16401135Y-14592650D02*
X16420182Y-14564079D01*
X16420182Y-14564079D02*
X16429706Y-14545031D01*
X16429706Y-14545031D02*
X16439230Y-14516460D01*
X16439230Y-14516460D02*
X16448754Y-14468841D01*
X16448754Y-14468841D02*
X16448754Y-14430746D01*
X16448754Y-14430746D02*
X16439230Y-14383127D01*
X16439230Y-14383127D02*
X16429706Y-14354555D01*
X16429706Y-14354555D02*
X16420182Y-14335508D01*
X16420182Y-14335508D02*
X16401135Y-14306936D01*
X16401135Y-14306936D02*
X16391611Y-14297412D01*
D13*
X9942500Y-14753500D02*
X9997500Y-14698500D01*
X9942500Y-14643500D01*
X9887500Y-14698500D01*
X9942500Y-14753500D01*
D11*
X10363039Y-14789984D02*
X10248753Y-14789984D01*
X10305896Y-14789984D02*
X10305896Y-14589984D01*
X10305896Y-14589984D02*
X10286848Y-14618555D01*
X10286848Y-14618555D02*
X10267801Y-14637603D01*
X10267801Y-14637603D02*
X10248753Y-14647127D01*
X10448753Y-14770936D02*
X10458277Y-14780460D01*
X10458277Y-14780460D02*
X10448753Y-14789984D01*
X10448753Y-14789984D02*
X10439229Y-14780460D01*
X10439229Y-14780460D02*
X10448753Y-14770936D01*
X10448753Y-14770936D02*
X10448753Y-14789984D01*
X10648753Y-14789984D02*
X10534467Y-14789984D01*
X10591610Y-14789984D02*
X10591610Y-14589984D01*
X10591610Y-14589984D02*
X10572563Y-14618555D01*
X10572563Y-14618555D02*
X10553515Y-14637603D01*
X10553515Y-14637603D02*
X10534467Y-14647127D01*
X10772563Y-14589984D02*
X10791610Y-14589984D01*
X10791610Y-14589984D02*
X10810658Y-14599508D01*
X10810658Y-14599508D02*
X10820182Y-14609031D01*
X10820182Y-14609031D02*
X10829705Y-14628079D01*
X10829705Y-14628079D02*
X10839229Y-14666174D01*
X10839229Y-14666174D02*
X10839229Y-14713793D01*
X10839229Y-14713793D02*
X10829705Y-14751888D01*
X10829705Y-14751888D02*
X10820182Y-14770936D01*
X10820182Y-14770936D02*
X10810658Y-14780460D01*
X10810658Y-14780460D02*
X10791610Y-14789984D01*
X10791610Y-14789984D02*
X10772563Y-14789984D01*
X10772563Y-14789984D02*
X10753515Y-14780460D01*
X10753515Y-14780460D02*
X10743991Y-14770936D01*
X10743991Y-14770936D02*
X10734467Y-14751888D01*
X10734467Y-14751888D02*
X10724944Y-14713793D01*
X10724944Y-14713793D02*
X10724944Y-14666174D01*
X10724944Y-14666174D02*
X10734467Y-14628079D01*
X10734467Y-14628079D02*
X10743991Y-14609031D01*
X10743991Y-14609031D02*
X10753515Y-14599508D01*
X10753515Y-14599508D02*
X10772563Y-14589984D01*
X10963039Y-14589984D02*
X10982086Y-14589984D01*
X10982086Y-14589984D02*
X11001134Y-14599508D01*
X11001134Y-14599508D02*
X11010658Y-14609031D01*
X11010658Y-14609031D02*
X11020182Y-14628079D01*
X11020182Y-14628079D02*
X11029705Y-14666174D01*
X11029705Y-14666174D02*
X11029705Y-14713793D01*
X11029705Y-14713793D02*
X11020182Y-14751888D01*
X11020182Y-14751888D02*
X11010658Y-14770936D01*
X11010658Y-14770936D02*
X11001134Y-14780460D01*
X11001134Y-14780460D02*
X10982086Y-14789984D01*
X10982086Y-14789984D02*
X10963039Y-14789984D01*
X10963039Y-14789984D02*
X10943991Y-14780460D01*
X10943991Y-14780460D02*
X10934467Y-14770936D01*
X10934467Y-14770936D02*
X10924944Y-14751888D01*
X10924944Y-14751888D02*
X10915420Y-14713793D01*
X10915420Y-14713793D02*
X10915420Y-14666174D01*
X10915420Y-14666174D02*
X10924944Y-14628079D01*
X10924944Y-14628079D02*
X10934467Y-14609031D01*
X10934467Y-14609031D02*
X10943991Y-14599508D01*
X10943991Y-14599508D02*
X10963039Y-14589984D01*
X11115420Y-14789984D02*
X11115420Y-14656650D01*
X11115420Y-14675698D02*
X11124944Y-14666174D01*
X11124944Y-14666174D02*
X11143991Y-14656650D01*
X11143991Y-14656650D02*
X11172563Y-14656650D01*
X11172563Y-14656650D02*
X11191610Y-14666174D01*
X11191610Y-14666174D02*
X11201134Y-14685222D01*
X11201134Y-14685222D02*
X11201134Y-14789984D01*
X11201134Y-14685222D02*
X11210658Y-14666174D01*
X11210658Y-14666174D02*
X11229705Y-14656650D01*
X11229705Y-14656650D02*
X11258277Y-14656650D01*
X11258277Y-14656650D02*
X11277324Y-14666174D01*
X11277324Y-14666174D02*
X11286848Y-14685222D01*
X11286848Y-14685222D02*
X11286848Y-14789984D01*
X11382086Y-14789984D02*
X11382086Y-14656650D01*
X11382086Y-14675698D02*
X11391610Y-14666174D01*
X11391610Y-14666174D02*
X11410658Y-14656650D01*
X11410658Y-14656650D02*
X11439229Y-14656650D01*
X11439229Y-14656650D02*
X11458277Y-14666174D01*
X11458277Y-14666174D02*
X11467801Y-14685222D01*
X11467801Y-14685222D02*
X11467801Y-14789984D01*
X11467801Y-14685222D02*
X11477324Y-14666174D01*
X11477324Y-14666174D02*
X11496372Y-14656650D01*
X11496372Y-14656650D02*
X11524943Y-14656650D01*
X11524943Y-14656650D02*
X11543991Y-14666174D01*
X11543991Y-14666174D02*
X11553515Y-14685222D01*
X11553515Y-14685222D02*
X11553515Y-14789984D01*
X11943991Y-14580460D02*
X11772563Y-14837603D01*
X12201134Y-14589984D02*
X12220182Y-14589984D01*
X12220182Y-14589984D02*
X12239229Y-14599508D01*
X12239229Y-14599508D02*
X12248753Y-14609031D01*
X12248753Y-14609031D02*
X12258277Y-14628079D01*
X12258277Y-14628079D02*
X12267801Y-14666174D01*
X12267801Y-14666174D02*
X12267801Y-14713793D01*
X12267801Y-14713793D02*
X12258277Y-14751888D01*
X12258277Y-14751888D02*
X12248753Y-14770936D01*
X12248753Y-14770936D02*
X12239229Y-14780460D01*
X12239229Y-14780460D02*
X12220182Y-14789984D01*
X12220182Y-14789984D02*
X12201134Y-14789984D01*
X12201134Y-14789984D02*
X12182086Y-14780460D01*
X12182086Y-14780460D02*
X12172563Y-14770936D01*
X12172563Y-14770936D02*
X12163039Y-14751888D01*
X12163039Y-14751888D02*
X12153515Y-14713793D01*
X12153515Y-14713793D02*
X12153515Y-14666174D01*
X12153515Y-14666174D02*
X12163039Y-14628079D01*
X12163039Y-14628079D02*
X12172563Y-14609031D01*
X12172563Y-14609031D02*
X12182086Y-14599508D01*
X12182086Y-14599508D02*
X12201134Y-14589984D01*
X12353515Y-14770936D02*
X12363039Y-14780460D01*
X12363039Y-14780460D02*
X12353515Y-14789984D01*
X12353515Y-14789984D02*
X12343991Y-14780460D01*
X12343991Y-14780460D02*
X12353515Y-14770936D01*
X12353515Y-14770936D02*
X12353515Y-14789984D01*
X12486848Y-14589984D02*
X12505896Y-14589984D01*
X12505896Y-14589984D02*
X12524944Y-14599508D01*
X12524944Y-14599508D02*
X12534467Y-14609031D01*
X12534467Y-14609031D02*
X12543991Y-14628079D01*
X12543991Y-14628079D02*
X12553515Y-14666174D01*
X12553515Y-14666174D02*
X12553515Y-14713793D01*
X12553515Y-14713793D02*
X12543991Y-14751888D01*
X12543991Y-14751888D02*
X12534467Y-14770936D01*
X12534467Y-14770936D02*
X12524944Y-14780460D01*
X12524944Y-14780460D02*
X12505896Y-14789984D01*
X12505896Y-14789984D02*
X12486848Y-14789984D01*
X12486848Y-14789984D02*
X12467801Y-14780460D01*
X12467801Y-14780460D02*
X12458277Y-14770936D01*
X12458277Y-14770936D02*
X12448753Y-14751888D01*
X12448753Y-14751888D02*
X12439229Y-14713793D01*
X12439229Y-14713793D02*
X12439229Y-14666174D01*
X12439229Y-14666174D02*
X12448753Y-14628079D01*
X12448753Y-14628079D02*
X12458277Y-14609031D01*
X12458277Y-14609031D02*
X12467801Y-14599508D01*
X12467801Y-14599508D02*
X12486848Y-14589984D01*
X12724944Y-14656650D02*
X12724944Y-14789984D01*
X12677325Y-14580460D02*
X12629706Y-14723317D01*
X12629706Y-14723317D02*
X12753515Y-14723317D01*
X12810658Y-14589984D02*
X12934467Y-14589984D01*
X12934467Y-14589984D02*
X12867801Y-14666174D01*
X12867801Y-14666174D02*
X12896372Y-14666174D01*
X12896372Y-14666174D02*
X12915420Y-14675698D01*
X12915420Y-14675698D02*
X12924944Y-14685222D01*
X12924944Y-14685222D02*
X12934467Y-14704269D01*
X12934467Y-14704269D02*
X12934467Y-14751888D01*
X12934467Y-14751888D02*
X12924944Y-14770936D01*
X12924944Y-14770936D02*
X12915420Y-14780460D01*
X12915420Y-14780460D02*
X12896372Y-14789984D01*
X12896372Y-14789984D02*
X12839229Y-14789984D01*
X12839229Y-14789984D02*
X12820182Y-14780460D01*
X12820182Y-14780460D02*
X12810658Y-14770936D01*
X13001134Y-14589984D02*
X13124944Y-14589984D01*
X13124944Y-14589984D02*
X13058277Y-14666174D01*
X13058277Y-14666174D02*
X13086848Y-14666174D01*
X13086848Y-14666174D02*
X13105896Y-14675698D01*
X13105896Y-14675698D02*
X13115420Y-14685222D01*
X13115420Y-14685222D02*
X13124944Y-14704269D01*
X13124944Y-14704269D02*
X13124944Y-14751888D01*
X13124944Y-14751888D02*
X13115420Y-14770936D01*
X13115420Y-14770936D02*
X13105896Y-14780460D01*
X13105896Y-14780460D02*
X13086848Y-14789984D01*
X13086848Y-14789984D02*
X13029706Y-14789984D01*
X13029706Y-14789984D02*
X13010658Y-14780460D01*
X13010658Y-14780460D02*
X13001134Y-14770936D01*
X13201134Y-14589984D02*
X13201134Y-14628079D01*
X13277325Y-14589984D02*
X13277325Y-14628079D01*
X13572563Y-14866174D02*
X13563039Y-14856650D01*
X13563039Y-14856650D02*
X13543991Y-14828079D01*
X13543991Y-14828079D02*
X13534468Y-14809031D01*
X13534468Y-14809031D02*
X13524944Y-14780460D01*
X13524944Y-14780460D02*
X13515420Y-14732841D01*
X13515420Y-14732841D02*
X13515420Y-14694746D01*
X13515420Y-14694746D02*
X13524944Y-14647127D01*
X13524944Y-14647127D02*
X13534468Y-14618555D01*
X13534468Y-14618555D02*
X13543991Y-14599508D01*
X13543991Y-14599508D02*
X13563039Y-14570936D01*
X13563039Y-14570936D02*
X13572563Y-14561412D01*
X13639229Y-14609031D02*
X13648753Y-14599508D01*
X13648753Y-14599508D02*
X13667801Y-14589984D01*
X13667801Y-14589984D02*
X13715420Y-14589984D01*
X13715420Y-14589984D02*
X13734468Y-14599508D01*
X13734468Y-14599508D02*
X13743991Y-14609031D01*
X13743991Y-14609031D02*
X13753515Y-14628079D01*
X13753515Y-14628079D02*
X13753515Y-14647127D01*
X13753515Y-14647127D02*
X13743991Y-14675698D01*
X13743991Y-14675698D02*
X13629706Y-14789984D01*
X13629706Y-14789984D02*
X13753515Y-14789984D01*
X13991610Y-14789984D02*
X13991610Y-14589984D01*
X14077325Y-14789984D02*
X14077325Y-14685222D01*
X14077325Y-14685222D02*
X14067801Y-14666174D01*
X14067801Y-14666174D02*
X14048753Y-14656650D01*
X14048753Y-14656650D02*
X14020182Y-14656650D01*
X14020182Y-14656650D02*
X14001134Y-14666174D01*
X14001134Y-14666174D02*
X13991610Y-14675698D01*
X14201134Y-14789984D02*
X14182087Y-14780460D01*
X14182087Y-14780460D02*
X14172563Y-14770936D01*
X14172563Y-14770936D02*
X14163039Y-14751888D01*
X14163039Y-14751888D02*
X14163039Y-14694746D01*
X14163039Y-14694746D02*
X14172563Y-14675698D01*
X14172563Y-14675698D02*
X14182087Y-14666174D01*
X14182087Y-14666174D02*
X14201134Y-14656650D01*
X14201134Y-14656650D02*
X14229706Y-14656650D01*
X14229706Y-14656650D02*
X14248753Y-14666174D01*
X14248753Y-14666174D02*
X14258277Y-14675698D01*
X14258277Y-14675698D02*
X14267801Y-14694746D01*
X14267801Y-14694746D02*
X14267801Y-14751888D01*
X14267801Y-14751888D02*
X14258277Y-14770936D01*
X14258277Y-14770936D02*
X14248753Y-14780460D01*
X14248753Y-14780460D02*
X14229706Y-14789984D01*
X14229706Y-14789984D02*
X14201134Y-14789984D01*
X14382087Y-14789984D02*
X14363039Y-14780460D01*
X14363039Y-14780460D02*
X14353515Y-14761412D01*
X14353515Y-14761412D02*
X14353515Y-14589984D01*
X14534468Y-14780460D02*
X14515420Y-14789984D01*
X14515420Y-14789984D02*
X14477325Y-14789984D01*
X14477325Y-14789984D02*
X14458277Y-14780460D01*
X14458277Y-14780460D02*
X14448753Y-14761412D01*
X14448753Y-14761412D02*
X14448753Y-14685222D01*
X14448753Y-14685222D02*
X14458277Y-14666174D01*
X14458277Y-14666174D02*
X14477325Y-14656650D01*
X14477325Y-14656650D02*
X14515420Y-14656650D01*
X14515420Y-14656650D02*
X14534468Y-14666174D01*
X14534468Y-14666174D02*
X14543991Y-14685222D01*
X14543991Y-14685222D02*
X14543991Y-14704269D01*
X14543991Y-14704269D02*
X14448753Y-14723317D01*
X14620182Y-14780460D02*
X14639230Y-14789984D01*
X14639230Y-14789984D02*
X14677325Y-14789984D01*
X14677325Y-14789984D02*
X14696372Y-14780460D01*
X14696372Y-14780460D02*
X14705896Y-14761412D01*
X14705896Y-14761412D02*
X14705896Y-14751888D01*
X14705896Y-14751888D02*
X14696372Y-14732841D01*
X14696372Y-14732841D02*
X14677325Y-14723317D01*
X14677325Y-14723317D02*
X14648753Y-14723317D01*
X14648753Y-14723317D02*
X14629706Y-14713793D01*
X14629706Y-14713793D02*
X14620182Y-14694746D01*
X14620182Y-14694746D02*
X14620182Y-14685222D01*
X14620182Y-14685222D02*
X14629706Y-14666174D01*
X14629706Y-14666174D02*
X14648753Y-14656650D01*
X14648753Y-14656650D02*
X14677325Y-14656650D01*
X14677325Y-14656650D02*
X14696372Y-14666174D01*
X14772563Y-14866174D02*
X14782087Y-14856650D01*
X14782087Y-14856650D02*
X14801134Y-14828079D01*
X14801134Y-14828079D02*
X14810658Y-14809031D01*
X14810658Y-14809031D02*
X14820182Y-14780460D01*
X14820182Y-14780460D02*
X14829706Y-14732841D01*
X14829706Y-14732841D02*
X14829706Y-14694746D01*
X14829706Y-14694746D02*
X14820182Y-14647127D01*
X14820182Y-14647127D02*
X14810658Y-14618555D01*
X14810658Y-14618555D02*
X14801134Y-14599508D01*
X14801134Y-14599508D02*
X14782087Y-14570936D01*
X14782087Y-14570936D02*
X14772563Y-14561412D01*
M02*
