%TF.GenerationSoftware,KiCad,Pcbnew,9.0.4*%
%TF.CreationDate,2026-02-01T13:51:22-05:00*%
%TF.ProjectId,Practice,50726163-7469-4636-952e-6b696361645f,1.2*%
%TF.SameCoordinates,Original*%
%TF.FileFunction,Paste,Bot*%
%TF.FilePolarity,Positive*%
%FSLAX46Y46*%
G04 Gerber Fmt 4.6, Leading zero omitted, Abs format (unit mm)*
G04 Created by KiCad (PCBNEW 9.0.4) date 2026-02-01 13:51:22*
%MOMM*%
%LPD*%
G01*
G04 APERTURE LIST*
%ADD10C,0.100000*%
%ADD11C,0.150000*%
%ADD12C,0.300000*%
%ADD13C,0.400000*%
G04 APERTURE END LIST*
D10*
D11*
X177002200Y-166007200D02*
X285002200Y-166007200D01*
X285002200Y-198007200D01*
X177002200Y-198007200D01*
X177002200Y-166007200D01*
D10*
D11*
X10000000Y-10000000D02*
X287002200Y-10000000D01*
X287002200Y-200007200D01*
X10000000Y-200007200D01*
X10000000Y-10000000D01*
D10*
D11*
X12000000Y-12000000D02*
X285002200Y-12000000D01*
X285002200Y-198007200D01*
X12000000Y-198007200D01*
X12000000Y-12000000D01*
D10*
D11*
X60000000Y-12000000D02*
X60000000Y-10000000D01*
D10*
D11*
X110000000Y-12000000D02*
X110000000Y-10000000D01*
D10*
D11*
X160000000Y-12000000D02*
X160000000Y-10000000D01*
D10*
D11*
X210000000Y-12000000D02*
X210000000Y-10000000D01*
D10*
D11*
X260000000Y-12000000D02*
X260000000Y-10000000D01*
D10*
D11*
X36089160Y-11593604D02*
X35346303Y-11593604D01*
X35717731Y-11593604D02*
X35717731Y-10293604D01*
X35717731Y-10293604D02*
X35593922Y-10479319D01*
X35593922Y-10479319D02*
X35470112Y-10603128D01*
X35470112Y-10603128D02*
X35346303Y-10665033D01*
D10*
D11*
X85346303Y-10417414D02*
X85408207Y-10355509D01*
X85408207Y-10355509D02*
X85532017Y-10293604D01*
X85532017Y-10293604D02*
X85841541Y-10293604D01*
X85841541Y-10293604D02*
X85965350Y-10355509D01*
X85965350Y-10355509D02*
X86027255Y-10417414D01*
X86027255Y-10417414D02*
X86089160Y-10541223D01*
X86089160Y-10541223D02*
X86089160Y-10665033D01*
X86089160Y-10665033D02*
X86027255Y-10850747D01*
X86027255Y-10850747D02*
X85284398Y-11593604D01*
X85284398Y-11593604D02*
X86089160Y-11593604D01*
D10*
D11*
X135284398Y-10293604D02*
X136089160Y-10293604D01*
X136089160Y-10293604D02*
X135655826Y-10788842D01*
X135655826Y-10788842D02*
X135841541Y-10788842D01*
X135841541Y-10788842D02*
X135965350Y-10850747D01*
X135965350Y-10850747D02*
X136027255Y-10912652D01*
X136027255Y-10912652D02*
X136089160Y-11036461D01*
X136089160Y-11036461D02*
X136089160Y-11345985D01*
X136089160Y-11345985D02*
X136027255Y-11469795D01*
X136027255Y-11469795D02*
X135965350Y-11531700D01*
X135965350Y-11531700D02*
X135841541Y-11593604D01*
X135841541Y-11593604D02*
X135470112Y-11593604D01*
X135470112Y-11593604D02*
X135346303Y-11531700D01*
X135346303Y-11531700D02*
X135284398Y-11469795D01*
D10*
D11*
X185965350Y-10726938D02*
X185965350Y-11593604D01*
X185655826Y-10231700D02*
X185346303Y-11160271D01*
X185346303Y-11160271D02*
X186151064Y-11160271D01*
D10*
D11*
X236027255Y-10293604D02*
X235408207Y-10293604D01*
X235408207Y-10293604D02*
X235346303Y-10912652D01*
X235346303Y-10912652D02*
X235408207Y-10850747D01*
X235408207Y-10850747D02*
X235532017Y-10788842D01*
X235532017Y-10788842D02*
X235841541Y-10788842D01*
X235841541Y-10788842D02*
X235965350Y-10850747D01*
X235965350Y-10850747D02*
X236027255Y-10912652D01*
X236027255Y-10912652D02*
X236089160Y-11036461D01*
X236089160Y-11036461D02*
X236089160Y-11345985D01*
X236089160Y-11345985D02*
X236027255Y-11469795D01*
X236027255Y-11469795D02*
X235965350Y-11531700D01*
X235965350Y-11531700D02*
X235841541Y-11593604D01*
X235841541Y-11593604D02*
X235532017Y-11593604D01*
X235532017Y-11593604D02*
X235408207Y-11531700D01*
X235408207Y-11531700D02*
X235346303Y-11469795D01*
D10*
D11*
X285965350Y-10293604D02*
X285717731Y-10293604D01*
X285717731Y-10293604D02*
X285593922Y-10355509D01*
X285593922Y-10355509D02*
X285532017Y-10417414D01*
X285532017Y-10417414D02*
X285408207Y-10603128D01*
X285408207Y-10603128D02*
X285346303Y-10850747D01*
X285346303Y-10850747D02*
X285346303Y-11345985D01*
X285346303Y-11345985D02*
X285408207Y-11469795D01*
X285408207Y-11469795D02*
X285470112Y-11531700D01*
X285470112Y-11531700D02*
X285593922Y-11593604D01*
X285593922Y-11593604D02*
X285841541Y-11593604D01*
X285841541Y-11593604D02*
X285965350Y-11531700D01*
X285965350Y-11531700D02*
X286027255Y-11469795D01*
X286027255Y-11469795D02*
X286089160Y-11345985D01*
X286089160Y-11345985D02*
X286089160Y-11036461D01*
X286089160Y-11036461D02*
X286027255Y-10912652D01*
X286027255Y-10912652D02*
X285965350Y-10850747D01*
X285965350Y-10850747D02*
X285841541Y-10788842D01*
X285841541Y-10788842D02*
X285593922Y-10788842D01*
X285593922Y-10788842D02*
X285470112Y-10850747D01*
X285470112Y-10850747D02*
X285408207Y-10912652D01*
X285408207Y-10912652D02*
X285346303Y-11036461D01*
D10*
D11*
X60000000Y-198007200D02*
X60000000Y-200007200D01*
D10*
D11*
X110000000Y-198007200D02*
X110000000Y-200007200D01*
D10*
D11*
X160000000Y-198007200D02*
X160000000Y-200007200D01*
D10*
D11*
X210000000Y-198007200D02*
X210000000Y-200007200D01*
D10*
D11*
X260000000Y-198007200D02*
X260000000Y-200007200D01*
D10*
D11*
X36089160Y-199600804D02*
X35346303Y-199600804D01*
X35717731Y-199600804D02*
X35717731Y-198300804D01*
X35717731Y-198300804D02*
X35593922Y-198486519D01*
X35593922Y-198486519D02*
X35470112Y-198610328D01*
X35470112Y-198610328D02*
X35346303Y-198672233D01*
D10*
D11*
X85346303Y-198424614D02*
X85408207Y-198362709D01*
X85408207Y-198362709D02*
X85532017Y-198300804D01*
X85532017Y-198300804D02*
X85841541Y-198300804D01*
X85841541Y-198300804D02*
X85965350Y-198362709D01*
X85965350Y-198362709D02*
X86027255Y-198424614D01*
X86027255Y-198424614D02*
X86089160Y-198548423D01*
X86089160Y-198548423D02*
X86089160Y-198672233D01*
X86089160Y-198672233D02*
X86027255Y-198857947D01*
X86027255Y-198857947D02*
X85284398Y-199600804D01*
X85284398Y-199600804D02*
X86089160Y-199600804D01*
D10*
D11*
X135284398Y-198300804D02*
X136089160Y-198300804D01*
X136089160Y-198300804D02*
X135655826Y-198796042D01*
X135655826Y-198796042D02*
X135841541Y-198796042D01*
X135841541Y-198796042D02*
X135965350Y-198857947D01*
X135965350Y-198857947D02*
X136027255Y-198919852D01*
X136027255Y-198919852D02*
X136089160Y-199043661D01*
X136089160Y-199043661D02*
X136089160Y-199353185D01*
X136089160Y-199353185D02*
X136027255Y-199476995D01*
X136027255Y-199476995D02*
X135965350Y-199538900D01*
X135965350Y-199538900D02*
X135841541Y-199600804D01*
X135841541Y-199600804D02*
X135470112Y-199600804D01*
X135470112Y-199600804D02*
X135346303Y-199538900D01*
X135346303Y-199538900D02*
X135284398Y-199476995D01*
D10*
D11*
X185965350Y-198734138D02*
X185965350Y-199600804D01*
X185655826Y-198238900D02*
X185346303Y-199167471D01*
X185346303Y-199167471D02*
X186151064Y-199167471D01*
D10*
D11*
X236027255Y-198300804D02*
X235408207Y-198300804D01*
X235408207Y-198300804D02*
X235346303Y-198919852D01*
X235346303Y-198919852D02*
X235408207Y-198857947D01*
X235408207Y-198857947D02*
X235532017Y-198796042D01*
X235532017Y-198796042D02*
X235841541Y-198796042D01*
X235841541Y-198796042D02*
X235965350Y-198857947D01*
X235965350Y-198857947D02*
X236027255Y-198919852D01*
X236027255Y-198919852D02*
X236089160Y-199043661D01*
X236089160Y-199043661D02*
X236089160Y-199353185D01*
X236089160Y-199353185D02*
X236027255Y-199476995D01*
X236027255Y-199476995D02*
X235965350Y-199538900D01*
X235965350Y-199538900D02*
X235841541Y-199600804D01*
X235841541Y-199600804D02*
X235532017Y-199600804D01*
X235532017Y-199600804D02*
X235408207Y-199538900D01*
X235408207Y-199538900D02*
X235346303Y-199476995D01*
D10*
D11*
X285965350Y-198300804D02*
X285717731Y-198300804D01*
X285717731Y-198300804D02*
X285593922Y-198362709D01*
X285593922Y-198362709D02*
X285532017Y-198424614D01*
X285532017Y-198424614D02*
X285408207Y-198610328D01*
X285408207Y-198610328D02*
X285346303Y-198857947D01*
X285346303Y-198857947D02*
X285346303Y-199353185D01*
X285346303Y-199353185D02*
X285408207Y-199476995D01*
X285408207Y-199476995D02*
X285470112Y-199538900D01*
X285470112Y-199538900D02*
X285593922Y-199600804D01*
X285593922Y-199600804D02*
X285841541Y-199600804D01*
X285841541Y-199600804D02*
X285965350Y-199538900D01*
X285965350Y-199538900D02*
X286027255Y-199476995D01*
X286027255Y-199476995D02*
X286089160Y-199353185D01*
X286089160Y-199353185D02*
X286089160Y-199043661D01*
X286089160Y-199043661D02*
X286027255Y-198919852D01*
X286027255Y-198919852D02*
X285965350Y-198857947D01*
X285965350Y-198857947D02*
X285841541Y-198796042D01*
X285841541Y-198796042D02*
X285593922Y-198796042D01*
X285593922Y-198796042D02*
X285470112Y-198857947D01*
X285470112Y-198857947D02*
X285408207Y-198919852D01*
X285408207Y-198919852D02*
X285346303Y-199043661D01*
D10*
D11*
X10000000Y-60000000D02*
X12000000Y-60000000D01*
D10*
D11*
X10000000Y-110000000D02*
X12000000Y-110000000D01*
D10*
D11*
X10000000Y-160000000D02*
X12000000Y-160000000D01*
D10*
D11*
X10690476Y-35222176D02*
X11309523Y-35222176D01*
X10566666Y-35593604D02*
X10999999Y-34293604D01*
X10999999Y-34293604D02*
X11433333Y-35593604D01*
D10*
D11*
X11092857Y-84912652D02*
X11278571Y-84974557D01*
X11278571Y-84974557D02*
X11340476Y-85036461D01*
X11340476Y-85036461D02*
X11402380Y-85160271D01*
X11402380Y-85160271D02*
X11402380Y-85345985D01*
X11402380Y-85345985D02*
X11340476Y-85469795D01*
X11340476Y-85469795D02*
X11278571Y-85531700D01*
X11278571Y-85531700D02*
X11154761Y-85593604D01*
X11154761Y-85593604D02*
X10659523Y-85593604D01*
X10659523Y-85593604D02*
X10659523Y-84293604D01*
X10659523Y-84293604D02*
X11092857Y-84293604D01*
X11092857Y-84293604D02*
X11216666Y-84355509D01*
X11216666Y-84355509D02*
X11278571Y-84417414D01*
X11278571Y-84417414D02*
X11340476Y-84541223D01*
X11340476Y-84541223D02*
X11340476Y-84665033D01*
X11340476Y-84665033D02*
X11278571Y-84788842D01*
X11278571Y-84788842D02*
X11216666Y-84850747D01*
X11216666Y-84850747D02*
X11092857Y-84912652D01*
X11092857Y-84912652D02*
X10659523Y-84912652D01*
D10*
D11*
X11402380Y-135469795D02*
X11340476Y-135531700D01*
X11340476Y-135531700D02*
X11154761Y-135593604D01*
X11154761Y-135593604D02*
X11030952Y-135593604D01*
X11030952Y-135593604D02*
X10845238Y-135531700D01*
X10845238Y-135531700D02*
X10721428Y-135407890D01*
X10721428Y-135407890D02*
X10659523Y-135284080D01*
X10659523Y-135284080D02*
X10597619Y-135036461D01*
X10597619Y-135036461D02*
X10597619Y-134850747D01*
X10597619Y-134850747D02*
X10659523Y-134603128D01*
X10659523Y-134603128D02*
X10721428Y-134479319D01*
X10721428Y-134479319D02*
X10845238Y-134355509D01*
X10845238Y-134355509D02*
X11030952Y-134293604D01*
X11030952Y-134293604D02*
X11154761Y-134293604D01*
X11154761Y-134293604D02*
X11340476Y-134355509D01*
X11340476Y-134355509D02*
X11402380Y-134417414D01*
D10*
D11*
X10659523Y-185593604D02*
X10659523Y-184293604D01*
X10659523Y-184293604D02*
X10969047Y-184293604D01*
X10969047Y-184293604D02*
X11154761Y-184355509D01*
X11154761Y-184355509D02*
X11278571Y-184479319D01*
X11278571Y-184479319D02*
X11340476Y-184603128D01*
X11340476Y-184603128D02*
X11402380Y-184850747D01*
X11402380Y-184850747D02*
X11402380Y-185036461D01*
X11402380Y-185036461D02*
X11340476Y-185284080D01*
X11340476Y-185284080D02*
X11278571Y-185407890D01*
X11278571Y-185407890D02*
X11154761Y-185531700D01*
X11154761Y-185531700D02*
X10969047Y-185593604D01*
X10969047Y-185593604D02*
X10659523Y-185593604D01*
D10*
D11*
X287002200Y-60000000D02*
X285002200Y-60000000D01*
D10*
D11*
X287002200Y-110000000D02*
X285002200Y-110000000D01*
D10*
D11*
X287002200Y-160000000D02*
X285002200Y-160000000D01*
D10*
D11*
X285692676Y-35222176D02*
X286311723Y-35222176D01*
X285568866Y-35593604D02*
X286002199Y-34293604D01*
X286002199Y-34293604D02*
X286435533Y-35593604D01*
D10*
D11*
X286095057Y-84912652D02*
X286280771Y-84974557D01*
X286280771Y-84974557D02*
X286342676Y-85036461D01*
X286342676Y-85036461D02*
X286404580Y-85160271D01*
X286404580Y-85160271D02*
X286404580Y-85345985D01*
X286404580Y-85345985D02*
X286342676Y-85469795D01*
X286342676Y-85469795D02*
X286280771Y-85531700D01*
X286280771Y-85531700D02*
X286156961Y-85593604D01*
X286156961Y-85593604D02*
X285661723Y-85593604D01*
X285661723Y-85593604D02*
X285661723Y-84293604D01*
X285661723Y-84293604D02*
X286095057Y-84293604D01*
X286095057Y-84293604D02*
X286218866Y-84355509D01*
X286218866Y-84355509D02*
X286280771Y-84417414D01*
X286280771Y-84417414D02*
X286342676Y-84541223D01*
X286342676Y-84541223D02*
X286342676Y-84665033D01*
X286342676Y-84665033D02*
X286280771Y-84788842D01*
X286280771Y-84788842D02*
X286218866Y-84850747D01*
X286218866Y-84850747D02*
X286095057Y-84912652D01*
X286095057Y-84912652D02*
X285661723Y-84912652D01*
D10*
D11*
X286404580Y-135469795D02*
X286342676Y-135531700D01*
X286342676Y-135531700D02*
X286156961Y-135593604D01*
X286156961Y-135593604D02*
X286033152Y-135593604D01*
X286033152Y-135593604D02*
X285847438Y-135531700D01*
X285847438Y-135531700D02*
X285723628Y-135407890D01*
X285723628Y-135407890D02*
X285661723Y-135284080D01*
X285661723Y-135284080D02*
X285599819Y-135036461D01*
X285599819Y-135036461D02*
X285599819Y-134850747D01*
X285599819Y-134850747D02*
X285661723Y-134603128D01*
X285661723Y-134603128D02*
X285723628Y-134479319D01*
X285723628Y-134479319D02*
X285847438Y-134355509D01*
X285847438Y-134355509D02*
X286033152Y-134293604D01*
X286033152Y-134293604D02*
X286156961Y-134293604D01*
X286156961Y-134293604D02*
X286342676Y-134355509D01*
X286342676Y-134355509D02*
X286404580Y-134417414D01*
D10*
D11*
X285661723Y-185593604D02*
X285661723Y-184293604D01*
X285661723Y-184293604D02*
X285971247Y-184293604D01*
X285971247Y-184293604D02*
X286156961Y-184355509D01*
X286156961Y-184355509D02*
X286280771Y-184479319D01*
X286280771Y-184479319D02*
X286342676Y-184603128D01*
X286342676Y-184603128D02*
X286404580Y-184850747D01*
X286404580Y-184850747D02*
X286404580Y-185036461D01*
X286404580Y-185036461D02*
X286342676Y-185284080D01*
X286342676Y-185284080D02*
X286280771Y-185407890D01*
X286280771Y-185407890D02*
X286156961Y-185531700D01*
X286156961Y-185531700D02*
X285971247Y-185593604D01*
X285971247Y-185593604D02*
X285661723Y-185593604D01*
D10*
D11*
X200458026Y-193793328D02*
X200458026Y-192293328D01*
X200458026Y-192293328D02*
X200815169Y-192293328D01*
X200815169Y-192293328D02*
X201029455Y-192364757D01*
X201029455Y-192364757D02*
X201172312Y-192507614D01*
X201172312Y-192507614D02*
X201243741Y-192650471D01*
X201243741Y-192650471D02*
X201315169Y-192936185D01*
X201315169Y-192936185D02*
X201315169Y-193150471D01*
X201315169Y-193150471D02*
X201243741Y-193436185D01*
X201243741Y-193436185D02*
X201172312Y-193579042D01*
X201172312Y-193579042D02*
X201029455Y-193721900D01*
X201029455Y-193721900D02*
X200815169Y-193793328D01*
X200815169Y-193793328D02*
X200458026Y-193793328D01*
X202600884Y-193793328D02*
X202600884Y-193007614D01*
X202600884Y-193007614D02*
X202529455Y-192864757D01*
X202529455Y-192864757D02*
X202386598Y-192793328D01*
X202386598Y-192793328D02*
X202100884Y-192793328D01*
X202100884Y-192793328D02*
X201958026Y-192864757D01*
X202600884Y-193721900D02*
X202458026Y-193793328D01*
X202458026Y-193793328D02*
X202100884Y-193793328D01*
X202100884Y-193793328D02*
X201958026Y-193721900D01*
X201958026Y-193721900D02*
X201886598Y-193579042D01*
X201886598Y-193579042D02*
X201886598Y-193436185D01*
X201886598Y-193436185D02*
X201958026Y-193293328D01*
X201958026Y-193293328D02*
X202100884Y-193221900D01*
X202100884Y-193221900D02*
X202458026Y-193221900D01*
X202458026Y-193221900D02*
X202600884Y-193150471D01*
X203100884Y-192793328D02*
X203672312Y-192793328D01*
X203315169Y-192293328D02*
X203315169Y-193579042D01*
X203315169Y-193579042D02*
X203386598Y-193721900D01*
X203386598Y-193721900D02*
X203529455Y-193793328D01*
X203529455Y-193793328D02*
X203672312Y-193793328D01*
X204743741Y-193721900D02*
X204600884Y-193793328D01*
X204600884Y-193793328D02*
X204315170Y-193793328D01*
X204315170Y-193793328D02*
X204172312Y-193721900D01*
X204172312Y-193721900D02*
X204100884Y-193579042D01*
X204100884Y-193579042D02*
X204100884Y-193007614D01*
X204100884Y-193007614D02*
X204172312Y-192864757D01*
X204172312Y-192864757D02*
X204315170Y-192793328D01*
X204315170Y-192793328D02*
X204600884Y-192793328D01*
X204600884Y-192793328D02*
X204743741Y-192864757D01*
X204743741Y-192864757D02*
X204815170Y-193007614D01*
X204815170Y-193007614D02*
X204815170Y-193150471D01*
X204815170Y-193150471D02*
X204100884Y-193293328D01*
X205458026Y-193650471D02*
X205529455Y-193721900D01*
X205529455Y-193721900D02*
X205458026Y-193793328D01*
X205458026Y-193793328D02*
X205386598Y-193721900D01*
X205386598Y-193721900D02*
X205458026Y-193650471D01*
X205458026Y-193650471D02*
X205458026Y-193793328D01*
X205458026Y-192864757D02*
X205529455Y-192936185D01*
X205529455Y-192936185D02*
X205458026Y-193007614D01*
X205458026Y-193007614D02*
X205386598Y-192936185D01*
X205386598Y-192936185D02*
X205458026Y-192864757D01*
X205458026Y-192864757D02*
X205458026Y-193007614D01*
X207243741Y-192436185D02*
X207315169Y-192364757D01*
X207315169Y-192364757D02*
X207458027Y-192293328D01*
X207458027Y-192293328D02*
X207815169Y-192293328D01*
X207815169Y-192293328D02*
X207958027Y-192364757D01*
X207958027Y-192364757D02*
X208029455Y-192436185D01*
X208029455Y-192436185D02*
X208100884Y-192579042D01*
X208100884Y-192579042D02*
X208100884Y-192721900D01*
X208100884Y-192721900D02*
X208029455Y-192936185D01*
X208029455Y-192936185D02*
X207172312Y-193793328D01*
X207172312Y-193793328D02*
X208100884Y-193793328D01*
X209029455Y-192293328D02*
X209172312Y-192293328D01*
X209172312Y-192293328D02*
X209315169Y-192364757D01*
X209315169Y-192364757D02*
X209386598Y-192436185D01*
X209386598Y-192436185D02*
X209458026Y-192579042D01*
X209458026Y-192579042D02*
X209529455Y-192864757D01*
X209529455Y-192864757D02*
X209529455Y-193221900D01*
X209529455Y-193221900D02*
X209458026Y-193507614D01*
X209458026Y-193507614D02*
X209386598Y-193650471D01*
X209386598Y-193650471D02*
X209315169Y-193721900D01*
X209315169Y-193721900D02*
X209172312Y-193793328D01*
X209172312Y-193793328D02*
X209029455Y-193793328D01*
X209029455Y-193793328D02*
X208886598Y-193721900D01*
X208886598Y-193721900D02*
X208815169Y-193650471D01*
X208815169Y-193650471D02*
X208743740Y-193507614D01*
X208743740Y-193507614D02*
X208672312Y-193221900D01*
X208672312Y-193221900D02*
X208672312Y-192864757D01*
X208672312Y-192864757D02*
X208743740Y-192579042D01*
X208743740Y-192579042D02*
X208815169Y-192436185D01*
X208815169Y-192436185D02*
X208886598Y-192364757D01*
X208886598Y-192364757D02*
X209029455Y-192293328D01*
X210100883Y-192436185D02*
X210172311Y-192364757D01*
X210172311Y-192364757D02*
X210315169Y-192293328D01*
X210315169Y-192293328D02*
X210672311Y-192293328D01*
X210672311Y-192293328D02*
X210815169Y-192364757D01*
X210815169Y-192364757D02*
X210886597Y-192436185D01*
X210886597Y-192436185D02*
X210958026Y-192579042D01*
X210958026Y-192579042D02*
X210958026Y-192721900D01*
X210958026Y-192721900D02*
X210886597Y-192936185D01*
X210886597Y-192936185D02*
X210029454Y-193793328D01*
X210029454Y-193793328D02*
X210958026Y-193793328D01*
X212243740Y-192293328D02*
X211958025Y-192293328D01*
X211958025Y-192293328D02*
X211815168Y-192364757D01*
X211815168Y-192364757D02*
X211743740Y-192436185D01*
X211743740Y-192436185D02*
X211600882Y-192650471D01*
X211600882Y-192650471D02*
X211529454Y-192936185D01*
X211529454Y-192936185D02*
X211529454Y-193507614D01*
X211529454Y-193507614D02*
X211600882Y-193650471D01*
X211600882Y-193650471D02*
X211672311Y-193721900D01*
X211672311Y-193721900D02*
X211815168Y-193793328D01*
X211815168Y-193793328D02*
X212100882Y-193793328D01*
X212100882Y-193793328D02*
X212243740Y-193721900D01*
X212243740Y-193721900D02*
X212315168Y-193650471D01*
X212315168Y-193650471D02*
X212386597Y-193507614D01*
X212386597Y-193507614D02*
X212386597Y-193150471D01*
X212386597Y-193150471D02*
X212315168Y-193007614D01*
X212315168Y-193007614D02*
X212243740Y-192936185D01*
X212243740Y-192936185D02*
X212100882Y-192864757D01*
X212100882Y-192864757D02*
X211815168Y-192864757D01*
X211815168Y-192864757D02*
X211672311Y-192936185D01*
X211672311Y-192936185D02*
X211600882Y-193007614D01*
X211600882Y-193007614D02*
X211529454Y-193150471D01*
X213029453Y-193221900D02*
X214172311Y-193221900D01*
X215172311Y-192293328D02*
X215315168Y-192293328D01*
X215315168Y-192293328D02*
X215458025Y-192364757D01*
X215458025Y-192364757D02*
X215529454Y-192436185D01*
X215529454Y-192436185D02*
X215600882Y-192579042D01*
X215600882Y-192579042D02*
X215672311Y-192864757D01*
X215672311Y-192864757D02*
X215672311Y-193221900D01*
X215672311Y-193221900D02*
X215600882Y-193507614D01*
X215600882Y-193507614D02*
X215529454Y-193650471D01*
X215529454Y-193650471D02*
X215458025Y-193721900D01*
X215458025Y-193721900D02*
X215315168Y-193793328D01*
X215315168Y-193793328D02*
X215172311Y-193793328D01*
X215172311Y-193793328D02*
X215029454Y-193721900D01*
X215029454Y-193721900D02*
X214958025Y-193650471D01*
X214958025Y-193650471D02*
X214886596Y-193507614D01*
X214886596Y-193507614D02*
X214815168Y-193221900D01*
X214815168Y-193221900D02*
X214815168Y-192864757D01*
X214815168Y-192864757D02*
X214886596Y-192579042D01*
X214886596Y-192579042D02*
X214958025Y-192436185D01*
X214958025Y-192436185D02*
X215029454Y-192364757D01*
X215029454Y-192364757D02*
X215172311Y-192293328D01*
X217100882Y-193793328D02*
X216243739Y-193793328D01*
X216672310Y-193793328D02*
X216672310Y-192293328D01*
X216672310Y-192293328D02*
X216529453Y-192507614D01*
X216529453Y-192507614D02*
X216386596Y-192650471D01*
X216386596Y-192650471D02*
X216243739Y-192721900D01*
X217743738Y-193221900D02*
X218886596Y-193221900D01*
X219458024Y-192293328D02*
X220386596Y-192293328D01*
X220386596Y-192293328D02*
X219886596Y-192864757D01*
X219886596Y-192864757D02*
X220100881Y-192864757D01*
X220100881Y-192864757D02*
X220243739Y-192936185D01*
X220243739Y-192936185D02*
X220315167Y-193007614D01*
X220315167Y-193007614D02*
X220386596Y-193150471D01*
X220386596Y-193150471D02*
X220386596Y-193507614D01*
X220386596Y-193507614D02*
X220315167Y-193650471D01*
X220315167Y-193650471D02*
X220243739Y-193721900D01*
X220243739Y-193721900D02*
X220100881Y-193793328D01*
X220100881Y-193793328D02*
X219672310Y-193793328D01*
X219672310Y-193793328D02*
X219529453Y-193721900D01*
X219529453Y-193721900D02*
X219458024Y-193650471D01*
X221815167Y-193793328D02*
X220958024Y-193793328D01*
X221386595Y-193793328D02*
X221386595Y-192293328D01*
X221386595Y-192293328D02*
X221243738Y-192507614D01*
X221243738Y-192507614D02*
X221100881Y-192650471D01*
X221100881Y-192650471D02*
X220958024Y-192721900D01*
D10*
D11*
X177002200Y-194507200D02*
X285002200Y-194507200D01*
D10*
D11*
X178458026Y-196593328D02*
X178458026Y-195093328D01*
X179315169Y-196593328D02*
X178672312Y-195736185D01*
X179315169Y-195093328D02*
X178458026Y-195950471D01*
X179958026Y-196593328D02*
X179958026Y-195593328D01*
X179958026Y-195093328D02*
X179886598Y-195164757D01*
X179886598Y-195164757D02*
X179958026Y-195236185D01*
X179958026Y-195236185D02*
X180029455Y-195164757D01*
X180029455Y-195164757D02*
X179958026Y-195093328D01*
X179958026Y-195093328D02*
X179958026Y-195236185D01*
X181529455Y-196450471D02*
X181458027Y-196521900D01*
X181458027Y-196521900D02*
X181243741Y-196593328D01*
X181243741Y-196593328D02*
X181100884Y-196593328D01*
X181100884Y-196593328D02*
X180886598Y-196521900D01*
X180886598Y-196521900D02*
X180743741Y-196379042D01*
X180743741Y-196379042D02*
X180672312Y-196236185D01*
X180672312Y-196236185D02*
X180600884Y-195950471D01*
X180600884Y-195950471D02*
X180600884Y-195736185D01*
X180600884Y-195736185D02*
X180672312Y-195450471D01*
X180672312Y-195450471D02*
X180743741Y-195307614D01*
X180743741Y-195307614D02*
X180886598Y-195164757D01*
X180886598Y-195164757D02*
X181100884Y-195093328D01*
X181100884Y-195093328D02*
X181243741Y-195093328D01*
X181243741Y-195093328D02*
X181458027Y-195164757D01*
X181458027Y-195164757D02*
X181529455Y-195236185D01*
X182815170Y-196593328D02*
X182815170Y-195807614D01*
X182815170Y-195807614D02*
X182743741Y-195664757D01*
X182743741Y-195664757D02*
X182600884Y-195593328D01*
X182600884Y-195593328D02*
X182315170Y-195593328D01*
X182315170Y-195593328D02*
X182172312Y-195664757D01*
X182815170Y-196521900D02*
X182672312Y-196593328D01*
X182672312Y-196593328D02*
X182315170Y-196593328D01*
X182315170Y-196593328D02*
X182172312Y-196521900D01*
X182172312Y-196521900D02*
X182100884Y-196379042D01*
X182100884Y-196379042D02*
X182100884Y-196236185D01*
X182100884Y-196236185D02*
X182172312Y-196093328D01*
X182172312Y-196093328D02*
X182315170Y-196021900D01*
X182315170Y-196021900D02*
X182672312Y-196021900D01*
X182672312Y-196021900D02*
X182815170Y-195950471D01*
X184172313Y-196593328D02*
X184172313Y-195093328D01*
X184172313Y-196521900D02*
X184029455Y-196593328D01*
X184029455Y-196593328D02*
X183743741Y-196593328D01*
X183743741Y-196593328D02*
X183600884Y-196521900D01*
X183600884Y-196521900D02*
X183529455Y-196450471D01*
X183529455Y-196450471D02*
X183458027Y-196307614D01*
X183458027Y-196307614D02*
X183458027Y-195879042D01*
X183458027Y-195879042D02*
X183529455Y-195736185D01*
X183529455Y-195736185D02*
X183600884Y-195664757D01*
X183600884Y-195664757D02*
X183743741Y-195593328D01*
X183743741Y-195593328D02*
X184029455Y-195593328D01*
X184029455Y-195593328D02*
X184172313Y-195664757D01*
X186029455Y-195807614D02*
X186529455Y-195807614D01*
X186743741Y-196593328D02*
X186029455Y-196593328D01*
X186029455Y-196593328D02*
X186029455Y-195093328D01*
X186029455Y-195093328D02*
X186743741Y-195093328D01*
X187386598Y-196450471D02*
X187458027Y-196521900D01*
X187458027Y-196521900D02*
X187386598Y-196593328D01*
X187386598Y-196593328D02*
X187315170Y-196521900D01*
X187315170Y-196521900D02*
X187386598Y-196450471D01*
X187386598Y-196450471D02*
X187386598Y-196593328D01*
X188100884Y-196593328D02*
X188100884Y-195093328D01*
X188100884Y-195093328D02*
X188458027Y-195093328D01*
X188458027Y-195093328D02*
X188672313Y-195164757D01*
X188672313Y-195164757D02*
X188815170Y-195307614D01*
X188815170Y-195307614D02*
X188886599Y-195450471D01*
X188886599Y-195450471D02*
X188958027Y-195736185D01*
X188958027Y-195736185D02*
X188958027Y-195950471D01*
X188958027Y-195950471D02*
X188886599Y-196236185D01*
X188886599Y-196236185D02*
X188815170Y-196379042D01*
X188815170Y-196379042D02*
X188672313Y-196521900D01*
X188672313Y-196521900D02*
X188458027Y-196593328D01*
X188458027Y-196593328D02*
X188100884Y-196593328D01*
X189600884Y-196450471D02*
X189672313Y-196521900D01*
X189672313Y-196521900D02*
X189600884Y-196593328D01*
X189600884Y-196593328D02*
X189529456Y-196521900D01*
X189529456Y-196521900D02*
X189600884Y-196450471D01*
X189600884Y-196450471D02*
X189600884Y-196593328D01*
X190243742Y-196164757D02*
X190958028Y-196164757D01*
X190100885Y-196593328D02*
X190600885Y-195093328D01*
X190600885Y-195093328D02*
X191100885Y-196593328D01*
X191600884Y-196450471D02*
X191672313Y-196521900D01*
X191672313Y-196521900D02*
X191600884Y-196593328D01*
X191600884Y-196593328D02*
X191529456Y-196521900D01*
X191529456Y-196521900D02*
X191600884Y-196450471D01*
X191600884Y-196450471D02*
X191600884Y-196593328D01*
X193529456Y-196593328D02*
X193815170Y-196593328D01*
X193815170Y-196593328D02*
X193958027Y-196521900D01*
X193958027Y-196521900D02*
X194029456Y-196450471D01*
X194029456Y-196450471D02*
X194172313Y-196236185D01*
X194172313Y-196236185D02*
X194243742Y-195950471D01*
X194243742Y-195950471D02*
X194243742Y-195379042D01*
X194243742Y-195379042D02*
X194172313Y-195236185D01*
X194172313Y-195236185D02*
X194100885Y-195164757D01*
X194100885Y-195164757D02*
X193958027Y-195093328D01*
X193958027Y-195093328D02*
X193672313Y-195093328D01*
X193672313Y-195093328D02*
X193529456Y-195164757D01*
X193529456Y-195164757D02*
X193458027Y-195236185D01*
X193458027Y-195236185D02*
X193386599Y-195379042D01*
X193386599Y-195379042D02*
X193386599Y-195736185D01*
X193386599Y-195736185D02*
X193458027Y-195879042D01*
X193458027Y-195879042D02*
X193529456Y-195950471D01*
X193529456Y-195950471D02*
X193672313Y-196021900D01*
X193672313Y-196021900D02*
X193958027Y-196021900D01*
X193958027Y-196021900D02*
X194100885Y-195950471D01*
X194100885Y-195950471D02*
X194172313Y-195879042D01*
X194172313Y-195879042D02*
X194243742Y-195736185D01*
X194886598Y-196450471D02*
X194958027Y-196521900D01*
X194958027Y-196521900D02*
X194886598Y-196593328D01*
X194886598Y-196593328D02*
X194815170Y-196521900D01*
X194815170Y-196521900D02*
X194886598Y-196450471D01*
X194886598Y-196450471D02*
X194886598Y-196593328D01*
X195886599Y-195093328D02*
X196029456Y-195093328D01*
X196029456Y-195093328D02*
X196172313Y-195164757D01*
X196172313Y-195164757D02*
X196243742Y-195236185D01*
X196243742Y-195236185D02*
X196315170Y-195379042D01*
X196315170Y-195379042D02*
X196386599Y-195664757D01*
X196386599Y-195664757D02*
X196386599Y-196021900D01*
X196386599Y-196021900D02*
X196315170Y-196307614D01*
X196315170Y-196307614D02*
X196243742Y-196450471D01*
X196243742Y-196450471D02*
X196172313Y-196521900D01*
X196172313Y-196521900D02*
X196029456Y-196593328D01*
X196029456Y-196593328D02*
X195886599Y-196593328D01*
X195886599Y-196593328D02*
X195743742Y-196521900D01*
X195743742Y-196521900D02*
X195672313Y-196450471D01*
X195672313Y-196450471D02*
X195600884Y-196307614D01*
X195600884Y-196307614D02*
X195529456Y-196021900D01*
X195529456Y-196021900D02*
X195529456Y-195664757D01*
X195529456Y-195664757D02*
X195600884Y-195379042D01*
X195600884Y-195379042D02*
X195672313Y-195236185D01*
X195672313Y-195236185D02*
X195743742Y-195164757D01*
X195743742Y-195164757D02*
X195886599Y-195093328D01*
X197029455Y-196450471D02*
X197100884Y-196521900D01*
X197100884Y-196521900D02*
X197029455Y-196593328D01*
X197029455Y-196593328D02*
X196958027Y-196521900D01*
X196958027Y-196521900D02*
X197029455Y-196450471D01*
X197029455Y-196450471D02*
X197029455Y-196593328D01*
X198386599Y-195593328D02*
X198386599Y-196593328D01*
X198029456Y-195021900D02*
X197672313Y-196093328D01*
X197672313Y-196093328D02*
X198600884Y-196093328D01*
D10*
D11*
X177002200Y-191507200D02*
X285002200Y-191507200D01*
D10*
D12*
X264413853Y-193785528D02*
X263913853Y-193071242D01*
X263556710Y-193785528D02*
X263556710Y-192285528D01*
X263556710Y-192285528D02*
X264128139Y-192285528D01*
X264128139Y-192285528D02*
X264270996Y-192356957D01*
X264270996Y-192356957D02*
X264342425Y-192428385D01*
X264342425Y-192428385D02*
X264413853Y-192571242D01*
X264413853Y-192571242D02*
X264413853Y-192785528D01*
X264413853Y-192785528D02*
X264342425Y-192928385D01*
X264342425Y-192928385D02*
X264270996Y-192999814D01*
X264270996Y-192999814D02*
X264128139Y-193071242D01*
X264128139Y-193071242D02*
X263556710Y-193071242D01*
X265628139Y-193714100D02*
X265485282Y-193785528D01*
X265485282Y-193785528D02*
X265199568Y-193785528D01*
X265199568Y-193785528D02*
X265056710Y-193714100D01*
X265056710Y-193714100D02*
X264985282Y-193571242D01*
X264985282Y-193571242D02*
X264985282Y-192999814D01*
X264985282Y-192999814D02*
X265056710Y-192856957D01*
X265056710Y-192856957D02*
X265199568Y-192785528D01*
X265199568Y-192785528D02*
X265485282Y-192785528D01*
X265485282Y-192785528D02*
X265628139Y-192856957D01*
X265628139Y-192856957D02*
X265699568Y-192999814D01*
X265699568Y-192999814D02*
X265699568Y-193142671D01*
X265699568Y-193142671D02*
X264985282Y-193285528D01*
X266199567Y-192785528D02*
X266556710Y-193785528D01*
X266556710Y-193785528D02*
X266913853Y-192785528D01*
X267485281Y-193642671D02*
X267556710Y-193714100D01*
X267556710Y-193714100D02*
X267485281Y-193785528D01*
X267485281Y-193785528D02*
X267413853Y-193714100D01*
X267413853Y-193714100D02*
X267485281Y-193642671D01*
X267485281Y-193642671D02*
X267485281Y-193785528D01*
X267485281Y-192856957D02*
X267556710Y-192928385D01*
X267556710Y-192928385D02*
X267485281Y-192999814D01*
X267485281Y-192999814D02*
X267413853Y-192928385D01*
X267413853Y-192928385D02*
X267485281Y-192856957D01*
X267485281Y-192856957D02*
X267485281Y-192999814D01*
X270128139Y-193785528D02*
X269270996Y-193785528D01*
X269699567Y-193785528D02*
X269699567Y-192285528D01*
X269699567Y-192285528D02*
X269556710Y-192499814D01*
X269556710Y-192499814D02*
X269413853Y-192642671D01*
X269413853Y-192642671D02*
X269270996Y-192714100D01*
X270770995Y-193642671D02*
X270842424Y-193714100D01*
X270842424Y-193714100D02*
X270770995Y-193785528D01*
X270770995Y-193785528D02*
X270699567Y-193714100D01*
X270699567Y-193714100D02*
X270770995Y-193642671D01*
X270770995Y-193642671D02*
X270770995Y-193785528D01*
X271413853Y-192428385D02*
X271485281Y-192356957D01*
X271485281Y-192356957D02*
X271628139Y-192285528D01*
X271628139Y-192285528D02*
X271985281Y-192285528D01*
X271985281Y-192285528D02*
X272128139Y-192356957D01*
X272128139Y-192356957D02*
X272199567Y-192428385D01*
X272199567Y-192428385D02*
X272270996Y-192571242D01*
X272270996Y-192571242D02*
X272270996Y-192714100D01*
X272270996Y-192714100D02*
X272199567Y-192928385D01*
X272199567Y-192928385D02*
X271342424Y-193785528D01*
X271342424Y-193785528D02*
X272270996Y-193785528D01*
D10*
D11*
X178386598Y-193721900D02*
X178600884Y-193793328D01*
X178600884Y-193793328D02*
X178958026Y-193793328D01*
X178958026Y-193793328D02*
X179100884Y-193721900D01*
X179100884Y-193721900D02*
X179172312Y-193650471D01*
X179172312Y-193650471D02*
X179243741Y-193507614D01*
X179243741Y-193507614D02*
X179243741Y-193364757D01*
X179243741Y-193364757D02*
X179172312Y-193221900D01*
X179172312Y-193221900D02*
X179100884Y-193150471D01*
X179100884Y-193150471D02*
X178958026Y-193079042D01*
X178958026Y-193079042D02*
X178672312Y-193007614D01*
X178672312Y-193007614D02*
X178529455Y-192936185D01*
X178529455Y-192936185D02*
X178458026Y-192864757D01*
X178458026Y-192864757D02*
X178386598Y-192721900D01*
X178386598Y-192721900D02*
X178386598Y-192579042D01*
X178386598Y-192579042D02*
X178458026Y-192436185D01*
X178458026Y-192436185D02*
X178529455Y-192364757D01*
X178529455Y-192364757D02*
X178672312Y-192293328D01*
X178672312Y-192293328D02*
X179029455Y-192293328D01*
X179029455Y-192293328D02*
X179243741Y-192364757D01*
X179886597Y-193793328D02*
X179886597Y-192793328D01*
X179886597Y-192293328D02*
X179815169Y-192364757D01*
X179815169Y-192364757D02*
X179886597Y-192436185D01*
X179886597Y-192436185D02*
X179958026Y-192364757D01*
X179958026Y-192364757D02*
X179886597Y-192293328D01*
X179886597Y-192293328D02*
X179886597Y-192436185D01*
X180458026Y-192793328D02*
X181243741Y-192793328D01*
X181243741Y-192793328D02*
X180458026Y-193793328D01*
X180458026Y-193793328D02*
X181243741Y-193793328D01*
X182386598Y-193721900D02*
X182243741Y-193793328D01*
X182243741Y-193793328D02*
X181958027Y-193793328D01*
X181958027Y-193793328D02*
X181815169Y-193721900D01*
X181815169Y-193721900D02*
X181743741Y-193579042D01*
X181743741Y-193579042D02*
X181743741Y-193007614D01*
X181743741Y-193007614D02*
X181815169Y-192864757D01*
X181815169Y-192864757D02*
X181958027Y-192793328D01*
X181958027Y-192793328D02*
X182243741Y-192793328D01*
X182243741Y-192793328D02*
X182386598Y-192864757D01*
X182386598Y-192864757D02*
X182458027Y-193007614D01*
X182458027Y-193007614D02*
X182458027Y-193150471D01*
X182458027Y-193150471D02*
X181743741Y-193293328D01*
X183100883Y-193650471D02*
X183172312Y-193721900D01*
X183172312Y-193721900D02*
X183100883Y-193793328D01*
X183100883Y-193793328D02*
X183029455Y-193721900D01*
X183029455Y-193721900D02*
X183100883Y-193650471D01*
X183100883Y-193650471D02*
X183100883Y-193793328D01*
X183100883Y-192864757D02*
X183172312Y-192936185D01*
X183172312Y-192936185D02*
X183100883Y-193007614D01*
X183100883Y-193007614D02*
X183029455Y-192936185D01*
X183029455Y-192936185D02*
X183100883Y-192864757D01*
X183100883Y-192864757D02*
X183100883Y-193007614D01*
X184886598Y-193364757D02*
X185600884Y-193364757D01*
X184743741Y-193793328D02*
X185243741Y-192293328D01*
X185243741Y-192293328D02*
X185743741Y-193793328D01*
X186886598Y-192793328D02*
X186886598Y-193793328D01*
X186529455Y-192221900D02*
X186172312Y-193293328D01*
X186172312Y-193293328D02*
X187100883Y-193293328D01*
D10*
D11*
X263458026Y-196593328D02*
X263458026Y-195093328D01*
X264815170Y-196593328D02*
X264815170Y-195093328D01*
X264815170Y-196521900D02*
X264672312Y-196593328D01*
X264672312Y-196593328D02*
X264386598Y-196593328D01*
X264386598Y-196593328D02*
X264243741Y-196521900D01*
X264243741Y-196521900D02*
X264172312Y-196450471D01*
X264172312Y-196450471D02*
X264100884Y-196307614D01*
X264100884Y-196307614D02*
X264100884Y-195879042D01*
X264100884Y-195879042D02*
X264172312Y-195736185D01*
X264172312Y-195736185D02*
X264243741Y-195664757D01*
X264243741Y-195664757D02*
X264386598Y-195593328D01*
X264386598Y-195593328D02*
X264672312Y-195593328D01*
X264672312Y-195593328D02*
X264815170Y-195664757D01*
X265529455Y-196450471D02*
X265600884Y-196521900D01*
X265600884Y-196521900D02*
X265529455Y-196593328D01*
X265529455Y-196593328D02*
X265458027Y-196521900D01*
X265458027Y-196521900D02*
X265529455Y-196450471D01*
X265529455Y-196450471D02*
X265529455Y-196593328D01*
X265529455Y-195664757D02*
X265600884Y-195736185D01*
X265600884Y-195736185D02*
X265529455Y-195807614D01*
X265529455Y-195807614D02*
X265458027Y-195736185D01*
X265458027Y-195736185D02*
X265529455Y-195664757D01*
X265529455Y-195664757D02*
X265529455Y-195807614D01*
X268029456Y-195093328D02*
X267743741Y-195093328D01*
X267743741Y-195093328D02*
X267600884Y-195164757D01*
X267600884Y-195164757D02*
X267529456Y-195236185D01*
X267529456Y-195236185D02*
X267386598Y-195450471D01*
X267386598Y-195450471D02*
X267315170Y-195736185D01*
X267315170Y-195736185D02*
X267315170Y-196307614D01*
X267315170Y-196307614D02*
X267386598Y-196450471D01*
X267386598Y-196450471D02*
X267458027Y-196521900D01*
X267458027Y-196521900D02*
X267600884Y-196593328D01*
X267600884Y-196593328D02*
X267886598Y-196593328D01*
X267886598Y-196593328D02*
X268029456Y-196521900D01*
X268029456Y-196521900D02*
X268100884Y-196450471D01*
X268100884Y-196450471D02*
X268172313Y-196307614D01*
X268172313Y-196307614D02*
X268172313Y-195950471D01*
X268172313Y-195950471D02*
X268100884Y-195807614D01*
X268100884Y-195807614D02*
X268029456Y-195736185D01*
X268029456Y-195736185D02*
X267886598Y-195664757D01*
X267886598Y-195664757D02*
X267600884Y-195664757D01*
X267600884Y-195664757D02*
X267458027Y-195736185D01*
X267458027Y-195736185D02*
X267386598Y-195807614D01*
X267386598Y-195807614D02*
X267315170Y-195950471D01*
X269886598Y-195021900D02*
X268600884Y-196950471D01*
X271172313Y-196593328D02*
X270315170Y-196593328D01*
X270743741Y-196593328D02*
X270743741Y-195093328D01*
X270743741Y-195093328D02*
X270600884Y-195307614D01*
X270600884Y-195307614D02*
X270458027Y-195450471D01*
X270458027Y-195450471D02*
X270315170Y-195521900D01*
X272600884Y-196593328D02*
X271743741Y-196593328D01*
X272172312Y-196593328D02*
X272172312Y-195093328D01*
X272172312Y-195093328D02*
X272029455Y-195307614D01*
X272029455Y-195307614D02*
X271886598Y-195450471D01*
X271886598Y-195450471D02*
X271743741Y-195521900D01*
D10*
D11*
X177002200Y-187507200D02*
X285002200Y-187507200D01*
D10*
D13*
X178693928Y-188211638D02*
X179836785Y-188211638D01*
X179015357Y-190211638D02*
X179265357Y-188211638D01*
X180253452Y-190211638D02*
X180420119Y-188878304D01*
X180503452Y-188211638D02*
X180396309Y-188306876D01*
X180396309Y-188306876D02*
X180479643Y-188402114D01*
X180479643Y-188402114D02*
X180586786Y-188306876D01*
X180586786Y-188306876D02*
X180503452Y-188211638D01*
X180503452Y-188211638D02*
X180479643Y-188402114D01*
X181086786Y-188878304D02*
X181848690Y-188878304D01*
X181455833Y-188211638D02*
X181241548Y-189925923D01*
X181241548Y-189925923D02*
X181312976Y-190116400D01*
X181312976Y-190116400D02*
X181491548Y-190211638D01*
X181491548Y-190211638D02*
X181682024Y-190211638D01*
X182634405Y-190211638D02*
X182455833Y-190116400D01*
X182455833Y-190116400D02*
X182384405Y-189925923D01*
X182384405Y-189925923D02*
X182598690Y-188211638D01*
X184170119Y-190116400D02*
X183967738Y-190211638D01*
X183967738Y-190211638D02*
X183586785Y-190211638D01*
X183586785Y-190211638D02*
X183408214Y-190116400D01*
X183408214Y-190116400D02*
X183336785Y-189925923D01*
X183336785Y-189925923D02*
X183432024Y-189164019D01*
X183432024Y-189164019D02*
X183551071Y-188973542D01*
X183551071Y-188973542D02*
X183753452Y-188878304D01*
X183753452Y-188878304D02*
X184134404Y-188878304D01*
X184134404Y-188878304D02*
X184312976Y-188973542D01*
X184312976Y-188973542D02*
X184384404Y-189164019D01*
X184384404Y-189164019D02*
X184360595Y-189354495D01*
X184360595Y-189354495D02*
X183384404Y-189544971D01*
X185134405Y-190021161D02*
X185217738Y-190116400D01*
X185217738Y-190116400D02*
X185110595Y-190211638D01*
X185110595Y-190211638D02*
X185027262Y-190116400D01*
X185027262Y-190116400D02*
X185134405Y-190021161D01*
X185134405Y-190021161D02*
X185110595Y-190211638D01*
X185265357Y-188973542D02*
X185348690Y-189068780D01*
X185348690Y-189068780D02*
X185241548Y-189164019D01*
X185241548Y-189164019D02*
X185158214Y-189068780D01*
X185158214Y-189068780D02*
X185265357Y-188973542D01*
X185265357Y-188973542D02*
X185241548Y-189164019D01*
X187586786Y-190211638D02*
X187836786Y-188211638D01*
X187836786Y-188211638D02*
X188598691Y-188211638D01*
X188598691Y-188211638D02*
X188777262Y-188306876D01*
X188777262Y-188306876D02*
X188860596Y-188402114D01*
X188860596Y-188402114D02*
X188932024Y-188592590D01*
X188932024Y-188592590D02*
X188896310Y-188878304D01*
X188896310Y-188878304D02*
X188777262Y-189068780D01*
X188777262Y-189068780D02*
X188670120Y-189164019D01*
X188670120Y-189164019D02*
X188467739Y-189259257D01*
X188467739Y-189259257D02*
X187705834Y-189259257D01*
X190753453Y-190021161D02*
X190646310Y-190116400D01*
X190646310Y-190116400D02*
X190348691Y-190211638D01*
X190348691Y-190211638D02*
X190158215Y-190211638D01*
X190158215Y-190211638D02*
X189884405Y-190116400D01*
X189884405Y-190116400D02*
X189717739Y-189925923D01*
X189717739Y-189925923D02*
X189646310Y-189735447D01*
X189646310Y-189735447D02*
X189598691Y-189354495D01*
X189598691Y-189354495D02*
X189634405Y-189068780D01*
X189634405Y-189068780D02*
X189777262Y-188687828D01*
X189777262Y-188687828D02*
X189896310Y-188497352D01*
X189896310Y-188497352D02*
X190110596Y-188306876D01*
X190110596Y-188306876D02*
X190408215Y-188211638D01*
X190408215Y-188211638D02*
X190598691Y-188211638D01*
X190598691Y-188211638D02*
X190872501Y-188306876D01*
X190872501Y-188306876D02*
X190955834Y-188402114D01*
X192384405Y-189164019D02*
X192658215Y-189259257D01*
X192658215Y-189259257D02*
X192741548Y-189354495D01*
X192741548Y-189354495D02*
X192812977Y-189544971D01*
X192812977Y-189544971D02*
X192777262Y-189830685D01*
X192777262Y-189830685D02*
X192658215Y-190021161D01*
X192658215Y-190021161D02*
X192551072Y-190116400D01*
X192551072Y-190116400D02*
X192348691Y-190211638D01*
X192348691Y-190211638D02*
X191586786Y-190211638D01*
X191586786Y-190211638D02*
X191836786Y-188211638D01*
X191836786Y-188211638D02*
X192503453Y-188211638D01*
X192503453Y-188211638D02*
X192682024Y-188306876D01*
X192682024Y-188306876D02*
X192765358Y-188402114D01*
X192765358Y-188402114D02*
X192836786Y-188592590D01*
X192836786Y-188592590D02*
X192812977Y-188783066D01*
X192812977Y-188783066D02*
X192693929Y-188973542D01*
X192693929Y-188973542D02*
X192586786Y-189068780D01*
X192586786Y-189068780D02*
X192384405Y-189164019D01*
X192384405Y-189164019D02*
X191717739Y-189164019D01*
X196062977Y-190211638D02*
X195110596Y-190211638D01*
X195110596Y-190211638D02*
X195360596Y-188211638D01*
X197586787Y-190211638D02*
X197717739Y-189164019D01*
X197717739Y-189164019D02*
X197646311Y-188973542D01*
X197646311Y-188973542D02*
X197467739Y-188878304D01*
X197467739Y-188878304D02*
X197086787Y-188878304D01*
X197086787Y-188878304D02*
X196884406Y-188973542D01*
X197598692Y-190116400D02*
X197396311Y-190211638D01*
X197396311Y-190211638D02*
X196920120Y-190211638D01*
X196920120Y-190211638D02*
X196741549Y-190116400D01*
X196741549Y-190116400D02*
X196670120Y-189925923D01*
X196670120Y-189925923D02*
X196693930Y-189735447D01*
X196693930Y-189735447D02*
X196812978Y-189544971D01*
X196812978Y-189544971D02*
X197015359Y-189449733D01*
X197015359Y-189449733D02*
X197491549Y-189449733D01*
X197491549Y-189449733D02*
X197693930Y-189354495D01*
X198515359Y-188878304D02*
X198824883Y-190211638D01*
X199467740Y-188878304D02*
X198824883Y-190211638D01*
X198824883Y-190211638D02*
X198574883Y-190687828D01*
X198574883Y-190687828D02*
X198467740Y-190783066D01*
X198467740Y-190783066D02*
X198265359Y-190878304D01*
X200348693Y-190211638D02*
X200170121Y-190116400D01*
X200170121Y-190116400D02*
X200086788Y-190021161D01*
X200086788Y-190021161D02*
X200015359Y-189830685D01*
X200015359Y-189830685D02*
X200086788Y-189259257D01*
X200086788Y-189259257D02*
X200205835Y-189068780D01*
X200205835Y-189068780D02*
X200312978Y-188973542D01*
X200312978Y-188973542D02*
X200515359Y-188878304D01*
X200515359Y-188878304D02*
X200801073Y-188878304D01*
X200801073Y-188878304D02*
X200979645Y-188973542D01*
X200979645Y-188973542D02*
X201062978Y-189068780D01*
X201062978Y-189068780D02*
X201134407Y-189259257D01*
X201134407Y-189259257D02*
X201062978Y-189830685D01*
X201062978Y-189830685D02*
X200943931Y-190021161D01*
X200943931Y-190021161D02*
X200836788Y-190116400D01*
X200836788Y-190116400D02*
X200634407Y-190211638D01*
X200634407Y-190211638D02*
X200348693Y-190211638D01*
X202896312Y-188878304D02*
X202729645Y-190211638D01*
X202039169Y-188878304D02*
X201908217Y-189925923D01*
X201908217Y-189925923D02*
X201979645Y-190116400D01*
X201979645Y-190116400D02*
X202158217Y-190211638D01*
X202158217Y-190211638D02*
X202443931Y-190211638D01*
X202443931Y-190211638D02*
X202646312Y-190116400D01*
X202646312Y-190116400D02*
X202753455Y-190021161D01*
X203562979Y-188878304D02*
X204324883Y-188878304D01*
X203932026Y-188211638D02*
X203717741Y-189925923D01*
X203717741Y-189925923D02*
X203789169Y-190116400D01*
X203789169Y-190116400D02*
X203967741Y-190211638D01*
X203967741Y-190211638D02*
X204158217Y-190211638D01*
X206634408Y-190211638D02*
X206455836Y-190116400D01*
X206455836Y-190116400D02*
X206372503Y-190021161D01*
X206372503Y-190021161D02*
X206301074Y-189830685D01*
X206301074Y-189830685D02*
X206372503Y-189259257D01*
X206372503Y-189259257D02*
X206491550Y-189068780D01*
X206491550Y-189068780D02*
X206598693Y-188973542D01*
X206598693Y-188973542D02*
X206801074Y-188878304D01*
X206801074Y-188878304D02*
X207086788Y-188878304D01*
X207086788Y-188878304D02*
X207265360Y-188973542D01*
X207265360Y-188973542D02*
X207348693Y-189068780D01*
X207348693Y-189068780D02*
X207420122Y-189259257D01*
X207420122Y-189259257D02*
X207348693Y-189830685D01*
X207348693Y-189830685D02*
X207229646Y-190021161D01*
X207229646Y-190021161D02*
X207122503Y-190116400D01*
X207122503Y-190116400D02*
X206920122Y-190211638D01*
X206920122Y-190211638D02*
X206634408Y-190211638D01*
X208039170Y-188878304D02*
X208801074Y-188878304D01*
X208158217Y-190211638D02*
X208372503Y-188497352D01*
X208372503Y-188497352D02*
X208491551Y-188306876D01*
X208491551Y-188306876D02*
X208693932Y-188211638D01*
X208693932Y-188211638D02*
X208884408Y-188211638D01*
X211253456Y-189068780D02*
X211074884Y-188973542D01*
X211074884Y-188973542D02*
X210991551Y-188878304D01*
X210991551Y-188878304D02*
X210920122Y-188687828D01*
X210920122Y-188687828D02*
X210932027Y-188592590D01*
X210932027Y-188592590D02*
X211051075Y-188402114D01*
X211051075Y-188402114D02*
X211158218Y-188306876D01*
X211158218Y-188306876D02*
X211360599Y-188211638D01*
X211360599Y-188211638D02*
X211741551Y-188211638D01*
X211741551Y-188211638D02*
X211920122Y-188306876D01*
X211920122Y-188306876D02*
X212003456Y-188402114D01*
X212003456Y-188402114D02*
X212074884Y-188592590D01*
X212074884Y-188592590D02*
X212062979Y-188687828D01*
X212062979Y-188687828D02*
X211943932Y-188878304D01*
X211943932Y-188878304D02*
X211836789Y-188973542D01*
X211836789Y-188973542D02*
X211634408Y-189068780D01*
X211634408Y-189068780D02*
X211253456Y-189068780D01*
X211253456Y-189068780D02*
X211051075Y-189164019D01*
X211051075Y-189164019D02*
X210943932Y-189259257D01*
X210943932Y-189259257D02*
X210824884Y-189449733D01*
X210824884Y-189449733D02*
X210777265Y-189830685D01*
X210777265Y-189830685D02*
X210848694Y-190021161D01*
X210848694Y-190021161D02*
X210932027Y-190116400D01*
X210932027Y-190116400D02*
X211110599Y-190211638D01*
X211110599Y-190211638D02*
X211491551Y-190211638D01*
X211491551Y-190211638D02*
X211693932Y-190116400D01*
X211693932Y-190116400D02*
X211801075Y-190021161D01*
X211801075Y-190021161D02*
X211920122Y-189830685D01*
X211920122Y-189830685D02*
X211967741Y-189449733D01*
X211967741Y-189449733D02*
X211896313Y-189259257D01*
X211896313Y-189259257D02*
X211812979Y-189164019D01*
X211812979Y-189164019D02*
X211634408Y-189068780D01*
X212824884Y-189449733D02*
X214348694Y-189449733D01*
X216003455Y-189164019D02*
X216277265Y-189259257D01*
X216277265Y-189259257D02*
X216360598Y-189354495D01*
X216360598Y-189354495D02*
X216432027Y-189544971D01*
X216432027Y-189544971D02*
X216396312Y-189830685D01*
X216396312Y-189830685D02*
X216277265Y-190021161D01*
X216277265Y-190021161D02*
X216170122Y-190116400D01*
X216170122Y-190116400D02*
X215967741Y-190211638D01*
X215967741Y-190211638D02*
X215205836Y-190211638D01*
X215205836Y-190211638D02*
X215455836Y-188211638D01*
X215455836Y-188211638D02*
X216122503Y-188211638D01*
X216122503Y-188211638D02*
X216301074Y-188306876D01*
X216301074Y-188306876D02*
X216384408Y-188402114D01*
X216384408Y-188402114D02*
X216455836Y-188592590D01*
X216455836Y-188592590D02*
X216432027Y-188783066D01*
X216432027Y-188783066D02*
X216312979Y-188973542D01*
X216312979Y-188973542D02*
X216205836Y-189068780D01*
X216205836Y-189068780D02*
X216003455Y-189164019D01*
X216003455Y-189164019D02*
X215336789Y-189164019D01*
X217205836Y-190211638D02*
X217372503Y-188878304D01*
X217455836Y-188211638D02*
X217348693Y-188306876D01*
X217348693Y-188306876D02*
X217432027Y-188402114D01*
X217432027Y-188402114D02*
X217539170Y-188306876D01*
X217539170Y-188306876D02*
X217455836Y-188211638D01*
X217455836Y-188211638D02*
X217432027Y-188402114D01*
X218039170Y-188878304D02*
X218801074Y-188878304D01*
X218408217Y-188211638D02*
X218193932Y-189925923D01*
X218193932Y-189925923D02*
X218265360Y-190116400D01*
X218265360Y-190116400D02*
X218443932Y-190211638D01*
X218443932Y-190211638D02*
X218634408Y-190211638D01*
X220824884Y-190211638D02*
X221074884Y-188211638D01*
X221074884Y-188211638D02*
X221551075Y-188211638D01*
X221551075Y-188211638D02*
X221824884Y-188306876D01*
X221824884Y-188306876D02*
X221991551Y-188497352D01*
X221991551Y-188497352D02*
X222062979Y-188687828D01*
X222062979Y-188687828D02*
X222110599Y-189068780D01*
X222110599Y-189068780D02*
X222074884Y-189354495D01*
X222074884Y-189354495D02*
X221932027Y-189735447D01*
X221932027Y-189735447D02*
X221812979Y-189925923D01*
X221812979Y-189925923D02*
X221598694Y-190116400D01*
X221598694Y-190116400D02*
X221301075Y-190211638D01*
X221301075Y-190211638D02*
X220824884Y-190211638D01*
X222920122Y-189449733D02*
X224443932Y-189449733D01*
X225265360Y-188211638D02*
X226408217Y-188211638D01*
X225586789Y-190211638D02*
X225836789Y-188211638D01*
X226801075Y-188878304D02*
X227110599Y-190211638D01*
X227753456Y-188878304D02*
X227110599Y-190211638D01*
X227110599Y-190211638D02*
X226860599Y-190687828D01*
X226860599Y-190687828D02*
X226753456Y-190783066D01*
X226753456Y-190783066D02*
X226551075Y-190878304D01*
X228515361Y-188878304D02*
X228265361Y-190878304D01*
X228503456Y-188973542D02*
X228705837Y-188878304D01*
X228705837Y-188878304D02*
X229086789Y-188878304D01*
X229086789Y-188878304D02*
X229265361Y-188973542D01*
X229265361Y-188973542D02*
X229348694Y-189068780D01*
X229348694Y-189068780D02*
X229420123Y-189259257D01*
X229420123Y-189259257D02*
X229348694Y-189830685D01*
X229348694Y-189830685D02*
X229229647Y-190021161D01*
X229229647Y-190021161D02*
X229122504Y-190116400D01*
X229122504Y-190116400D02*
X228920123Y-190211638D01*
X228920123Y-190211638D02*
X228539170Y-190211638D01*
X228539170Y-190211638D02*
X228360599Y-190116400D01*
X230932028Y-190116400D02*
X230729647Y-190211638D01*
X230729647Y-190211638D02*
X230348694Y-190211638D01*
X230348694Y-190211638D02*
X230170123Y-190116400D01*
X230170123Y-190116400D02*
X230098694Y-189925923D01*
X230098694Y-189925923D02*
X230193933Y-189164019D01*
X230193933Y-189164019D02*
X230312980Y-188973542D01*
X230312980Y-188973542D02*
X230515361Y-188878304D01*
X230515361Y-188878304D02*
X230896313Y-188878304D01*
X230896313Y-188878304D02*
X231074885Y-188973542D01*
X231074885Y-188973542D02*
X231146313Y-189164019D01*
X231146313Y-189164019D02*
X231122504Y-189354495D01*
X231122504Y-189354495D02*
X230146313Y-189544971D01*
X234193933Y-189164019D02*
X233527267Y-189164019D01*
X233396314Y-190211638D02*
X233646314Y-188211638D01*
X233646314Y-188211638D02*
X234598695Y-188211638D01*
X235396315Y-190211638D02*
X235217743Y-190116400D01*
X235217743Y-190116400D02*
X235146315Y-189925923D01*
X235146315Y-189925923D02*
X235360600Y-188211638D01*
X236158219Y-190211638D02*
X236324886Y-188878304D01*
X236408219Y-188211638D02*
X236301076Y-188306876D01*
X236301076Y-188306876D02*
X236384410Y-188402114D01*
X236384410Y-188402114D02*
X236491553Y-188306876D01*
X236491553Y-188306876D02*
X236408219Y-188211638D01*
X236408219Y-188211638D02*
X236384410Y-188402114D01*
X237277267Y-188878304D02*
X237027267Y-190878304D01*
X237265362Y-188973542D02*
X237467743Y-188878304D01*
X237467743Y-188878304D02*
X237848695Y-188878304D01*
X237848695Y-188878304D02*
X238027267Y-188973542D01*
X238027267Y-188973542D02*
X238110600Y-189068780D01*
X238110600Y-189068780D02*
X238182029Y-189259257D01*
X238182029Y-189259257D02*
X238110600Y-189830685D01*
X238110600Y-189830685D02*
X237991553Y-190021161D01*
X237991553Y-190021161D02*
X237884410Y-190116400D01*
X237884410Y-190116400D02*
X237682029Y-190211638D01*
X237682029Y-190211638D02*
X237301076Y-190211638D01*
X237301076Y-190211638D02*
X237122505Y-190116400D01*
X239015362Y-189449733D02*
X240539172Y-189449733D01*
X242193933Y-189164019D02*
X241527267Y-189164019D01*
X241396314Y-190211638D02*
X241646314Y-188211638D01*
X241646314Y-188211638D02*
X242598695Y-188211638D01*
X243396315Y-190211638D02*
X243217743Y-190116400D01*
X243217743Y-190116400D02*
X243146315Y-189925923D01*
X243146315Y-189925923D02*
X243360600Y-188211638D01*
X244443934Y-190211638D02*
X244265362Y-190116400D01*
X244265362Y-190116400D02*
X244182029Y-190021161D01*
X244182029Y-190021161D02*
X244110600Y-189830685D01*
X244110600Y-189830685D02*
X244182029Y-189259257D01*
X244182029Y-189259257D02*
X244301076Y-189068780D01*
X244301076Y-189068780D02*
X244408219Y-188973542D01*
X244408219Y-188973542D02*
X244610600Y-188878304D01*
X244610600Y-188878304D02*
X244896314Y-188878304D01*
X244896314Y-188878304D02*
X245074886Y-188973542D01*
X245074886Y-188973542D02*
X245158219Y-189068780D01*
X245158219Y-189068780D02*
X245229648Y-189259257D01*
X245229648Y-189259257D02*
X245158219Y-189830685D01*
X245158219Y-189830685D02*
X245039172Y-190021161D01*
X245039172Y-190021161D02*
X244932029Y-190116400D01*
X244932029Y-190116400D02*
X244729648Y-190211638D01*
X244729648Y-190211638D02*
X244443934Y-190211638D01*
X246134410Y-188878304D02*
X245884410Y-190878304D01*
X246122505Y-188973542D02*
X246324886Y-188878304D01*
X246324886Y-188878304D02*
X246705838Y-188878304D01*
X246705838Y-188878304D02*
X246884410Y-188973542D01*
X246884410Y-188973542D02*
X246967743Y-189068780D01*
X246967743Y-189068780D02*
X247039172Y-189259257D01*
X247039172Y-189259257D02*
X246967743Y-189830685D01*
X246967743Y-189830685D02*
X246848696Y-190021161D01*
X246848696Y-190021161D02*
X246741553Y-190116400D01*
X246741553Y-190116400D02*
X246539172Y-190211638D01*
X246539172Y-190211638D02*
X246158219Y-190211638D01*
X246158219Y-190211638D02*
X245979648Y-190116400D01*
X250253458Y-190211638D02*
X249301077Y-190211638D01*
X249301077Y-190211638D02*
X249551077Y-188211638D01*
X251051078Y-189164019D02*
X251717744Y-189164019D01*
X251872506Y-190211638D02*
X250920125Y-190211638D01*
X250920125Y-190211638D02*
X251170125Y-188211638D01*
X251170125Y-188211638D02*
X252122506Y-188211638D01*
X252729649Y-190211638D02*
X252979649Y-188211638D01*
X252979649Y-188211638D02*
X253455840Y-188211638D01*
X253455840Y-188211638D02*
X253729649Y-188306876D01*
X253729649Y-188306876D02*
X253896316Y-188497352D01*
X253896316Y-188497352D02*
X253967744Y-188687828D01*
X253967744Y-188687828D02*
X254015364Y-189068780D01*
X254015364Y-189068780D02*
X253979649Y-189354495D01*
X253979649Y-189354495D02*
X253836792Y-189735447D01*
X253836792Y-189735447D02*
X253717744Y-189925923D01*
X253717744Y-189925923D02*
X253503459Y-190116400D01*
X253503459Y-190116400D02*
X253205840Y-190211638D01*
X253205840Y-190211638D02*
X252729649Y-190211638D01*
X256253459Y-190211638D02*
X256503459Y-188211638D01*
X256503459Y-188211638D02*
X256979650Y-188211638D01*
X256979650Y-188211638D02*
X257253459Y-188306876D01*
X257253459Y-188306876D02*
X257420126Y-188497352D01*
X257420126Y-188497352D02*
X257491554Y-188687828D01*
X257491554Y-188687828D02*
X257539174Y-189068780D01*
X257539174Y-189068780D02*
X257503459Y-189354495D01*
X257503459Y-189354495D02*
X257360602Y-189735447D01*
X257360602Y-189735447D02*
X257241554Y-189925923D01*
X257241554Y-189925923D02*
X257027269Y-190116400D01*
X257027269Y-190116400D02*
X256729650Y-190211638D01*
X256729650Y-190211638D02*
X256253459Y-190211638D01*
X259027269Y-190116400D02*
X258824888Y-190211638D01*
X258824888Y-190211638D02*
X258443935Y-190211638D01*
X258443935Y-190211638D02*
X258265364Y-190116400D01*
X258265364Y-190116400D02*
X258193935Y-189925923D01*
X258193935Y-189925923D02*
X258289174Y-189164019D01*
X258289174Y-189164019D02*
X258408221Y-188973542D01*
X258408221Y-188973542D02*
X258610602Y-188878304D01*
X258610602Y-188878304D02*
X258991554Y-188878304D01*
X258991554Y-188878304D02*
X259170126Y-188973542D01*
X259170126Y-188973542D02*
X259241554Y-189164019D01*
X259241554Y-189164019D02*
X259217745Y-189354495D01*
X259217745Y-189354495D02*
X258241554Y-189544971D01*
X259967745Y-190211638D02*
X260134412Y-188878304D01*
X260110602Y-189068780D02*
X260217745Y-188973542D01*
X260217745Y-188973542D02*
X260420126Y-188878304D01*
X260420126Y-188878304D02*
X260705840Y-188878304D01*
X260705840Y-188878304D02*
X260884412Y-188973542D01*
X260884412Y-188973542D02*
X260955840Y-189164019D01*
X260955840Y-189164019D02*
X260824888Y-190211638D01*
X260955840Y-189164019D02*
X261074888Y-188973542D01*
X261074888Y-188973542D02*
X261277269Y-188878304D01*
X261277269Y-188878304D02*
X261562983Y-188878304D01*
X261562983Y-188878304D02*
X261741555Y-188973542D01*
X261741555Y-188973542D02*
X261812983Y-189164019D01*
X261812983Y-189164019D02*
X261682031Y-190211638D01*
X262920127Y-190211638D02*
X262741555Y-190116400D01*
X262741555Y-190116400D02*
X262658222Y-190021161D01*
X262658222Y-190021161D02*
X262586793Y-189830685D01*
X262586793Y-189830685D02*
X262658222Y-189259257D01*
X262658222Y-189259257D02*
X262777269Y-189068780D01*
X262777269Y-189068780D02*
X262884412Y-188973542D01*
X262884412Y-188973542D02*
X263086793Y-188878304D01*
X263086793Y-188878304D02*
X263372507Y-188878304D01*
X263372507Y-188878304D02*
X263551079Y-188973542D01*
X263551079Y-188973542D02*
X263634412Y-189068780D01*
X263634412Y-189068780D02*
X263705841Y-189259257D01*
X263705841Y-189259257D02*
X263634412Y-189830685D01*
X263634412Y-189830685D02*
X263515365Y-190021161D01*
X263515365Y-190021161D02*
X263408222Y-190116400D01*
X263408222Y-190116400D02*
X263205841Y-190211638D01*
X263205841Y-190211638D02*
X262920127Y-190211638D01*
D10*
D11*
X178958026Y-185607614D02*
X178458026Y-185607614D01*
X178458026Y-186393328D02*
X178458026Y-184893328D01*
X178458026Y-184893328D02*
X179172312Y-184893328D01*
X179743740Y-186393328D02*
X179743740Y-185393328D01*
X179743740Y-184893328D02*
X179672312Y-184964757D01*
X179672312Y-184964757D02*
X179743740Y-185036185D01*
X179743740Y-185036185D02*
X179815169Y-184964757D01*
X179815169Y-184964757D02*
X179743740Y-184893328D01*
X179743740Y-184893328D02*
X179743740Y-185036185D01*
X180672312Y-186393328D02*
X180529455Y-186321900D01*
X180529455Y-186321900D02*
X180458026Y-186179042D01*
X180458026Y-186179042D02*
X180458026Y-184893328D01*
X181815169Y-186321900D02*
X181672312Y-186393328D01*
X181672312Y-186393328D02*
X181386598Y-186393328D01*
X181386598Y-186393328D02*
X181243740Y-186321900D01*
X181243740Y-186321900D02*
X181172312Y-186179042D01*
X181172312Y-186179042D02*
X181172312Y-185607614D01*
X181172312Y-185607614D02*
X181243740Y-185464757D01*
X181243740Y-185464757D02*
X181386598Y-185393328D01*
X181386598Y-185393328D02*
X181672312Y-185393328D01*
X181672312Y-185393328D02*
X181815169Y-185464757D01*
X181815169Y-185464757D02*
X181886598Y-185607614D01*
X181886598Y-185607614D02*
X181886598Y-185750471D01*
X181886598Y-185750471D02*
X181172312Y-185893328D01*
X182529454Y-186250471D02*
X182600883Y-186321900D01*
X182600883Y-186321900D02*
X182529454Y-186393328D01*
X182529454Y-186393328D02*
X182458026Y-186321900D01*
X182458026Y-186321900D02*
X182529454Y-186250471D01*
X182529454Y-186250471D02*
X182529454Y-186393328D01*
X182529454Y-185464757D02*
X182600883Y-185536185D01*
X182600883Y-185536185D02*
X182529454Y-185607614D01*
X182529454Y-185607614D02*
X182458026Y-185536185D01*
X182458026Y-185536185D02*
X182529454Y-185464757D01*
X182529454Y-185464757D02*
X182529454Y-185607614D01*
X184386597Y-186393328D02*
X184386597Y-184893328D01*
X184386597Y-184893328D02*
X184958026Y-184893328D01*
X184958026Y-184893328D02*
X185100883Y-184964757D01*
X185100883Y-184964757D02*
X185172312Y-185036185D01*
X185172312Y-185036185D02*
X185243740Y-185179042D01*
X185243740Y-185179042D02*
X185243740Y-185393328D01*
X185243740Y-185393328D02*
X185172312Y-185536185D01*
X185172312Y-185536185D02*
X185100883Y-185607614D01*
X185100883Y-185607614D02*
X184958026Y-185679042D01*
X184958026Y-185679042D02*
X184386597Y-185679042D01*
X185886597Y-186393328D02*
X185886597Y-185393328D01*
X185886597Y-185679042D02*
X185958026Y-185536185D01*
X185958026Y-185536185D02*
X186029455Y-185464757D01*
X186029455Y-185464757D02*
X186172312Y-185393328D01*
X186172312Y-185393328D02*
X186315169Y-185393328D01*
X187458026Y-186393328D02*
X187458026Y-185607614D01*
X187458026Y-185607614D02*
X187386597Y-185464757D01*
X187386597Y-185464757D02*
X187243740Y-185393328D01*
X187243740Y-185393328D02*
X186958026Y-185393328D01*
X186958026Y-185393328D02*
X186815168Y-185464757D01*
X187458026Y-186321900D02*
X187315168Y-186393328D01*
X187315168Y-186393328D02*
X186958026Y-186393328D01*
X186958026Y-186393328D02*
X186815168Y-186321900D01*
X186815168Y-186321900D02*
X186743740Y-186179042D01*
X186743740Y-186179042D02*
X186743740Y-186036185D01*
X186743740Y-186036185D02*
X186815168Y-185893328D01*
X186815168Y-185893328D02*
X186958026Y-185821900D01*
X186958026Y-185821900D02*
X187315168Y-185821900D01*
X187315168Y-185821900D02*
X187458026Y-185750471D01*
X188815169Y-186321900D02*
X188672311Y-186393328D01*
X188672311Y-186393328D02*
X188386597Y-186393328D01*
X188386597Y-186393328D02*
X188243740Y-186321900D01*
X188243740Y-186321900D02*
X188172311Y-186250471D01*
X188172311Y-186250471D02*
X188100883Y-186107614D01*
X188100883Y-186107614D02*
X188100883Y-185679042D01*
X188100883Y-185679042D02*
X188172311Y-185536185D01*
X188172311Y-185536185D02*
X188243740Y-185464757D01*
X188243740Y-185464757D02*
X188386597Y-185393328D01*
X188386597Y-185393328D02*
X188672311Y-185393328D01*
X188672311Y-185393328D02*
X188815169Y-185464757D01*
X189243740Y-185393328D02*
X189815168Y-185393328D01*
X189458025Y-184893328D02*
X189458025Y-186179042D01*
X189458025Y-186179042D02*
X189529454Y-186321900D01*
X189529454Y-186321900D02*
X189672311Y-186393328D01*
X189672311Y-186393328D02*
X189815168Y-186393328D01*
X190315168Y-186393328D02*
X190315168Y-185393328D01*
X190315168Y-184893328D02*
X190243740Y-184964757D01*
X190243740Y-184964757D02*
X190315168Y-185036185D01*
X190315168Y-185036185D02*
X190386597Y-184964757D01*
X190386597Y-184964757D02*
X190315168Y-184893328D01*
X190315168Y-184893328D02*
X190315168Y-185036185D01*
X191672312Y-186321900D02*
X191529454Y-186393328D01*
X191529454Y-186393328D02*
X191243740Y-186393328D01*
X191243740Y-186393328D02*
X191100883Y-186321900D01*
X191100883Y-186321900D02*
X191029454Y-186250471D01*
X191029454Y-186250471D02*
X190958026Y-186107614D01*
X190958026Y-186107614D02*
X190958026Y-185679042D01*
X190958026Y-185679042D02*
X191029454Y-185536185D01*
X191029454Y-185536185D02*
X191100883Y-185464757D01*
X191100883Y-185464757D02*
X191243740Y-185393328D01*
X191243740Y-185393328D02*
X191529454Y-185393328D01*
X191529454Y-185393328D02*
X191672312Y-185464757D01*
X192886597Y-186321900D02*
X192743740Y-186393328D01*
X192743740Y-186393328D02*
X192458026Y-186393328D01*
X192458026Y-186393328D02*
X192315168Y-186321900D01*
X192315168Y-186321900D02*
X192243740Y-186179042D01*
X192243740Y-186179042D02*
X192243740Y-185607614D01*
X192243740Y-185607614D02*
X192315168Y-185464757D01*
X192315168Y-185464757D02*
X192458026Y-185393328D01*
X192458026Y-185393328D02*
X192743740Y-185393328D01*
X192743740Y-185393328D02*
X192886597Y-185464757D01*
X192886597Y-185464757D02*
X192958026Y-185607614D01*
X192958026Y-185607614D02*
X192958026Y-185750471D01*
X192958026Y-185750471D02*
X192243740Y-185893328D01*
X193600882Y-186250471D02*
X193672311Y-186321900D01*
X193672311Y-186321900D02*
X193600882Y-186393328D01*
X193600882Y-186393328D02*
X193529454Y-186321900D01*
X193529454Y-186321900D02*
X193600882Y-186250471D01*
X193600882Y-186250471D02*
X193600882Y-186393328D01*
X194315168Y-186393328D02*
X194315168Y-184893328D01*
X194458026Y-185821900D02*
X194886597Y-186393328D01*
X194886597Y-185393328D02*
X194315168Y-185964757D01*
X195529454Y-186393328D02*
X195529454Y-185393328D01*
X195529454Y-184893328D02*
X195458026Y-184964757D01*
X195458026Y-184964757D02*
X195529454Y-185036185D01*
X195529454Y-185036185D02*
X195600883Y-184964757D01*
X195600883Y-184964757D02*
X195529454Y-184893328D01*
X195529454Y-184893328D02*
X195529454Y-185036185D01*
X196886598Y-186321900D02*
X196743740Y-186393328D01*
X196743740Y-186393328D02*
X196458026Y-186393328D01*
X196458026Y-186393328D02*
X196315169Y-186321900D01*
X196315169Y-186321900D02*
X196243740Y-186250471D01*
X196243740Y-186250471D02*
X196172312Y-186107614D01*
X196172312Y-186107614D02*
X196172312Y-185679042D01*
X196172312Y-185679042D02*
X196243740Y-185536185D01*
X196243740Y-185536185D02*
X196315169Y-185464757D01*
X196315169Y-185464757D02*
X196458026Y-185393328D01*
X196458026Y-185393328D02*
X196743740Y-185393328D01*
X196743740Y-185393328D02*
X196886598Y-185464757D01*
X198172312Y-186393328D02*
X198172312Y-185607614D01*
X198172312Y-185607614D02*
X198100883Y-185464757D01*
X198100883Y-185464757D02*
X197958026Y-185393328D01*
X197958026Y-185393328D02*
X197672312Y-185393328D01*
X197672312Y-185393328D02*
X197529454Y-185464757D01*
X198172312Y-186321900D02*
X198029454Y-186393328D01*
X198029454Y-186393328D02*
X197672312Y-186393328D01*
X197672312Y-186393328D02*
X197529454Y-186321900D01*
X197529454Y-186321900D02*
X197458026Y-186179042D01*
X197458026Y-186179042D02*
X197458026Y-186036185D01*
X197458026Y-186036185D02*
X197529454Y-185893328D01*
X197529454Y-185893328D02*
X197672312Y-185821900D01*
X197672312Y-185821900D02*
X198029454Y-185821900D01*
X198029454Y-185821900D02*
X198172312Y-185750471D01*
X199529455Y-186393328D02*
X199529455Y-184893328D01*
X199529455Y-186321900D02*
X199386597Y-186393328D01*
X199386597Y-186393328D02*
X199100883Y-186393328D01*
X199100883Y-186393328D02*
X198958026Y-186321900D01*
X198958026Y-186321900D02*
X198886597Y-186250471D01*
X198886597Y-186250471D02*
X198815169Y-186107614D01*
X198815169Y-186107614D02*
X198815169Y-185679042D01*
X198815169Y-185679042D02*
X198886597Y-185536185D01*
X198886597Y-185536185D02*
X198958026Y-185464757D01*
X198958026Y-185464757D02*
X199100883Y-185393328D01*
X199100883Y-185393328D02*
X199386597Y-185393328D01*
X199386597Y-185393328D02*
X199529455Y-185464757D01*
X199886598Y-186536185D02*
X201029455Y-186536185D01*
X201386597Y-185393328D02*
X201386597Y-186893328D01*
X201386597Y-185464757D02*
X201529455Y-185393328D01*
X201529455Y-185393328D02*
X201815169Y-185393328D01*
X201815169Y-185393328D02*
X201958026Y-185464757D01*
X201958026Y-185464757D02*
X202029455Y-185536185D01*
X202029455Y-185536185D02*
X202100883Y-185679042D01*
X202100883Y-185679042D02*
X202100883Y-186107614D01*
X202100883Y-186107614D02*
X202029455Y-186250471D01*
X202029455Y-186250471D02*
X201958026Y-186321900D01*
X201958026Y-186321900D02*
X201815169Y-186393328D01*
X201815169Y-186393328D02*
X201529455Y-186393328D01*
X201529455Y-186393328D02*
X201386597Y-186321900D01*
X203386598Y-186321900D02*
X203243740Y-186393328D01*
X203243740Y-186393328D02*
X202958026Y-186393328D01*
X202958026Y-186393328D02*
X202815169Y-186321900D01*
X202815169Y-186321900D02*
X202743740Y-186250471D01*
X202743740Y-186250471D02*
X202672312Y-186107614D01*
X202672312Y-186107614D02*
X202672312Y-185679042D01*
X202672312Y-185679042D02*
X202743740Y-185536185D01*
X202743740Y-185536185D02*
X202815169Y-185464757D01*
X202815169Y-185464757D02*
X202958026Y-185393328D01*
X202958026Y-185393328D02*
X203243740Y-185393328D01*
X203243740Y-185393328D02*
X203386598Y-185464757D01*
X204029454Y-186393328D02*
X204029454Y-184893328D01*
X204029454Y-185464757D02*
X204172312Y-185393328D01*
X204172312Y-185393328D02*
X204458026Y-185393328D01*
X204458026Y-185393328D02*
X204600883Y-185464757D01*
X204600883Y-185464757D02*
X204672312Y-185536185D01*
X204672312Y-185536185D02*
X204743740Y-185679042D01*
X204743740Y-185679042D02*
X204743740Y-186107614D01*
X204743740Y-186107614D02*
X204672312Y-186250471D01*
X204672312Y-186250471D02*
X204600883Y-186321900D01*
X204600883Y-186321900D02*
X204458026Y-186393328D01*
X204458026Y-186393328D02*
X204172312Y-186393328D01*
X204172312Y-186393328D02*
X204029454Y-186321900D01*
D10*
D11*
X177002200Y-181507200D02*
X285002200Y-181507200D01*
D10*
D11*
X178386598Y-183621900D02*
X178600884Y-183693328D01*
X178600884Y-183693328D02*
X178958026Y-183693328D01*
X178958026Y-183693328D02*
X179100884Y-183621900D01*
X179100884Y-183621900D02*
X179172312Y-183550471D01*
X179172312Y-183550471D02*
X179243741Y-183407614D01*
X179243741Y-183407614D02*
X179243741Y-183264757D01*
X179243741Y-183264757D02*
X179172312Y-183121900D01*
X179172312Y-183121900D02*
X179100884Y-183050471D01*
X179100884Y-183050471D02*
X178958026Y-182979042D01*
X178958026Y-182979042D02*
X178672312Y-182907614D01*
X178672312Y-182907614D02*
X178529455Y-182836185D01*
X178529455Y-182836185D02*
X178458026Y-182764757D01*
X178458026Y-182764757D02*
X178386598Y-182621900D01*
X178386598Y-182621900D02*
X178386598Y-182479042D01*
X178386598Y-182479042D02*
X178458026Y-182336185D01*
X178458026Y-182336185D02*
X178529455Y-182264757D01*
X178529455Y-182264757D02*
X178672312Y-182193328D01*
X178672312Y-182193328D02*
X179029455Y-182193328D01*
X179029455Y-182193328D02*
X179243741Y-182264757D01*
X179886597Y-183693328D02*
X179886597Y-182193328D01*
X180529455Y-183693328D02*
X180529455Y-182907614D01*
X180529455Y-182907614D02*
X180458026Y-182764757D01*
X180458026Y-182764757D02*
X180315169Y-182693328D01*
X180315169Y-182693328D02*
X180100883Y-182693328D01*
X180100883Y-182693328D02*
X179958026Y-182764757D01*
X179958026Y-182764757D02*
X179886597Y-182836185D01*
X181815169Y-183621900D02*
X181672312Y-183693328D01*
X181672312Y-183693328D02*
X181386598Y-183693328D01*
X181386598Y-183693328D02*
X181243740Y-183621900D01*
X181243740Y-183621900D02*
X181172312Y-183479042D01*
X181172312Y-183479042D02*
X181172312Y-182907614D01*
X181172312Y-182907614D02*
X181243740Y-182764757D01*
X181243740Y-182764757D02*
X181386598Y-182693328D01*
X181386598Y-182693328D02*
X181672312Y-182693328D01*
X181672312Y-182693328D02*
X181815169Y-182764757D01*
X181815169Y-182764757D02*
X181886598Y-182907614D01*
X181886598Y-182907614D02*
X181886598Y-183050471D01*
X181886598Y-183050471D02*
X181172312Y-183193328D01*
X183100883Y-183621900D02*
X182958026Y-183693328D01*
X182958026Y-183693328D02*
X182672312Y-183693328D01*
X182672312Y-183693328D02*
X182529454Y-183621900D01*
X182529454Y-183621900D02*
X182458026Y-183479042D01*
X182458026Y-183479042D02*
X182458026Y-182907614D01*
X182458026Y-182907614D02*
X182529454Y-182764757D01*
X182529454Y-182764757D02*
X182672312Y-182693328D01*
X182672312Y-182693328D02*
X182958026Y-182693328D01*
X182958026Y-182693328D02*
X183100883Y-182764757D01*
X183100883Y-182764757D02*
X183172312Y-182907614D01*
X183172312Y-182907614D02*
X183172312Y-183050471D01*
X183172312Y-183050471D02*
X182458026Y-183193328D01*
X183600883Y-182693328D02*
X184172311Y-182693328D01*
X183815168Y-182193328D02*
X183815168Y-183479042D01*
X183815168Y-183479042D02*
X183886597Y-183621900D01*
X183886597Y-183621900D02*
X184029454Y-183693328D01*
X184029454Y-183693328D02*
X184172311Y-183693328D01*
X184672311Y-183550471D02*
X184743740Y-183621900D01*
X184743740Y-183621900D02*
X184672311Y-183693328D01*
X184672311Y-183693328D02*
X184600883Y-183621900D01*
X184600883Y-183621900D02*
X184672311Y-183550471D01*
X184672311Y-183550471D02*
X184672311Y-183693328D01*
X184672311Y-182764757D02*
X184743740Y-182836185D01*
X184743740Y-182836185D02*
X184672311Y-182907614D01*
X184672311Y-182907614D02*
X184600883Y-182836185D01*
X184600883Y-182836185D02*
X184672311Y-182764757D01*
X184672311Y-182764757D02*
X184672311Y-182907614D01*
D10*
D12*
X178342425Y-179185528D02*
X179199568Y-179185528D01*
X178770996Y-180685528D02*
X178770996Y-179185528D01*
X179699567Y-180685528D02*
X179699567Y-179185528D01*
X180342425Y-180685528D02*
X180342425Y-179899814D01*
X180342425Y-179899814D02*
X180270996Y-179756957D01*
X180270996Y-179756957D02*
X180128139Y-179685528D01*
X180128139Y-179685528D02*
X179913853Y-179685528D01*
X179913853Y-179685528D02*
X179770996Y-179756957D01*
X179770996Y-179756957D02*
X179699567Y-179828385D01*
X181628139Y-180614100D02*
X181485282Y-180685528D01*
X181485282Y-180685528D02*
X181199568Y-180685528D01*
X181199568Y-180685528D02*
X181056710Y-180614100D01*
X181056710Y-180614100D02*
X180985282Y-180471242D01*
X180985282Y-180471242D02*
X180985282Y-179899814D01*
X180985282Y-179899814D02*
X181056710Y-179756957D01*
X181056710Y-179756957D02*
X181199568Y-179685528D01*
X181199568Y-179685528D02*
X181485282Y-179685528D01*
X181485282Y-179685528D02*
X181628139Y-179756957D01*
X181628139Y-179756957D02*
X181699568Y-179899814D01*
X181699568Y-179899814D02*
X181699568Y-180042671D01*
X181699568Y-180042671D02*
X180985282Y-180185528D01*
X184199567Y-180685528D02*
X183485281Y-180685528D01*
X183485281Y-180685528D02*
X183485281Y-179185528D01*
X184913853Y-180685528D02*
X184770996Y-180614100D01*
X184770996Y-180614100D02*
X184699567Y-180542671D01*
X184699567Y-180542671D02*
X184628139Y-180399814D01*
X184628139Y-180399814D02*
X184628139Y-179971242D01*
X184628139Y-179971242D02*
X184699567Y-179828385D01*
X184699567Y-179828385D02*
X184770996Y-179756957D01*
X184770996Y-179756957D02*
X184913853Y-179685528D01*
X184913853Y-179685528D02*
X185128139Y-179685528D01*
X185128139Y-179685528D02*
X185270996Y-179756957D01*
X185270996Y-179756957D02*
X185342425Y-179828385D01*
X185342425Y-179828385D02*
X185413853Y-179971242D01*
X185413853Y-179971242D02*
X185413853Y-180399814D01*
X185413853Y-180399814D02*
X185342425Y-180542671D01*
X185342425Y-180542671D02*
X185270996Y-180614100D01*
X185270996Y-180614100D02*
X185128139Y-180685528D01*
X185128139Y-180685528D02*
X184913853Y-180685528D01*
X186056710Y-180685528D02*
X186056710Y-179685528D01*
X186056710Y-179828385D02*
X186128139Y-179756957D01*
X186128139Y-179756957D02*
X186270996Y-179685528D01*
X186270996Y-179685528D02*
X186485282Y-179685528D01*
X186485282Y-179685528D02*
X186628139Y-179756957D01*
X186628139Y-179756957D02*
X186699568Y-179899814D01*
X186699568Y-179899814D02*
X186699568Y-180685528D01*
X186699568Y-179899814D02*
X186770996Y-179756957D01*
X186770996Y-179756957D02*
X186913853Y-179685528D01*
X186913853Y-179685528D02*
X187128139Y-179685528D01*
X187128139Y-179685528D02*
X187270996Y-179756957D01*
X187270996Y-179756957D02*
X187342425Y-179899814D01*
X187342425Y-179899814D02*
X187342425Y-180685528D01*
X188056710Y-180685528D02*
X188056710Y-179685528D01*
X188056710Y-179185528D02*
X187985282Y-179256957D01*
X187985282Y-179256957D02*
X188056710Y-179328385D01*
X188056710Y-179328385D02*
X188128139Y-179256957D01*
X188128139Y-179256957D02*
X188056710Y-179185528D01*
X188056710Y-179185528D02*
X188056710Y-179328385D01*
X188699568Y-180614100D02*
X188842425Y-180685528D01*
X188842425Y-180685528D02*
X189128139Y-180685528D01*
X189128139Y-180685528D02*
X189270996Y-180614100D01*
X189270996Y-180614100D02*
X189342425Y-180471242D01*
X189342425Y-180471242D02*
X189342425Y-180399814D01*
X189342425Y-180399814D02*
X189270996Y-180256957D01*
X189270996Y-180256957D02*
X189128139Y-180185528D01*
X189128139Y-180185528D02*
X188913854Y-180185528D01*
X188913854Y-180185528D02*
X188770996Y-180114100D01*
X188770996Y-180114100D02*
X188699568Y-179971242D01*
X188699568Y-179971242D02*
X188699568Y-179899814D01*
X188699568Y-179899814D02*
X188770996Y-179756957D01*
X188770996Y-179756957D02*
X188913854Y-179685528D01*
X188913854Y-179685528D02*
X189128139Y-179685528D01*
X189128139Y-179685528D02*
X189270996Y-179756957D01*
X191985282Y-180542671D02*
X191913854Y-180614100D01*
X191913854Y-180614100D02*
X191699568Y-180685528D01*
X191699568Y-180685528D02*
X191556711Y-180685528D01*
X191556711Y-180685528D02*
X191342425Y-180614100D01*
X191342425Y-180614100D02*
X191199568Y-180471242D01*
X191199568Y-180471242D02*
X191128139Y-180328385D01*
X191128139Y-180328385D02*
X191056711Y-180042671D01*
X191056711Y-180042671D02*
X191056711Y-179828385D01*
X191056711Y-179828385D02*
X191128139Y-179542671D01*
X191128139Y-179542671D02*
X191199568Y-179399814D01*
X191199568Y-179399814D02*
X191342425Y-179256957D01*
X191342425Y-179256957D02*
X191556711Y-179185528D01*
X191556711Y-179185528D02*
X191699568Y-179185528D01*
X191699568Y-179185528D02*
X191913854Y-179256957D01*
X191913854Y-179256957D02*
X191985282Y-179328385D01*
X192842425Y-180685528D02*
X192699568Y-180614100D01*
X192699568Y-180614100D02*
X192628139Y-180542671D01*
X192628139Y-180542671D02*
X192556711Y-180399814D01*
X192556711Y-180399814D02*
X192556711Y-179971242D01*
X192556711Y-179971242D02*
X192628139Y-179828385D01*
X192628139Y-179828385D02*
X192699568Y-179756957D01*
X192699568Y-179756957D02*
X192842425Y-179685528D01*
X192842425Y-179685528D02*
X193056711Y-179685528D01*
X193056711Y-179685528D02*
X193199568Y-179756957D01*
X193199568Y-179756957D02*
X193270997Y-179828385D01*
X193270997Y-179828385D02*
X193342425Y-179971242D01*
X193342425Y-179971242D02*
X193342425Y-180399814D01*
X193342425Y-180399814D02*
X193270997Y-180542671D01*
X193270997Y-180542671D02*
X193199568Y-180614100D01*
X193199568Y-180614100D02*
X193056711Y-180685528D01*
X193056711Y-180685528D02*
X192842425Y-180685528D01*
X193985282Y-180685528D02*
X193985282Y-179685528D01*
X193985282Y-179828385D02*
X194056711Y-179756957D01*
X194056711Y-179756957D02*
X194199568Y-179685528D01*
X194199568Y-179685528D02*
X194413854Y-179685528D01*
X194413854Y-179685528D02*
X194556711Y-179756957D01*
X194556711Y-179756957D02*
X194628140Y-179899814D01*
X194628140Y-179899814D02*
X194628140Y-180685528D01*
X194628140Y-179899814D02*
X194699568Y-179756957D01*
X194699568Y-179756957D02*
X194842425Y-179685528D01*
X194842425Y-179685528D02*
X195056711Y-179685528D01*
X195056711Y-179685528D02*
X195199568Y-179756957D01*
X195199568Y-179756957D02*
X195270997Y-179899814D01*
X195270997Y-179899814D02*
X195270997Y-180685528D01*
X195985282Y-179685528D02*
X195985282Y-181185528D01*
X195985282Y-179756957D02*
X196128140Y-179685528D01*
X196128140Y-179685528D02*
X196413854Y-179685528D01*
X196413854Y-179685528D02*
X196556711Y-179756957D01*
X196556711Y-179756957D02*
X196628140Y-179828385D01*
X196628140Y-179828385D02*
X196699568Y-179971242D01*
X196699568Y-179971242D02*
X196699568Y-180399814D01*
X196699568Y-180399814D02*
X196628140Y-180542671D01*
X196628140Y-180542671D02*
X196556711Y-180614100D01*
X196556711Y-180614100D02*
X196413854Y-180685528D01*
X196413854Y-180685528D02*
X196128140Y-180685528D01*
X196128140Y-180685528D02*
X195985282Y-180614100D01*
X197985283Y-180685528D02*
X197985283Y-179899814D01*
X197985283Y-179899814D02*
X197913854Y-179756957D01*
X197913854Y-179756957D02*
X197770997Y-179685528D01*
X197770997Y-179685528D02*
X197485283Y-179685528D01*
X197485283Y-179685528D02*
X197342425Y-179756957D01*
X197985283Y-180614100D02*
X197842425Y-180685528D01*
X197842425Y-180685528D02*
X197485283Y-180685528D01*
X197485283Y-180685528D02*
X197342425Y-180614100D01*
X197342425Y-180614100D02*
X197270997Y-180471242D01*
X197270997Y-180471242D02*
X197270997Y-180328385D01*
X197270997Y-180328385D02*
X197342425Y-180185528D01*
X197342425Y-180185528D02*
X197485283Y-180114100D01*
X197485283Y-180114100D02*
X197842425Y-180114100D01*
X197842425Y-180114100D02*
X197985283Y-180042671D01*
X198699568Y-179685528D02*
X198699568Y-180685528D01*
X198699568Y-179828385D02*
X198770997Y-179756957D01*
X198770997Y-179756957D02*
X198913854Y-179685528D01*
X198913854Y-179685528D02*
X199128140Y-179685528D01*
X199128140Y-179685528D02*
X199270997Y-179756957D01*
X199270997Y-179756957D02*
X199342426Y-179899814D01*
X199342426Y-179899814D02*
X199342426Y-180685528D01*
X199913854Y-179685528D02*
X200270997Y-180685528D01*
X200628140Y-179685528D02*
X200270997Y-180685528D01*
X200270997Y-180685528D02*
X200128140Y-181042671D01*
X200128140Y-181042671D02*
X200056711Y-181114100D01*
X200056711Y-181114100D02*
X199913854Y-181185528D01*
X202556711Y-180685528D02*
X202413854Y-180614100D01*
X202413854Y-180614100D02*
X202342425Y-180542671D01*
X202342425Y-180542671D02*
X202270997Y-180399814D01*
X202270997Y-180399814D02*
X202270997Y-179971242D01*
X202270997Y-179971242D02*
X202342425Y-179828385D01*
X202342425Y-179828385D02*
X202413854Y-179756957D01*
X202413854Y-179756957D02*
X202556711Y-179685528D01*
X202556711Y-179685528D02*
X202770997Y-179685528D01*
X202770997Y-179685528D02*
X202913854Y-179756957D01*
X202913854Y-179756957D02*
X202985283Y-179828385D01*
X202985283Y-179828385D02*
X203056711Y-179971242D01*
X203056711Y-179971242D02*
X203056711Y-180399814D01*
X203056711Y-180399814D02*
X202985283Y-180542671D01*
X202985283Y-180542671D02*
X202913854Y-180614100D01*
X202913854Y-180614100D02*
X202770997Y-180685528D01*
X202770997Y-180685528D02*
X202556711Y-180685528D01*
X203485283Y-179685528D02*
X204056711Y-179685528D01*
X203699568Y-180685528D02*
X203699568Y-179399814D01*
X203699568Y-179399814D02*
X203770997Y-179256957D01*
X203770997Y-179256957D02*
X203913854Y-179185528D01*
X203913854Y-179185528D02*
X204056711Y-179185528D01*
X205485283Y-179185528D02*
X205985283Y-180685528D01*
X205985283Y-180685528D02*
X206485283Y-179185528D01*
X206985282Y-180685528D02*
X206985282Y-179685528D01*
X206985282Y-179185528D02*
X206913854Y-179256957D01*
X206913854Y-179256957D02*
X206985282Y-179328385D01*
X206985282Y-179328385D02*
X207056711Y-179256957D01*
X207056711Y-179256957D02*
X206985282Y-179185528D01*
X206985282Y-179185528D02*
X206985282Y-179328385D01*
X207699568Y-180685528D02*
X207699568Y-179685528D01*
X207699568Y-179971242D02*
X207770997Y-179828385D01*
X207770997Y-179828385D02*
X207842426Y-179756957D01*
X207842426Y-179756957D02*
X207985283Y-179685528D01*
X207985283Y-179685528D02*
X208128140Y-179685528D01*
X209270997Y-179685528D02*
X209270997Y-180899814D01*
X209270997Y-180899814D02*
X209199568Y-181042671D01*
X209199568Y-181042671D02*
X209128139Y-181114100D01*
X209128139Y-181114100D02*
X208985282Y-181185528D01*
X208985282Y-181185528D02*
X208770997Y-181185528D01*
X208770997Y-181185528D02*
X208628139Y-181114100D01*
X209270997Y-180614100D02*
X209128139Y-180685528D01*
X209128139Y-180685528D02*
X208842425Y-180685528D01*
X208842425Y-180685528D02*
X208699568Y-180614100D01*
X208699568Y-180614100D02*
X208628139Y-180542671D01*
X208628139Y-180542671D02*
X208556711Y-180399814D01*
X208556711Y-180399814D02*
X208556711Y-179971242D01*
X208556711Y-179971242D02*
X208628139Y-179828385D01*
X208628139Y-179828385D02*
X208699568Y-179756957D01*
X208699568Y-179756957D02*
X208842425Y-179685528D01*
X208842425Y-179685528D02*
X209128139Y-179685528D01*
X209128139Y-179685528D02*
X209270997Y-179756957D01*
X209985282Y-180685528D02*
X209985282Y-179685528D01*
X209985282Y-179185528D02*
X209913854Y-179256957D01*
X209913854Y-179256957D02*
X209985282Y-179328385D01*
X209985282Y-179328385D02*
X210056711Y-179256957D01*
X210056711Y-179256957D02*
X209985282Y-179185528D01*
X209985282Y-179185528D02*
X209985282Y-179328385D01*
X210699568Y-179685528D02*
X210699568Y-180685528D01*
X210699568Y-179828385D02*
X210770997Y-179756957D01*
X210770997Y-179756957D02*
X210913854Y-179685528D01*
X210913854Y-179685528D02*
X211128140Y-179685528D01*
X211128140Y-179685528D02*
X211270997Y-179756957D01*
X211270997Y-179756957D02*
X211342426Y-179899814D01*
X211342426Y-179899814D02*
X211342426Y-180685528D01*
X212056711Y-180685528D02*
X212056711Y-179685528D01*
X212056711Y-179185528D02*
X211985283Y-179256957D01*
X211985283Y-179256957D02*
X212056711Y-179328385D01*
X212056711Y-179328385D02*
X212128140Y-179256957D01*
X212128140Y-179256957D02*
X212056711Y-179185528D01*
X212056711Y-179185528D02*
X212056711Y-179328385D01*
X213413855Y-180685528D02*
X213413855Y-179899814D01*
X213413855Y-179899814D02*
X213342426Y-179756957D01*
X213342426Y-179756957D02*
X213199569Y-179685528D01*
X213199569Y-179685528D02*
X212913855Y-179685528D01*
X212913855Y-179685528D02*
X212770997Y-179756957D01*
X213413855Y-180614100D02*
X213270997Y-180685528D01*
X213270997Y-180685528D02*
X212913855Y-180685528D01*
X212913855Y-180685528D02*
X212770997Y-180614100D01*
X212770997Y-180614100D02*
X212699569Y-180471242D01*
X212699569Y-180471242D02*
X212699569Y-180328385D01*
X212699569Y-180328385D02*
X212770997Y-180185528D01*
X212770997Y-180185528D02*
X212913855Y-180114100D01*
X212913855Y-180114100D02*
X213270997Y-180114100D01*
X213270997Y-180114100D02*
X213413855Y-180042671D01*
D10*
D11*
X178458026Y-177693328D02*
X178458026Y-176193328D01*
X178458026Y-176193328D02*
X179029455Y-176193328D01*
X179029455Y-176193328D02*
X179172312Y-176264757D01*
X179172312Y-176264757D02*
X179243741Y-176336185D01*
X179243741Y-176336185D02*
X179315169Y-176479042D01*
X179315169Y-176479042D02*
X179315169Y-176693328D01*
X179315169Y-176693328D02*
X179243741Y-176836185D01*
X179243741Y-176836185D02*
X179172312Y-176907614D01*
X179172312Y-176907614D02*
X179029455Y-176979042D01*
X179029455Y-176979042D02*
X178458026Y-176979042D01*
X179958026Y-177693328D02*
X179958026Y-176693328D01*
X179958026Y-176979042D02*
X180029455Y-176836185D01*
X180029455Y-176836185D02*
X180100884Y-176764757D01*
X180100884Y-176764757D02*
X180243741Y-176693328D01*
X180243741Y-176693328D02*
X180386598Y-176693328D01*
X181529455Y-177693328D02*
X181529455Y-176907614D01*
X181529455Y-176907614D02*
X181458026Y-176764757D01*
X181458026Y-176764757D02*
X181315169Y-176693328D01*
X181315169Y-176693328D02*
X181029455Y-176693328D01*
X181029455Y-176693328D02*
X180886597Y-176764757D01*
X181529455Y-177621900D02*
X181386597Y-177693328D01*
X181386597Y-177693328D02*
X181029455Y-177693328D01*
X181029455Y-177693328D02*
X180886597Y-177621900D01*
X180886597Y-177621900D02*
X180815169Y-177479042D01*
X180815169Y-177479042D02*
X180815169Y-177336185D01*
X180815169Y-177336185D02*
X180886597Y-177193328D01*
X180886597Y-177193328D02*
X181029455Y-177121900D01*
X181029455Y-177121900D02*
X181386597Y-177121900D01*
X181386597Y-177121900D02*
X181529455Y-177050471D01*
X182886598Y-177621900D02*
X182743740Y-177693328D01*
X182743740Y-177693328D02*
X182458026Y-177693328D01*
X182458026Y-177693328D02*
X182315169Y-177621900D01*
X182315169Y-177621900D02*
X182243740Y-177550471D01*
X182243740Y-177550471D02*
X182172312Y-177407614D01*
X182172312Y-177407614D02*
X182172312Y-176979042D01*
X182172312Y-176979042D02*
X182243740Y-176836185D01*
X182243740Y-176836185D02*
X182315169Y-176764757D01*
X182315169Y-176764757D02*
X182458026Y-176693328D01*
X182458026Y-176693328D02*
X182743740Y-176693328D01*
X182743740Y-176693328D02*
X182886598Y-176764757D01*
X183315169Y-176693328D02*
X183886597Y-176693328D01*
X183529454Y-176193328D02*
X183529454Y-177479042D01*
X183529454Y-177479042D02*
X183600883Y-177621900D01*
X183600883Y-177621900D02*
X183743740Y-177693328D01*
X183743740Y-177693328D02*
X183886597Y-177693328D01*
X184386597Y-177693328D02*
X184386597Y-176693328D01*
X184386597Y-176193328D02*
X184315169Y-176264757D01*
X184315169Y-176264757D02*
X184386597Y-176336185D01*
X184386597Y-176336185D02*
X184458026Y-176264757D01*
X184458026Y-176264757D02*
X184386597Y-176193328D01*
X184386597Y-176193328D02*
X184386597Y-176336185D01*
X185743741Y-177621900D02*
X185600883Y-177693328D01*
X185600883Y-177693328D02*
X185315169Y-177693328D01*
X185315169Y-177693328D02*
X185172312Y-177621900D01*
X185172312Y-177621900D02*
X185100883Y-177550471D01*
X185100883Y-177550471D02*
X185029455Y-177407614D01*
X185029455Y-177407614D02*
X185029455Y-176979042D01*
X185029455Y-176979042D02*
X185100883Y-176836185D01*
X185100883Y-176836185D02*
X185172312Y-176764757D01*
X185172312Y-176764757D02*
X185315169Y-176693328D01*
X185315169Y-176693328D02*
X185600883Y-176693328D01*
X185600883Y-176693328D02*
X185743741Y-176764757D01*
X186958026Y-177621900D02*
X186815169Y-177693328D01*
X186815169Y-177693328D02*
X186529455Y-177693328D01*
X186529455Y-177693328D02*
X186386597Y-177621900D01*
X186386597Y-177621900D02*
X186315169Y-177479042D01*
X186315169Y-177479042D02*
X186315169Y-176907614D01*
X186315169Y-176907614D02*
X186386597Y-176764757D01*
X186386597Y-176764757D02*
X186529455Y-176693328D01*
X186529455Y-176693328D02*
X186815169Y-176693328D01*
X186815169Y-176693328D02*
X186958026Y-176764757D01*
X186958026Y-176764757D02*
X187029455Y-176907614D01*
X187029455Y-176907614D02*
X187029455Y-177050471D01*
X187029455Y-177050471D02*
X186315169Y-177193328D01*
X188815168Y-177693328D02*
X188815168Y-176193328D01*
X188815168Y-176193328D02*
X189386597Y-176193328D01*
X189386597Y-176193328D02*
X189529454Y-176264757D01*
X189529454Y-176264757D02*
X189600883Y-176336185D01*
X189600883Y-176336185D02*
X189672311Y-176479042D01*
X189672311Y-176479042D02*
X189672311Y-176693328D01*
X189672311Y-176693328D02*
X189600883Y-176836185D01*
X189600883Y-176836185D02*
X189529454Y-176907614D01*
X189529454Y-176907614D02*
X189386597Y-176979042D01*
X189386597Y-176979042D02*
X188815168Y-176979042D01*
X191172311Y-177550471D02*
X191100883Y-177621900D01*
X191100883Y-177621900D02*
X190886597Y-177693328D01*
X190886597Y-177693328D02*
X190743740Y-177693328D01*
X190743740Y-177693328D02*
X190529454Y-177621900D01*
X190529454Y-177621900D02*
X190386597Y-177479042D01*
X190386597Y-177479042D02*
X190315168Y-177336185D01*
X190315168Y-177336185D02*
X190243740Y-177050471D01*
X190243740Y-177050471D02*
X190243740Y-176836185D01*
X190243740Y-176836185D02*
X190315168Y-176550471D01*
X190315168Y-176550471D02*
X190386597Y-176407614D01*
X190386597Y-176407614D02*
X190529454Y-176264757D01*
X190529454Y-176264757D02*
X190743740Y-176193328D01*
X190743740Y-176193328D02*
X190886597Y-176193328D01*
X190886597Y-176193328D02*
X191100883Y-176264757D01*
X191100883Y-176264757D02*
X191172311Y-176336185D01*
X192315168Y-176907614D02*
X192529454Y-176979042D01*
X192529454Y-176979042D02*
X192600883Y-177050471D01*
X192600883Y-177050471D02*
X192672311Y-177193328D01*
X192672311Y-177193328D02*
X192672311Y-177407614D01*
X192672311Y-177407614D02*
X192600883Y-177550471D01*
X192600883Y-177550471D02*
X192529454Y-177621900D01*
X192529454Y-177621900D02*
X192386597Y-177693328D01*
X192386597Y-177693328D02*
X191815168Y-177693328D01*
X191815168Y-177693328D02*
X191815168Y-176193328D01*
X191815168Y-176193328D02*
X192315168Y-176193328D01*
X192315168Y-176193328D02*
X192458026Y-176264757D01*
X192458026Y-176264757D02*
X192529454Y-176336185D01*
X192529454Y-176336185D02*
X192600883Y-176479042D01*
X192600883Y-176479042D02*
X192600883Y-176621900D01*
X192600883Y-176621900D02*
X192529454Y-176764757D01*
X192529454Y-176764757D02*
X192458026Y-176836185D01*
X192458026Y-176836185D02*
X192315168Y-176907614D01*
X192315168Y-176907614D02*
X191815168Y-176907614D01*
X194458025Y-177693328D02*
X194458025Y-176193328D01*
X194458025Y-176193328D02*
X194815168Y-176193328D01*
X194815168Y-176193328D02*
X195029454Y-176264757D01*
X195029454Y-176264757D02*
X195172311Y-176407614D01*
X195172311Y-176407614D02*
X195243740Y-176550471D01*
X195243740Y-176550471D02*
X195315168Y-176836185D01*
X195315168Y-176836185D02*
X195315168Y-177050471D01*
X195315168Y-177050471D02*
X195243740Y-177336185D01*
X195243740Y-177336185D02*
X195172311Y-177479042D01*
X195172311Y-177479042D02*
X195029454Y-177621900D01*
X195029454Y-177621900D02*
X194815168Y-177693328D01*
X194815168Y-177693328D02*
X194458025Y-177693328D01*
X196529454Y-177621900D02*
X196386597Y-177693328D01*
X196386597Y-177693328D02*
X196100883Y-177693328D01*
X196100883Y-177693328D02*
X195958025Y-177621900D01*
X195958025Y-177621900D02*
X195886597Y-177479042D01*
X195886597Y-177479042D02*
X195886597Y-176907614D01*
X195886597Y-176907614D02*
X195958025Y-176764757D01*
X195958025Y-176764757D02*
X196100883Y-176693328D01*
X196100883Y-176693328D02*
X196386597Y-176693328D01*
X196386597Y-176693328D02*
X196529454Y-176764757D01*
X196529454Y-176764757D02*
X196600883Y-176907614D01*
X196600883Y-176907614D02*
X196600883Y-177050471D01*
X196600883Y-177050471D02*
X195886597Y-177193328D01*
X197100882Y-176693328D02*
X197458025Y-177693328D01*
X197458025Y-177693328D02*
X197815168Y-176693328D01*
X198958025Y-177621900D02*
X198815168Y-177693328D01*
X198815168Y-177693328D02*
X198529454Y-177693328D01*
X198529454Y-177693328D02*
X198386596Y-177621900D01*
X198386596Y-177621900D02*
X198315168Y-177479042D01*
X198315168Y-177479042D02*
X198315168Y-176907614D01*
X198315168Y-176907614D02*
X198386596Y-176764757D01*
X198386596Y-176764757D02*
X198529454Y-176693328D01*
X198529454Y-176693328D02*
X198815168Y-176693328D01*
X198815168Y-176693328D02*
X198958025Y-176764757D01*
X198958025Y-176764757D02*
X199029454Y-176907614D01*
X199029454Y-176907614D02*
X199029454Y-177050471D01*
X199029454Y-177050471D02*
X198315168Y-177193328D01*
X199886596Y-177693328D02*
X199743739Y-177621900D01*
X199743739Y-177621900D02*
X199672310Y-177479042D01*
X199672310Y-177479042D02*
X199672310Y-176193328D01*
X200672310Y-177693328D02*
X200529453Y-177621900D01*
X200529453Y-177621900D02*
X200458024Y-177550471D01*
X200458024Y-177550471D02*
X200386596Y-177407614D01*
X200386596Y-177407614D02*
X200386596Y-176979042D01*
X200386596Y-176979042D02*
X200458024Y-176836185D01*
X200458024Y-176836185D02*
X200529453Y-176764757D01*
X200529453Y-176764757D02*
X200672310Y-176693328D01*
X200672310Y-176693328D02*
X200886596Y-176693328D01*
X200886596Y-176693328D02*
X201029453Y-176764757D01*
X201029453Y-176764757D02*
X201100882Y-176836185D01*
X201100882Y-176836185D02*
X201172310Y-176979042D01*
X201172310Y-176979042D02*
X201172310Y-177407614D01*
X201172310Y-177407614D02*
X201100882Y-177550471D01*
X201100882Y-177550471D02*
X201029453Y-177621900D01*
X201029453Y-177621900D02*
X200886596Y-177693328D01*
X200886596Y-177693328D02*
X200672310Y-177693328D01*
X201815167Y-176693328D02*
X201815167Y-178193328D01*
X201815167Y-176764757D02*
X201958025Y-176693328D01*
X201958025Y-176693328D02*
X202243739Y-176693328D01*
X202243739Y-176693328D02*
X202386596Y-176764757D01*
X202386596Y-176764757D02*
X202458025Y-176836185D01*
X202458025Y-176836185D02*
X202529453Y-176979042D01*
X202529453Y-176979042D02*
X202529453Y-177407614D01*
X202529453Y-177407614D02*
X202458025Y-177550471D01*
X202458025Y-177550471D02*
X202386596Y-177621900D01*
X202386596Y-177621900D02*
X202243739Y-177693328D01*
X202243739Y-177693328D02*
X201958025Y-177693328D01*
X201958025Y-177693328D02*
X201815167Y-177621900D01*
X203172310Y-177693328D02*
X203172310Y-176693328D01*
X203172310Y-176836185D02*
X203243739Y-176764757D01*
X203243739Y-176764757D02*
X203386596Y-176693328D01*
X203386596Y-176693328D02*
X203600882Y-176693328D01*
X203600882Y-176693328D02*
X203743739Y-176764757D01*
X203743739Y-176764757D02*
X203815168Y-176907614D01*
X203815168Y-176907614D02*
X203815168Y-177693328D01*
X203815168Y-176907614D02*
X203886596Y-176764757D01*
X203886596Y-176764757D02*
X204029453Y-176693328D01*
X204029453Y-176693328D02*
X204243739Y-176693328D01*
X204243739Y-176693328D02*
X204386596Y-176764757D01*
X204386596Y-176764757D02*
X204458025Y-176907614D01*
X204458025Y-176907614D02*
X204458025Y-177693328D01*
X205743739Y-177621900D02*
X205600882Y-177693328D01*
X205600882Y-177693328D02*
X205315168Y-177693328D01*
X205315168Y-177693328D02*
X205172310Y-177621900D01*
X205172310Y-177621900D02*
X205100882Y-177479042D01*
X205100882Y-177479042D02*
X205100882Y-176907614D01*
X205100882Y-176907614D02*
X205172310Y-176764757D01*
X205172310Y-176764757D02*
X205315168Y-176693328D01*
X205315168Y-176693328D02*
X205600882Y-176693328D01*
X205600882Y-176693328D02*
X205743739Y-176764757D01*
X205743739Y-176764757D02*
X205815168Y-176907614D01*
X205815168Y-176907614D02*
X205815168Y-177050471D01*
X205815168Y-177050471D02*
X205100882Y-177193328D01*
X206458024Y-176693328D02*
X206458024Y-177693328D01*
X206458024Y-176836185D02*
X206529453Y-176764757D01*
X206529453Y-176764757D02*
X206672310Y-176693328D01*
X206672310Y-176693328D02*
X206886596Y-176693328D01*
X206886596Y-176693328D02*
X207029453Y-176764757D01*
X207029453Y-176764757D02*
X207100882Y-176907614D01*
X207100882Y-176907614D02*
X207100882Y-177693328D01*
X207600882Y-176693328D02*
X208172310Y-176693328D01*
X207815167Y-176193328D02*
X207815167Y-177479042D01*
X207815167Y-177479042D02*
X207886596Y-177621900D01*
X207886596Y-177621900D02*
X208029453Y-177693328D01*
X208029453Y-177693328D02*
X208172310Y-177693328D01*
X209600882Y-176693328D02*
X210172310Y-176693328D01*
X209815167Y-177693328D02*
X209815167Y-176407614D01*
X209815167Y-176407614D02*
X209886596Y-176264757D01*
X209886596Y-176264757D02*
X210029453Y-176193328D01*
X210029453Y-176193328D02*
X210172310Y-176193328D01*
X210886596Y-177693328D02*
X210743739Y-177621900D01*
X210743739Y-177621900D02*
X210672310Y-177550471D01*
X210672310Y-177550471D02*
X210600882Y-177407614D01*
X210600882Y-177407614D02*
X210600882Y-176979042D01*
X210600882Y-176979042D02*
X210672310Y-176836185D01*
X210672310Y-176836185D02*
X210743739Y-176764757D01*
X210743739Y-176764757D02*
X210886596Y-176693328D01*
X210886596Y-176693328D02*
X211100882Y-176693328D01*
X211100882Y-176693328D02*
X211243739Y-176764757D01*
X211243739Y-176764757D02*
X211315168Y-176836185D01*
X211315168Y-176836185D02*
X211386596Y-176979042D01*
X211386596Y-176979042D02*
X211386596Y-177407614D01*
X211386596Y-177407614D02*
X211315168Y-177550471D01*
X211315168Y-177550471D02*
X211243739Y-177621900D01*
X211243739Y-177621900D02*
X211100882Y-177693328D01*
X211100882Y-177693328D02*
X210886596Y-177693328D01*
X212029453Y-177693328D02*
X212029453Y-176693328D01*
X212029453Y-176979042D02*
X212100882Y-176836185D01*
X212100882Y-176836185D02*
X212172311Y-176764757D01*
X212172311Y-176764757D02*
X212315168Y-176693328D01*
X212315168Y-176693328D02*
X212458025Y-176693328D01*
X214100881Y-177693328D02*
X214100881Y-176193328D01*
X214100881Y-176193328D02*
X214600881Y-177264757D01*
X214600881Y-177264757D02*
X215100881Y-176193328D01*
X215100881Y-176193328D02*
X215100881Y-177693328D01*
X216386596Y-177621900D02*
X216243739Y-177693328D01*
X216243739Y-177693328D02*
X215958025Y-177693328D01*
X215958025Y-177693328D02*
X215815167Y-177621900D01*
X215815167Y-177621900D02*
X215743739Y-177479042D01*
X215743739Y-177479042D02*
X215743739Y-176907614D01*
X215743739Y-176907614D02*
X215815167Y-176764757D01*
X215815167Y-176764757D02*
X215958025Y-176693328D01*
X215958025Y-176693328D02*
X216243739Y-176693328D01*
X216243739Y-176693328D02*
X216386596Y-176764757D01*
X216386596Y-176764757D02*
X216458025Y-176907614D01*
X216458025Y-176907614D02*
X216458025Y-177050471D01*
X216458025Y-177050471D02*
X215743739Y-177193328D01*
X217100881Y-177693328D02*
X217100881Y-176693328D01*
X217100881Y-176836185D02*
X217172310Y-176764757D01*
X217172310Y-176764757D02*
X217315167Y-176693328D01*
X217315167Y-176693328D02*
X217529453Y-176693328D01*
X217529453Y-176693328D02*
X217672310Y-176764757D01*
X217672310Y-176764757D02*
X217743739Y-176907614D01*
X217743739Y-176907614D02*
X217743739Y-177693328D01*
X217743739Y-176907614D02*
X217815167Y-176764757D01*
X217815167Y-176764757D02*
X217958024Y-176693328D01*
X217958024Y-176693328D02*
X218172310Y-176693328D01*
X218172310Y-176693328D02*
X218315167Y-176764757D01*
X218315167Y-176764757D02*
X218386596Y-176907614D01*
X218386596Y-176907614D02*
X218386596Y-177693328D01*
X219315167Y-177693328D02*
X219172310Y-177621900D01*
X219172310Y-177621900D02*
X219100881Y-177550471D01*
X219100881Y-177550471D02*
X219029453Y-177407614D01*
X219029453Y-177407614D02*
X219029453Y-176979042D01*
X219029453Y-176979042D02*
X219100881Y-176836185D01*
X219100881Y-176836185D02*
X219172310Y-176764757D01*
X219172310Y-176764757D02*
X219315167Y-176693328D01*
X219315167Y-176693328D02*
X219529453Y-176693328D01*
X219529453Y-176693328D02*
X219672310Y-176764757D01*
X219672310Y-176764757D02*
X219743739Y-176836185D01*
X219743739Y-176836185D02*
X219815167Y-176979042D01*
X219815167Y-176979042D02*
X219815167Y-177407614D01*
X219815167Y-177407614D02*
X219743739Y-177550471D01*
X219743739Y-177550471D02*
X219672310Y-177621900D01*
X219672310Y-177621900D02*
X219529453Y-177693328D01*
X219529453Y-177693328D02*
X219315167Y-177693328D01*
X220458024Y-177693328D02*
X220458024Y-176693328D01*
X220458024Y-176979042D02*
X220529453Y-176836185D01*
X220529453Y-176836185D02*
X220600882Y-176764757D01*
X220600882Y-176764757D02*
X220743739Y-176693328D01*
X220743739Y-176693328D02*
X220886596Y-176693328D01*
X221243738Y-176693328D02*
X221600881Y-177693328D01*
X221958024Y-176693328D02*
X221600881Y-177693328D01*
X221600881Y-177693328D02*
X221458024Y-178050471D01*
X221458024Y-178050471D02*
X221386595Y-178121900D01*
X221386595Y-178121900D02*
X221243738Y-178193328D01*
X223458024Y-176193328D02*
X224315167Y-176193328D01*
X223886595Y-177693328D02*
X223886595Y-176193328D01*
X225386595Y-177621900D02*
X225243738Y-177693328D01*
X225243738Y-177693328D02*
X224958024Y-177693328D01*
X224958024Y-177693328D02*
X224815166Y-177621900D01*
X224815166Y-177621900D02*
X224743738Y-177479042D01*
X224743738Y-177479042D02*
X224743738Y-176907614D01*
X224743738Y-176907614D02*
X224815166Y-176764757D01*
X224815166Y-176764757D02*
X224958024Y-176693328D01*
X224958024Y-176693328D02*
X225243738Y-176693328D01*
X225243738Y-176693328D02*
X225386595Y-176764757D01*
X225386595Y-176764757D02*
X225458024Y-176907614D01*
X225458024Y-176907614D02*
X225458024Y-177050471D01*
X225458024Y-177050471D02*
X224743738Y-177193328D01*
X226743738Y-177693328D02*
X226743738Y-176907614D01*
X226743738Y-176907614D02*
X226672309Y-176764757D01*
X226672309Y-176764757D02*
X226529452Y-176693328D01*
X226529452Y-176693328D02*
X226243738Y-176693328D01*
X226243738Y-176693328D02*
X226100880Y-176764757D01*
X226743738Y-177621900D02*
X226600880Y-177693328D01*
X226600880Y-177693328D02*
X226243738Y-177693328D01*
X226243738Y-177693328D02*
X226100880Y-177621900D01*
X226100880Y-177621900D02*
X226029452Y-177479042D01*
X226029452Y-177479042D02*
X226029452Y-177336185D01*
X226029452Y-177336185D02*
X226100880Y-177193328D01*
X226100880Y-177193328D02*
X226243738Y-177121900D01*
X226243738Y-177121900D02*
X226600880Y-177121900D01*
X226600880Y-177121900D02*
X226743738Y-177050471D01*
X228100881Y-177621900D02*
X227958023Y-177693328D01*
X227958023Y-177693328D02*
X227672309Y-177693328D01*
X227672309Y-177693328D02*
X227529452Y-177621900D01*
X227529452Y-177621900D02*
X227458023Y-177550471D01*
X227458023Y-177550471D02*
X227386595Y-177407614D01*
X227386595Y-177407614D02*
X227386595Y-176979042D01*
X227386595Y-176979042D02*
X227458023Y-176836185D01*
X227458023Y-176836185D02*
X227529452Y-176764757D01*
X227529452Y-176764757D02*
X227672309Y-176693328D01*
X227672309Y-176693328D02*
X227958023Y-176693328D01*
X227958023Y-176693328D02*
X228100881Y-176764757D01*
X228743737Y-177693328D02*
X228743737Y-176193328D01*
X229386595Y-177693328D02*
X229386595Y-176907614D01*
X229386595Y-176907614D02*
X229315166Y-176764757D01*
X229315166Y-176764757D02*
X229172309Y-176693328D01*
X229172309Y-176693328D02*
X228958023Y-176693328D01*
X228958023Y-176693328D02*
X228815166Y-176764757D01*
X228815166Y-176764757D02*
X228743737Y-176836185D01*
X230100880Y-177693328D02*
X230100880Y-176693328D01*
X230100880Y-176193328D02*
X230029452Y-176264757D01*
X230029452Y-176264757D02*
X230100880Y-176336185D01*
X230100880Y-176336185D02*
X230172309Y-176264757D01*
X230172309Y-176264757D02*
X230100880Y-176193328D01*
X230100880Y-176193328D02*
X230100880Y-176336185D01*
X230815166Y-176693328D02*
X230815166Y-177693328D01*
X230815166Y-176836185D02*
X230886595Y-176764757D01*
X230886595Y-176764757D02*
X231029452Y-176693328D01*
X231029452Y-176693328D02*
X231243738Y-176693328D01*
X231243738Y-176693328D02*
X231386595Y-176764757D01*
X231386595Y-176764757D02*
X231458024Y-176907614D01*
X231458024Y-176907614D02*
X231458024Y-177693328D01*
X232815167Y-176693328D02*
X232815167Y-177907614D01*
X232815167Y-177907614D02*
X232743738Y-178050471D01*
X232743738Y-178050471D02*
X232672309Y-178121900D01*
X232672309Y-178121900D02*
X232529452Y-178193328D01*
X232529452Y-178193328D02*
X232315167Y-178193328D01*
X232315167Y-178193328D02*
X232172309Y-178121900D01*
X232815167Y-177621900D02*
X232672309Y-177693328D01*
X232672309Y-177693328D02*
X232386595Y-177693328D01*
X232386595Y-177693328D02*
X232243738Y-177621900D01*
X232243738Y-177621900D02*
X232172309Y-177550471D01*
X232172309Y-177550471D02*
X232100881Y-177407614D01*
X232100881Y-177407614D02*
X232100881Y-176979042D01*
X232100881Y-176979042D02*
X232172309Y-176836185D01*
X232172309Y-176836185D02*
X232243738Y-176764757D01*
X232243738Y-176764757D02*
X232386595Y-176693328D01*
X232386595Y-176693328D02*
X232672309Y-176693328D01*
X232672309Y-176693328D02*
X232815167Y-176764757D01*
X234458024Y-176193328D02*
X235315167Y-176193328D01*
X234886595Y-177693328D02*
X234886595Y-176193328D01*
X236029452Y-177693328D02*
X235886595Y-177621900D01*
X235886595Y-177621900D02*
X235815166Y-177550471D01*
X235815166Y-177550471D02*
X235743738Y-177407614D01*
X235743738Y-177407614D02*
X235743738Y-176979042D01*
X235743738Y-176979042D02*
X235815166Y-176836185D01*
X235815166Y-176836185D02*
X235886595Y-176764757D01*
X235886595Y-176764757D02*
X236029452Y-176693328D01*
X236029452Y-176693328D02*
X236243738Y-176693328D01*
X236243738Y-176693328D02*
X236386595Y-176764757D01*
X236386595Y-176764757D02*
X236458024Y-176836185D01*
X236458024Y-176836185D02*
X236529452Y-176979042D01*
X236529452Y-176979042D02*
X236529452Y-177407614D01*
X236529452Y-177407614D02*
X236458024Y-177550471D01*
X236458024Y-177550471D02*
X236386595Y-177621900D01*
X236386595Y-177621900D02*
X236243738Y-177693328D01*
X236243738Y-177693328D02*
X236029452Y-177693328D01*
X237386595Y-177693328D02*
X237243738Y-177621900D01*
X237243738Y-177621900D02*
X237172309Y-177550471D01*
X237172309Y-177550471D02*
X237100881Y-177407614D01*
X237100881Y-177407614D02*
X237100881Y-176979042D01*
X237100881Y-176979042D02*
X237172309Y-176836185D01*
X237172309Y-176836185D02*
X237243738Y-176764757D01*
X237243738Y-176764757D02*
X237386595Y-176693328D01*
X237386595Y-176693328D02*
X237600881Y-176693328D01*
X237600881Y-176693328D02*
X237743738Y-176764757D01*
X237743738Y-176764757D02*
X237815167Y-176836185D01*
X237815167Y-176836185D02*
X237886595Y-176979042D01*
X237886595Y-176979042D02*
X237886595Y-177407614D01*
X237886595Y-177407614D02*
X237815167Y-177550471D01*
X237815167Y-177550471D02*
X237743738Y-177621900D01*
X237743738Y-177621900D02*
X237600881Y-177693328D01*
X237600881Y-177693328D02*
X237386595Y-177693328D01*
X238743738Y-177693328D02*
X238600881Y-177621900D01*
X238600881Y-177621900D02*
X238529452Y-177479042D01*
X238529452Y-177479042D02*
X238529452Y-176193328D01*
D10*
D11*
X178243741Y-173193328D02*
X178743741Y-174693328D01*
X178743741Y-174693328D02*
X179243741Y-173193328D01*
X180315169Y-174621900D02*
X180172312Y-174693328D01*
X180172312Y-174693328D02*
X179886598Y-174693328D01*
X179886598Y-174693328D02*
X179743740Y-174621900D01*
X179743740Y-174621900D02*
X179672312Y-174479042D01*
X179672312Y-174479042D02*
X179672312Y-173907614D01*
X179672312Y-173907614D02*
X179743740Y-173764757D01*
X179743740Y-173764757D02*
X179886598Y-173693328D01*
X179886598Y-173693328D02*
X180172312Y-173693328D01*
X180172312Y-173693328D02*
X180315169Y-173764757D01*
X180315169Y-173764757D02*
X180386598Y-173907614D01*
X180386598Y-173907614D02*
X180386598Y-174050471D01*
X180386598Y-174050471D02*
X179672312Y-174193328D01*
X181029454Y-174693328D02*
X181029454Y-173693328D01*
X181029454Y-173979042D02*
X181100883Y-173836185D01*
X181100883Y-173836185D02*
X181172312Y-173764757D01*
X181172312Y-173764757D02*
X181315169Y-173693328D01*
X181315169Y-173693328D02*
X181458026Y-173693328D01*
X181886597Y-174621900D02*
X182029454Y-174693328D01*
X182029454Y-174693328D02*
X182315168Y-174693328D01*
X182315168Y-174693328D02*
X182458025Y-174621900D01*
X182458025Y-174621900D02*
X182529454Y-174479042D01*
X182529454Y-174479042D02*
X182529454Y-174407614D01*
X182529454Y-174407614D02*
X182458025Y-174264757D01*
X182458025Y-174264757D02*
X182315168Y-174193328D01*
X182315168Y-174193328D02*
X182100883Y-174193328D01*
X182100883Y-174193328D02*
X181958025Y-174121900D01*
X181958025Y-174121900D02*
X181886597Y-173979042D01*
X181886597Y-173979042D02*
X181886597Y-173907614D01*
X181886597Y-173907614D02*
X181958025Y-173764757D01*
X181958025Y-173764757D02*
X182100883Y-173693328D01*
X182100883Y-173693328D02*
X182315168Y-173693328D01*
X182315168Y-173693328D02*
X182458025Y-173764757D01*
X183172311Y-174693328D02*
X183172311Y-173693328D01*
X183172311Y-173193328D02*
X183100883Y-173264757D01*
X183100883Y-173264757D02*
X183172311Y-173336185D01*
X183172311Y-173336185D02*
X183243740Y-173264757D01*
X183243740Y-173264757D02*
X183172311Y-173193328D01*
X183172311Y-173193328D02*
X183172311Y-173336185D01*
X184100883Y-174693328D02*
X183958026Y-174621900D01*
X183958026Y-174621900D02*
X183886597Y-174550471D01*
X183886597Y-174550471D02*
X183815169Y-174407614D01*
X183815169Y-174407614D02*
X183815169Y-173979042D01*
X183815169Y-173979042D02*
X183886597Y-173836185D01*
X183886597Y-173836185D02*
X183958026Y-173764757D01*
X183958026Y-173764757D02*
X184100883Y-173693328D01*
X184100883Y-173693328D02*
X184315169Y-173693328D01*
X184315169Y-173693328D02*
X184458026Y-173764757D01*
X184458026Y-173764757D02*
X184529455Y-173836185D01*
X184529455Y-173836185D02*
X184600883Y-173979042D01*
X184600883Y-173979042D02*
X184600883Y-174407614D01*
X184600883Y-174407614D02*
X184529455Y-174550471D01*
X184529455Y-174550471D02*
X184458026Y-174621900D01*
X184458026Y-174621900D02*
X184315169Y-174693328D01*
X184315169Y-174693328D02*
X184100883Y-174693328D01*
X185243740Y-173693328D02*
X185243740Y-174693328D01*
X185243740Y-173836185D02*
X185315169Y-173764757D01*
X185315169Y-173764757D02*
X185458026Y-173693328D01*
X185458026Y-173693328D02*
X185672312Y-173693328D01*
X185672312Y-173693328D02*
X185815169Y-173764757D01*
X185815169Y-173764757D02*
X185886598Y-173907614D01*
X185886598Y-173907614D02*
X185886598Y-174693328D01*
X188529455Y-174693328D02*
X187672312Y-174693328D01*
X188100883Y-174693328D02*
X188100883Y-173193328D01*
X188100883Y-173193328D02*
X187958026Y-173407614D01*
X187958026Y-173407614D02*
X187815169Y-173550471D01*
X187815169Y-173550471D02*
X187672312Y-173621900D01*
X189172311Y-174550471D02*
X189243740Y-174621900D01*
X189243740Y-174621900D02*
X189172311Y-174693328D01*
X189172311Y-174693328D02*
X189100883Y-174621900D01*
X189100883Y-174621900D02*
X189172311Y-174550471D01*
X189172311Y-174550471D02*
X189172311Y-174693328D01*
X190172312Y-173193328D02*
X190315169Y-173193328D01*
X190315169Y-173193328D02*
X190458026Y-173264757D01*
X190458026Y-173264757D02*
X190529455Y-173336185D01*
X190529455Y-173336185D02*
X190600883Y-173479042D01*
X190600883Y-173479042D02*
X190672312Y-173764757D01*
X190672312Y-173764757D02*
X190672312Y-174121900D01*
X190672312Y-174121900D02*
X190600883Y-174407614D01*
X190600883Y-174407614D02*
X190529455Y-174550471D01*
X190529455Y-174550471D02*
X190458026Y-174621900D01*
X190458026Y-174621900D02*
X190315169Y-174693328D01*
X190315169Y-174693328D02*
X190172312Y-174693328D01*
X190172312Y-174693328D02*
X190029455Y-174621900D01*
X190029455Y-174621900D02*
X189958026Y-174550471D01*
X189958026Y-174550471D02*
X189886597Y-174407614D01*
X189886597Y-174407614D02*
X189815169Y-174121900D01*
X189815169Y-174121900D02*
X189815169Y-173764757D01*
X189815169Y-173764757D02*
X189886597Y-173479042D01*
X189886597Y-173479042D02*
X189958026Y-173336185D01*
X189958026Y-173336185D02*
X190029455Y-173264757D01*
X190029455Y-173264757D02*
X190172312Y-173193328D01*
X192458025Y-174550471D02*
X192529454Y-174621900D01*
X192529454Y-174621900D02*
X192458025Y-174693328D01*
X192458025Y-174693328D02*
X192386597Y-174621900D01*
X192386597Y-174621900D02*
X192458025Y-174550471D01*
X192458025Y-174550471D02*
X192458025Y-174693328D01*
X192458025Y-173764757D02*
X192529454Y-173836185D01*
X192529454Y-173836185D02*
X192458025Y-173907614D01*
X192458025Y-173907614D02*
X192386597Y-173836185D01*
X192386597Y-173836185D02*
X192458025Y-173764757D01*
X192458025Y-173764757D02*
X192458025Y-173907614D01*
X194600883Y-173193328D02*
X194743740Y-173193328D01*
X194743740Y-173193328D02*
X194886597Y-173264757D01*
X194886597Y-173264757D02*
X194958026Y-173336185D01*
X194958026Y-173336185D02*
X195029454Y-173479042D01*
X195029454Y-173479042D02*
X195100883Y-173764757D01*
X195100883Y-173764757D02*
X195100883Y-174121900D01*
X195100883Y-174121900D02*
X195029454Y-174407614D01*
X195029454Y-174407614D02*
X194958026Y-174550471D01*
X194958026Y-174550471D02*
X194886597Y-174621900D01*
X194886597Y-174621900D02*
X194743740Y-174693328D01*
X194743740Y-174693328D02*
X194600883Y-174693328D01*
X194600883Y-174693328D02*
X194458026Y-174621900D01*
X194458026Y-174621900D02*
X194386597Y-174550471D01*
X194386597Y-174550471D02*
X194315168Y-174407614D01*
X194315168Y-174407614D02*
X194243740Y-174121900D01*
X194243740Y-174121900D02*
X194243740Y-173764757D01*
X194243740Y-173764757D02*
X194315168Y-173479042D01*
X194315168Y-173479042D02*
X194386597Y-173336185D01*
X194386597Y-173336185D02*
X194458026Y-173264757D01*
X194458026Y-173264757D02*
X194600883Y-173193328D01*
X195815168Y-174693328D02*
X196100882Y-174693328D01*
X196100882Y-174693328D02*
X196243739Y-174621900D01*
X196243739Y-174621900D02*
X196315168Y-174550471D01*
X196315168Y-174550471D02*
X196458025Y-174336185D01*
X196458025Y-174336185D02*
X196529454Y-174050471D01*
X196529454Y-174050471D02*
X196529454Y-173479042D01*
X196529454Y-173479042D02*
X196458025Y-173336185D01*
X196458025Y-173336185D02*
X196386597Y-173264757D01*
X196386597Y-173264757D02*
X196243739Y-173193328D01*
X196243739Y-173193328D02*
X195958025Y-173193328D01*
X195958025Y-173193328D02*
X195815168Y-173264757D01*
X195815168Y-173264757D02*
X195743739Y-173336185D01*
X195743739Y-173336185D02*
X195672311Y-173479042D01*
X195672311Y-173479042D02*
X195672311Y-173836185D01*
X195672311Y-173836185D02*
X195743739Y-173979042D01*
X195743739Y-173979042D02*
X195815168Y-174050471D01*
X195815168Y-174050471D02*
X195958025Y-174121900D01*
X195958025Y-174121900D02*
X196243739Y-174121900D01*
X196243739Y-174121900D02*
X196386597Y-174050471D01*
X196386597Y-174050471D02*
X196458025Y-173979042D01*
X196458025Y-173979042D02*
X196529454Y-173836185D01*
X198243739Y-173121900D02*
X196958025Y-175050471D01*
X198672311Y-173336185D02*
X198743739Y-173264757D01*
X198743739Y-173264757D02*
X198886597Y-173193328D01*
X198886597Y-173193328D02*
X199243739Y-173193328D01*
X199243739Y-173193328D02*
X199386597Y-173264757D01*
X199386597Y-173264757D02*
X199458025Y-173336185D01*
X199458025Y-173336185D02*
X199529454Y-173479042D01*
X199529454Y-173479042D02*
X199529454Y-173621900D01*
X199529454Y-173621900D02*
X199458025Y-173836185D01*
X199458025Y-173836185D02*
X198600882Y-174693328D01*
X198600882Y-174693328D02*
X199529454Y-174693328D01*
X200458025Y-173193328D02*
X200600882Y-173193328D01*
X200600882Y-173193328D02*
X200743739Y-173264757D01*
X200743739Y-173264757D02*
X200815168Y-173336185D01*
X200815168Y-173336185D02*
X200886596Y-173479042D01*
X200886596Y-173479042D02*
X200958025Y-173764757D01*
X200958025Y-173764757D02*
X200958025Y-174121900D01*
X200958025Y-174121900D02*
X200886596Y-174407614D01*
X200886596Y-174407614D02*
X200815168Y-174550471D01*
X200815168Y-174550471D02*
X200743739Y-174621900D01*
X200743739Y-174621900D02*
X200600882Y-174693328D01*
X200600882Y-174693328D02*
X200458025Y-174693328D01*
X200458025Y-174693328D02*
X200315168Y-174621900D01*
X200315168Y-174621900D02*
X200243739Y-174550471D01*
X200243739Y-174550471D02*
X200172310Y-174407614D01*
X200172310Y-174407614D02*
X200100882Y-174121900D01*
X200100882Y-174121900D02*
X200100882Y-173764757D01*
X200100882Y-173764757D02*
X200172310Y-173479042D01*
X200172310Y-173479042D02*
X200243739Y-173336185D01*
X200243739Y-173336185D02*
X200315168Y-173264757D01*
X200315168Y-173264757D02*
X200458025Y-173193328D01*
X202672310Y-173121900D02*
X201386596Y-175050471D01*
X203100882Y-173336185D02*
X203172310Y-173264757D01*
X203172310Y-173264757D02*
X203315168Y-173193328D01*
X203315168Y-173193328D02*
X203672310Y-173193328D01*
X203672310Y-173193328D02*
X203815168Y-173264757D01*
X203815168Y-173264757D02*
X203886596Y-173336185D01*
X203886596Y-173336185D02*
X203958025Y-173479042D01*
X203958025Y-173479042D02*
X203958025Y-173621900D01*
X203958025Y-173621900D02*
X203886596Y-173836185D01*
X203886596Y-173836185D02*
X203029453Y-174693328D01*
X203029453Y-174693328D02*
X203958025Y-174693328D01*
X204886596Y-173193328D02*
X205029453Y-173193328D01*
X205029453Y-173193328D02*
X205172310Y-173264757D01*
X205172310Y-173264757D02*
X205243739Y-173336185D01*
X205243739Y-173336185D02*
X205315167Y-173479042D01*
X205315167Y-173479042D02*
X205386596Y-173764757D01*
X205386596Y-173764757D02*
X205386596Y-174121900D01*
X205386596Y-174121900D02*
X205315167Y-174407614D01*
X205315167Y-174407614D02*
X205243739Y-174550471D01*
X205243739Y-174550471D02*
X205172310Y-174621900D01*
X205172310Y-174621900D02*
X205029453Y-174693328D01*
X205029453Y-174693328D02*
X204886596Y-174693328D01*
X204886596Y-174693328D02*
X204743739Y-174621900D01*
X204743739Y-174621900D02*
X204672310Y-174550471D01*
X204672310Y-174550471D02*
X204600881Y-174407614D01*
X204600881Y-174407614D02*
X204529453Y-174121900D01*
X204529453Y-174121900D02*
X204529453Y-173764757D01*
X204529453Y-173764757D02*
X204600881Y-173479042D01*
X204600881Y-173479042D02*
X204672310Y-173336185D01*
X204672310Y-173336185D02*
X204743739Y-173264757D01*
X204743739Y-173264757D02*
X204886596Y-173193328D01*
X205958024Y-173336185D02*
X206029452Y-173264757D01*
X206029452Y-173264757D02*
X206172310Y-173193328D01*
X206172310Y-173193328D02*
X206529452Y-173193328D01*
X206529452Y-173193328D02*
X206672310Y-173264757D01*
X206672310Y-173264757D02*
X206743738Y-173336185D01*
X206743738Y-173336185D02*
X206815167Y-173479042D01*
X206815167Y-173479042D02*
X206815167Y-173621900D01*
X206815167Y-173621900D02*
X206743738Y-173836185D01*
X206743738Y-173836185D02*
X205886595Y-174693328D01*
X205886595Y-174693328D02*
X206815167Y-174693328D01*
X208172309Y-173193328D02*
X207458023Y-173193328D01*
X207458023Y-173193328D02*
X207386595Y-173907614D01*
X207386595Y-173907614D02*
X207458023Y-173836185D01*
X207458023Y-173836185D02*
X207600881Y-173764757D01*
X207600881Y-173764757D02*
X207958023Y-173764757D01*
X207958023Y-173764757D02*
X208100881Y-173836185D01*
X208100881Y-173836185D02*
X208172309Y-173907614D01*
X208172309Y-173907614D02*
X208243738Y-174050471D01*
X208243738Y-174050471D02*
X208243738Y-174407614D01*
X208243738Y-174407614D02*
X208172309Y-174550471D01*
X208172309Y-174550471D02*
X208100881Y-174621900D01*
X208100881Y-174621900D02*
X207958023Y-174693328D01*
X207958023Y-174693328D02*
X207600881Y-174693328D01*
X207600881Y-174693328D02*
X207458023Y-174621900D01*
X207458023Y-174621900D02*
X207386595Y-174550471D01*
D10*
D11*
X178243741Y-170193328D02*
X178743741Y-171693328D01*
X178743741Y-171693328D02*
X179243741Y-170193328D01*
X180315169Y-171621900D02*
X180172312Y-171693328D01*
X180172312Y-171693328D02*
X179886598Y-171693328D01*
X179886598Y-171693328D02*
X179743740Y-171621900D01*
X179743740Y-171621900D02*
X179672312Y-171479042D01*
X179672312Y-171479042D02*
X179672312Y-170907614D01*
X179672312Y-170907614D02*
X179743740Y-170764757D01*
X179743740Y-170764757D02*
X179886598Y-170693328D01*
X179886598Y-170693328D02*
X180172312Y-170693328D01*
X180172312Y-170693328D02*
X180315169Y-170764757D01*
X180315169Y-170764757D02*
X180386598Y-170907614D01*
X180386598Y-170907614D02*
X180386598Y-171050471D01*
X180386598Y-171050471D02*
X179672312Y-171193328D01*
X181029454Y-171693328D02*
X181029454Y-170693328D01*
X181029454Y-170979042D02*
X181100883Y-170836185D01*
X181100883Y-170836185D02*
X181172312Y-170764757D01*
X181172312Y-170764757D02*
X181315169Y-170693328D01*
X181315169Y-170693328D02*
X181458026Y-170693328D01*
X181886597Y-171621900D02*
X182029454Y-171693328D01*
X182029454Y-171693328D02*
X182315168Y-171693328D01*
X182315168Y-171693328D02*
X182458025Y-171621900D01*
X182458025Y-171621900D02*
X182529454Y-171479042D01*
X182529454Y-171479042D02*
X182529454Y-171407614D01*
X182529454Y-171407614D02*
X182458025Y-171264757D01*
X182458025Y-171264757D02*
X182315168Y-171193328D01*
X182315168Y-171193328D02*
X182100883Y-171193328D01*
X182100883Y-171193328D02*
X181958025Y-171121900D01*
X181958025Y-171121900D02*
X181886597Y-170979042D01*
X181886597Y-170979042D02*
X181886597Y-170907614D01*
X181886597Y-170907614D02*
X181958025Y-170764757D01*
X181958025Y-170764757D02*
X182100883Y-170693328D01*
X182100883Y-170693328D02*
X182315168Y-170693328D01*
X182315168Y-170693328D02*
X182458025Y-170764757D01*
X183172311Y-171693328D02*
X183172311Y-170693328D01*
X183172311Y-170193328D02*
X183100883Y-170264757D01*
X183100883Y-170264757D02*
X183172311Y-170336185D01*
X183172311Y-170336185D02*
X183243740Y-170264757D01*
X183243740Y-170264757D02*
X183172311Y-170193328D01*
X183172311Y-170193328D02*
X183172311Y-170336185D01*
X184100883Y-171693328D02*
X183958026Y-171621900D01*
X183958026Y-171621900D02*
X183886597Y-171550471D01*
X183886597Y-171550471D02*
X183815169Y-171407614D01*
X183815169Y-171407614D02*
X183815169Y-170979042D01*
X183815169Y-170979042D02*
X183886597Y-170836185D01*
X183886597Y-170836185D02*
X183958026Y-170764757D01*
X183958026Y-170764757D02*
X184100883Y-170693328D01*
X184100883Y-170693328D02*
X184315169Y-170693328D01*
X184315169Y-170693328D02*
X184458026Y-170764757D01*
X184458026Y-170764757D02*
X184529455Y-170836185D01*
X184529455Y-170836185D02*
X184600883Y-170979042D01*
X184600883Y-170979042D02*
X184600883Y-171407614D01*
X184600883Y-171407614D02*
X184529455Y-171550471D01*
X184529455Y-171550471D02*
X184458026Y-171621900D01*
X184458026Y-171621900D02*
X184315169Y-171693328D01*
X184315169Y-171693328D02*
X184100883Y-171693328D01*
X185243740Y-170693328D02*
X185243740Y-171693328D01*
X185243740Y-170836185D02*
X185315169Y-170764757D01*
X185315169Y-170764757D02*
X185458026Y-170693328D01*
X185458026Y-170693328D02*
X185672312Y-170693328D01*
X185672312Y-170693328D02*
X185815169Y-170764757D01*
X185815169Y-170764757D02*
X185886598Y-170907614D01*
X185886598Y-170907614D02*
X185886598Y-171693328D01*
X188529455Y-171693328D02*
X187672312Y-171693328D01*
X188100883Y-171693328D02*
X188100883Y-170193328D01*
X188100883Y-170193328D02*
X187958026Y-170407614D01*
X187958026Y-170407614D02*
X187815169Y-170550471D01*
X187815169Y-170550471D02*
X187672312Y-170621900D01*
X189172311Y-171550471D02*
X189243740Y-171621900D01*
X189243740Y-171621900D02*
X189172311Y-171693328D01*
X189172311Y-171693328D02*
X189100883Y-171621900D01*
X189100883Y-171621900D02*
X189172311Y-171550471D01*
X189172311Y-171550471D02*
X189172311Y-171693328D01*
X190672312Y-171693328D02*
X189815169Y-171693328D01*
X190243740Y-171693328D02*
X190243740Y-170193328D01*
X190243740Y-170193328D02*
X190100883Y-170407614D01*
X190100883Y-170407614D02*
X189958026Y-170550471D01*
X189958026Y-170550471D02*
X189815169Y-170621900D01*
X192458025Y-171550471D02*
X192529454Y-171621900D01*
X192529454Y-171621900D02*
X192458025Y-171693328D01*
X192458025Y-171693328D02*
X192386597Y-171621900D01*
X192386597Y-171621900D02*
X192458025Y-171550471D01*
X192458025Y-171550471D02*
X192458025Y-171693328D01*
X192458025Y-170764757D02*
X192529454Y-170836185D01*
X192529454Y-170836185D02*
X192458025Y-170907614D01*
X192458025Y-170907614D02*
X192386597Y-170836185D01*
X192386597Y-170836185D02*
X192458025Y-170764757D01*
X192458025Y-170764757D02*
X192458025Y-170907614D01*
X195100883Y-171693328D02*
X194243740Y-171693328D01*
X194672311Y-171693328D02*
X194672311Y-170193328D01*
X194672311Y-170193328D02*
X194529454Y-170407614D01*
X194529454Y-170407614D02*
X194386597Y-170550471D01*
X194386597Y-170550471D02*
X194243740Y-170621900D01*
X196529454Y-171693328D02*
X195672311Y-171693328D01*
X196100882Y-171693328D02*
X196100882Y-170193328D01*
X196100882Y-170193328D02*
X195958025Y-170407614D01*
X195958025Y-170407614D02*
X195815168Y-170550471D01*
X195815168Y-170550471D02*
X195672311Y-170621900D01*
X198243739Y-170121900D02*
X196958025Y-172050471D01*
X199529454Y-171693328D02*
X198672311Y-171693328D01*
X199100882Y-171693328D02*
X199100882Y-170193328D01*
X199100882Y-170193328D02*
X198958025Y-170407614D01*
X198958025Y-170407614D02*
X198815168Y-170550471D01*
X198815168Y-170550471D02*
X198672311Y-170621900D01*
X200243739Y-171693328D02*
X200529453Y-171693328D01*
X200529453Y-171693328D02*
X200672310Y-171621900D01*
X200672310Y-171621900D02*
X200743739Y-171550471D01*
X200743739Y-171550471D02*
X200886596Y-171336185D01*
X200886596Y-171336185D02*
X200958025Y-171050471D01*
X200958025Y-171050471D02*
X200958025Y-170479042D01*
X200958025Y-170479042D02*
X200886596Y-170336185D01*
X200886596Y-170336185D02*
X200815168Y-170264757D01*
X200815168Y-170264757D02*
X200672310Y-170193328D01*
X200672310Y-170193328D02*
X200386596Y-170193328D01*
X200386596Y-170193328D02*
X200243739Y-170264757D01*
X200243739Y-170264757D02*
X200172310Y-170336185D01*
X200172310Y-170336185D02*
X200100882Y-170479042D01*
X200100882Y-170479042D02*
X200100882Y-170836185D01*
X200100882Y-170836185D02*
X200172310Y-170979042D01*
X200172310Y-170979042D02*
X200243739Y-171050471D01*
X200243739Y-171050471D02*
X200386596Y-171121900D01*
X200386596Y-171121900D02*
X200672310Y-171121900D01*
X200672310Y-171121900D02*
X200815168Y-171050471D01*
X200815168Y-171050471D02*
X200886596Y-170979042D01*
X200886596Y-170979042D02*
X200958025Y-170836185D01*
X202672310Y-170121900D02*
X201386596Y-172050471D01*
X203100882Y-170336185D02*
X203172310Y-170264757D01*
X203172310Y-170264757D02*
X203315168Y-170193328D01*
X203315168Y-170193328D02*
X203672310Y-170193328D01*
X203672310Y-170193328D02*
X203815168Y-170264757D01*
X203815168Y-170264757D02*
X203886596Y-170336185D01*
X203886596Y-170336185D02*
X203958025Y-170479042D01*
X203958025Y-170479042D02*
X203958025Y-170621900D01*
X203958025Y-170621900D02*
X203886596Y-170836185D01*
X203886596Y-170836185D02*
X203029453Y-171693328D01*
X203029453Y-171693328D02*
X203958025Y-171693328D01*
X204886596Y-170193328D02*
X205029453Y-170193328D01*
X205029453Y-170193328D02*
X205172310Y-170264757D01*
X205172310Y-170264757D02*
X205243739Y-170336185D01*
X205243739Y-170336185D02*
X205315167Y-170479042D01*
X205315167Y-170479042D02*
X205386596Y-170764757D01*
X205386596Y-170764757D02*
X205386596Y-171121900D01*
X205386596Y-171121900D02*
X205315167Y-171407614D01*
X205315167Y-171407614D02*
X205243739Y-171550471D01*
X205243739Y-171550471D02*
X205172310Y-171621900D01*
X205172310Y-171621900D02*
X205029453Y-171693328D01*
X205029453Y-171693328D02*
X204886596Y-171693328D01*
X204886596Y-171693328D02*
X204743739Y-171621900D01*
X204743739Y-171621900D02*
X204672310Y-171550471D01*
X204672310Y-171550471D02*
X204600881Y-171407614D01*
X204600881Y-171407614D02*
X204529453Y-171121900D01*
X204529453Y-171121900D02*
X204529453Y-170764757D01*
X204529453Y-170764757D02*
X204600881Y-170479042D01*
X204600881Y-170479042D02*
X204672310Y-170336185D01*
X204672310Y-170336185D02*
X204743739Y-170264757D01*
X204743739Y-170264757D02*
X204886596Y-170193328D01*
X205958024Y-170336185D02*
X206029452Y-170264757D01*
X206029452Y-170264757D02*
X206172310Y-170193328D01*
X206172310Y-170193328D02*
X206529452Y-170193328D01*
X206529452Y-170193328D02*
X206672310Y-170264757D01*
X206672310Y-170264757D02*
X206743738Y-170336185D01*
X206743738Y-170336185D02*
X206815167Y-170479042D01*
X206815167Y-170479042D02*
X206815167Y-170621900D01*
X206815167Y-170621900D02*
X206743738Y-170836185D01*
X206743738Y-170836185D02*
X205886595Y-171693328D01*
X205886595Y-171693328D02*
X206815167Y-171693328D01*
X208172309Y-170193328D02*
X207458023Y-170193328D01*
X207458023Y-170193328D02*
X207386595Y-170907614D01*
X207386595Y-170907614D02*
X207458023Y-170836185D01*
X207458023Y-170836185D02*
X207600881Y-170764757D01*
X207600881Y-170764757D02*
X207958023Y-170764757D01*
X207958023Y-170764757D02*
X208100881Y-170836185D01*
X208100881Y-170836185D02*
X208172309Y-170907614D01*
X208172309Y-170907614D02*
X208243738Y-171050471D01*
X208243738Y-171050471D02*
X208243738Y-171407614D01*
X208243738Y-171407614D02*
X208172309Y-171550471D01*
X208172309Y-171550471D02*
X208100881Y-171621900D01*
X208100881Y-171621900D02*
X207958023Y-171693328D01*
X207958023Y-171693328D02*
X207600881Y-171693328D01*
X207600881Y-171693328D02*
X207458023Y-171621900D01*
X207458023Y-171621900D02*
X207386595Y-171550471D01*
D10*
D11*
X178243741Y-167193328D02*
X178743741Y-168693328D01*
X178743741Y-168693328D02*
X179243741Y-167193328D01*
X180315169Y-168621900D02*
X180172312Y-168693328D01*
X180172312Y-168693328D02*
X179886598Y-168693328D01*
X179886598Y-168693328D02*
X179743740Y-168621900D01*
X179743740Y-168621900D02*
X179672312Y-168479042D01*
X179672312Y-168479042D02*
X179672312Y-167907614D01*
X179672312Y-167907614D02*
X179743740Y-167764757D01*
X179743740Y-167764757D02*
X179886598Y-167693328D01*
X179886598Y-167693328D02*
X180172312Y-167693328D01*
X180172312Y-167693328D02*
X180315169Y-167764757D01*
X180315169Y-167764757D02*
X180386598Y-167907614D01*
X180386598Y-167907614D02*
X180386598Y-168050471D01*
X180386598Y-168050471D02*
X179672312Y-168193328D01*
X181029454Y-168693328D02*
X181029454Y-167693328D01*
X181029454Y-167979042D02*
X181100883Y-167836185D01*
X181100883Y-167836185D02*
X181172312Y-167764757D01*
X181172312Y-167764757D02*
X181315169Y-167693328D01*
X181315169Y-167693328D02*
X181458026Y-167693328D01*
X181886597Y-168621900D02*
X182029454Y-168693328D01*
X182029454Y-168693328D02*
X182315168Y-168693328D01*
X182315168Y-168693328D02*
X182458025Y-168621900D01*
X182458025Y-168621900D02*
X182529454Y-168479042D01*
X182529454Y-168479042D02*
X182529454Y-168407614D01*
X182529454Y-168407614D02*
X182458025Y-168264757D01*
X182458025Y-168264757D02*
X182315168Y-168193328D01*
X182315168Y-168193328D02*
X182100883Y-168193328D01*
X182100883Y-168193328D02*
X181958025Y-168121900D01*
X181958025Y-168121900D02*
X181886597Y-167979042D01*
X181886597Y-167979042D02*
X181886597Y-167907614D01*
X181886597Y-167907614D02*
X181958025Y-167764757D01*
X181958025Y-167764757D02*
X182100883Y-167693328D01*
X182100883Y-167693328D02*
X182315168Y-167693328D01*
X182315168Y-167693328D02*
X182458025Y-167764757D01*
X183172311Y-168693328D02*
X183172311Y-167693328D01*
X183172311Y-167193328D02*
X183100883Y-167264757D01*
X183100883Y-167264757D02*
X183172311Y-167336185D01*
X183172311Y-167336185D02*
X183243740Y-167264757D01*
X183243740Y-167264757D02*
X183172311Y-167193328D01*
X183172311Y-167193328D02*
X183172311Y-167336185D01*
X184100883Y-168693328D02*
X183958026Y-168621900D01*
X183958026Y-168621900D02*
X183886597Y-168550471D01*
X183886597Y-168550471D02*
X183815169Y-168407614D01*
X183815169Y-168407614D02*
X183815169Y-167979042D01*
X183815169Y-167979042D02*
X183886597Y-167836185D01*
X183886597Y-167836185D02*
X183958026Y-167764757D01*
X183958026Y-167764757D02*
X184100883Y-167693328D01*
X184100883Y-167693328D02*
X184315169Y-167693328D01*
X184315169Y-167693328D02*
X184458026Y-167764757D01*
X184458026Y-167764757D02*
X184529455Y-167836185D01*
X184529455Y-167836185D02*
X184600883Y-167979042D01*
X184600883Y-167979042D02*
X184600883Y-168407614D01*
X184600883Y-168407614D02*
X184529455Y-168550471D01*
X184529455Y-168550471D02*
X184458026Y-168621900D01*
X184458026Y-168621900D02*
X184315169Y-168693328D01*
X184315169Y-168693328D02*
X184100883Y-168693328D01*
X185243740Y-167693328D02*
X185243740Y-168693328D01*
X185243740Y-167836185D02*
X185315169Y-167764757D01*
X185315169Y-167764757D02*
X185458026Y-167693328D01*
X185458026Y-167693328D02*
X185672312Y-167693328D01*
X185672312Y-167693328D02*
X185815169Y-167764757D01*
X185815169Y-167764757D02*
X185886598Y-167907614D01*
X185886598Y-167907614D02*
X185886598Y-168693328D01*
X188529455Y-168693328D02*
X187672312Y-168693328D01*
X188100883Y-168693328D02*
X188100883Y-167193328D01*
X188100883Y-167193328D02*
X187958026Y-167407614D01*
X187958026Y-167407614D02*
X187815169Y-167550471D01*
X187815169Y-167550471D02*
X187672312Y-167621900D01*
X189172311Y-168550471D02*
X189243740Y-168621900D01*
X189243740Y-168621900D02*
X189172311Y-168693328D01*
X189172311Y-168693328D02*
X189100883Y-168621900D01*
X189100883Y-168621900D02*
X189172311Y-168550471D01*
X189172311Y-168550471D02*
X189172311Y-168693328D01*
X189815169Y-167336185D02*
X189886597Y-167264757D01*
X189886597Y-167264757D02*
X190029455Y-167193328D01*
X190029455Y-167193328D02*
X190386597Y-167193328D01*
X190386597Y-167193328D02*
X190529455Y-167264757D01*
X190529455Y-167264757D02*
X190600883Y-167336185D01*
X190600883Y-167336185D02*
X190672312Y-167479042D01*
X190672312Y-167479042D02*
X190672312Y-167621900D01*
X190672312Y-167621900D02*
X190600883Y-167836185D01*
X190600883Y-167836185D02*
X189743740Y-168693328D01*
X189743740Y-168693328D02*
X190672312Y-168693328D01*
X192458025Y-168550471D02*
X192529454Y-168621900D01*
X192529454Y-168621900D02*
X192458025Y-168693328D01*
X192458025Y-168693328D02*
X192386597Y-168621900D01*
X192386597Y-168621900D02*
X192458025Y-168550471D01*
X192458025Y-168550471D02*
X192458025Y-168693328D01*
X192458025Y-167764757D02*
X192529454Y-167836185D01*
X192529454Y-167836185D02*
X192458025Y-167907614D01*
X192458025Y-167907614D02*
X192386597Y-167836185D01*
X192386597Y-167836185D02*
X192458025Y-167764757D01*
X192458025Y-167764757D02*
X192458025Y-167907614D01*
X194600883Y-167193328D02*
X194743740Y-167193328D01*
X194743740Y-167193328D02*
X194886597Y-167264757D01*
X194886597Y-167264757D02*
X194958026Y-167336185D01*
X194958026Y-167336185D02*
X195029454Y-167479042D01*
X195029454Y-167479042D02*
X195100883Y-167764757D01*
X195100883Y-167764757D02*
X195100883Y-168121900D01*
X195100883Y-168121900D02*
X195029454Y-168407614D01*
X195029454Y-168407614D02*
X194958026Y-168550471D01*
X194958026Y-168550471D02*
X194886597Y-168621900D01*
X194886597Y-168621900D02*
X194743740Y-168693328D01*
X194743740Y-168693328D02*
X194600883Y-168693328D01*
X194600883Y-168693328D02*
X194458026Y-168621900D01*
X194458026Y-168621900D02*
X194386597Y-168550471D01*
X194386597Y-168550471D02*
X194315168Y-168407614D01*
X194315168Y-168407614D02*
X194243740Y-168121900D01*
X194243740Y-168121900D02*
X194243740Y-167764757D01*
X194243740Y-167764757D02*
X194315168Y-167479042D01*
X194315168Y-167479042D02*
X194386597Y-167336185D01*
X194386597Y-167336185D02*
X194458026Y-167264757D01*
X194458026Y-167264757D02*
X194600883Y-167193328D01*
X196529454Y-168693328D02*
X195672311Y-168693328D01*
X196100882Y-168693328D02*
X196100882Y-167193328D01*
X196100882Y-167193328D02*
X195958025Y-167407614D01*
X195958025Y-167407614D02*
X195815168Y-167550471D01*
X195815168Y-167550471D02*
X195672311Y-167621900D01*
X198243739Y-167121900D02*
X196958025Y-169050471D01*
X198600882Y-167193328D02*
X199529454Y-167193328D01*
X199529454Y-167193328D02*
X199029454Y-167764757D01*
X199029454Y-167764757D02*
X199243739Y-167764757D01*
X199243739Y-167764757D02*
X199386597Y-167836185D01*
X199386597Y-167836185D02*
X199458025Y-167907614D01*
X199458025Y-167907614D02*
X199529454Y-168050471D01*
X199529454Y-168050471D02*
X199529454Y-168407614D01*
X199529454Y-168407614D02*
X199458025Y-168550471D01*
X199458025Y-168550471D02*
X199386597Y-168621900D01*
X199386597Y-168621900D02*
X199243739Y-168693328D01*
X199243739Y-168693328D02*
X198815168Y-168693328D01*
X198815168Y-168693328D02*
X198672311Y-168621900D01*
X198672311Y-168621900D02*
X198600882Y-168550471D01*
X200958025Y-168693328D02*
X200100882Y-168693328D01*
X200529453Y-168693328D02*
X200529453Y-167193328D01*
X200529453Y-167193328D02*
X200386596Y-167407614D01*
X200386596Y-167407614D02*
X200243739Y-167550471D01*
X200243739Y-167550471D02*
X200100882Y-167621900D01*
X202672310Y-167121900D02*
X201386596Y-169050471D01*
X203100882Y-167336185D02*
X203172310Y-167264757D01*
X203172310Y-167264757D02*
X203315168Y-167193328D01*
X203315168Y-167193328D02*
X203672310Y-167193328D01*
X203672310Y-167193328D02*
X203815168Y-167264757D01*
X203815168Y-167264757D02*
X203886596Y-167336185D01*
X203886596Y-167336185D02*
X203958025Y-167479042D01*
X203958025Y-167479042D02*
X203958025Y-167621900D01*
X203958025Y-167621900D02*
X203886596Y-167836185D01*
X203886596Y-167836185D02*
X203029453Y-168693328D01*
X203029453Y-168693328D02*
X203958025Y-168693328D01*
X204886596Y-167193328D02*
X205029453Y-167193328D01*
X205029453Y-167193328D02*
X205172310Y-167264757D01*
X205172310Y-167264757D02*
X205243739Y-167336185D01*
X205243739Y-167336185D02*
X205315167Y-167479042D01*
X205315167Y-167479042D02*
X205386596Y-167764757D01*
X205386596Y-167764757D02*
X205386596Y-168121900D01*
X205386596Y-168121900D02*
X205315167Y-168407614D01*
X205315167Y-168407614D02*
X205243739Y-168550471D01*
X205243739Y-168550471D02*
X205172310Y-168621900D01*
X205172310Y-168621900D02*
X205029453Y-168693328D01*
X205029453Y-168693328D02*
X204886596Y-168693328D01*
X204886596Y-168693328D02*
X204743739Y-168621900D01*
X204743739Y-168621900D02*
X204672310Y-168550471D01*
X204672310Y-168550471D02*
X204600881Y-168407614D01*
X204600881Y-168407614D02*
X204529453Y-168121900D01*
X204529453Y-168121900D02*
X204529453Y-167764757D01*
X204529453Y-167764757D02*
X204600881Y-167479042D01*
X204600881Y-167479042D02*
X204672310Y-167336185D01*
X204672310Y-167336185D02*
X204743739Y-167264757D01*
X204743739Y-167264757D02*
X204886596Y-167193328D01*
X205958024Y-167336185D02*
X206029452Y-167264757D01*
X206029452Y-167264757D02*
X206172310Y-167193328D01*
X206172310Y-167193328D02*
X206529452Y-167193328D01*
X206529452Y-167193328D02*
X206672310Y-167264757D01*
X206672310Y-167264757D02*
X206743738Y-167336185D01*
X206743738Y-167336185D02*
X206815167Y-167479042D01*
X206815167Y-167479042D02*
X206815167Y-167621900D01*
X206815167Y-167621900D02*
X206743738Y-167836185D01*
X206743738Y-167836185D02*
X205886595Y-168693328D01*
X205886595Y-168693328D02*
X206815167Y-168693328D01*
X208172309Y-167193328D02*
X207458023Y-167193328D01*
X207458023Y-167193328D02*
X207386595Y-167907614D01*
X207386595Y-167907614D02*
X207458023Y-167836185D01*
X207458023Y-167836185D02*
X207600881Y-167764757D01*
X207600881Y-167764757D02*
X207958023Y-167764757D01*
X207958023Y-167764757D02*
X208100881Y-167836185D01*
X208100881Y-167836185D02*
X208172309Y-167907614D01*
X208172309Y-167907614D02*
X208243738Y-168050471D01*
X208243738Y-168050471D02*
X208243738Y-168407614D01*
X208243738Y-168407614D02*
X208172309Y-168550471D01*
X208172309Y-168550471D02*
X208100881Y-168621900D01*
X208100881Y-168621900D02*
X207958023Y-168693328D01*
X207958023Y-168693328D02*
X207600881Y-168693328D01*
X207600881Y-168693328D02*
X207458023Y-168621900D01*
X207458023Y-168621900D02*
X207386595Y-168550471D01*
D10*
D11*
X197002200Y-191507200D02*
X197002200Y-194507200D01*
D10*
D11*
X261002200Y-191507200D02*
X261002200Y-198007200D01*
M02*
