%TF.GenerationSoftware,KiCad,Pcbnew,9.0.4*%
%TF.CreationDate,2026-02-01T13:51:19-05:00*%
%TF.ProjectId,Practice,50726163-7469-4636-952e-6b696361645f,1.2*%
%TF.SameCoordinates,Original*%
%TF.FileFunction,Drillmap*%
%TF.FilePolarity,Positive*%
%FSLAX45Y45*%
G04 Gerber Fmt 4.5, Leading zero omitted, Abs format (unit mm)*
G04 Created by KiCad (PCBNEW 9.0.4) date 2026-02-01 13:51:19*
%MOMM*%
%LPD*%
G01*
G04 APERTURE LIST*
%ADD10C,0.050000*%
%ADD11C,0.200000*%
%ADD12C,0.160000*%
G04 APERTURE END LIST*
D10*
X21000000Y-6000000D02*
X10000000Y-6000000D01*
X21000000Y-13000000D02*
X21000000Y-6000000D01*
X10000000Y-13000000D02*
X21000000Y-13000000D01*
X10000000Y-6000000D02*
X10000000Y-13000000D01*
D11*
D12*
X10270000Y-12120000D02*
X10430000Y-12280000D01*
X10430000Y-12120000D02*
X10270000Y-12280000D01*
D11*
X10258277Y-13313984D02*
X10258277Y-13113984D01*
X10258277Y-13113984D02*
X10305896Y-13113984D01*
X10305896Y-13113984D02*
X10334467Y-13123508D01*
X10334467Y-13123508D02*
X10353515Y-13142555D01*
X10353515Y-13142555D02*
X10363039Y-13161603D01*
X10363039Y-13161603D02*
X10372563Y-13199698D01*
X10372563Y-13199698D02*
X10372563Y-13228269D01*
X10372563Y-13228269D02*
X10363039Y-13266365D01*
X10363039Y-13266365D02*
X10353515Y-13285412D01*
X10353515Y-13285412D02*
X10334467Y-13304460D01*
X10334467Y-13304460D02*
X10305896Y-13313984D01*
X10305896Y-13313984D02*
X10258277Y-13313984D01*
X10458277Y-13313984D02*
X10458277Y-13180650D01*
X10458277Y-13218746D02*
X10467801Y-13199698D01*
X10467801Y-13199698D02*
X10477324Y-13190174D01*
X10477324Y-13190174D02*
X10496372Y-13180650D01*
X10496372Y-13180650D02*
X10515420Y-13180650D01*
X10582086Y-13313984D02*
X10582086Y-13180650D01*
X10582086Y-13113984D02*
X10572563Y-13123508D01*
X10572563Y-13123508D02*
X10582086Y-13133031D01*
X10582086Y-13133031D02*
X10591610Y-13123508D01*
X10591610Y-13123508D02*
X10582086Y-13113984D01*
X10582086Y-13113984D02*
X10582086Y-13133031D01*
X10705896Y-13313984D02*
X10686848Y-13304460D01*
X10686848Y-13304460D02*
X10677324Y-13285412D01*
X10677324Y-13285412D02*
X10677324Y-13113984D01*
X10810658Y-13313984D02*
X10791610Y-13304460D01*
X10791610Y-13304460D02*
X10782086Y-13285412D01*
X10782086Y-13285412D02*
X10782086Y-13113984D01*
X11039229Y-13313984D02*
X11039229Y-13113984D01*
X11039229Y-13113984D02*
X11105896Y-13256841D01*
X11105896Y-13256841D02*
X11172563Y-13113984D01*
X11172563Y-13113984D02*
X11172563Y-13313984D01*
X11353515Y-13313984D02*
X11353515Y-13209222D01*
X11353515Y-13209222D02*
X11343991Y-13190174D01*
X11343991Y-13190174D02*
X11324943Y-13180650D01*
X11324943Y-13180650D02*
X11286848Y-13180650D01*
X11286848Y-13180650D02*
X11267801Y-13190174D01*
X11353515Y-13304460D02*
X11334467Y-13313984D01*
X11334467Y-13313984D02*
X11286848Y-13313984D01*
X11286848Y-13313984D02*
X11267801Y-13304460D01*
X11267801Y-13304460D02*
X11258277Y-13285412D01*
X11258277Y-13285412D02*
X11258277Y-13266365D01*
X11258277Y-13266365D02*
X11267801Y-13247317D01*
X11267801Y-13247317D02*
X11286848Y-13237793D01*
X11286848Y-13237793D02*
X11334467Y-13237793D01*
X11334467Y-13237793D02*
X11353515Y-13228269D01*
X11448753Y-13180650D02*
X11448753Y-13380650D01*
X11448753Y-13190174D02*
X11467801Y-13180650D01*
X11467801Y-13180650D02*
X11505896Y-13180650D01*
X11505896Y-13180650D02*
X11524943Y-13190174D01*
X11524943Y-13190174D02*
X11534467Y-13199698D01*
X11534467Y-13199698D02*
X11543991Y-13218746D01*
X11543991Y-13218746D02*
X11543991Y-13275888D01*
X11543991Y-13275888D02*
X11534467Y-13294936D01*
X11534467Y-13294936D02*
X11524943Y-13304460D01*
X11524943Y-13304460D02*
X11505896Y-13313984D01*
X11505896Y-13313984D02*
X11467801Y-13313984D01*
X11467801Y-13313984D02*
X11448753Y-13304460D01*
X11629705Y-13294936D02*
X11639229Y-13304460D01*
X11639229Y-13304460D02*
X11629705Y-13313984D01*
X11629705Y-13313984D02*
X11620182Y-13304460D01*
X11620182Y-13304460D02*
X11629705Y-13294936D01*
X11629705Y-13294936D02*
X11629705Y-13313984D01*
X11629705Y-13190174D02*
X11639229Y-13199698D01*
X11639229Y-13199698D02*
X11629705Y-13209222D01*
X11629705Y-13209222D02*
X11620182Y-13199698D01*
X11620182Y-13199698D02*
X11629705Y-13190174D01*
X11629705Y-13190174D02*
X11629705Y-13209222D01*
D12*
X9837500Y-13562500D02*
X9997500Y-13722500D01*
X9997500Y-13562500D02*
X9837500Y-13722500D01*
D11*
X10363039Y-13733984D02*
X10248753Y-13733984D01*
X10305896Y-13733984D02*
X10305896Y-13533984D01*
X10305896Y-13533984D02*
X10286848Y-13562555D01*
X10286848Y-13562555D02*
X10267801Y-13581603D01*
X10267801Y-13581603D02*
X10248753Y-13591127D01*
X10448753Y-13714936D02*
X10458277Y-13724460D01*
X10458277Y-13724460D02*
X10448753Y-13733984D01*
X10448753Y-13733984D02*
X10439229Y-13724460D01*
X10439229Y-13724460D02*
X10448753Y-13714936D01*
X10448753Y-13714936D02*
X10448753Y-13733984D01*
X10629705Y-13533984D02*
X10591610Y-13533984D01*
X10591610Y-13533984D02*
X10572563Y-13543508D01*
X10572563Y-13543508D02*
X10563039Y-13553031D01*
X10563039Y-13553031D02*
X10543991Y-13581603D01*
X10543991Y-13581603D02*
X10534467Y-13619698D01*
X10534467Y-13619698D02*
X10534467Y-13695888D01*
X10534467Y-13695888D02*
X10543991Y-13714936D01*
X10543991Y-13714936D02*
X10553515Y-13724460D01*
X10553515Y-13724460D02*
X10572563Y-13733984D01*
X10572563Y-13733984D02*
X10610658Y-13733984D01*
X10610658Y-13733984D02*
X10629705Y-13724460D01*
X10629705Y-13724460D02*
X10639229Y-13714936D01*
X10639229Y-13714936D02*
X10648753Y-13695888D01*
X10648753Y-13695888D02*
X10648753Y-13648269D01*
X10648753Y-13648269D02*
X10639229Y-13629222D01*
X10639229Y-13629222D02*
X10629705Y-13619698D01*
X10629705Y-13619698D02*
X10610658Y-13610174D01*
X10610658Y-13610174D02*
X10572563Y-13610174D01*
X10572563Y-13610174D02*
X10553515Y-13619698D01*
X10553515Y-13619698D02*
X10543991Y-13629222D01*
X10543991Y-13629222D02*
X10534467Y-13648269D01*
X10772563Y-13533984D02*
X10791610Y-13533984D01*
X10791610Y-13533984D02*
X10810658Y-13543508D01*
X10810658Y-13543508D02*
X10820182Y-13553031D01*
X10820182Y-13553031D02*
X10829705Y-13572079D01*
X10829705Y-13572079D02*
X10839229Y-13610174D01*
X10839229Y-13610174D02*
X10839229Y-13657793D01*
X10839229Y-13657793D02*
X10829705Y-13695888D01*
X10829705Y-13695888D02*
X10820182Y-13714936D01*
X10820182Y-13714936D02*
X10810658Y-13724460D01*
X10810658Y-13724460D02*
X10791610Y-13733984D01*
X10791610Y-13733984D02*
X10772563Y-13733984D01*
X10772563Y-13733984D02*
X10753515Y-13724460D01*
X10753515Y-13724460D02*
X10743991Y-13714936D01*
X10743991Y-13714936D02*
X10734467Y-13695888D01*
X10734467Y-13695888D02*
X10724944Y-13657793D01*
X10724944Y-13657793D02*
X10724944Y-13610174D01*
X10724944Y-13610174D02*
X10734467Y-13572079D01*
X10734467Y-13572079D02*
X10743991Y-13553031D01*
X10743991Y-13553031D02*
X10753515Y-13543508D01*
X10753515Y-13543508D02*
X10772563Y-13533984D01*
X10963039Y-13533984D02*
X10982086Y-13533984D01*
X10982086Y-13533984D02*
X11001134Y-13543508D01*
X11001134Y-13543508D02*
X11010658Y-13553031D01*
X11010658Y-13553031D02*
X11020182Y-13572079D01*
X11020182Y-13572079D02*
X11029705Y-13610174D01*
X11029705Y-13610174D02*
X11029705Y-13657793D01*
X11029705Y-13657793D02*
X11020182Y-13695888D01*
X11020182Y-13695888D02*
X11010658Y-13714936D01*
X11010658Y-13714936D02*
X11001134Y-13724460D01*
X11001134Y-13724460D02*
X10982086Y-13733984D01*
X10982086Y-13733984D02*
X10963039Y-13733984D01*
X10963039Y-13733984D02*
X10943991Y-13724460D01*
X10943991Y-13724460D02*
X10934467Y-13714936D01*
X10934467Y-13714936D02*
X10924944Y-13695888D01*
X10924944Y-13695888D02*
X10915420Y-13657793D01*
X10915420Y-13657793D02*
X10915420Y-13610174D01*
X10915420Y-13610174D02*
X10924944Y-13572079D01*
X10924944Y-13572079D02*
X10934467Y-13553031D01*
X10934467Y-13553031D02*
X10943991Y-13543508D01*
X10943991Y-13543508D02*
X10963039Y-13533984D01*
X11115420Y-13733984D02*
X11115420Y-13600650D01*
X11115420Y-13619698D02*
X11124944Y-13610174D01*
X11124944Y-13610174D02*
X11143991Y-13600650D01*
X11143991Y-13600650D02*
X11172563Y-13600650D01*
X11172563Y-13600650D02*
X11191610Y-13610174D01*
X11191610Y-13610174D02*
X11201134Y-13629222D01*
X11201134Y-13629222D02*
X11201134Y-13733984D01*
X11201134Y-13629222D02*
X11210658Y-13610174D01*
X11210658Y-13610174D02*
X11229705Y-13600650D01*
X11229705Y-13600650D02*
X11258277Y-13600650D01*
X11258277Y-13600650D02*
X11277324Y-13610174D01*
X11277324Y-13610174D02*
X11286848Y-13629222D01*
X11286848Y-13629222D02*
X11286848Y-13733984D01*
X11382086Y-13733984D02*
X11382086Y-13600650D01*
X11382086Y-13619698D02*
X11391610Y-13610174D01*
X11391610Y-13610174D02*
X11410658Y-13600650D01*
X11410658Y-13600650D02*
X11439229Y-13600650D01*
X11439229Y-13600650D02*
X11458277Y-13610174D01*
X11458277Y-13610174D02*
X11467801Y-13629222D01*
X11467801Y-13629222D02*
X11467801Y-13733984D01*
X11467801Y-13629222D02*
X11477324Y-13610174D01*
X11477324Y-13610174D02*
X11496372Y-13600650D01*
X11496372Y-13600650D02*
X11524943Y-13600650D01*
X11524943Y-13600650D02*
X11543991Y-13610174D01*
X11543991Y-13610174D02*
X11553515Y-13629222D01*
X11553515Y-13629222D02*
X11553515Y-13733984D01*
X11943991Y-13524460D02*
X11772563Y-13781603D01*
X12201134Y-13533984D02*
X12220182Y-13533984D01*
X12220182Y-13533984D02*
X12239229Y-13543508D01*
X12239229Y-13543508D02*
X12248753Y-13553031D01*
X12248753Y-13553031D02*
X12258277Y-13572079D01*
X12258277Y-13572079D02*
X12267801Y-13610174D01*
X12267801Y-13610174D02*
X12267801Y-13657793D01*
X12267801Y-13657793D02*
X12258277Y-13695888D01*
X12258277Y-13695888D02*
X12248753Y-13714936D01*
X12248753Y-13714936D02*
X12239229Y-13724460D01*
X12239229Y-13724460D02*
X12220182Y-13733984D01*
X12220182Y-13733984D02*
X12201134Y-13733984D01*
X12201134Y-13733984D02*
X12182086Y-13724460D01*
X12182086Y-13724460D02*
X12172563Y-13714936D01*
X12172563Y-13714936D02*
X12163039Y-13695888D01*
X12163039Y-13695888D02*
X12153515Y-13657793D01*
X12153515Y-13657793D02*
X12153515Y-13610174D01*
X12153515Y-13610174D02*
X12163039Y-13572079D01*
X12163039Y-13572079D02*
X12172563Y-13553031D01*
X12172563Y-13553031D02*
X12182086Y-13543508D01*
X12182086Y-13543508D02*
X12201134Y-13533984D01*
X12353515Y-13714936D02*
X12363039Y-13724460D01*
X12363039Y-13724460D02*
X12353515Y-13733984D01*
X12353515Y-13733984D02*
X12343991Y-13724460D01*
X12343991Y-13724460D02*
X12353515Y-13714936D01*
X12353515Y-13714936D02*
X12353515Y-13733984D01*
X12486848Y-13533984D02*
X12505896Y-13533984D01*
X12505896Y-13533984D02*
X12524944Y-13543508D01*
X12524944Y-13543508D02*
X12534467Y-13553031D01*
X12534467Y-13553031D02*
X12543991Y-13572079D01*
X12543991Y-13572079D02*
X12553515Y-13610174D01*
X12553515Y-13610174D02*
X12553515Y-13657793D01*
X12553515Y-13657793D02*
X12543991Y-13695888D01*
X12543991Y-13695888D02*
X12534467Y-13714936D01*
X12534467Y-13714936D02*
X12524944Y-13724460D01*
X12524944Y-13724460D02*
X12505896Y-13733984D01*
X12505896Y-13733984D02*
X12486848Y-13733984D01*
X12486848Y-13733984D02*
X12467801Y-13724460D01*
X12467801Y-13724460D02*
X12458277Y-13714936D01*
X12458277Y-13714936D02*
X12448753Y-13695888D01*
X12448753Y-13695888D02*
X12439229Y-13657793D01*
X12439229Y-13657793D02*
X12439229Y-13610174D01*
X12439229Y-13610174D02*
X12448753Y-13572079D01*
X12448753Y-13572079D02*
X12458277Y-13553031D01*
X12458277Y-13553031D02*
X12467801Y-13543508D01*
X12467801Y-13543508D02*
X12486848Y-13533984D01*
X12724944Y-13533984D02*
X12686848Y-13533984D01*
X12686848Y-13533984D02*
X12667801Y-13543508D01*
X12667801Y-13543508D02*
X12658277Y-13553031D01*
X12658277Y-13553031D02*
X12639229Y-13581603D01*
X12639229Y-13581603D02*
X12629706Y-13619698D01*
X12629706Y-13619698D02*
X12629706Y-13695888D01*
X12629706Y-13695888D02*
X12639229Y-13714936D01*
X12639229Y-13714936D02*
X12648753Y-13724460D01*
X12648753Y-13724460D02*
X12667801Y-13733984D01*
X12667801Y-13733984D02*
X12705896Y-13733984D01*
X12705896Y-13733984D02*
X12724944Y-13724460D01*
X12724944Y-13724460D02*
X12734467Y-13714936D01*
X12734467Y-13714936D02*
X12743991Y-13695888D01*
X12743991Y-13695888D02*
X12743991Y-13648269D01*
X12743991Y-13648269D02*
X12734467Y-13629222D01*
X12734467Y-13629222D02*
X12724944Y-13619698D01*
X12724944Y-13619698D02*
X12705896Y-13610174D01*
X12705896Y-13610174D02*
X12667801Y-13610174D01*
X12667801Y-13610174D02*
X12648753Y-13619698D01*
X12648753Y-13619698D02*
X12639229Y-13629222D01*
X12639229Y-13629222D02*
X12629706Y-13648269D01*
X12810658Y-13533984D02*
X12934467Y-13533984D01*
X12934467Y-13533984D02*
X12867801Y-13610174D01*
X12867801Y-13610174D02*
X12896372Y-13610174D01*
X12896372Y-13610174D02*
X12915420Y-13619698D01*
X12915420Y-13619698D02*
X12924944Y-13629222D01*
X12924944Y-13629222D02*
X12934467Y-13648269D01*
X12934467Y-13648269D02*
X12934467Y-13695888D01*
X12934467Y-13695888D02*
X12924944Y-13714936D01*
X12924944Y-13714936D02*
X12915420Y-13724460D01*
X12915420Y-13724460D02*
X12896372Y-13733984D01*
X12896372Y-13733984D02*
X12839229Y-13733984D01*
X12839229Y-13733984D02*
X12820182Y-13724460D01*
X12820182Y-13724460D02*
X12810658Y-13714936D01*
X13058277Y-13533984D02*
X13077325Y-13533984D01*
X13077325Y-13533984D02*
X13096372Y-13543508D01*
X13096372Y-13543508D02*
X13105896Y-13553031D01*
X13105896Y-13553031D02*
X13115420Y-13572079D01*
X13115420Y-13572079D02*
X13124944Y-13610174D01*
X13124944Y-13610174D02*
X13124944Y-13657793D01*
X13124944Y-13657793D02*
X13115420Y-13695888D01*
X13115420Y-13695888D02*
X13105896Y-13714936D01*
X13105896Y-13714936D02*
X13096372Y-13724460D01*
X13096372Y-13724460D02*
X13077325Y-13733984D01*
X13077325Y-13733984D02*
X13058277Y-13733984D01*
X13058277Y-13733984D02*
X13039229Y-13724460D01*
X13039229Y-13724460D02*
X13029706Y-13714936D01*
X13029706Y-13714936D02*
X13020182Y-13695888D01*
X13020182Y-13695888D02*
X13010658Y-13657793D01*
X13010658Y-13657793D02*
X13010658Y-13610174D01*
X13010658Y-13610174D02*
X13020182Y-13572079D01*
X13020182Y-13572079D02*
X13029706Y-13553031D01*
X13029706Y-13553031D02*
X13039229Y-13543508D01*
X13039229Y-13543508D02*
X13058277Y-13533984D01*
X13201134Y-13533984D02*
X13201134Y-13572079D01*
X13277325Y-13533984D02*
X13277325Y-13572079D01*
X13572563Y-13810174D02*
X13563039Y-13800650D01*
X13563039Y-13800650D02*
X13543991Y-13772079D01*
X13543991Y-13772079D02*
X13534468Y-13753031D01*
X13534468Y-13753031D02*
X13524944Y-13724460D01*
X13524944Y-13724460D02*
X13515420Y-13676841D01*
X13515420Y-13676841D02*
X13515420Y-13638746D01*
X13515420Y-13638746D02*
X13524944Y-13591127D01*
X13524944Y-13591127D02*
X13534468Y-13562555D01*
X13534468Y-13562555D02*
X13543991Y-13543508D01*
X13543991Y-13543508D02*
X13563039Y-13514936D01*
X13563039Y-13514936D02*
X13572563Y-13505412D01*
X13753515Y-13733984D02*
X13639229Y-13733984D01*
X13696372Y-13733984D02*
X13696372Y-13533984D01*
X13696372Y-13533984D02*
X13677325Y-13562555D01*
X13677325Y-13562555D02*
X13658277Y-13581603D01*
X13658277Y-13581603D02*
X13639229Y-13591127D01*
X13991610Y-13733984D02*
X13991610Y-13533984D01*
X14077325Y-13733984D02*
X14077325Y-13629222D01*
X14077325Y-13629222D02*
X14067801Y-13610174D01*
X14067801Y-13610174D02*
X14048753Y-13600650D01*
X14048753Y-13600650D02*
X14020182Y-13600650D01*
X14020182Y-13600650D02*
X14001134Y-13610174D01*
X14001134Y-13610174D02*
X13991610Y-13619698D01*
X14201134Y-13733984D02*
X14182087Y-13724460D01*
X14182087Y-13724460D02*
X14172563Y-13714936D01*
X14172563Y-13714936D02*
X14163039Y-13695888D01*
X14163039Y-13695888D02*
X14163039Y-13638746D01*
X14163039Y-13638746D02*
X14172563Y-13619698D01*
X14172563Y-13619698D02*
X14182087Y-13610174D01*
X14182087Y-13610174D02*
X14201134Y-13600650D01*
X14201134Y-13600650D02*
X14229706Y-13600650D01*
X14229706Y-13600650D02*
X14248753Y-13610174D01*
X14248753Y-13610174D02*
X14258277Y-13619698D01*
X14258277Y-13619698D02*
X14267801Y-13638746D01*
X14267801Y-13638746D02*
X14267801Y-13695888D01*
X14267801Y-13695888D02*
X14258277Y-13714936D01*
X14258277Y-13714936D02*
X14248753Y-13724460D01*
X14248753Y-13724460D02*
X14229706Y-13733984D01*
X14229706Y-13733984D02*
X14201134Y-13733984D01*
X14382087Y-13733984D02*
X14363039Y-13724460D01*
X14363039Y-13724460D02*
X14353515Y-13705412D01*
X14353515Y-13705412D02*
X14353515Y-13533984D01*
X14534468Y-13724460D02*
X14515420Y-13733984D01*
X14515420Y-13733984D02*
X14477325Y-13733984D01*
X14477325Y-13733984D02*
X14458277Y-13724460D01*
X14458277Y-13724460D02*
X14448753Y-13705412D01*
X14448753Y-13705412D02*
X14448753Y-13629222D01*
X14448753Y-13629222D02*
X14458277Y-13610174D01*
X14458277Y-13610174D02*
X14477325Y-13600650D01*
X14477325Y-13600650D02*
X14515420Y-13600650D01*
X14515420Y-13600650D02*
X14534468Y-13610174D01*
X14534468Y-13610174D02*
X14543991Y-13629222D01*
X14543991Y-13629222D02*
X14543991Y-13648269D01*
X14543991Y-13648269D02*
X14448753Y-13667317D01*
X14610658Y-13810174D02*
X14620182Y-13800650D01*
X14620182Y-13800650D02*
X14639230Y-13772079D01*
X14639230Y-13772079D02*
X14648753Y-13753031D01*
X14648753Y-13753031D02*
X14658277Y-13724460D01*
X14658277Y-13724460D02*
X14667801Y-13676841D01*
X14667801Y-13676841D02*
X14667801Y-13638746D01*
X14667801Y-13638746D02*
X14658277Y-13591127D01*
X14658277Y-13591127D02*
X14648753Y-13562555D01*
X14648753Y-13562555D02*
X14639230Y-13543508D01*
X14639230Y-13543508D02*
X14620182Y-13514936D01*
X14620182Y-13514936D02*
X14610658Y-13505412D01*
X14972563Y-13810174D02*
X14963039Y-13800650D01*
X14963039Y-13800650D02*
X14943991Y-13772079D01*
X14943991Y-13772079D02*
X14934468Y-13753031D01*
X14934468Y-13753031D02*
X14924944Y-13724460D01*
X14924944Y-13724460D02*
X14915420Y-13676841D01*
X14915420Y-13676841D02*
X14915420Y-13638746D01*
X14915420Y-13638746D02*
X14924944Y-13591127D01*
X14924944Y-13591127D02*
X14934468Y-13562555D01*
X14934468Y-13562555D02*
X14943991Y-13543508D01*
X14943991Y-13543508D02*
X14963039Y-13514936D01*
X14963039Y-13514936D02*
X14972563Y-13505412D01*
X15048753Y-13600650D02*
X15048753Y-13733984D01*
X15048753Y-13619698D02*
X15058277Y-13610174D01*
X15058277Y-13610174D02*
X15077325Y-13600650D01*
X15077325Y-13600650D02*
X15105896Y-13600650D01*
X15105896Y-13600650D02*
X15124944Y-13610174D01*
X15124944Y-13610174D02*
X15134468Y-13629222D01*
X15134468Y-13629222D02*
X15134468Y-13733984D01*
X15258277Y-13733984D02*
X15239230Y-13724460D01*
X15239230Y-13724460D02*
X15229706Y-13714936D01*
X15229706Y-13714936D02*
X15220182Y-13695888D01*
X15220182Y-13695888D02*
X15220182Y-13638746D01*
X15220182Y-13638746D02*
X15229706Y-13619698D01*
X15229706Y-13619698D02*
X15239230Y-13610174D01*
X15239230Y-13610174D02*
X15258277Y-13600650D01*
X15258277Y-13600650D02*
X15286849Y-13600650D01*
X15286849Y-13600650D02*
X15305896Y-13610174D01*
X15305896Y-13610174D02*
X15315420Y-13619698D01*
X15315420Y-13619698D02*
X15324944Y-13638746D01*
X15324944Y-13638746D02*
X15324944Y-13695888D01*
X15324944Y-13695888D02*
X15315420Y-13714936D01*
X15315420Y-13714936D02*
X15305896Y-13724460D01*
X15305896Y-13724460D02*
X15286849Y-13733984D01*
X15286849Y-13733984D02*
X15258277Y-13733984D01*
X15382087Y-13600650D02*
X15458277Y-13600650D01*
X15410658Y-13533984D02*
X15410658Y-13705412D01*
X15410658Y-13705412D02*
X15420182Y-13724460D01*
X15420182Y-13724460D02*
X15439230Y-13733984D01*
X15439230Y-13733984D02*
X15458277Y-13733984D01*
X15677325Y-13600650D02*
X15677325Y-13800650D01*
X15677325Y-13610174D02*
X15696372Y-13600650D01*
X15696372Y-13600650D02*
X15734468Y-13600650D01*
X15734468Y-13600650D02*
X15753515Y-13610174D01*
X15753515Y-13610174D02*
X15763039Y-13619698D01*
X15763039Y-13619698D02*
X15772563Y-13638746D01*
X15772563Y-13638746D02*
X15772563Y-13695888D01*
X15772563Y-13695888D02*
X15763039Y-13714936D01*
X15763039Y-13714936D02*
X15753515Y-13724460D01*
X15753515Y-13724460D02*
X15734468Y-13733984D01*
X15734468Y-13733984D02*
X15696372Y-13733984D01*
X15696372Y-13733984D02*
X15677325Y-13724460D01*
X15886849Y-13733984D02*
X15867801Y-13724460D01*
X15867801Y-13724460D02*
X15858277Y-13705412D01*
X15858277Y-13705412D02*
X15858277Y-13533984D01*
X16048753Y-13733984D02*
X16048753Y-13629222D01*
X16048753Y-13629222D02*
X16039230Y-13610174D01*
X16039230Y-13610174D02*
X16020182Y-13600650D01*
X16020182Y-13600650D02*
X15982087Y-13600650D01*
X15982087Y-13600650D02*
X15963039Y-13610174D01*
X16048753Y-13724460D02*
X16029706Y-13733984D01*
X16029706Y-13733984D02*
X15982087Y-13733984D01*
X15982087Y-13733984D02*
X15963039Y-13724460D01*
X15963039Y-13724460D02*
X15953515Y-13705412D01*
X15953515Y-13705412D02*
X15953515Y-13686365D01*
X15953515Y-13686365D02*
X15963039Y-13667317D01*
X15963039Y-13667317D02*
X15982087Y-13657793D01*
X15982087Y-13657793D02*
X16029706Y-13657793D01*
X16029706Y-13657793D02*
X16048753Y-13648269D01*
X16115420Y-13600650D02*
X16191611Y-13600650D01*
X16143992Y-13533984D02*
X16143992Y-13705412D01*
X16143992Y-13705412D02*
X16153515Y-13724460D01*
X16153515Y-13724460D02*
X16172563Y-13733984D01*
X16172563Y-13733984D02*
X16191611Y-13733984D01*
X16334468Y-13724460D02*
X16315420Y-13733984D01*
X16315420Y-13733984D02*
X16277325Y-13733984D01*
X16277325Y-13733984D02*
X16258277Y-13724460D01*
X16258277Y-13724460D02*
X16248753Y-13705412D01*
X16248753Y-13705412D02*
X16248753Y-13629222D01*
X16248753Y-13629222D02*
X16258277Y-13610174D01*
X16258277Y-13610174D02*
X16277325Y-13600650D01*
X16277325Y-13600650D02*
X16315420Y-13600650D01*
X16315420Y-13600650D02*
X16334468Y-13610174D01*
X16334468Y-13610174D02*
X16343992Y-13629222D01*
X16343992Y-13629222D02*
X16343992Y-13648269D01*
X16343992Y-13648269D02*
X16248753Y-13667317D01*
X16515420Y-13733984D02*
X16515420Y-13533984D01*
X16515420Y-13724460D02*
X16496373Y-13733984D01*
X16496373Y-13733984D02*
X16458277Y-13733984D01*
X16458277Y-13733984D02*
X16439230Y-13724460D01*
X16439230Y-13724460D02*
X16429706Y-13714936D01*
X16429706Y-13714936D02*
X16420182Y-13695888D01*
X16420182Y-13695888D02*
X16420182Y-13638746D01*
X16420182Y-13638746D02*
X16429706Y-13619698D01*
X16429706Y-13619698D02*
X16439230Y-13610174D01*
X16439230Y-13610174D02*
X16458277Y-13600650D01*
X16458277Y-13600650D02*
X16496373Y-13600650D01*
X16496373Y-13600650D02*
X16515420Y-13610174D01*
X16591611Y-13810174D02*
X16601134Y-13800650D01*
X16601134Y-13800650D02*
X16620182Y-13772079D01*
X16620182Y-13772079D02*
X16629706Y-13753031D01*
X16629706Y-13753031D02*
X16639230Y-13724460D01*
X16639230Y-13724460D02*
X16648753Y-13676841D01*
X16648753Y-13676841D02*
X16648753Y-13638746D01*
X16648753Y-13638746D02*
X16639230Y-13591127D01*
X16639230Y-13591127D02*
X16629706Y-13562555D01*
X16629706Y-13562555D02*
X16620182Y-13543508D01*
X16620182Y-13543508D02*
X16601134Y-13514936D01*
X16601134Y-13514936D02*
X16591611Y-13505412D01*
M02*
