%TF.GenerationSoftware,KiCad,Pcbnew,9.0.4*%
%TF.CreationDate,2025-09-21T01:33:26-04:00*%
%TF.ProjectId,Practice,50726163-7469-4636-952e-6b696361645f,1.0*%
%TF.SameCoordinates,Original*%
%TF.FileFunction,Legend,Bot*%
%TF.FilePolarity,Positive*%
%FSLAX46Y46*%
G04 Gerber Fmt 4.6, Leading zero omitted, Abs format (unit mm)*
G04 Created by KiCad (PCBNEW 9.0.4) date 2025-09-21 01:33:26*
%MOMM*%
%LPD*%
G01*
G04 APERTURE LIST*
%ADD10C,0.100000*%
%ADD11C,0.150000*%
%ADD12C,0.300000*%
%ADD13C,0.400000*%
%ADD14C,0.000000*%
G04 APERTURE END LIST*
D10*
D11*
X177002200Y-166007200D02*
X285002200Y-166007200D01*
X285002200Y-198007200D01*
X177002200Y-198007200D01*
X177002200Y-166007200D01*
D10*
D11*
X10000000Y-10000000D02*
X287002200Y-10000000D01*
X287002200Y-200007200D01*
X10000000Y-200007200D01*
X10000000Y-10000000D01*
D10*
D11*
X12000000Y-12000000D02*
X285002200Y-12000000D01*
X285002200Y-198007200D01*
X12000000Y-198007200D01*
X12000000Y-12000000D01*
D10*
D11*
X60000000Y-12000000D02*
X60000000Y-10000000D01*
D10*
D11*
X110000000Y-12000000D02*
X110000000Y-10000000D01*
D10*
D11*
X160000000Y-12000000D02*
X160000000Y-10000000D01*
D10*
D11*
X210000000Y-12000000D02*
X210000000Y-10000000D01*
D10*
D11*
X260000000Y-12000000D02*
X260000000Y-10000000D01*
D10*
D11*
X36089160Y-11593604D02*
X35346303Y-11593604D01*
X35717731Y-11593604D02*
X35717731Y-10293604D01*
X35717731Y-10293604D02*
X35593922Y-10479319D01*
X35593922Y-10479319D02*
X35470112Y-10603128D01*
X35470112Y-10603128D02*
X35346303Y-10665033D01*
D10*
D11*
X85346303Y-10417414D02*
X85408207Y-10355509D01*
X85408207Y-10355509D02*
X85532017Y-10293604D01*
X85532017Y-10293604D02*
X85841541Y-10293604D01*
X85841541Y-10293604D02*
X85965350Y-10355509D01*
X85965350Y-10355509D02*
X86027255Y-10417414D01*
X86027255Y-10417414D02*
X86089160Y-10541223D01*
X86089160Y-10541223D02*
X86089160Y-10665033D01*
X86089160Y-10665033D02*
X86027255Y-10850747D01*
X86027255Y-10850747D02*
X85284398Y-11593604D01*
X85284398Y-11593604D02*
X86089160Y-11593604D01*
D10*
D11*
X135284398Y-10293604D02*
X136089160Y-10293604D01*
X136089160Y-10293604D02*
X135655826Y-10788842D01*
X135655826Y-10788842D02*
X135841541Y-10788842D01*
X135841541Y-10788842D02*
X135965350Y-10850747D01*
X135965350Y-10850747D02*
X136027255Y-10912652D01*
X136027255Y-10912652D02*
X136089160Y-11036461D01*
X136089160Y-11036461D02*
X136089160Y-11345985D01*
X136089160Y-11345985D02*
X136027255Y-11469795D01*
X136027255Y-11469795D02*
X135965350Y-11531700D01*
X135965350Y-11531700D02*
X135841541Y-11593604D01*
X135841541Y-11593604D02*
X135470112Y-11593604D01*
X135470112Y-11593604D02*
X135346303Y-11531700D01*
X135346303Y-11531700D02*
X135284398Y-11469795D01*
D10*
D11*
X185965350Y-10726938D02*
X185965350Y-11593604D01*
X185655826Y-10231700D02*
X185346303Y-11160271D01*
X185346303Y-11160271D02*
X186151064Y-11160271D01*
D10*
D11*
X236027255Y-10293604D02*
X235408207Y-10293604D01*
X235408207Y-10293604D02*
X235346303Y-10912652D01*
X235346303Y-10912652D02*
X235408207Y-10850747D01*
X235408207Y-10850747D02*
X235532017Y-10788842D01*
X235532017Y-10788842D02*
X235841541Y-10788842D01*
X235841541Y-10788842D02*
X235965350Y-10850747D01*
X235965350Y-10850747D02*
X236027255Y-10912652D01*
X236027255Y-10912652D02*
X236089160Y-11036461D01*
X236089160Y-11036461D02*
X236089160Y-11345985D01*
X236089160Y-11345985D02*
X236027255Y-11469795D01*
X236027255Y-11469795D02*
X235965350Y-11531700D01*
X235965350Y-11531700D02*
X235841541Y-11593604D01*
X235841541Y-11593604D02*
X235532017Y-11593604D01*
X235532017Y-11593604D02*
X235408207Y-11531700D01*
X235408207Y-11531700D02*
X235346303Y-11469795D01*
D10*
D11*
X285965350Y-10293604D02*
X285717731Y-10293604D01*
X285717731Y-10293604D02*
X285593922Y-10355509D01*
X285593922Y-10355509D02*
X285532017Y-10417414D01*
X285532017Y-10417414D02*
X285408207Y-10603128D01*
X285408207Y-10603128D02*
X285346303Y-10850747D01*
X285346303Y-10850747D02*
X285346303Y-11345985D01*
X285346303Y-11345985D02*
X285408207Y-11469795D01*
X285408207Y-11469795D02*
X285470112Y-11531700D01*
X285470112Y-11531700D02*
X285593922Y-11593604D01*
X285593922Y-11593604D02*
X285841541Y-11593604D01*
X285841541Y-11593604D02*
X285965350Y-11531700D01*
X285965350Y-11531700D02*
X286027255Y-11469795D01*
X286027255Y-11469795D02*
X286089160Y-11345985D01*
X286089160Y-11345985D02*
X286089160Y-11036461D01*
X286089160Y-11036461D02*
X286027255Y-10912652D01*
X286027255Y-10912652D02*
X285965350Y-10850747D01*
X285965350Y-10850747D02*
X285841541Y-10788842D01*
X285841541Y-10788842D02*
X285593922Y-10788842D01*
X285593922Y-10788842D02*
X285470112Y-10850747D01*
X285470112Y-10850747D02*
X285408207Y-10912652D01*
X285408207Y-10912652D02*
X285346303Y-11036461D01*
D10*
D11*
X60000000Y-198007200D02*
X60000000Y-200007200D01*
D10*
D11*
X110000000Y-198007200D02*
X110000000Y-200007200D01*
D10*
D11*
X160000000Y-198007200D02*
X160000000Y-200007200D01*
D10*
D11*
X210000000Y-198007200D02*
X210000000Y-200007200D01*
D10*
D11*
X260000000Y-198007200D02*
X260000000Y-200007200D01*
D10*
D11*
X36089160Y-199600804D02*
X35346303Y-199600804D01*
X35717731Y-199600804D02*
X35717731Y-198300804D01*
X35717731Y-198300804D02*
X35593922Y-198486519D01*
X35593922Y-198486519D02*
X35470112Y-198610328D01*
X35470112Y-198610328D02*
X35346303Y-198672233D01*
D10*
D11*
X85346303Y-198424614D02*
X85408207Y-198362709D01*
X85408207Y-198362709D02*
X85532017Y-198300804D01*
X85532017Y-198300804D02*
X85841541Y-198300804D01*
X85841541Y-198300804D02*
X85965350Y-198362709D01*
X85965350Y-198362709D02*
X86027255Y-198424614D01*
X86027255Y-198424614D02*
X86089160Y-198548423D01*
X86089160Y-198548423D02*
X86089160Y-198672233D01*
X86089160Y-198672233D02*
X86027255Y-198857947D01*
X86027255Y-198857947D02*
X85284398Y-199600804D01*
X85284398Y-199600804D02*
X86089160Y-199600804D01*
D10*
D11*
X135284398Y-198300804D02*
X136089160Y-198300804D01*
X136089160Y-198300804D02*
X135655826Y-198796042D01*
X135655826Y-198796042D02*
X135841541Y-198796042D01*
X135841541Y-198796042D02*
X135965350Y-198857947D01*
X135965350Y-198857947D02*
X136027255Y-198919852D01*
X136027255Y-198919852D02*
X136089160Y-199043661D01*
X136089160Y-199043661D02*
X136089160Y-199353185D01*
X136089160Y-199353185D02*
X136027255Y-199476995D01*
X136027255Y-199476995D02*
X135965350Y-199538900D01*
X135965350Y-199538900D02*
X135841541Y-199600804D01*
X135841541Y-199600804D02*
X135470112Y-199600804D01*
X135470112Y-199600804D02*
X135346303Y-199538900D01*
X135346303Y-199538900D02*
X135284398Y-199476995D01*
D10*
D11*
X185965350Y-198734138D02*
X185965350Y-199600804D01*
X185655826Y-198238900D02*
X185346303Y-199167471D01*
X185346303Y-199167471D02*
X186151064Y-199167471D01*
D10*
D11*
X236027255Y-198300804D02*
X235408207Y-198300804D01*
X235408207Y-198300804D02*
X235346303Y-198919852D01*
X235346303Y-198919852D02*
X235408207Y-198857947D01*
X235408207Y-198857947D02*
X235532017Y-198796042D01*
X235532017Y-198796042D02*
X235841541Y-198796042D01*
X235841541Y-198796042D02*
X235965350Y-198857947D01*
X235965350Y-198857947D02*
X236027255Y-198919852D01*
X236027255Y-198919852D02*
X236089160Y-199043661D01*
X236089160Y-199043661D02*
X236089160Y-199353185D01*
X236089160Y-199353185D02*
X236027255Y-199476995D01*
X236027255Y-199476995D02*
X235965350Y-199538900D01*
X235965350Y-199538900D02*
X235841541Y-199600804D01*
X235841541Y-199600804D02*
X235532017Y-199600804D01*
X235532017Y-199600804D02*
X235408207Y-199538900D01*
X235408207Y-199538900D02*
X235346303Y-199476995D01*
D10*
D11*
X285965350Y-198300804D02*
X285717731Y-198300804D01*
X285717731Y-198300804D02*
X285593922Y-198362709D01*
X285593922Y-198362709D02*
X285532017Y-198424614D01*
X285532017Y-198424614D02*
X285408207Y-198610328D01*
X285408207Y-198610328D02*
X285346303Y-198857947D01*
X285346303Y-198857947D02*
X285346303Y-199353185D01*
X285346303Y-199353185D02*
X285408207Y-199476995D01*
X285408207Y-199476995D02*
X285470112Y-199538900D01*
X285470112Y-199538900D02*
X285593922Y-199600804D01*
X285593922Y-199600804D02*
X285841541Y-199600804D01*
X285841541Y-199600804D02*
X285965350Y-199538900D01*
X285965350Y-199538900D02*
X286027255Y-199476995D01*
X286027255Y-199476995D02*
X286089160Y-199353185D01*
X286089160Y-199353185D02*
X286089160Y-199043661D01*
X286089160Y-199043661D02*
X286027255Y-198919852D01*
X286027255Y-198919852D02*
X285965350Y-198857947D01*
X285965350Y-198857947D02*
X285841541Y-198796042D01*
X285841541Y-198796042D02*
X285593922Y-198796042D01*
X285593922Y-198796042D02*
X285470112Y-198857947D01*
X285470112Y-198857947D02*
X285408207Y-198919852D01*
X285408207Y-198919852D02*
X285346303Y-199043661D01*
D10*
D11*
X10000000Y-60000000D02*
X12000000Y-60000000D01*
D10*
D11*
X10000000Y-110000000D02*
X12000000Y-110000000D01*
D10*
D11*
X10000000Y-160000000D02*
X12000000Y-160000000D01*
D10*
D11*
X10690476Y-35222176D02*
X11309523Y-35222176D01*
X10566666Y-35593604D02*
X10999999Y-34293604D01*
X10999999Y-34293604D02*
X11433333Y-35593604D01*
D10*
D11*
X11092857Y-84912652D02*
X11278571Y-84974557D01*
X11278571Y-84974557D02*
X11340476Y-85036461D01*
X11340476Y-85036461D02*
X11402380Y-85160271D01*
X11402380Y-85160271D02*
X11402380Y-85345985D01*
X11402380Y-85345985D02*
X11340476Y-85469795D01*
X11340476Y-85469795D02*
X11278571Y-85531700D01*
X11278571Y-85531700D02*
X11154761Y-85593604D01*
X11154761Y-85593604D02*
X10659523Y-85593604D01*
X10659523Y-85593604D02*
X10659523Y-84293604D01*
X10659523Y-84293604D02*
X11092857Y-84293604D01*
X11092857Y-84293604D02*
X11216666Y-84355509D01*
X11216666Y-84355509D02*
X11278571Y-84417414D01*
X11278571Y-84417414D02*
X11340476Y-84541223D01*
X11340476Y-84541223D02*
X11340476Y-84665033D01*
X11340476Y-84665033D02*
X11278571Y-84788842D01*
X11278571Y-84788842D02*
X11216666Y-84850747D01*
X11216666Y-84850747D02*
X11092857Y-84912652D01*
X11092857Y-84912652D02*
X10659523Y-84912652D01*
D10*
D11*
X11402380Y-135469795D02*
X11340476Y-135531700D01*
X11340476Y-135531700D02*
X11154761Y-135593604D01*
X11154761Y-135593604D02*
X11030952Y-135593604D01*
X11030952Y-135593604D02*
X10845238Y-135531700D01*
X10845238Y-135531700D02*
X10721428Y-135407890D01*
X10721428Y-135407890D02*
X10659523Y-135284080D01*
X10659523Y-135284080D02*
X10597619Y-135036461D01*
X10597619Y-135036461D02*
X10597619Y-134850747D01*
X10597619Y-134850747D02*
X10659523Y-134603128D01*
X10659523Y-134603128D02*
X10721428Y-134479319D01*
X10721428Y-134479319D02*
X10845238Y-134355509D01*
X10845238Y-134355509D02*
X11030952Y-134293604D01*
X11030952Y-134293604D02*
X11154761Y-134293604D01*
X11154761Y-134293604D02*
X11340476Y-134355509D01*
X11340476Y-134355509D02*
X11402380Y-134417414D01*
D10*
D11*
X10659523Y-185593604D02*
X10659523Y-184293604D01*
X10659523Y-184293604D02*
X10969047Y-184293604D01*
X10969047Y-184293604D02*
X11154761Y-184355509D01*
X11154761Y-184355509D02*
X11278571Y-184479319D01*
X11278571Y-184479319D02*
X11340476Y-184603128D01*
X11340476Y-184603128D02*
X11402380Y-184850747D01*
X11402380Y-184850747D02*
X11402380Y-185036461D01*
X11402380Y-185036461D02*
X11340476Y-185284080D01*
X11340476Y-185284080D02*
X11278571Y-185407890D01*
X11278571Y-185407890D02*
X11154761Y-185531700D01*
X11154761Y-185531700D02*
X10969047Y-185593604D01*
X10969047Y-185593604D02*
X10659523Y-185593604D01*
D10*
D11*
X287002200Y-60000000D02*
X285002200Y-60000000D01*
D10*
D11*
X287002200Y-110000000D02*
X285002200Y-110000000D01*
D10*
D11*
X287002200Y-160000000D02*
X285002200Y-160000000D01*
D10*
D11*
X285692676Y-35222176D02*
X286311723Y-35222176D01*
X285568866Y-35593604D02*
X286002199Y-34293604D01*
X286002199Y-34293604D02*
X286435533Y-35593604D01*
D10*
D11*
X286095057Y-84912652D02*
X286280771Y-84974557D01*
X286280771Y-84974557D02*
X286342676Y-85036461D01*
X286342676Y-85036461D02*
X286404580Y-85160271D01*
X286404580Y-85160271D02*
X286404580Y-85345985D01*
X286404580Y-85345985D02*
X286342676Y-85469795D01*
X286342676Y-85469795D02*
X286280771Y-85531700D01*
X286280771Y-85531700D02*
X286156961Y-85593604D01*
X286156961Y-85593604D02*
X285661723Y-85593604D01*
X285661723Y-85593604D02*
X285661723Y-84293604D01*
X285661723Y-84293604D02*
X286095057Y-84293604D01*
X286095057Y-84293604D02*
X286218866Y-84355509D01*
X286218866Y-84355509D02*
X286280771Y-84417414D01*
X286280771Y-84417414D02*
X286342676Y-84541223D01*
X286342676Y-84541223D02*
X286342676Y-84665033D01*
X286342676Y-84665033D02*
X286280771Y-84788842D01*
X286280771Y-84788842D02*
X286218866Y-84850747D01*
X286218866Y-84850747D02*
X286095057Y-84912652D01*
X286095057Y-84912652D02*
X285661723Y-84912652D01*
D10*
D11*
X286404580Y-135469795D02*
X286342676Y-135531700D01*
X286342676Y-135531700D02*
X286156961Y-135593604D01*
X286156961Y-135593604D02*
X286033152Y-135593604D01*
X286033152Y-135593604D02*
X285847438Y-135531700D01*
X285847438Y-135531700D02*
X285723628Y-135407890D01*
X285723628Y-135407890D02*
X285661723Y-135284080D01*
X285661723Y-135284080D02*
X285599819Y-135036461D01*
X285599819Y-135036461D02*
X285599819Y-134850747D01*
X285599819Y-134850747D02*
X285661723Y-134603128D01*
X285661723Y-134603128D02*
X285723628Y-134479319D01*
X285723628Y-134479319D02*
X285847438Y-134355509D01*
X285847438Y-134355509D02*
X286033152Y-134293604D01*
X286033152Y-134293604D02*
X286156961Y-134293604D01*
X286156961Y-134293604D02*
X286342676Y-134355509D01*
X286342676Y-134355509D02*
X286404580Y-134417414D01*
D10*
D11*
X285661723Y-185593604D02*
X285661723Y-184293604D01*
X285661723Y-184293604D02*
X285971247Y-184293604D01*
X285971247Y-184293604D02*
X286156961Y-184355509D01*
X286156961Y-184355509D02*
X286280771Y-184479319D01*
X286280771Y-184479319D02*
X286342676Y-184603128D01*
X286342676Y-184603128D02*
X286404580Y-184850747D01*
X286404580Y-184850747D02*
X286404580Y-185036461D01*
X286404580Y-185036461D02*
X286342676Y-185284080D01*
X286342676Y-185284080D02*
X286280771Y-185407890D01*
X286280771Y-185407890D02*
X286156961Y-185531700D01*
X286156961Y-185531700D02*
X285971247Y-185593604D01*
X285971247Y-185593604D02*
X285661723Y-185593604D01*
D10*
D11*
X200458026Y-193793328D02*
X200458026Y-192293328D01*
X200458026Y-192293328D02*
X200815169Y-192293328D01*
X200815169Y-192293328D02*
X201029455Y-192364757D01*
X201029455Y-192364757D02*
X201172312Y-192507614D01*
X201172312Y-192507614D02*
X201243741Y-192650471D01*
X201243741Y-192650471D02*
X201315169Y-192936185D01*
X201315169Y-192936185D02*
X201315169Y-193150471D01*
X201315169Y-193150471D02*
X201243741Y-193436185D01*
X201243741Y-193436185D02*
X201172312Y-193579042D01*
X201172312Y-193579042D02*
X201029455Y-193721900D01*
X201029455Y-193721900D02*
X200815169Y-193793328D01*
X200815169Y-193793328D02*
X200458026Y-193793328D01*
X202600884Y-193793328D02*
X202600884Y-193007614D01*
X202600884Y-193007614D02*
X202529455Y-192864757D01*
X202529455Y-192864757D02*
X202386598Y-192793328D01*
X202386598Y-192793328D02*
X202100884Y-192793328D01*
X202100884Y-192793328D02*
X201958026Y-192864757D01*
X202600884Y-193721900D02*
X202458026Y-193793328D01*
X202458026Y-193793328D02*
X202100884Y-193793328D01*
X202100884Y-193793328D02*
X201958026Y-193721900D01*
X201958026Y-193721900D02*
X201886598Y-193579042D01*
X201886598Y-193579042D02*
X201886598Y-193436185D01*
X201886598Y-193436185D02*
X201958026Y-193293328D01*
X201958026Y-193293328D02*
X202100884Y-193221900D01*
X202100884Y-193221900D02*
X202458026Y-193221900D01*
X202458026Y-193221900D02*
X202600884Y-193150471D01*
X203100884Y-192793328D02*
X203672312Y-192793328D01*
X203315169Y-192293328D02*
X203315169Y-193579042D01*
X203315169Y-193579042D02*
X203386598Y-193721900D01*
X203386598Y-193721900D02*
X203529455Y-193793328D01*
X203529455Y-193793328D02*
X203672312Y-193793328D01*
X204743741Y-193721900D02*
X204600884Y-193793328D01*
X204600884Y-193793328D02*
X204315170Y-193793328D01*
X204315170Y-193793328D02*
X204172312Y-193721900D01*
X204172312Y-193721900D02*
X204100884Y-193579042D01*
X204100884Y-193579042D02*
X204100884Y-193007614D01*
X204100884Y-193007614D02*
X204172312Y-192864757D01*
X204172312Y-192864757D02*
X204315170Y-192793328D01*
X204315170Y-192793328D02*
X204600884Y-192793328D01*
X204600884Y-192793328D02*
X204743741Y-192864757D01*
X204743741Y-192864757D02*
X204815170Y-193007614D01*
X204815170Y-193007614D02*
X204815170Y-193150471D01*
X204815170Y-193150471D02*
X204100884Y-193293328D01*
X205458026Y-193650471D02*
X205529455Y-193721900D01*
X205529455Y-193721900D02*
X205458026Y-193793328D01*
X205458026Y-193793328D02*
X205386598Y-193721900D01*
X205386598Y-193721900D02*
X205458026Y-193650471D01*
X205458026Y-193650471D02*
X205458026Y-193793328D01*
X205458026Y-192864757D02*
X205529455Y-192936185D01*
X205529455Y-192936185D02*
X205458026Y-193007614D01*
X205458026Y-193007614D02*
X205386598Y-192936185D01*
X205386598Y-192936185D02*
X205458026Y-192864757D01*
X205458026Y-192864757D02*
X205458026Y-193007614D01*
X207243741Y-192436185D02*
X207315169Y-192364757D01*
X207315169Y-192364757D02*
X207458027Y-192293328D01*
X207458027Y-192293328D02*
X207815169Y-192293328D01*
X207815169Y-192293328D02*
X207958027Y-192364757D01*
X207958027Y-192364757D02*
X208029455Y-192436185D01*
X208029455Y-192436185D02*
X208100884Y-192579042D01*
X208100884Y-192579042D02*
X208100884Y-192721900D01*
X208100884Y-192721900D02*
X208029455Y-192936185D01*
X208029455Y-192936185D02*
X207172312Y-193793328D01*
X207172312Y-193793328D02*
X208100884Y-193793328D01*
X209029455Y-192293328D02*
X209172312Y-192293328D01*
X209172312Y-192293328D02*
X209315169Y-192364757D01*
X209315169Y-192364757D02*
X209386598Y-192436185D01*
X209386598Y-192436185D02*
X209458026Y-192579042D01*
X209458026Y-192579042D02*
X209529455Y-192864757D01*
X209529455Y-192864757D02*
X209529455Y-193221900D01*
X209529455Y-193221900D02*
X209458026Y-193507614D01*
X209458026Y-193507614D02*
X209386598Y-193650471D01*
X209386598Y-193650471D02*
X209315169Y-193721900D01*
X209315169Y-193721900D02*
X209172312Y-193793328D01*
X209172312Y-193793328D02*
X209029455Y-193793328D01*
X209029455Y-193793328D02*
X208886598Y-193721900D01*
X208886598Y-193721900D02*
X208815169Y-193650471D01*
X208815169Y-193650471D02*
X208743740Y-193507614D01*
X208743740Y-193507614D02*
X208672312Y-193221900D01*
X208672312Y-193221900D02*
X208672312Y-192864757D01*
X208672312Y-192864757D02*
X208743740Y-192579042D01*
X208743740Y-192579042D02*
X208815169Y-192436185D01*
X208815169Y-192436185D02*
X208886598Y-192364757D01*
X208886598Y-192364757D02*
X209029455Y-192293328D01*
X210100883Y-192436185D02*
X210172311Y-192364757D01*
X210172311Y-192364757D02*
X210315169Y-192293328D01*
X210315169Y-192293328D02*
X210672311Y-192293328D01*
X210672311Y-192293328D02*
X210815169Y-192364757D01*
X210815169Y-192364757D02*
X210886597Y-192436185D01*
X210886597Y-192436185D02*
X210958026Y-192579042D01*
X210958026Y-192579042D02*
X210958026Y-192721900D01*
X210958026Y-192721900D02*
X210886597Y-192936185D01*
X210886597Y-192936185D02*
X210029454Y-193793328D01*
X210029454Y-193793328D02*
X210958026Y-193793328D01*
X212315168Y-192293328D02*
X211600882Y-192293328D01*
X211600882Y-192293328D02*
X211529454Y-193007614D01*
X211529454Y-193007614D02*
X211600882Y-192936185D01*
X211600882Y-192936185D02*
X211743740Y-192864757D01*
X211743740Y-192864757D02*
X212100882Y-192864757D01*
X212100882Y-192864757D02*
X212243740Y-192936185D01*
X212243740Y-192936185D02*
X212315168Y-193007614D01*
X212315168Y-193007614D02*
X212386597Y-193150471D01*
X212386597Y-193150471D02*
X212386597Y-193507614D01*
X212386597Y-193507614D02*
X212315168Y-193650471D01*
X212315168Y-193650471D02*
X212243740Y-193721900D01*
X212243740Y-193721900D02*
X212100882Y-193793328D01*
X212100882Y-193793328D02*
X211743740Y-193793328D01*
X211743740Y-193793328D02*
X211600882Y-193721900D01*
X211600882Y-193721900D02*
X211529454Y-193650471D01*
X213029453Y-193221900D02*
X214172311Y-193221900D01*
X215172311Y-192293328D02*
X215315168Y-192293328D01*
X215315168Y-192293328D02*
X215458025Y-192364757D01*
X215458025Y-192364757D02*
X215529454Y-192436185D01*
X215529454Y-192436185D02*
X215600882Y-192579042D01*
X215600882Y-192579042D02*
X215672311Y-192864757D01*
X215672311Y-192864757D02*
X215672311Y-193221900D01*
X215672311Y-193221900D02*
X215600882Y-193507614D01*
X215600882Y-193507614D02*
X215529454Y-193650471D01*
X215529454Y-193650471D02*
X215458025Y-193721900D01*
X215458025Y-193721900D02*
X215315168Y-193793328D01*
X215315168Y-193793328D02*
X215172311Y-193793328D01*
X215172311Y-193793328D02*
X215029454Y-193721900D01*
X215029454Y-193721900D02*
X214958025Y-193650471D01*
X214958025Y-193650471D02*
X214886596Y-193507614D01*
X214886596Y-193507614D02*
X214815168Y-193221900D01*
X214815168Y-193221900D02*
X214815168Y-192864757D01*
X214815168Y-192864757D02*
X214886596Y-192579042D01*
X214886596Y-192579042D02*
X214958025Y-192436185D01*
X214958025Y-192436185D02*
X215029454Y-192364757D01*
X215029454Y-192364757D02*
X215172311Y-192293328D01*
X216386596Y-193793328D02*
X216672310Y-193793328D01*
X216672310Y-193793328D02*
X216815167Y-193721900D01*
X216815167Y-193721900D02*
X216886596Y-193650471D01*
X216886596Y-193650471D02*
X217029453Y-193436185D01*
X217029453Y-193436185D02*
X217100882Y-193150471D01*
X217100882Y-193150471D02*
X217100882Y-192579042D01*
X217100882Y-192579042D02*
X217029453Y-192436185D01*
X217029453Y-192436185D02*
X216958025Y-192364757D01*
X216958025Y-192364757D02*
X216815167Y-192293328D01*
X216815167Y-192293328D02*
X216529453Y-192293328D01*
X216529453Y-192293328D02*
X216386596Y-192364757D01*
X216386596Y-192364757D02*
X216315167Y-192436185D01*
X216315167Y-192436185D02*
X216243739Y-192579042D01*
X216243739Y-192579042D02*
X216243739Y-192936185D01*
X216243739Y-192936185D02*
X216315167Y-193079042D01*
X216315167Y-193079042D02*
X216386596Y-193150471D01*
X216386596Y-193150471D02*
X216529453Y-193221900D01*
X216529453Y-193221900D02*
X216815167Y-193221900D01*
X216815167Y-193221900D02*
X216958025Y-193150471D01*
X216958025Y-193150471D02*
X217029453Y-193079042D01*
X217029453Y-193079042D02*
X217100882Y-192936185D01*
X217743738Y-193221900D02*
X218886596Y-193221900D01*
X219529453Y-192436185D02*
X219600881Y-192364757D01*
X219600881Y-192364757D02*
X219743739Y-192293328D01*
X219743739Y-192293328D02*
X220100881Y-192293328D01*
X220100881Y-192293328D02*
X220243739Y-192364757D01*
X220243739Y-192364757D02*
X220315167Y-192436185D01*
X220315167Y-192436185D02*
X220386596Y-192579042D01*
X220386596Y-192579042D02*
X220386596Y-192721900D01*
X220386596Y-192721900D02*
X220315167Y-192936185D01*
X220315167Y-192936185D02*
X219458024Y-193793328D01*
X219458024Y-193793328D02*
X220386596Y-193793328D01*
X221815167Y-193793328D02*
X220958024Y-193793328D01*
X221386595Y-193793328D02*
X221386595Y-192293328D01*
X221386595Y-192293328D02*
X221243738Y-192507614D01*
X221243738Y-192507614D02*
X221100881Y-192650471D01*
X221100881Y-192650471D02*
X220958024Y-192721900D01*
D10*
D11*
X177002200Y-194507200D02*
X285002200Y-194507200D01*
D10*
D11*
X178458026Y-196593328D02*
X178458026Y-195093328D01*
X179315169Y-196593328D02*
X178672312Y-195736185D01*
X179315169Y-195093328D02*
X178458026Y-195950471D01*
X179958026Y-196593328D02*
X179958026Y-195593328D01*
X179958026Y-195093328D02*
X179886598Y-195164757D01*
X179886598Y-195164757D02*
X179958026Y-195236185D01*
X179958026Y-195236185D02*
X180029455Y-195164757D01*
X180029455Y-195164757D02*
X179958026Y-195093328D01*
X179958026Y-195093328D02*
X179958026Y-195236185D01*
X181529455Y-196450471D02*
X181458027Y-196521900D01*
X181458027Y-196521900D02*
X181243741Y-196593328D01*
X181243741Y-196593328D02*
X181100884Y-196593328D01*
X181100884Y-196593328D02*
X180886598Y-196521900D01*
X180886598Y-196521900D02*
X180743741Y-196379042D01*
X180743741Y-196379042D02*
X180672312Y-196236185D01*
X180672312Y-196236185D02*
X180600884Y-195950471D01*
X180600884Y-195950471D02*
X180600884Y-195736185D01*
X180600884Y-195736185D02*
X180672312Y-195450471D01*
X180672312Y-195450471D02*
X180743741Y-195307614D01*
X180743741Y-195307614D02*
X180886598Y-195164757D01*
X180886598Y-195164757D02*
X181100884Y-195093328D01*
X181100884Y-195093328D02*
X181243741Y-195093328D01*
X181243741Y-195093328D02*
X181458027Y-195164757D01*
X181458027Y-195164757D02*
X181529455Y-195236185D01*
X182815170Y-196593328D02*
X182815170Y-195807614D01*
X182815170Y-195807614D02*
X182743741Y-195664757D01*
X182743741Y-195664757D02*
X182600884Y-195593328D01*
X182600884Y-195593328D02*
X182315170Y-195593328D01*
X182315170Y-195593328D02*
X182172312Y-195664757D01*
X182815170Y-196521900D02*
X182672312Y-196593328D01*
X182672312Y-196593328D02*
X182315170Y-196593328D01*
X182315170Y-196593328D02*
X182172312Y-196521900D01*
X182172312Y-196521900D02*
X182100884Y-196379042D01*
X182100884Y-196379042D02*
X182100884Y-196236185D01*
X182100884Y-196236185D02*
X182172312Y-196093328D01*
X182172312Y-196093328D02*
X182315170Y-196021900D01*
X182315170Y-196021900D02*
X182672312Y-196021900D01*
X182672312Y-196021900D02*
X182815170Y-195950471D01*
X184172313Y-196593328D02*
X184172313Y-195093328D01*
X184172313Y-196521900D02*
X184029455Y-196593328D01*
X184029455Y-196593328D02*
X183743741Y-196593328D01*
X183743741Y-196593328D02*
X183600884Y-196521900D01*
X183600884Y-196521900D02*
X183529455Y-196450471D01*
X183529455Y-196450471D02*
X183458027Y-196307614D01*
X183458027Y-196307614D02*
X183458027Y-195879042D01*
X183458027Y-195879042D02*
X183529455Y-195736185D01*
X183529455Y-195736185D02*
X183600884Y-195664757D01*
X183600884Y-195664757D02*
X183743741Y-195593328D01*
X183743741Y-195593328D02*
X184029455Y-195593328D01*
X184029455Y-195593328D02*
X184172313Y-195664757D01*
X186029455Y-195807614D02*
X186529455Y-195807614D01*
X186743741Y-196593328D02*
X186029455Y-196593328D01*
X186029455Y-196593328D02*
X186029455Y-195093328D01*
X186029455Y-195093328D02*
X186743741Y-195093328D01*
X187386598Y-196450471D02*
X187458027Y-196521900D01*
X187458027Y-196521900D02*
X187386598Y-196593328D01*
X187386598Y-196593328D02*
X187315170Y-196521900D01*
X187315170Y-196521900D02*
X187386598Y-196450471D01*
X187386598Y-196450471D02*
X187386598Y-196593328D01*
X188100884Y-196593328D02*
X188100884Y-195093328D01*
X188100884Y-195093328D02*
X188458027Y-195093328D01*
X188458027Y-195093328D02*
X188672313Y-195164757D01*
X188672313Y-195164757D02*
X188815170Y-195307614D01*
X188815170Y-195307614D02*
X188886599Y-195450471D01*
X188886599Y-195450471D02*
X188958027Y-195736185D01*
X188958027Y-195736185D02*
X188958027Y-195950471D01*
X188958027Y-195950471D02*
X188886599Y-196236185D01*
X188886599Y-196236185D02*
X188815170Y-196379042D01*
X188815170Y-196379042D02*
X188672313Y-196521900D01*
X188672313Y-196521900D02*
X188458027Y-196593328D01*
X188458027Y-196593328D02*
X188100884Y-196593328D01*
X189600884Y-196450471D02*
X189672313Y-196521900D01*
X189672313Y-196521900D02*
X189600884Y-196593328D01*
X189600884Y-196593328D02*
X189529456Y-196521900D01*
X189529456Y-196521900D02*
X189600884Y-196450471D01*
X189600884Y-196450471D02*
X189600884Y-196593328D01*
X190243742Y-196164757D02*
X190958028Y-196164757D01*
X190100885Y-196593328D02*
X190600885Y-195093328D01*
X190600885Y-195093328D02*
X191100885Y-196593328D01*
X191600884Y-196450471D02*
X191672313Y-196521900D01*
X191672313Y-196521900D02*
X191600884Y-196593328D01*
X191600884Y-196593328D02*
X191529456Y-196521900D01*
X191529456Y-196521900D02*
X191600884Y-196450471D01*
X191600884Y-196450471D02*
X191600884Y-196593328D01*
X193529456Y-196593328D02*
X193815170Y-196593328D01*
X193815170Y-196593328D02*
X193958027Y-196521900D01*
X193958027Y-196521900D02*
X194029456Y-196450471D01*
X194029456Y-196450471D02*
X194172313Y-196236185D01*
X194172313Y-196236185D02*
X194243742Y-195950471D01*
X194243742Y-195950471D02*
X194243742Y-195379042D01*
X194243742Y-195379042D02*
X194172313Y-195236185D01*
X194172313Y-195236185D02*
X194100885Y-195164757D01*
X194100885Y-195164757D02*
X193958027Y-195093328D01*
X193958027Y-195093328D02*
X193672313Y-195093328D01*
X193672313Y-195093328D02*
X193529456Y-195164757D01*
X193529456Y-195164757D02*
X193458027Y-195236185D01*
X193458027Y-195236185D02*
X193386599Y-195379042D01*
X193386599Y-195379042D02*
X193386599Y-195736185D01*
X193386599Y-195736185D02*
X193458027Y-195879042D01*
X193458027Y-195879042D02*
X193529456Y-195950471D01*
X193529456Y-195950471D02*
X193672313Y-196021900D01*
X193672313Y-196021900D02*
X193958027Y-196021900D01*
X193958027Y-196021900D02*
X194100885Y-195950471D01*
X194100885Y-195950471D02*
X194172313Y-195879042D01*
X194172313Y-195879042D02*
X194243742Y-195736185D01*
X194886598Y-196450471D02*
X194958027Y-196521900D01*
X194958027Y-196521900D02*
X194886598Y-196593328D01*
X194886598Y-196593328D02*
X194815170Y-196521900D01*
X194815170Y-196521900D02*
X194886598Y-196450471D01*
X194886598Y-196450471D02*
X194886598Y-196593328D01*
X195886599Y-195093328D02*
X196029456Y-195093328D01*
X196029456Y-195093328D02*
X196172313Y-195164757D01*
X196172313Y-195164757D02*
X196243742Y-195236185D01*
X196243742Y-195236185D02*
X196315170Y-195379042D01*
X196315170Y-195379042D02*
X196386599Y-195664757D01*
X196386599Y-195664757D02*
X196386599Y-196021900D01*
X196386599Y-196021900D02*
X196315170Y-196307614D01*
X196315170Y-196307614D02*
X196243742Y-196450471D01*
X196243742Y-196450471D02*
X196172313Y-196521900D01*
X196172313Y-196521900D02*
X196029456Y-196593328D01*
X196029456Y-196593328D02*
X195886599Y-196593328D01*
X195886599Y-196593328D02*
X195743742Y-196521900D01*
X195743742Y-196521900D02*
X195672313Y-196450471D01*
X195672313Y-196450471D02*
X195600884Y-196307614D01*
X195600884Y-196307614D02*
X195529456Y-196021900D01*
X195529456Y-196021900D02*
X195529456Y-195664757D01*
X195529456Y-195664757D02*
X195600884Y-195379042D01*
X195600884Y-195379042D02*
X195672313Y-195236185D01*
X195672313Y-195236185D02*
X195743742Y-195164757D01*
X195743742Y-195164757D02*
X195886599Y-195093328D01*
X197029455Y-196450471D02*
X197100884Y-196521900D01*
X197100884Y-196521900D02*
X197029455Y-196593328D01*
X197029455Y-196593328D02*
X196958027Y-196521900D01*
X196958027Y-196521900D02*
X197029455Y-196450471D01*
X197029455Y-196450471D02*
X197029455Y-196593328D01*
X198386599Y-195593328D02*
X198386599Y-196593328D01*
X198029456Y-195021900D02*
X197672313Y-196093328D01*
X197672313Y-196093328D02*
X198600884Y-196093328D01*
D10*
D11*
X177002200Y-191507200D02*
X285002200Y-191507200D01*
D10*
D12*
X264413853Y-193785528D02*
X263913853Y-193071242D01*
X263556710Y-193785528D02*
X263556710Y-192285528D01*
X263556710Y-192285528D02*
X264128139Y-192285528D01*
X264128139Y-192285528D02*
X264270996Y-192356957D01*
X264270996Y-192356957D02*
X264342425Y-192428385D01*
X264342425Y-192428385D02*
X264413853Y-192571242D01*
X264413853Y-192571242D02*
X264413853Y-192785528D01*
X264413853Y-192785528D02*
X264342425Y-192928385D01*
X264342425Y-192928385D02*
X264270996Y-192999814D01*
X264270996Y-192999814D02*
X264128139Y-193071242D01*
X264128139Y-193071242D02*
X263556710Y-193071242D01*
X265628139Y-193714100D02*
X265485282Y-193785528D01*
X265485282Y-193785528D02*
X265199568Y-193785528D01*
X265199568Y-193785528D02*
X265056710Y-193714100D01*
X265056710Y-193714100D02*
X264985282Y-193571242D01*
X264985282Y-193571242D02*
X264985282Y-192999814D01*
X264985282Y-192999814D02*
X265056710Y-192856957D01*
X265056710Y-192856957D02*
X265199568Y-192785528D01*
X265199568Y-192785528D02*
X265485282Y-192785528D01*
X265485282Y-192785528D02*
X265628139Y-192856957D01*
X265628139Y-192856957D02*
X265699568Y-192999814D01*
X265699568Y-192999814D02*
X265699568Y-193142671D01*
X265699568Y-193142671D02*
X264985282Y-193285528D01*
X266199567Y-192785528D02*
X266556710Y-193785528D01*
X266556710Y-193785528D02*
X266913853Y-192785528D01*
X267485281Y-193642671D02*
X267556710Y-193714100D01*
X267556710Y-193714100D02*
X267485281Y-193785528D01*
X267485281Y-193785528D02*
X267413853Y-193714100D01*
X267413853Y-193714100D02*
X267485281Y-193642671D01*
X267485281Y-193642671D02*
X267485281Y-193785528D01*
X267485281Y-192856957D02*
X267556710Y-192928385D01*
X267556710Y-192928385D02*
X267485281Y-192999814D01*
X267485281Y-192999814D02*
X267413853Y-192928385D01*
X267413853Y-192928385D02*
X267485281Y-192856957D01*
X267485281Y-192856957D02*
X267485281Y-192999814D01*
X270128139Y-193785528D02*
X269270996Y-193785528D01*
X269699567Y-193785528D02*
X269699567Y-192285528D01*
X269699567Y-192285528D02*
X269556710Y-192499814D01*
X269556710Y-192499814D02*
X269413853Y-192642671D01*
X269413853Y-192642671D02*
X269270996Y-192714100D01*
X270770995Y-193642671D02*
X270842424Y-193714100D01*
X270842424Y-193714100D02*
X270770995Y-193785528D01*
X270770995Y-193785528D02*
X270699567Y-193714100D01*
X270699567Y-193714100D02*
X270770995Y-193642671D01*
X270770995Y-193642671D02*
X270770995Y-193785528D01*
X271770996Y-192285528D02*
X271913853Y-192285528D01*
X271913853Y-192285528D02*
X272056710Y-192356957D01*
X272056710Y-192356957D02*
X272128139Y-192428385D01*
X272128139Y-192428385D02*
X272199567Y-192571242D01*
X272199567Y-192571242D02*
X272270996Y-192856957D01*
X272270996Y-192856957D02*
X272270996Y-193214100D01*
X272270996Y-193214100D02*
X272199567Y-193499814D01*
X272199567Y-193499814D02*
X272128139Y-193642671D01*
X272128139Y-193642671D02*
X272056710Y-193714100D01*
X272056710Y-193714100D02*
X271913853Y-193785528D01*
X271913853Y-193785528D02*
X271770996Y-193785528D01*
X271770996Y-193785528D02*
X271628139Y-193714100D01*
X271628139Y-193714100D02*
X271556710Y-193642671D01*
X271556710Y-193642671D02*
X271485281Y-193499814D01*
X271485281Y-193499814D02*
X271413853Y-193214100D01*
X271413853Y-193214100D02*
X271413853Y-192856957D01*
X271413853Y-192856957D02*
X271485281Y-192571242D01*
X271485281Y-192571242D02*
X271556710Y-192428385D01*
X271556710Y-192428385D02*
X271628139Y-192356957D01*
X271628139Y-192356957D02*
X271770996Y-192285528D01*
D10*
D11*
X178386598Y-193721900D02*
X178600884Y-193793328D01*
X178600884Y-193793328D02*
X178958026Y-193793328D01*
X178958026Y-193793328D02*
X179100884Y-193721900D01*
X179100884Y-193721900D02*
X179172312Y-193650471D01*
X179172312Y-193650471D02*
X179243741Y-193507614D01*
X179243741Y-193507614D02*
X179243741Y-193364757D01*
X179243741Y-193364757D02*
X179172312Y-193221900D01*
X179172312Y-193221900D02*
X179100884Y-193150471D01*
X179100884Y-193150471D02*
X178958026Y-193079042D01*
X178958026Y-193079042D02*
X178672312Y-193007614D01*
X178672312Y-193007614D02*
X178529455Y-192936185D01*
X178529455Y-192936185D02*
X178458026Y-192864757D01*
X178458026Y-192864757D02*
X178386598Y-192721900D01*
X178386598Y-192721900D02*
X178386598Y-192579042D01*
X178386598Y-192579042D02*
X178458026Y-192436185D01*
X178458026Y-192436185D02*
X178529455Y-192364757D01*
X178529455Y-192364757D02*
X178672312Y-192293328D01*
X178672312Y-192293328D02*
X179029455Y-192293328D01*
X179029455Y-192293328D02*
X179243741Y-192364757D01*
X179886597Y-193793328D02*
X179886597Y-192793328D01*
X179886597Y-192293328D02*
X179815169Y-192364757D01*
X179815169Y-192364757D02*
X179886597Y-192436185D01*
X179886597Y-192436185D02*
X179958026Y-192364757D01*
X179958026Y-192364757D02*
X179886597Y-192293328D01*
X179886597Y-192293328D02*
X179886597Y-192436185D01*
X180458026Y-192793328D02*
X181243741Y-192793328D01*
X181243741Y-192793328D02*
X180458026Y-193793328D01*
X180458026Y-193793328D02*
X181243741Y-193793328D01*
X182386598Y-193721900D02*
X182243741Y-193793328D01*
X182243741Y-193793328D02*
X181958027Y-193793328D01*
X181958027Y-193793328D02*
X181815169Y-193721900D01*
X181815169Y-193721900D02*
X181743741Y-193579042D01*
X181743741Y-193579042D02*
X181743741Y-193007614D01*
X181743741Y-193007614D02*
X181815169Y-192864757D01*
X181815169Y-192864757D02*
X181958027Y-192793328D01*
X181958027Y-192793328D02*
X182243741Y-192793328D01*
X182243741Y-192793328D02*
X182386598Y-192864757D01*
X182386598Y-192864757D02*
X182458027Y-193007614D01*
X182458027Y-193007614D02*
X182458027Y-193150471D01*
X182458027Y-193150471D02*
X181743741Y-193293328D01*
X183100883Y-193650471D02*
X183172312Y-193721900D01*
X183172312Y-193721900D02*
X183100883Y-193793328D01*
X183100883Y-193793328D02*
X183029455Y-193721900D01*
X183029455Y-193721900D02*
X183100883Y-193650471D01*
X183100883Y-193650471D02*
X183100883Y-193793328D01*
X183100883Y-192864757D02*
X183172312Y-192936185D01*
X183172312Y-192936185D02*
X183100883Y-193007614D01*
X183100883Y-193007614D02*
X183029455Y-192936185D01*
X183029455Y-192936185D02*
X183100883Y-192864757D01*
X183100883Y-192864757D02*
X183100883Y-193007614D01*
X184886598Y-193364757D02*
X185600884Y-193364757D01*
X184743741Y-193793328D02*
X185243741Y-192293328D01*
X185243741Y-192293328D02*
X185743741Y-193793328D01*
X186886598Y-192793328D02*
X186886598Y-193793328D01*
X186529455Y-192221900D02*
X186172312Y-193293328D01*
X186172312Y-193293328D02*
X187100883Y-193293328D01*
D10*
D11*
X263458026Y-196593328D02*
X263458026Y-195093328D01*
X264815170Y-196593328D02*
X264815170Y-195093328D01*
X264815170Y-196521900D02*
X264672312Y-196593328D01*
X264672312Y-196593328D02*
X264386598Y-196593328D01*
X264386598Y-196593328D02*
X264243741Y-196521900D01*
X264243741Y-196521900D02*
X264172312Y-196450471D01*
X264172312Y-196450471D02*
X264100884Y-196307614D01*
X264100884Y-196307614D02*
X264100884Y-195879042D01*
X264100884Y-195879042D02*
X264172312Y-195736185D01*
X264172312Y-195736185D02*
X264243741Y-195664757D01*
X264243741Y-195664757D02*
X264386598Y-195593328D01*
X264386598Y-195593328D02*
X264672312Y-195593328D01*
X264672312Y-195593328D02*
X264815170Y-195664757D01*
X265529455Y-196450471D02*
X265600884Y-196521900D01*
X265600884Y-196521900D02*
X265529455Y-196593328D01*
X265529455Y-196593328D02*
X265458027Y-196521900D01*
X265458027Y-196521900D02*
X265529455Y-196450471D01*
X265529455Y-196450471D02*
X265529455Y-196593328D01*
X265529455Y-195664757D02*
X265600884Y-195736185D01*
X265600884Y-195736185D02*
X265529455Y-195807614D01*
X265529455Y-195807614D02*
X265458027Y-195736185D01*
X265458027Y-195736185D02*
X265529455Y-195664757D01*
X265529455Y-195664757D02*
X265529455Y-195807614D01*
X268029456Y-195093328D02*
X267743741Y-195093328D01*
X267743741Y-195093328D02*
X267600884Y-195164757D01*
X267600884Y-195164757D02*
X267529456Y-195236185D01*
X267529456Y-195236185D02*
X267386598Y-195450471D01*
X267386598Y-195450471D02*
X267315170Y-195736185D01*
X267315170Y-195736185D02*
X267315170Y-196307614D01*
X267315170Y-196307614D02*
X267386598Y-196450471D01*
X267386598Y-196450471D02*
X267458027Y-196521900D01*
X267458027Y-196521900D02*
X267600884Y-196593328D01*
X267600884Y-196593328D02*
X267886598Y-196593328D01*
X267886598Y-196593328D02*
X268029456Y-196521900D01*
X268029456Y-196521900D02*
X268100884Y-196450471D01*
X268100884Y-196450471D02*
X268172313Y-196307614D01*
X268172313Y-196307614D02*
X268172313Y-195950471D01*
X268172313Y-195950471D02*
X268100884Y-195807614D01*
X268100884Y-195807614D02*
X268029456Y-195736185D01*
X268029456Y-195736185D02*
X267886598Y-195664757D01*
X267886598Y-195664757D02*
X267600884Y-195664757D01*
X267600884Y-195664757D02*
X267458027Y-195736185D01*
X267458027Y-195736185D02*
X267386598Y-195807614D01*
X267386598Y-195807614D02*
X267315170Y-195950471D01*
X269886598Y-195021900D02*
X268600884Y-196950471D01*
X270458027Y-196593328D02*
X270743741Y-196593328D01*
X270743741Y-196593328D02*
X270886598Y-196521900D01*
X270886598Y-196521900D02*
X270958027Y-196450471D01*
X270958027Y-196450471D02*
X271100884Y-196236185D01*
X271100884Y-196236185D02*
X271172313Y-195950471D01*
X271172313Y-195950471D02*
X271172313Y-195379042D01*
X271172313Y-195379042D02*
X271100884Y-195236185D01*
X271100884Y-195236185D02*
X271029456Y-195164757D01*
X271029456Y-195164757D02*
X270886598Y-195093328D01*
X270886598Y-195093328D02*
X270600884Y-195093328D01*
X270600884Y-195093328D02*
X270458027Y-195164757D01*
X270458027Y-195164757D02*
X270386598Y-195236185D01*
X270386598Y-195236185D02*
X270315170Y-195379042D01*
X270315170Y-195379042D02*
X270315170Y-195736185D01*
X270315170Y-195736185D02*
X270386598Y-195879042D01*
X270386598Y-195879042D02*
X270458027Y-195950471D01*
X270458027Y-195950471D02*
X270600884Y-196021900D01*
X270600884Y-196021900D02*
X270886598Y-196021900D01*
X270886598Y-196021900D02*
X271029456Y-195950471D01*
X271029456Y-195950471D02*
X271100884Y-195879042D01*
X271100884Y-195879042D02*
X271172313Y-195736185D01*
D10*
D11*
X177002200Y-187507200D02*
X285002200Y-187507200D01*
D10*
D13*
X178693928Y-188211638D02*
X179836785Y-188211638D01*
X179015357Y-190211638D02*
X179265357Y-188211638D01*
X180253452Y-190211638D02*
X180420119Y-188878304D01*
X180503452Y-188211638D02*
X180396309Y-188306876D01*
X180396309Y-188306876D02*
X180479643Y-188402114D01*
X180479643Y-188402114D02*
X180586786Y-188306876D01*
X180586786Y-188306876D02*
X180503452Y-188211638D01*
X180503452Y-188211638D02*
X180479643Y-188402114D01*
X181086786Y-188878304D02*
X181848690Y-188878304D01*
X181455833Y-188211638D02*
X181241548Y-189925923D01*
X181241548Y-189925923D02*
X181312976Y-190116400D01*
X181312976Y-190116400D02*
X181491548Y-190211638D01*
X181491548Y-190211638D02*
X181682024Y-190211638D01*
X182634405Y-190211638D02*
X182455833Y-190116400D01*
X182455833Y-190116400D02*
X182384405Y-189925923D01*
X182384405Y-189925923D02*
X182598690Y-188211638D01*
X184170119Y-190116400D02*
X183967738Y-190211638D01*
X183967738Y-190211638D02*
X183586785Y-190211638D01*
X183586785Y-190211638D02*
X183408214Y-190116400D01*
X183408214Y-190116400D02*
X183336785Y-189925923D01*
X183336785Y-189925923D02*
X183432024Y-189164019D01*
X183432024Y-189164019D02*
X183551071Y-188973542D01*
X183551071Y-188973542D02*
X183753452Y-188878304D01*
X183753452Y-188878304D02*
X184134404Y-188878304D01*
X184134404Y-188878304D02*
X184312976Y-188973542D01*
X184312976Y-188973542D02*
X184384404Y-189164019D01*
X184384404Y-189164019D02*
X184360595Y-189354495D01*
X184360595Y-189354495D02*
X183384404Y-189544971D01*
X185134405Y-190021161D02*
X185217738Y-190116400D01*
X185217738Y-190116400D02*
X185110595Y-190211638D01*
X185110595Y-190211638D02*
X185027262Y-190116400D01*
X185027262Y-190116400D02*
X185134405Y-190021161D01*
X185134405Y-190021161D02*
X185110595Y-190211638D01*
X185265357Y-188973542D02*
X185348690Y-189068780D01*
X185348690Y-189068780D02*
X185241548Y-189164019D01*
X185241548Y-189164019D02*
X185158214Y-189068780D01*
X185158214Y-189068780D02*
X185265357Y-188973542D01*
X185265357Y-188973542D02*
X185241548Y-189164019D01*
X187586786Y-190211638D02*
X187836786Y-188211638D01*
X187836786Y-188211638D02*
X188598691Y-188211638D01*
X188598691Y-188211638D02*
X188777262Y-188306876D01*
X188777262Y-188306876D02*
X188860596Y-188402114D01*
X188860596Y-188402114D02*
X188932024Y-188592590D01*
X188932024Y-188592590D02*
X188896310Y-188878304D01*
X188896310Y-188878304D02*
X188777262Y-189068780D01*
X188777262Y-189068780D02*
X188670120Y-189164019D01*
X188670120Y-189164019D02*
X188467739Y-189259257D01*
X188467739Y-189259257D02*
X187705834Y-189259257D01*
X190753453Y-190021161D02*
X190646310Y-190116400D01*
X190646310Y-190116400D02*
X190348691Y-190211638D01*
X190348691Y-190211638D02*
X190158215Y-190211638D01*
X190158215Y-190211638D02*
X189884405Y-190116400D01*
X189884405Y-190116400D02*
X189717739Y-189925923D01*
X189717739Y-189925923D02*
X189646310Y-189735447D01*
X189646310Y-189735447D02*
X189598691Y-189354495D01*
X189598691Y-189354495D02*
X189634405Y-189068780D01*
X189634405Y-189068780D02*
X189777262Y-188687828D01*
X189777262Y-188687828D02*
X189896310Y-188497352D01*
X189896310Y-188497352D02*
X190110596Y-188306876D01*
X190110596Y-188306876D02*
X190408215Y-188211638D01*
X190408215Y-188211638D02*
X190598691Y-188211638D01*
X190598691Y-188211638D02*
X190872501Y-188306876D01*
X190872501Y-188306876D02*
X190955834Y-188402114D01*
X192384405Y-189164019D02*
X192658215Y-189259257D01*
X192658215Y-189259257D02*
X192741548Y-189354495D01*
X192741548Y-189354495D02*
X192812977Y-189544971D01*
X192812977Y-189544971D02*
X192777262Y-189830685D01*
X192777262Y-189830685D02*
X192658215Y-190021161D01*
X192658215Y-190021161D02*
X192551072Y-190116400D01*
X192551072Y-190116400D02*
X192348691Y-190211638D01*
X192348691Y-190211638D02*
X191586786Y-190211638D01*
X191586786Y-190211638D02*
X191836786Y-188211638D01*
X191836786Y-188211638D02*
X192503453Y-188211638D01*
X192503453Y-188211638D02*
X192682024Y-188306876D01*
X192682024Y-188306876D02*
X192765358Y-188402114D01*
X192765358Y-188402114D02*
X192836786Y-188592590D01*
X192836786Y-188592590D02*
X192812977Y-188783066D01*
X192812977Y-188783066D02*
X192693929Y-188973542D01*
X192693929Y-188973542D02*
X192586786Y-189068780D01*
X192586786Y-189068780D02*
X192384405Y-189164019D01*
X192384405Y-189164019D02*
X191717739Y-189164019D01*
X196062977Y-190211638D02*
X195110596Y-190211638D01*
X195110596Y-190211638D02*
X195360596Y-188211638D01*
X197586787Y-190211638D02*
X197717739Y-189164019D01*
X197717739Y-189164019D02*
X197646311Y-188973542D01*
X197646311Y-188973542D02*
X197467739Y-188878304D01*
X197467739Y-188878304D02*
X197086787Y-188878304D01*
X197086787Y-188878304D02*
X196884406Y-188973542D01*
X197598692Y-190116400D02*
X197396311Y-190211638D01*
X197396311Y-190211638D02*
X196920120Y-190211638D01*
X196920120Y-190211638D02*
X196741549Y-190116400D01*
X196741549Y-190116400D02*
X196670120Y-189925923D01*
X196670120Y-189925923D02*
X196693930Y-189735447D01*
X196693930Y-189735447D02*
X196812978Y-189544971D01*
X196812978Y-189544971D02*
X197015359Y-189449733D01*
X197015359Y-189449733D02*
X197491549Y-189449733D01*
X197491549Y-189449733D02*
X197693930Y-189354495D01*
X198515359Y-188878304D02*
X198824883Y-190211638D01*
X199467740Y-188878304D02*
X198824883Y-190211638D01*
X198824883Y-190211638D02*
X198574883Y-190687828D01*
X198574883Y-190687828D02*
X198467740Y-190783066D01*
X198467740Y-190783066D02*
X198265359Y-190878304D01*
X200348693Y-190211638D02*
X200170121Y-190116400D01*
X200170121Y-190116400D02*
X200086788Y-190021161D01*
X200086788Y-190021161D02*
X200015359Y-189830685D01*
X200015359Y-189830685D02*
X200086788Y-189259257D01*
X200086788Y-189259257D02*
X200205835Y-189068780D01*
X200205835Y-189068780D02*
X200312978Y-188973542D01*
X200312978Y-188973542D02*
X200515359Y-188878304D01*
X200515359Y-188878304D02*
X200801073Y-188878304D01*
X200801073Y-188878304D02*
X200979645Y-188973542D01*
X200979645Y-188973542D02*
X201062978Y-189068780D01*
X201062978Y-189068780D02*
X201134407Y-189259257D01*
X201134407Y-189259257D02*
X201062978Y-189830685D01*
X201062978Y-189830685D02*
X200943931Y-190021161D01*
X200943931Y-190021161D02*
X200836788Y-190116400D01*
X200836788Y-190116400D02*
X200634407Y-190211638D01*
X200634407Y-190211638D02*
X200348693Y-190211638D01*
X202896312Y-188878304D02*
X202729645Y-190211638D01*
X202039169Y-188878304D02*
X201908217Y-189925923D01*
X201908217Y-189925923D02*
X201979645Y-190116400D01*
X201979645Y-190116400D02*
X202158217Y-190211638D01*
X202158217Y-190211638D02*
X202443931Y-190211638D01*
X202443931Y-190211638D02*
X202646312Y-190116400D01*
X202646312Y-190116400D02*
X202753455Y-190021161D01*
X203562979Y-188878304D02*
X204324883Y-188878304D01*
X203932026Y-188211638D02*
X203717741Y-189925923D01*
X203717741Y-189925923D02*
X203789169Y-190116400D01*
X203789169Y-190116400D02*
X203967741Y-190211638D01*
X203967741Y-190211638D02*
X204158217Y-190211638D01*
X206634408Y-190211638D02*
X206455836Y-190116400D01*
X206455836Y-190116400D02*
X206372503Y-190021161D01*
X206372503Y-190021161D02*
X206301074Y-189830685D01*
X206301074Y-189830685D02*
X206372503Y-189259257D01*
X206372503Y-189259257D02*
X206491550Y-189068780D01*
X206491550Y-189068780D02*
X206598693Y-188973542D01*
X206598693Y-188973542D02*
X206801074Y-188878304D01*
X206801074Y-188878304D02*
X207086788Y-188878304D01*
X207086788Y-188878304D02*
X207265360Y-188973542D01*
X207265360Y-188973542D02*
X207348693Y-189068780D01*
X207348693Y-189068780D02*
X207420122Y-189259257D01*
X207420122Y-189259257D02*
X207348693Y-189830685D01*
X207348693Y-189830685D02*
X207229646Y-190021161D01*
X207229646Y-190021161D02*
X207122503Y-190116400D01*
X207122503Y-190116400D02*
X206920122Y-190211638D01*
X206920122Y-190211638D02*
X206634408Y-190211638D01*
X208039170Y-188878304D02*
X208801074Y-188878304D01*
X208158217Y-190211638D02*
X208372503Y-188497352D01*
X208372503Y-188497352D02*
X208491551Y-188306876D01*
X208491551Y-188306876D02*
X208693932Y-188211638D01*
X208693932Y-188211638D02*
X208884408Y-188211638D01*
X211253456Y-189068780D02*
X211074884Y-188973542D01*
X211074884Y-188973542D02*
X210991551Y-188878304D01*
X210991551Y-188878304D02*
X210920122Y-188687828D01*
X210920122Y-188687828D02*
X210932027Y-188592590D01*
X210932027Y-188592590D02*
X211051075Y-188402114D01*
X211051075Y-188402114D02*
X211158218Y-188306876D01*
X211158218Y-188306876D02*
X211360599Y-188211638D01*
X211360599Y-188211638D02*
X211741551Y-188211638D01*
X211741551Y-188211638D02*
X211920122Y-188306876D01*
X211920122Y-188306876D02*
X212003456Y-188402114D01*
X212003456Y-188402114D02*
X212074884Y-188592590D01*
X212074884Y-188592590D02*
X212062979Y-188687828D01*
X212062979Y-188687828D02*
X211943932Y-188878304D01*
X211943932Y-188878304D02*
X211836789Y-188973542D01*
X211836789Y-188973542D02*
X211634408Y-189068780D01*
X211634408Y-189068780D02*
X211253456Y-189068780D01*
X211253456Y-189068780D02*
X211051075Y-189164019D01*
X211051075Y-189164019D02*
X210943932Y-189259257D01*
X210943932Y-189259257D02*
X210824884Y-189449733D01*
X210824884Y-189449733D02*
X210777265Y-189830685D01*
X210777265Y-189830685D02*
X210848694Y-190021161D01*
X210848694Y-190021161D02*
X210932027Y-190116400D01*
X210932027Y-190116400D02*
X211110599Y-190211638D01*
X211110599Y-190211638D02*
X211491551Y-190211638D01*
X211491551Y-190211638D02*
X211693932Y-190116400D01*
X211693932Y-190116400D02*
X211801075Y-190021161D01*
X211801075Y-190021161D02*
X211920122Y-189830685D01*
X211920122Y-189830685D02*
X211967741Y-189449733D01*
X211967741Y-189449733D02*
X211896313Y-189259257D01*
X211896313Y-189259257D02*
X211812979Y-189164019D01*
X211812979Y-189164019D02*
X211634408Y-189068780D01*
X212824884Y-189449733D02*
X214348694Y-189449733D01*
X216003455Y-189164019D02*
X216277265Y-189259257D01*
X216277265Y-189259257D02*
X216360598Y-189354495D01*
X216360598Y-189354495D02*
X216432027Y-189544971D01*
X216432027Y-189544971D02*
X216396312Y-189830685D01*
X216396312Y-189830685D02*
X216277265Y-190021161D01*
X216277265Y-190021161D02*
X216170122Y-190116400D01*
X216170122Y-190116400D02*
X215967741Y-190211638D01*
X215967741Y-190211638D02*
X215205836Y-190211638D01*
X215205836Y-190211638D02*
X215455836Y-188211638D01*
X215455836Y-188211638D02*
X216122503Y-188211638D01*
X216122503Y-188211638D02*
X216301074Y-188306876D01*
X216301074Y-188306876D02*
X216384408Y-188402114D01*
X216384408Y-188402114D02*
X216455836Y-188592590D01*
X216455836Y-188592590D02*
X216432027Y-188783066D01*
X216432027Y-188783066D02*
X216312979Y-188973542D01*
X216312979Y-188973542D02*
X216205836Y-189068780D01*
X216205836Y-189068780D02*
X216003455Y-189164019D01*
X216003455Y-189164019D02*
X215336789Y-189164019D01*
X217205836Y-190211638D02*
X217372503Y-188878304D01*
X217455836Y-188211638D02*
X217348693Y-188306876D01*
X217348693Y-188306876D02*
X217432027Y-188402114D01*
X217432027Y-188402114D02*
X217539170Y-188306876D01*
X217539170Y-188306876D02*
X217455836Y-188211638D01*
X217455836Y-188211638D02*
X217432027Y-188402114D01*
X218039170Y-188878304D02*
X218801074Y-188878304D01*
X218408217Y-188211638D02*
X218193932Y-189925923D01*
X218193932Y-189925923D02*
X218265360Y-190116400D01*
X218265360Y-190116400D02*
X218443932Y-190211638D01*
X218443932Y-190211638D02*
X218634408Y-190211638D01*
X220824884Y-190211638D02*
X221074884Y-188211638D01*
X221074884Y-188211638D02*
X221551075Y-188211638D01*
X221551075Y-188211638D02*
X221824884Y-188306876D01*
X221824884Y-188306876D02*
X221991551Y-188497352D01*
X221991551Y-188497352D02*
X222062979Y-188687828D01*
X222062979Y-188687828D02*
X222110599Y-189068780D01*
X222110599Y-189068780D02*
X222074884Y-189354495D01*
X222074884Y-189354495D02*
X221932027Y-189735447D01*
X221932027Y-189735447D02*
X221812979Y-189925923D01*
X221812979Y-189925923D02*
X221598694Y-190116400D01*
X221598694Y-190116400D02*
X221301075Y-190211638D01*
X221301075Y-190211638D02*
X220824884Y-190211638D01*
X222920122Y-189449733D02*
X224443932Y-189449733D01*
X225265360Y-188211638D02*
X226408217Y-188211638D01*
X225586789Y-190211638D02*
X225836789Y-188211638D01*
X226801075Y-188878304D02*
X227110599Y-190211638D01*
X227753456Y-188878304D02*
X227110599Y-190211638D01*
X227110599Y-190211638D02*
X226860599Y-190687828D01*
X226860599Y-190687828D02*
X226753456Y-190783066D01*
X226753456Y-190783066D02*
X226551075Y-190878304D01*
X228515361Y-188878304D02*
X228265361Y-190878304D01*
X228503456Y-188973542D02*
X228705837Y-188878304D01*
X228705837Y-188878304D02*
X229086789Y-188878304D01*
X229086789Y-188878304D02*
X229265361Y-188973542D01*
X229265361Y-188973542D02*
X229348694Y-189068780D01*
X229348694Y-189068780D02*
X229420123Y-189259257D01*
X229420123Y-189259257D02*
X229348694Y-189830685D01*
X229348694Y-189830685D02*
X229229647Y-190021161D01*
X229229647Y-190021161D02*
X229122504Y-190116400D01*
X229122504Y-190116400D02*
X228920123Y-190211638D01*
X228920123Y-190211638D02*
X228539170Y-190211638D01*
X228539170Y-190211638D02*
X228360599Y-190116400D01*
X230932028Y-190116400D02*
X230729647Y-190211638D01*
X230729647Y-190211638D02*
X230348694Y-190211638D01*
X230348694Y-190211638D02*
X230170123Y-190116400D01*
X230170123Y-190116400D02*
X230098694Y-189925923D01*
X230098694Y-189925923D02*
X230193933Y-189164019D01*
X230193933Y-189164019D02*
X230312980Y-188973542D01*
X230312980Y-188973542D02*
X230515361Y-188878304D01*
X230515361Y-188878304D02*
X230896313Y-188878304D01*
X230896313Y-188878304D02*
X231074885Y-188973542D01*
X231074885Y-188973542D02*
X231146313Y-189164019D01*
X231146313Y-189164019D02*
X231122504Y-189354495D01*
X231122504Y-189354495D02*
X230146313Y-189544971D01*
X234193933Y-189164019D02*
X233527267Y-189164019D01*
X233396314Y-190211638D02*
X233646314Y-188211638D01*
X233646314Y-188211638D02*
X234598695Y-188211638D01*
X235396315Y-190211638D02*
X235217743Y-190116400D01*
X235217743Y-190116400D02*
X235146315Y-189925923D01*
X235146315Y-189925923D02*
X235360600Y-188211638D01*
X236158219Y-190211638D02*
X236324886Y-188878304D01*
X236408219Y-188211638D02*
X236301076Y-188306876D01*
X236301076Y-188306876D02*
X236384410Y-188402114D01*
X236384410Y-188402114D02*
X236491553Y-188306876D01*
X236491553Y-188306876D02*
X236408219Y-188211638D01*
X236408219Y-188211638D02*
X236384410Y-188402114D01*
X237277267Y-188878304D02*
X237027267Y-190878304D01*
X237265362Y-188973542D02*
X237467743Y-188878304D01*
X237467743Y-188878304D02*
X237848695Y-188878304D01*
X237848695Y-188878304D02*
X238027267Y-188973542D01*
X238027267Y-188973542D02*
X238110600Y-189068780D01*
X238110600Y-189068780D02*
X238182029Y-189259257D01*
X238182029Y-189259257D02*
X238110600Y-189830685D01*
X238110600Y-189830685D02*
X237991553Y-190021161D01*
X237991553Y-190021161D02*
X237884410Y-190116400D01*
X237884410Y-190116400D02*
X237682029Y-190211638D01*
X237682029Y-190211638D02*
X237301076Y-190211638D01*
X237301076Y-190211638D02*
X237122505Y-190116400D01*
X241241553Y-189164019D02*
X240574887Y-189164019D01*
X240443934Y-190211638D02*
X240693934Y-188211638D01*
X240693934Y-188211638D02*
X241646315Y-188211638D01*
X242443935Y-190211638D02*
X242265363Y-190116400D01*
X242265363Y-190116400D02*
X242193935Y-189925923D01*
X242193935Y-189925923D02*
X242408220Y-188211638D01*
X243491554Y-190211638D02*
X243312982Y-190116400D01*
X243312982Y-190116400D02*
X243229649Y-190021161D01*
X243229649Y-190021161D02*
X243158220Y-189830685D01*
X243158220Y-189830685D02*
X243229649Y-189259257D01*
X243229649Y-189259257D02*
X243348696Y-189068780D01*
X243348696Y-189068780D02*
X243455839Y-188973542D01*
X243455839Y-188973542D02*
X243658220Y-188878304D01*
X243658220Y-188878304D02*
X243943934Y-188878304D01*
X243943934Y-188878304D02*
X244122506Y-188973542D01*
X244122506Y-188973542D02*
X244205839Y-189068780D01*
X244205839Y-189068780D02*
X244277268Y-189259257D01*
X244277268Y-189259257D02*
X244205839Y-189830685D01*
X244205839Y-189830685D02*
X244086792Y-190021161D01*
X244086792Y-190021161D02*
X243979649Y-190116400D01*
X243979649Y-190116400D02*
X243777268Y-190211638D01*
X243777268Y-190211638D02*
X243491554Y-190211638D01*
X245182030Y-188878304D02*
X244932030Y-190878304D01*
X245170125Y-188973542D02*
X245372506Y-188878304D01*
X245372506Y-188878304D02*
X245753458Y-188878304D01*
X245753458Y-188878304D02*
X245932030Y-188973542D01*
X245932030Y-188973542D02*
X246015363Y-189068780D01*
X246015363Y-189068780D02*
X246086792Y-189259257D01*
X246086792Y-189259257D02*
X246015363Y-189830685D01*
X246015363Y-189830685D02*
X245896316Y-190021161D01*
X245896316Y-190021161D02*
X245789173Y-190116400D01*
X245789173Y-190116400D02*
X245586792Y-190211638D01*
X245586792Y-190211638D02*
X245205839Y-190211638D01*
X245205839Y-190211638D02*
X245027268Y-190116400D01*
D10*
D11*
X178958026Y-185607614D02*
X178458026Y-185607614D01*
X178458026Y-186393328D02*
X178458026Y-184893328D01*
X178458026Y-184893328D02*
X179172312Y-184893328D01*
X179743740Y-186393328D02*
X179743740Y-185393328D01*
X179743740Y-184893328D02*
X179672312Y-184964757D01*
X179672312Y-184964757D02*
X179743740Y-185036185D01*
X179743740Y-185036185D02*
X179815169Y-184964757D01*
X179815169Y-184964757D02*
X179743740Y-184893328D01*
X179743740Y-184893328D02*
X179743740Y-185036185D01*
X180672312Y-186393328D02*
X180529455Y-186321900D01*
X180529455Y-186321900D02*
X180458026Y-186179042D01*
X180458026Y-186179042D02*
X180458026Y-184893328D01*
X181815169Y-186321900D02*
X181672312Y-186393328D01*
X181672312Y-186393328D02*
X181386598Y-186393328D01*
X181386598Y-186393328D02*
X181243740Y-186321900D01*
X181243740Y-186321900D02*
X181172312Y-186179042D01*
X181172312Y-186179042D02*
X181172312Y-185607614D01*
X181172312Y-185607614D02*
X181243740Y-185464757D01*
X181243740Y-185464757D02*
X181386598Y-185393328D01*
X181386598Y-185393328D02*
X181672312Y-185393328D01*
X181672312Y-185393328D02*
X181815169Y-185464757D01*
X181815169Y-185464757D02*
X181886598Y-185607614D01*
X181886598Y-185607614D02*
X181886598Y-185750471D01*
X181886598Y-185750471D02*
X181172312Y-185893328D01*
X182529454Y-186250471D02*
X182600883Y-186321900D01*
X182600883Y-186321900D02*
X182529454Y-186393328D01*
X182529454Y-186393328D02*
X182458026Y-186321900D01*
X182458026Y-186321900D02*
X182529454Y-186250471D01*
X182529454Y-186250471D02*
X182529454Y-186393328D01*
X182529454Y-185464757D02*
X182600883Y-185536185D01*
X182600883Y-185536185D02*
X182529454Y-185607614D01*
X182529454Y-185607614D02*
X182458026Y-185536185D01*
X182458026Y-185536185D02*
X182529454Y-185464757D01*
X182529454Y-185464757D02*
X182529454Y-185607614D01*
X184386597Y-186393328D02*
X184386597Y-184893328D01*
X184386597Y-184893328D02*
X184958026Y-184893328D01*
X184958026Y-184893328D02*
X185100883Y-184964757D01*
X185100883Y-184964757D02*
X185172312Y-185036185D01*
X185172312Y-185036185D02*
X185243740Y-185179042D01*
X185243740Y-185179042D02*
X185243740Y-185393328D01*
X185243740Y-185393328D02*
X185172312Y-185536185D01*
X185172312Y-185536185D02*
X185100883Y-185607614D01*
X185100883Y-185607614D02*
X184958026Y-185679042D01*
X184958026Y-185679042D02*
X184386597Y-185679042D01*
X185886597Y-186393328D02*
X185886597Y-185393328D01*
X185886597Y-185679042D02*
X185958026Y-185536185D01*
X185958026Y-185536185D02*
X186029455Y-185464757D01*
X186029455Y-185464757D02*
X186172312Y-185393328D01*
X186172312Y-185393328D02*
X186315169Y-185393328D01*
X187458026Y-186393328D02*
X187458026Y-185607614D01*
X187458026Y-185607614D02*
X187386597Y-185464757D01*
X187386597Y-185464757D02*
X187243740Y-185393328D01*
X187243740Y-185393328D02*
X186958026Y-185393328D01*
X186958026Y-185393328D02*
X186815168Y-185464757D01*
X187458026Y-186321900D02*
X187315168Y-186393328D01*
X187315168Y-186393328D02*
X186958026Y-186393328D01*
X186958026Y-186393328D02*
X186815168Y-186321900D01*
X186815168Y-186321900D02*
X186743740Y-186179042D01*
X186743740Y-186179042D02*
X186743740Y-186036185D01*
X186743740Y-186036185D02*
X186815168Y-185893328D01*
X186815168Y-185893328D02*
X186958026Y-185821900D01*
X186958026Y-185821900D02*
X187315168Y-185821900D01*
X187315168Y-185821900D02*
X187458026Y-185750471D01*
X188815169Y-186321900D02*
X188672311Y-186393328D01*
X188672311Y-186393328D02*
X188386597Y-186393328D01*
X188386597Y-186393328D02*
X188243740Y-186321900D01*
X188243740Y-186321900D02*
X188172311Y-186250471D01*
X188172311Y-186250471D02*
X188100883Y-186107614D01*
X188100883Y-186107614D02*
X188100883Y-185679042D01*
X188100883Y-185679042D02*
X188172311Y-185536185D01*
X188172311Y-185536185D02*
X188243740Y-185464757D01*
X188243740Y-185464757D02*
X188386597Y-185393328D01*
X188386597Y-185393328D02*
X188672311Y-185393328D01*
X188672311Y-185393328D02*
X188815169Y-185464757D01*
X189243740Y-185393328D02*
X189815168Y-185393328D01*
X189458025Y-184893328D02*
X189458025Y-186179042D01*
X189458025Y-186179042D02*
X189529454Y-186321900D01*
X189529454Y-186321900D02*
X189672311Y-186393328D01*
X189672311Y-186393328D02*
X189815168Y-186393328D01*
X190315168Y-186393328D02*
X190315168Y-185393328D01*
X190315168Y-184893328D02*
X190243740Y-184964757D01*
X190243740Y-184964757D02*
X190315168Y-185036185D01*
X190315168Y-185036185D02*
X190386597Y-184964757D01*
X190386597Y-184964757D02*
X190315168Y-184893328D01*
X190315168Y-184893328D02*
X190315168Y-185036185D01*
X191672312Y-186321900D02*
X191529454Y-186393328D01*
X191529454Y-186393328D02*
X191243740Y-186393328D01*
X191243740Y-186393328D02*
X191100883Y-186321900D01*
X191100883Y-186321900D02*
X191029454Y-186250471D01*
X191029454Y-186250471D02*
X190958026Y-186107614D01*
X190958026Y-186107614D02*
X190958026Y-185679042D01*
X190958026Y-185679042D02*
X191029454Y-185536185D01*
X191029454Y-185536185D02*
X191100883Y-185464757D01*
X191100883Y-185464757D02*
X191243740Y-185393328D01*
X191243740Y-185393328D02*
X191529454Y-185393328D01*
X191529454Y-185393328D02*
X191672312Y-185464757D01*
X192886597Y-186321900D02*
X192743740Y-186393328D01*
X192743740Y-186393328D02*
X192458026Y-186393328D01*
X192458026Y-186393328D02*
X192315168Y-186321900D01*
X192315168Y-186321900D02*
X192243740Y-186179042D01*
X192243740Y-186179042D02*
X192243740Y-185607614D01*
X192243740Y-185607614D02*
X192315168Y-185464757D01*
X192315168Y-185464757D02*
X192458026Y-185393328D01*
X192458026Y-185393328D02*
X192743740Y-185393328D01*
X192743740Y-185393328D02*
X192886597Y-185464757D01*
X192886597Y-185464757D02*
X192958026Y-185607614D01*
X192958026Y-185607614D02*
X192958026Y-185750471D01*
X192958026Y-185750471D02*
X192243740Y-185893328D01*
X193600882Y-186250471D02*
X193672311Y-186321900D01*
X193672311Y-186321900D02*
X193600882Y-186393328D01*
X193600882Y-186393328D02*
X193529454Y-186321900D01*
X193529454Y-186321900D02*
X193600882Y-186250471D01*
X193600882Y-186250471D02*
X193600882Y-186393328D01*
X194315168Y-186393328D02*
X194315168Y-184893328D01*
X194458026Y-185821900D02*
X194886597Y-186393328D01*
X194886597Y-185393328D02*
X194315168Y-185964757D01*
X195529454Y-186393328D02*
X195529454Y-185393328D01*
X195529454Y-184893328D02*
X195458026Y-184964757D01*
X195458026Y-184964757D02*
X195529454Y-185036185D01*
X195529454Y-185036185D02*
X195600883Y-184964757D01*
X195600883Y-184964757D02*
X195529454Y-184893328D01*
X195529454Y-184893328D02*
X195529454Y-185036185D01*
X196886598Y-186321900D02*
X196743740Y-186393328D01*
X196743740Y-186393328D02*
X196458026Y-186393328D01*
X196458026Y-186393328D02*
X196315169Y-186321900D01*
X196315169Y-186321900D02*
X196243740Y-186250471D01*
X196243740Y-186250471D02*
X196172312Y-186107614D01*
X196172312Y-186107614D02*
X196172312Y-185679042D01*
X196172312Y-185679042D02*
X196243740Y-185536185D01*
X196243740Y-185536185D02*
X196315169Y-185464757D01*
X196315169Y-185464757D02*
X196458026Y-185393328D01*
X196458026Y-185393328D02*
X196743740Y-185393328D01*
X196743740Y-185393328D02*
X196886598Y-185464757D01*
X198172312Y-186393328D02*
X198172312Y-185607614D01*
X198172312Y-185607614D02*
X198100883Y-185464757D01*
X198100883Y-185464757D02*
X197958026Y-185393328D01*
X197958026Y-185393328D02*
X197672312Y-185393328D01*
X197672312Y-185393328D02*
X197529454Y-185464757D01*
X198172312Y-186321900D02*
X198029454Y-186393328D01*
X198029454Y-186393328D02*
X197672312Y-186393328D01*
X197672312Y-186393328D02*
X197529454Y-186321900D01*
X197529454Y-186321900D02*
X197458026Y-186179042D01*
X197458026Y-186179042D02*
X197458026Y-186036185D01*
X197458026Y-186036185D02*
X197529454Y-185893328D01*
X197529454Y-185893328D02*
X197672312Y-185821900D01*
X197672312Y-185821900D02*
X198029454Y-185821900D01*
X198029454Y-185821900D02*
X198172312Y-185750471D01*
X199529455Y-186393328D02*
X199529455Y-184893328D01*
X199529455Y-186321900D02*
X199386597Y-186393328D01*
X199386597Y-186393328D02*
X199100883Y-186393328D01*
X199100883Y-186393328D02*
X198958026Y-186321900D01*
X198958026Y-186321900D02*
X198886597Y-186250471D01*
X198886597Y-186250471D02*
X198815169Y-186107614D01*
X198815169Y-186107614D02*
X198815169Y-185679042D01*
X198815169Y-185679042D02*
X198886597Y-185536185D01*
X198886597Y-185536185D02*
X198958026Y-185464757D01*
X198958026Y-185464757D02*
X199100883Y-185393328D01*
X199100883Y-185393328D02*
X199386597Y-185393328D01*
X199386597Y-185393328D02*
X199529455Y-185464757D01*
X199886598Y-186536185D02*
X201029455Y-186536185D01*
X201386597Y-185393328D02*
X201386597Y-186893328D01*
X201386597Y-185464757D02*
X201529455Y-185393328D01*
X201529455Y-185393328D02*
X201815169Y-185393328D01*
X201815169Y-185393328D02*
X201958026Y-185464757D01*
X201958026Y-185464757D02*
X202029455Y-185536185D01*
X202029455Y-185536185D02*
X202100883Y-185679042D01*
X202100883Y-185679042D02*
X202100883Y-186107614D01*
X202100883Y-186107614D02*
X202029455Y-186250471D01*
X202029455Y-186250471D02*
X201958026Y-186321900D01*
X201958026Y-186321900D02*
X201815169Y-186393328D01*
X201815169Y-186393328D02*
X201529455Y-186393328D01*
X201529455Y-186393328D02*
X201386597Y-186321900D01*
X203386598Y-186321900D02*
X203243740Y-186393328D01*
X203243740Y-186393328D02*
X202958026Y-186393328D01*
X202958026Y-186393328D02*
X202815169Y-186321900D01*
X202815169Y-186321900D02*
X202743740Y-186250471D01*
X202743740Y-186250471D02*
X202672312Y-186107614D01*
X202672312Y-186107614D02*
X202672312Y-185679042D01*
X202672312Y-185679042D02*
X202743740Y-185536185D01*
X202743740Y-185536185D02*
X202815169Y-185464757D01*
X202815169Y-185464757D02*
X202958026Y-185393328D01*
X202958026Y-185393328D02*
X203243740Y-185393328D01*
X203243740Y-185393328D02*
X203386598Y-185464757D01*
X204029454Y-186393328D02*
X204029454Y-184893328D01*
X204029454Y-185464757D02*
X204172312Y-185393328D01*
X204172312Y-185393328D02*
X204458026Y-185393328D01*
X204458026Y-185393328D02*
X204600883Y-185464757D01*
X204600883Y-185464757D02*
X204672312Y-185536185D01*
X204672312Y-185536185D02*
X204743740Y-185679042D01*
X204743740Y-185679042D02*
X204743740Y-186107614D01*
X204743740Y-186107614D02*
X204672312Y-186250471D01*
X204672312Y-186250471D02*
X204600883Y-186321900D01*
X204600883Y-186321900D02*
X204458026Y-186393328D01*
X204458026Y-186393328D02*
X204172312Y-186393328D01*
X204172312Y-186393328D02*
X204029454Y-186321900D01*
D10*
D11*
X177002200Y-181507200D02*
X285002200Y-181507200D01*
D10*
D11*
X178386598Y-183621900D02*
X178600884Y-183693328D01*
X178600884Y-183693328D02*
X178958026Y-183693328D01*
X178958026Y-183693328D02*
X179100884Y-183621900D01*
X179100884Y-183621900D02*
X179172312Y-183550471D01*
X179172312Y-183550471D02*
X179243741Y-183407614D01*
X179243741Y-183407614D02*
X179243741Y-183264757D01*
X179243741Y-183264757D02*
X179172312Y-183121900D01*
X179172312Y-183121900D02*
X179100884Y-183050471D01*
X179100884Y-183050471D02*
X178958026Y-182979042D01*
X178958026Y-182979042D02*
X178672312Y-182907614D01*
X178672312Y-182907614D02*
X178529455Y-182836185D01*
X178529455Y-182836185D02*
X178458026Y-182764757D01*
X178458026Y-182764757D02*
X178386598Y-182621900D01*
X178386598Y-182621900D02*
X178386598Y-182479042D01*
X178386598Y-182479042D02*
X178458026Y-182336185D01*
X178458026Y-182336185D02*
X178529455Y-182264757D01*
X178529455Y-182264757D02*
X178672312Y-182193328D01*
X178672312Y-182193328D02*
X179029455Y-182193328D01*
X179029455Y-182193328D02*
X179243741Y-182264757D01*
X179886597Y-183693328D02*
X179886597Y-182193328D01*
X180529455Y-183693328D02*
X180529455Y-182907614D01*
X180529455Y-182907614D02*
X180458026Y-182764757D01*
X180458026Y-182764757D02*
X180315169Y-182693328D01*
X180315169Y-182693328D02*
X180100883Y-182693328D01*
X180100883Y-182693328D02*
X179958026Y-182764757D01*
X179958026Y-182764757D02*
X179886597Y-182836185D01*
X181815169Y-183621900D02*
X181672312Y-183693328D01*
X181672312Y-183693328D02*
X181386598Y-183693328D01*
X181386598Y-183693328D02*
X181243740Y-183621900D01*
X181243740Y-183621900D02*
X181172312Y-183479042D01*
X181172312Y-183479042D02*
X181172312Y-182907614D01*
X181172312Y-182907614D02*
X181243740Y-182764757D01*
X181243740Y-182764757D02*
X181386598Y-182693328D01*
X181386598Y-182693328D02*
X181672312Y-182693328D01*
X181672312Y-182693328D02*
X181815169Y-182764757D01*
X181815169Y-182764757D02*
X181886598Y-182907614D01*
X181886598Y-182907614D02*
X181886598Y-183050471D01*
X181886598Y-183050471D02*
X181172312Y-183193328D01*
X183100883Y-183621900D02*
X182958026Y-183693328D01*
X182958026Y-183693328D02*
X182672312Y-183693328D01*
X182672312Y-183693328D02*
X182529454Y-183621900D01*
X182529454Y-183621900D02*
X182458026Y-183479042D01*
X182458026Y-183479042D02*
X182458026Y-182907614D01*
X182458026Y-182907614D02*
X182529454Y-182764757D01*
X182529454Y-182764757D02*
X182672312Y-182693328D01*
X182672312Y-182693328D02*
X182958026Y-182693328D01*
X182958026Y-182693328D02*
X183100883Y-182764757D01*
X183100883Y-182764757D02*
X183172312Y-182907614D01*
X183172312Y-182907614D02*
X183172312Y-183050471D01*
X183172312Y-183050471D02*
X182458026Y-183193328D01*
X183600883Y-182693328D02*
X184172311Y-182693328D01*
X183815168Y-182193328D02*
X183815168Y-183479042D01*
X183815168Y-183479042D02*
X183886597Y-183621900D01*
X183886597Y-183621900D02*
X184029454Y-183693328D01*
X184029454Y-183693328D02*
X184172311Y-183693328D01*
X184672311Y-183550471D02*
X184743740Y-183621900D01*
X184743740Y-183621900D02*
X184672311Y-183693328D01*
X184672311Y-183693328D02*
X184600883Y-183621900D01*
X184600883Y-183621900D02*
X184672311Y-183550471D01*
X184672311Y-183550471D02*
X184672311Y-183693328D01*
X184672311Y-182764757D02*
X184743740Y-182836185D01*
X184743740Y-182836185D02*
X184672311Y-182907614D01*
X184672311Y-182907614D02*
X184600883Y-182836185D01*
X184600883Y-182836185D02*
X184672311Y-182764757D01*
X184672311Y-182764757D02*
X184672311Y-182907614D01*
D10*
D12*
X178342425Y-179185528D02*
X179199568Y-179185528D01*
X178770996Y-180685528D02*
X178770996Y-179185528D01*
X179699567Y-180685528D02*
X179699567Y-179185528D01*
X180342425Y-180685528D02*
X180342425Y-179899814D01*
X180342425Y-179899814D02*
X180270996Y-179756957D01*
X180270996Y-179756957D02*
X180128139Y-179685528D01*
X180128139Y-179685528D02*
X179913853Y-179685528D01*
X179913853Y-179685528D02*
X179770996Y-179756957D01*
X179770996Y-179756957D02*
X179699567Y-179828385D01*
X181628139Y-180614100D02*
X181485282Y-180685528D01*
X181485282Y-180685528D02*
X181199568Y-180685528D01*
X181199568Y-180685528D02*
X181056710Y-180614100D01*
X181056710Y-180614100D02*
X180985282Y-180471242D01*
X180985282Y-180471242D02*
X180985282Y-179899814D01*
X180985282Y-179899814D02*
X181056710Y-179756957D01*
X181056710Y-179756957D02*
X181199568Y-179685528D01*
X181199568Y-179685528D02*
X181485282Y-179685528D01*
X181485282Y-179685528D02*
X181628139Y-179756957D01*
X181628139Y-179756957D02*
X181699568Y-179899814D01*
X181699568Y-179899814D02*
X181699568Y-180042671D01*
X181699568Y-180042671D02*
X180985282Y-180185528D01*
X184199567Y-180685528D02*
X183485281Y-180685528D01*
X183485281Y-180685528D02*
X183485281Y-179185528D01*
X184913853Y-180685528D02*
X184770996Y-180614100D01*
X184770996Y-180614100D02*
X184699567Y-180542671D01*
X184699567Y-180542671D02*
X184628139Y-180399814D01*
X184628139Y-180399814D02*
X184628139Y-179971242D01*
X184628139Y-179971242D02*
X184699567Y-179828385D01*
X184699567Y-179828385D02*
X184770996Y-179756957D01*
X184770996Y-179756957D02*
X184913853Y-179685528D01*
X184913853Y-179685528D02*
X185128139Y-179685528D01*
X185128139Y-179685528D02*
X185270996Y-179756957D01*
X185270996Y-179756957D02*
X185342425Y-179828385D01*
X185342425Y-179828385D02*
X185413853Y-179971242D01*
X185413853Y-179971242D02*
X185413853Y-180399814D01*
X185413853Y-180399814D02*
X185342425Y-180542671D01*
X185342425Y-180542671D02*
X185270996Y-180614100D01*
X185270996Y-180614100D02*
X185128139Y-180685528D01*
X185128139Y-180685528D02*
X184913853Y-180685528D01*
X186056710Y-180685528D02*
X186056710Y-179685528D01*
X186056710Y-179828385D02*
X186128139Y-179756957D01*
X186128139Y-179756957D02*
X186270996Y-179685528D01*
X186270996Y-179685528D02*
X186485282Y-179685528D01*
X186485282Y-179685528D02*
X186628139Y-179756957D01*
X186628139Y-179756957D02*
X186699568Y-179899814D01*
X186699568Y-179899814D02*
X186699568Y-180685528D01*
X186699568Y-179899814D02*
X186770996Y-179756957D01*
X186770996Y-179756957D02*
X186913853Y-179685528D01*
X186913853Y-179685528D02*
X187128139Y-179685528D01*
X187128139Y-179685528D02*
X187270996Y-179756957D01*
X187270996Y-179756957D02*
X187342425Y-179899814D01*
X187342425Y-179899814D02*
X187342425Y-180685528D01*
X188056710Y-180685528D02*
X188056710Y-179685528D01*
X188056710Y-179185528D02*
X187985282Y-179256957D01*
X187985282Y-179256957D02*
X188056710Y-179328385D01*
X188056710Y-179328385D02*
X188128139Y-179256957D01*
X188128139Y-179256957D02*
X188056710Y-179185528D01*
X188056710Y-179185528D02*
X188056710Y-179328385D01*
X188699568Y-180614100D02*
X188842425Y-180685528D01*
X188842425Y-180685528D02*
X189128139Y-180685528D01*
X189128139Y-180685528D02*
X189270996Y-180614100D01*
X189270996Y-180614100D02*
X189342425Y-180471242D01*
X189342425Y-180471242D02*
X189342425Y-180399814D01*
X189342425Y-180399814D02*
X189270996Y-180256957D01*
X189270996Y-180256957D02*
X189128139Y-180185528D01*
X189128139Y-180185528D02*
X188913854Y-180185528D01*
X188913854Y-180185528D02*
X188770996Y-180114100D01*
X188770996Y-180114100D02*
X188699568Y-179971242D01*
X188699568Y-179971242D02*
X188699568Y-179899814D01*
X188699568Y-179899814D02*
X188770996Y-179756957D01*
X188770996Y-179756957D02*
X188913854Y-179685528D01*
X188913854Y-179685528D02*
X189128139Y-179685528D01*
X189128139Y-179685528D02*
X189270996Y-179756957D01*
X191985282Y-180542671D02*
X191913854Y-180614100D01*
X191913854Y-180614100D02*
X191699568Y-180685528D01*
X191699568Y-180685528D02*
X191556711Y-180685528D01*
X191556711Y-180685528D02*
X191342425Y-180614100D01*
X191342425Y-180614100D02*
X191199568Y-180471242D01*
X191199568Y-180471242D02*
X191128139Y-180328385D01*
X191128139Y-180328385D02*
X191056711Y-180042671D01*
X191056711Y-180042671D02*
X191056711Y-179828385D01*
X191056711Y-179828385D02*
X191128139Y-179542671D01*
X191128139Y-179542671D02*
X191199568Y-179399814D01*
X191199568Y-179399814D02*
X191342425Y-179256957D01*
X191342425Y-179256957D02*
X191556711Y-179185528D01*
X191556711Y-179185528D02*
X191699568Y-179185528D01*
X191699568Y-179185528D02*
X191913854Y-179256957D01*
X191913854Y-179256957D02*
X191985282Y-179328385D01*
X192842425Y-180685528D02*
X192699568Y-180614100D01*
X192699568Y-180614100D02*
X192628139Y-180542671D01*
X192628139Y-180542671D02*
X192556711Y-180399814D01*
X192556711Y-180399814D02*
X192556711Y-179971242D01*
X192556711Y-179971242D02*
X192628139Y-179828385D01*
X192628139Y-179828385D02*
X192699568Y-179756957D01*
X192699568Y-179756957D02*
X192842425Y-179685528D01*
X192842425Y-179685528D02*
X193056711Y-179685528D01*
X193056711Y-179685528D02*
X193199568Y-179756957D01*
X193199568Y-179756957D02*
X193270997Y-179828385D01*
X193270997Y-179828385D02*
X193342425Y-179971242D01*
X193342425Y-179971242D02*
X193342425Y-180399814D01*
X193342425Y-180399814D02*
X193270997Y-180542671D01*
X193270997Y-180542671D02*
X193199568Y-180614100D01*
X193199568Y-180614100D02*
X193056711Y-180685528D01*
X193056711Y-180685528D02*
X192842425Y-180685528D01*
X193985282Y-180685528D02*
X193985282Y-179685528D01*
X193985282Y-179828385D02*
X194056711Y-179756957D01*
X194056711Y-179756957D02*
X194199568Y-179685528D01*
X194199568Y-179685528D02*
X194413854Y-179685528D01*
X194413854Y-179685528D02*
X194556711Y-179756957D01*
X194556711Y-179756957D02*
X194628140Y-179899814D01*
X194628140Y-179899814D02*
X194628140Y-180685528D01*
X194628140Y-179899814D02*
X194699568Y-179756957D01*
X194699568Y-179756957D02*
X194842425Y-179685528D01*
X194842425Y-179685528D02*
X195056711Y-179685528D01*
X195056711Y-179685528D02*
X195199568Y-179756957D01*
X195199568Y-179756957D02*
X195270997Y-179899814D01*
X195270997Y-179899814D02*
X195270997Y-180685528D01*
X195985282Y-179685528D02*
X195985282Y-181185528D01*
X195985282Y-179756957D02*
X196128140Y-179685528D01*
X196128140Y-179685528D02*
X196413854Y-179685528D01*
X196413854Y-179685528D02*
X196556711Y-179756957D01*
X196556711Y-179756957D02*
X196628140Y-179828385D01*
X196628140Y-179828385D02*
X196699568Y-179971242D01*
X196699568Y-179971242D02*
X196699568Y-180399814D01*
X196699568Y-180399814D02*
X196628140Y-180542671D01*
X196628140Y-180542671D02*
X196556711Y-180614100D01*
X196556711Y-180614100D02*
X196413854Y-180685528D01*
X196413854Y-180685528D02*
X196128140Y-180685528D01*
X196128140Y-180685528D02*
X195985282Y-180614100D01*
X197985283Y-180685528D02*
X197985283Y-179899814D01*
X197985283Y-179899814D02*
X197913854Y-179756957D01*
X197913854Y-179756957D02*
X197770997Y-179685528D01*
X197770997Y-179685528D02*
X197485283Y-179685528D01*
X197485283Y-179685528D02*
X197342425Y-179756957D01*
X197985283Y-180614100D02*
X197842425Y-180685528D01*
X197842425Y-180685528D02*
X197485283Y-180685528D01*
X197485283Y-180685528D02*
X197342425Y-180614100D01*
X197342425Y-180614100D02*
X197270997Y-180471242D01*
X197270997Y-180471242D02*
X197270997Y-180328385D01*
X197270997Y-180328385D02*
X197342425Y-180185528D01*
X197342425Y-180185528D02*
X197485283Y-180114100D01*
X197485283Y-180114100D02*
X197842425Y-180114100D01*
X197842425Y-180114100D02*
X197985283Y-180042671D01*
X198699568Y-179685528D02*
X198699568Y-180685528D01*
X198699568Y-179828385D02*
X198770997Y-179756957D01*
X198770997Y-179756957D02*
X198913854Y-179685528D01*
X198913854Y-179685528D02*
X199128140Y-179685528D01*
X199128140Y-179685528D02*
X199270997Y-179756957D01*
X199270997Y-179756957D02*
X199342426Y-179899814D01*
X199342426Y-179899814D02*
X199342426Y-180685528D01*
X199913854Y-179685528D02*
X200270997Y-180685528D01*
X200628140Y-179685528D02*
X200270997Y-180685528D01*
X200270997Y-180685528D02*
X200128140Y-181042671D01*
X200128140Y-181042671D02*
X200056711Y-181114100D01*
X200056711Y-181114100D02*
X199913854Y-181185528D01*
X202556711Y-180685528D02*
X202413854Y-180614100D01*
X202413854Y-180614100D02*
X202342425Y-180542671D01*
X202342425Y-180542671D02*
X202270997Y-180399814D01*
X202270997Y-180399814D02*
X202270997Y-179971242D01*
X202270997Y-179971242D02*
X202342425Y-179828385D01*
X202342425Y-179828385D02*
X202413854Y-179756957D01*
X202413854Y-179756957D02*
X202556711Y-179685528D01*
X202556711Y-179685528D02*
X202770997Y-179685528D01*
X202770997Y-179685528D02*
X202913854Y-179756957D01*
X202913854Y-179756957D02*
X202985283Y-179828385D01*
X202985283Y-179828385D02*
X203056711Y-179971242D01*
X203056711Y-179971242D02*
X203056711Y-180399814D01*
X203056711Y-180399814D02*
X202985283Y-180542671D01*
X202985283Y-180542671D02*
X202913854Y-180614100D01*
X202913854Y-180614100D02*
X202770997Y-180685528D01*
X202770997Y-180685528D02*
X202556711Y-180685528D01*
X203485283Y-179685528D02*
X204056711Y-179685528D01*
X203699568Y-180685528D02*
X203699568Y-179399814D01*
X203699568Y-179399814D02*
X203770997Y-179256957D01*
X203770997Y-179256957D02*
X203913854Y-179185528D01*
X203913854Y-179185528D02*
X204056711Y-179185528D01*
X205485283Y-179185528D02*
X205985283Y-180685528D01*
X205985283Y-180685528D02*
X206485283Y-179185528D01*
X206985282Y-180685528D02*
X206985282Y-179685528D01*
X206985282Y-179185528D02*
X206913854Y-179256957D01*
X206913854Y-179256957D02*
X206985282Y-179328385D01*
X206985282Y-179328385D02*
X207056711Y-179256957D01*
X207056711Y-179256957D02*
X206985282Y-179185528D01*
X206985282Y-179185528D02*
X206985282Y-179328385D01*
X207699568Y-180685528D02*
X207699568Y-179685528D01*
X207699568Y-179971242D02*
X207770997Y-179828385D01*
X207770997Y-179828385D02*
X207842426Y-179756957D01*
X207842426Y-179756957D02*
X207985283Y-179685528D01*
X207985283Y-179685528D02*
X208128140Y-179685528D01*
X209270997Y-179685528D02*
X209270997Y-180899814D01*
X209270997Y-180899814D02*
X209199568Y-181042671D01*
X209199568Y-181042671D02*
X209128139Y-181114100D01*
X209128139Y-181114100D02*
X208985282Y-181185528D01*
X208985282Y-181185528D02*
X208770997Y-181185528D01*
X208770997Y-181185528D02*
X208628139Y-181114100D01*
X209270997Y-180614100D02*
X209128139Y-180685528D01*
X209128139Y-180685528D02*
X208842425Y-180685528D01*
X208842425Y-180685528D02*
X208699568Y-180614100D01*
X208699568Y-180614100D02*
X208628139Y-180542671D01*
X208628139Y-180542671D02*
X208556711Y-180399814D01*
X208556711Y-180399814D02*
X208556711Y-179971242D01*
X208556711Y-179971242D02*
X208628139Y-179828385D01*
X208628139Y-179828385D02*
X208699568Y-179756957D01*
X208699568Y-179756957D02*
X208842425Y-179685528D01*
X208842425Y-179685528D02*
X209128139Y-179685528D01*
X209128139Y-179685528D02*
X209270997Y-179756957D01*
X209985282Y-180685528D02*
X209985282Y-179685528D01*
X209985282Y-179185528D02*
X209913854Y-179256957D01*
X209913854Y-179256957D02*
X209985282Y-179328385D01*
X209985282Y-179328385D02*
X210056711Y-179256957D01*
X210056711Y-179256957D02*
X209985282Y-179185528D01*
X209985282Y-179185528D02*
X209985282Y-179328385D01*
X210699568Y-179685528D02*
X210699568Y-180685528D01*
X210699568Y-179828385D02*
X210770997Y-179756957D01*
X210770997Y-179756957D02*
X210913854Y-179685528D01*
X210913854Y-179685528D02*
X211128140Y-179685528D01*
X211128140Y-179685528D02*
X211270997Y-179756957D01*
X211270997Y-179756957D02*
X211342426Y-179899814D01*
X211342426Y-179899814D02*
X211342426Y-180685528D01*
X212056711Y-180685528D02*
X212056711Y-179685528D01*
X212056711Y-179185528D02*
X211985283Y-179256957D01*
X211985283Y-179256957D02*
X212056711Y-179328385D01*
X212056711Y-179328385D02*
X212128140Y-179256957D01*
X212128140Y-179256957D02*
X212056711Y-179185528D01*
X212056711Y-179185528D02*
X212056711Y-179328385D01*
X213413855Y-180685528D02*
X213413855Y-179899814D01*
X213413855Y-179899814D02*
X213342426Y-179756957D01*
X213342426Y-179756957D02*
X213199569Y-179685528D01*
X213199569Y-179685528D02*
X212913855Y-179685528D01*
X212913855Y-179685528D02*
X212770997Y-179756957D01*
X213413855Y-180614100D02*
X213270997Y-180685528D01*
X213270997Y-180685528D02*
X212913855Y-180685528D01*
X212913855Y-180685528D02*
X212770997Y-180614100D01*
X212770997Y-180614100D02*
X212699569Y-180471242D01*
X212699569Y-180471242D02*
X212699569Y-180328385D01*
X212699569Y-180328385D02*
X212770997Y-180185528D01*
X212770997Y-180185528D02*
X212913855Y-180114100D01*
X212913855Y-180114100D02*
X213270997Y-180114100D01*
X213270997Y-180114100D02*
X213413855Y-180042671D01*
D10*
D11*
X197002200Y-191507200D02*
X197002200Y-194507200D01*
D10*
D11*
X261002200Y-191507200D02*
X261002200Y-198007200D01*
D14*
%TO.C,G\u002A\u002A\u002A*%
G36*
X201474990Y-94356655D02*
G01*
X201522081Y-94403746D01*
X201522081Y-94992136D01*
X201522081Y-95580526D01*
X201469869Y-95632738D01*
X201417656Y-95684951D01*
X200121275Y-95684951D01*
X198824894Y-95684951D01*
X198824894Y-94997257D01*
X198824894Y-94309564D01*
X200126396Y-94309564D01*
X201427899Y-94309564D01*
X201474990Y-94356655D01*
G37*
G36*
X200176505Y-85700022D02*
G01*
X200454161Y-85700452D01*
X200696681Y-85701432D01*
X200903983Y-85702959D01*
X201075981Y-85705034D01*
X201212594Y-85707655D01*
X201313737Y-85710820D01*
X201379327Y-85714528D01*
X201409280Y-85718779D01*
X201449873Y-85740784D01*
X201490425Y-85776831D01*
X201497602Y-85787828D01*
X201504702Y-85806086D01*
X201510251Y-85833365D01*
X201514440Y-85873479D01*
X201517461Y-85930243D01*
X201519504Y-86007472D01*
X201520762Y-86108980D01*
X201521424Y-86238582D01*
X201521684Y-86400094D01*
X201522081Y-86984084D01*
X201478977Y-87034201D01*
X201435874Y-87084318D01*
X200130384Y-87089124D01*
X198824894Y-87093931D01*
X198824894Y-86396965D01*
X198824894Y-85700000D01*
X200091945Y-85700000D01*
X200176505Y-85700022D01*
G37*
G36*
X197592405Y-97087131D02*
G01*
X197592405Y-97810548D01*
X196322817Y-97810548D01*
X195053229Y-97810548D01*
X195001016Y-97758336D01*
X194948804Y-97706123D01*
X194948804Y-97096261D01*
X194948805Y-97089556D01*
X194949395Y-96911816D01*
X194951049Y-96760081D01*
X194953711Y-96636293D01*
X194957327Y-96542395D01*
X194961840Y-96480328D01*
X194967196Y-96452034D01*
X194968079Y-96450381D01*
X194977133Y-96434010D01*
X194987239Y-96419842D01*
X195000873Y-96407718D01*
X195020511Y-96397479D01*
X195048631Y-96388965D01*
X195087709Y-96382018D01*
X195140222Y-96376478D01*
X195208646Y-96372186D01*
X195295458Y-96368983D01*
X195403134Y-96366709D01*
X195534151Y-96365206D01*
X195690987Y-96364314D01*
X195876117Y-96363874D01*
X196092017Y-96363727D01*
X196341166Y-96363713D01*
X197592405Y-96363713D01*
X197592405Y-97087131D01*
G37*
G36*
X200400572Y-96363741D02*
G01*
X200612484Y-96363928D01*
X200794078Y-96364423D01*
X200947810Y-96365374D01*
X201076137Y-96366931D01*
X201181517Y-96369241D01*
X201266407Y-96372455D01*
X201333265Y-96376722D01*
X201384548Y-96382189D01*
X201422714Y-96389006D01*
X201450219Y-96397323D01*
X201469522Y-96407287D01*
X201483080Y-96419049D01*
X201493349Y-96432756D01*
X201502788Y-96448558D01*
X201503340Y-96449688D01*
X201508501Y-96480227D01*
X201512894Y-96544131D01*
X201516457Y-96639260D01*
X201519127Y-96763475D01*
X201520841Y-96914634D01*
X201521538Y-97090600D01*
X201522081Y-97701383D01*
X201478977Y-97751500D01*
X201435874Y-97801617D01*
X200130384Y-97806424D01*
X198824894Y-97811230D01*
X198824894Y-97087472D01*
X198824894Y-96363713D01*
X200102926Y-96363713D01*
X200155882Y-96363713D01*
X200400572Y-96363741D01*
G37*
G36*
X196322425Y-73410830D02*
G01*
X197592405Y-73410830D01*
X197592405Y-74313325D01*
X197592405Y-75215820D01*
X196309996Y-75210899D01*
X196168379Y-75210342D01*
X195941337Y-75209357D01*
X195746104Y-75208329D01*
X195580168Y-75207188D01*
X195441017Y-75205867D01*
X195326139Y-75204295D01*
X195233023Y-75202404D01*
X195159155Y-75200126D01*
X195102025Y-75197392D01*
X195059120Y-75194133D01*
X195027928Y-75190280D01*
X195005938Y-75185764D01*
X194990637Y-75180517D01*
X194979513Y-75174470D01*
X194958564Y-75160732D01*
X194935651Y-75144061D01*
X194916990Y-75125461D01*
X194902145Y-75101553D01*
X194890680Y-75068958D01*
X194882158Y-75024296D01*
X194876145Y-74964186D01*
X194872202Y-74885251D01*
X194869895Y-74784110D01*
X194868787Y-74657383D01*
X194868442Y-74501691D01*
X194868424Y-74313655D01*
X194868505Y-74158449D01*
X194868889Y-74002387D01*
X194869712Y-73875752D01*
X194871107Y-73775110D01*
X194873205Y-73697029D01*
X194876140Y-73638075D01*
X194880043Y-73594816D01*
X194885049Y-73563819D01*
X194891289Y-73541650D01*
X194898896Y-73524877D01*
X194906085Y-73511541D01*
X194917069Y-73492116D01*
X194929302Y-73475361D01*
X194945246Y-73461080D01*
X194967364Y-73449076D01*
X194998119Y-73439150D01*
X195039973Y-73431106D01*
X195095388Y-73424746D01*
X195166827Y-73419873D01*
X195256752Y-73416290D01*
X195367627Y-73413800D01*
X195501913Y-73412204D01*
X195662074Y-73411307D01*
X195850571Y-73410910D01*
X196069867Y-73410817D01*
X196322425Y-73410830D01*
G37*
G36*
X197592405Y-86395438D02*
G01*
X197592405Y-87093249D01*
X196979732Y-87093249D01*
X196810508Y-87093571D01*
X196663907Y-87094668D01*
X196548235Y-87096622D01*
X196461033Y-87099518D01*
X196399838Y-87103438D01*
X196362189Y-87108465D01*
X196345625Y-87114683D01*
X196336170Y-87131124D01*
X196326651Y-87178104D01*
X196325244Y-87236436D01*
X196331887Y-87291395D01*
X196346518Y-87328261D01*
X196347054Y-87328835D01*
X196370477Y-87343279D01*
X196422511Y-87370250D01*
X196499407Y-87407961D01*
X196597415Y-87454625D01*
X196712787Y-87508455D01*
X196841773Y-87567666D01*
X196980625Y-87630469D01*
X197592405Y-87905183D01*
X197592405Y-88659814D01*
X197592405Y-89414446D01*
X197552215Y-89398965D01*
X197550225Y-89398169D01*
X197521142Y-89385892D01*
X197462756Y-89360882D01*
X197377971Y-89324393D01*
X197269692Y-89277682D01*
X197140826Y-89222003D01*
X196994278Y-89158612D01*
X196832952Y-89088763D01*
X196659755Y-89013711D01*
X196477592Y-88934713D01*
X196282193Y-88849796D01*
X196071105Y-88757506D01*
X195888555Y-88676775D01*
X195732141Y-88606315D01*
X195599458Y-88544835D01*
X195488102Y-88491045D01*
X195395671Y-88443654D01*
X195319759Y-88401373D01*
X195257964Y-88362911D01*
X195207882Y-88326979D01*
X195167109Y-88292285D01*
X195133240Y-88257539D01*
X195103874Y-88221453D01*
X195076605Y-88182734D01*
X195057714Y-88153855D01*
X195032047Y-88110825D01*
X195010752Y-88067294D01*
X194993423Y-88019742D01*
X194979656Y-87964646D01*
X194969047Y-87898484D01*
X194961193Y-87817732D01*
X194955687Y-87718869D01*
X194952126Y-87598373D01*
X194950105Y-87452721D01*
X194949221Y-87278391D01*
X194949068Y-87071861D01*
X194949213Y-86941094D01*
X194949975Y-86757584D01*
X194951627Y-86604125D01*
X194954439Y-86477221D01*
X194958685Y-86373376D01*
X194964638Y-86289093D01*
X194972568Y-86220876D01*
X194982749Y-86165228D01*
X194995452Y-86118653D01*
X195010951Y-86077655D01*
X195029517Y-86038736D01*
X195085786Y-85952676D01*
X195179369Y-85864105D01*
X195301178Y-85794148D01*
X195453068Y-85741506D01*
X195480407Y-85735210D01*
X195514516Y-85729605D01*
X195557495Y-85724828D01*
X195612330Y-85720782D01*
X195682002Y-85717369D01*
X195769496Y-85714491D01*
X195877796Y-85712051D01*
X196009885Y-85709952D01*
X196168748Y-85708095D01*
X196357367Y-85706385D01*
X196578727Y-85704722D01*
X197592405Y-85697626D01*
X197592405Y-86395438D01*
G37*
G36*
X197584982Y-92026822D02*
G01*
X197586583Y-92059035D01*
X197587834Y-92121552D01*
X197588715Y-92210647D01*
X197589206Y-92322590D01*
X197589287Y-92453655D01*
X197588937Y-92600114D01*
X197588137Y-92758239D01*
X197583473Y-93493270D01*
X196978603Y-93766942D01*
X196971999Y-93769931D01*
X196834348Y-93832477D01*
X196706614Y-93890987D01*
X196592577Y-93943694D01*
X196496014Y-93988831D01*
X196420704Y-94024634D01*
X196370427Y-94049336D01*
X196348962Y-94061172D01*
X196343312Y-94067611D01*
X196329232Y-94109613D01*
X196324191Y-94177156D01*
X196327008Y-94237072D01*
X196337518Y-94271850D01*
X196358741Y-94291073D01*
X196385386Y-94296325D01*
X196446405Y-94300947D01*
X196539513Y-94304636D01*
X196662857Y-94307338D01*
X196814586Y-94308998D01*
X196992848Y-94309564D01*
X197592405Y-94309564D01*
X197592405Y-94998178D01*
X197592405Y-95686792D01*
X196543002Y-95681030D01*
X196384205Y-95680139D01*
X196187051Y-95678918D01*
X196020540Y-95677652D01*
X195881688Y-95676229D01*
X195767514Y-95674539D01*
X195675035Y-95672472D01*
X195601270Y-95669917D01*
X195543236Y-95666764D01*
X195497951Y-95662902D01*
X195462433Y-95658222D01*
X195433699Y-95652612D01*
X195408767Y-95645963D01*
X195384655Y-95638165D01*
X195321161Y-95613912D01*
X195193685Y-95543385D01*
X195094787Y-95452333D01*
X195022965Y-95339153D01*
X194976717Y-95202240D01*
X194971423Y-95176065D01*
X194965172Y-95133340D01*
X194960131Y-95080100D01*
X194956185Y-95012743D01*
X194953218Y-94927668D01*
X194951112Y-94821275D01*
X194949752Y-94689963D01*
X194949022Y-94530130D01*
X194948804Y-94338176D01*
X194948837Y-94281864D01*
X194949640Y-94072829D01*
X194951493Y-93893946D01*
X194954372Y-93746328D01*
X194958248Y-93631086D01*
X194963096Y-93549333D01*
X194968888Y-93502180D01*
X194976860Y-93467975D01*
X195022181Y-93340106D01*
X195090651Y-93227228D01*
X195185410Y-93125811D01*
X195309600Y-93032326D01*
X195466362Y-92943242D01*
X195467839Y-92942504D01*
X195501017Y-92927055D01*
X195561912Y-92899680D01*
X195647167Y-92861838D01*
X195753424Y-92814988D01*
X195877324Y-92760589D01*
X196015510Y-92700099D01*
X196164624Y-92634977D01*
X196321309Y-92566682D01*
X196482206Y-92496672D01*
X196643958Y-92426407D01*
X196803207Y-92357344D01*
X196956595Y-92290944D01*
X197100764Y-92228664D01*
X197232356Y-92171964D01*
X197348014Y-92122301D01*
X197444380Y-92081135D01*
X197518096Y-92049925D01*
X197565804Y-92030129D01*
X197584147Y-92023207D01*
X197584982Y-92026822D01*
G37*
G36*
X196878802Y-98444801D02*
G01*
X197021866Y-98445665D01*
X197155422Y-98447302D01*
X197274226Y-98449600D01*
X197373035Y-98452447D01*
X197446606Y-98455730D01*
X197489697Y-98459337D01*
X197592405Y-98474019D01*
X197592236Y-99316721D01*
X197592067Y-100159423D01*
X197546714Y-100083754D01*
X197531624Y-100060576D01*
X197474380Y-99998310D01*
X197399207Y-99950553D01*
X197302822Y-99916366D01*
X197181940Y-99894813D01*
X197033278Y-99884955D01*
X196853553Y-99885856D01*
X196791420Y-99887920D01*
X196703488Y-99892186D01*
X196638604Y-99898238D01*
X196588635Y-99907312D01*
X196545446Y-99920644D01*
X196500902Y-99939473D01*
X196465252Y-99957875D01*
X196400478Y-100001545D01*
X196354294Y-100046323D01*
X196347220Y-100055496D01*
X196333937Y-100072721D01*
X196321961Y-100089679D01*
X196311223Y-100108169D01*
X196301655Y-100129992D01*
X196293191Y-100156946D01*
X196285762Y-100190831D01*
X196279302Y-100233447D01*
X196273743Y-100286594D01*
X196269017Y-100352070D01*
X196265056Y-100431676D01*
X196261794Y-100527211D01*
X196259164Y-100640474D01*
X196257096Y-100773266D01*
X196255525Y-100927386D01*
X196254381Y-101104633D01*
X196253599Y-101306807D01*
X196253111Y-101535707D01*
X196252848Y-101793133D01*
X196252744Y-102080885D01*
X196252731Y-102400762D01*
X196252742Y-102754564D01*
X196252742Y-105190371D01*
X196200530Y-105242583D01*
X196148317Y-105294796D01*
X195611919Y-105294796D01*
X195559936Y-105294777D01*
X195406333Y-105294309D01*
X195283537Y-105292865D01*
X195187759Y-105289987D01*
X195115206Y-105285216D01*
X195062087Y-105278092D01*
X195024612Y-105268159D01*
X194998989Y-105254956D01*
X194981428Y-105238026D01*
X194968136Y-105216909D01*
X194965954Y-105207242D01*
X194963275Y-105176566D01*
X194960887Y-105124610D01*
X194958786Y-105050263D01*
X194956964Y-104952412D01*
X194955415Y-104829949D01*
X194954134Y-104681761D01*
X194953115Y-104506737D01*
X194952350Y-104303767D01*
X194951834Y-104071739D01*
X194951562Y-103809542D01*
X194951526Y-103516066D01*
X194951720Y-103190199D01*
X194952139Y-102830831D01*
X194952777Y-102436849D01*
X194957735Y-99695007D01*
X195006602Y-99517795D01*
X195026423Y-99450069D01*
X195109158Y-99231082D01*
X195213237Y-99040389D01*
X195339748Y-98876942D01*
X195489782Y-98739692D01*
X195664431Y-98627591D01*
X195864786Y-98539591D01*
X196091936Y-98474644D01*
X196121687Y-98468580D01*
X196170000Y-98461138D01*
X196227427Y-98455349D01*
X196298401Y-98451028D01*
X196387359Y-98447987D01*
X196498733Y-98446042D01*
X196636958Y-98445006D01*
X196806469Y-98444694D01*
X196878802Y-98444801D01*
G37*
G36*
X198834130Y-88469021D02*
G01*
X198858909Y-88479322D01*
X198911956Y-88502485D01*
X198989808Y-88536949D01*
X199089005Y-88581152D01*
X199206085Y-88633532D01*
X199337586Y-88692525D01*
X199480047Y-88756571D01*
X199630008Y-88824106D01*
X199784006Y-88893569D01*
X199938580Y-88963397D01*
X200090269Y-89032029D01*
X200235611Y-89097901D01*
X200371145Y-89159452D01*
X200493410Y-89215120D01*
X200598945Y-89263342D01*
X200684287Y-89302556D01*
X200745976Y-89331200D01*
X200780551Y-89347711D01*
X200885585Y-89403484D01*
X201075504Y-89525635D01*
X201231555Y-89658390D01*
X201353644Y-89801651D01*
X201441682Y-89955319D01*
X201495576Y-90119295D01*
X201501923Y-90157508D01*
X201509722Y-90241630D01*
X201515416Y-90358437D01*
X201519048Y-90508923D01*
X201520661Y-90694083D01*
X201520691Y-90704769D01*
X201520103Y-90877950D01*
X201516895Y-91020847D01*
X201510339Y-91138564D01*
X201499708Y-91236207D01*
X201484276Y-91318882D01*
X201463316Y-91391693D01*
X201436100Y-91459747D01*
X201401902Y-91528149D01*
X201360305Y-91594871D01*
X201262368Y-91711022D01*
X201135000Y-91824993D01*
X200982106Y-91933466D01*
X200807594Y-92033120D01*
X200786243Y-92043546D01*
X200730678Y-92069688D01*
X200648174Y-92107920D01*
X200542018Y-92156738D01*
X200415501Y-92214637D01*
X200271910Y-92280114D01*
X200114535Y-92351665D01*
X199946665Y-92427784D01*
X199771589Y-92506968D01*
X198833825Y-92930557D01*
X198829154Y-92214514D01*
X198828843Y-92160266D01*
X198828439Y-92006900D01*
X198828758Y-91865968D01*
X198829746Y-91741349D01*
X198831348Y-91636926D01*
X198833512Y-91556580D01*
X198836183Y-91504193D01*
X198839307Y-91483646D01*
X198844036Y-91480769D01*
X198876723Y-91464834D01*
X198937118Y-91437027D01*
X199021704Y-91398918D01*
X199126963Y-91352075D01*
X199249379Y-91298069D01*
X199385433Y-91238467D01*
X199531609Y-91174838D01*
X199596258Y-91146690D01*
X199739063Y-91083818D01*
X199870477Y-91025021D01*
X199986923Y-90971959D01*
X200084823Y-90926290D01*
X200160600Y-90889673D01*
X200210677Y-90863768D01*
X200231477Y-90850233D01*
X200245752Y-90815462D01*
X200253790Y-90754059D01*
X200252302Y-90684711D01*
X200241752Y-90621661D01*
X200222608Y-90579155D01*
X200217280Y-90574794D01*
X200182368Y-90554759D01*
X200119565Y-90523111D01*
X200032455Y-90481517D01*
X199924619Y-90431643D01*
X199799641Y-90375155D01*
X199661103Y-90313718D01*
X199512587Y-90248998D01*
X198833825Y-89955740D01*
X198829164Y-89212188D01*
X198828709Y-89131972D01*
X198828120Y-88978223D01*
X198827952Y-88837958D01*
X198828187Y-88714886D01*
X198828806Y-88612711D01*
X198829793Y-88535140D01*
X198831128Y-88485879D01*
X198832794Y-88468636D01*
X198834130Y-88469021D01*
G37*
G36*
X201469869Y-98505799D02*
G01*
X201522081Y-98558011D01*
X201522081Y-101352475D01*
X201522074Y-101535763D01*
X201522004Y-101895367D01*
X201521847Y-102221744D01*
X201521588Y-102516586D01*
X201521211Y-102781585D01*
X201520701Y-103018433D01*
X201520042Y-103228822D01*
X201519218Y-103414444D01*
X201518214Y-103576990D01*
X201517014Y-103718154D01*
X201515603Y-103839627D01*
X201513964Y-103943101D01*
X201512083Y-104030267D01*
X201509943Y-104102819D01*
X201507529Y-104162447D01*
X201504826Y-104210845D01*
X201501817Y-104249703D01*
X201498488Y-104280715D01*
X201494822Y-104305571D01*
X201476237Y-104400569D01*
X201409795Y-104631073D01*
X201317714Y-104837391D01*
X201200706Y-105018816D01*
X201059484Y-105174635D01*
X200894762Y-105304141D01*
X200707253Y-105406622D01*
X200497670Y-105481369D01*
X200266727Y-105527673D01*
X200228511Y-105531240D01*
X200154264Y-105535063D01*
X200056784Y-105537990D01*
X199940983Y-105540051D01*
X199811775Y-105541274D01*
X199674071Y-105541690D01*
X199532785Y-105541326D01*
X199392829Y-105540211D01*
X199259117Y-105538375D01*
X199136561Y-105535846D01*
X199030073Y-105532653D01*
X198944568Y-105528825D01*
X198884957Y-105524390D01*
X198856153Y-105519379D01*
X198849780Y-105515162D01*
X198843479Y-105505565D01*
X198838337Y-105488016D01*
X198834235Y-105459426D01*
X198831058Y-105416712D01*
X198828690Y-105356788D01*
X198827013Y-105276567D01*
X198825911Y-105172965D01*
X198825268Y-105042895D01*
X198824968Y-104883273D01*
X198824894Y-104691012D01*
X198824894Y-103876704D01*
X198885501Y-103942871D01*
X198905604Y-103962688D01*
X198967848Y-104011212D01*
X199032864Y-104049069D01*
X199047410Y-104055622D01*
X199077513Y-104067331D01*
X199110065Y-104075938D01*
X199150612Y-104081913D01*
X199204698Y-104085725D01*
X199277871Y-104087843D01*
X199375675Y-104088735D01*
X199503656Y-104088871D01*
X199576934Y-104088727D01*
X199692146Y-104087775D01*
X199779466Y-104085640D01*
X199844029Y-104081972D01*
X199890969Y-104076422D01*
X199925421Y-104068639D01*
X199952520Y-104058273D01*
X200015722Y-104023220D01*
X200108051Y-103944636D01*
X200171741Y-103848551D01*
X200176371Y-103838305D01*
X200181050Y-103826341D01*
X200185275Y-103812055D01*
X200189076Y-103793689D01*
X200192483Y-103769484D01*
X200195526Y-103737683D01*
X200198237Y-103696528D01*
X200200644Y-103644261D01*
X200202779Y-103579124D01*
X200204671Y-103499358D01*
X200206351Y-103403206D01*
X200207849Y-103288910D01*
X200209196Y-103154712D01*
X200210421Y-102998854D01*
X200211555Y-102819577D01*
X200212629Y-102615125D01*
X200213671Y-102383738D01*
X200214714Y-102123659D01*
X200215787Y-101833130D01*
X200216920Y-101510392D01*
X200218143Y-101153689D01*
X200227074Y-98539797D01*
X200277191Y-98496692D01*
X200327308Y-98453586D01*
X200872482Y-98453586D01*
X201417656Y-98453586D01*
X201469869Y-98505799D01*
G37*
G36*
X199258104Y-76058259D02*
G01*
X199562255Y-76081105D01*
X199843126Y-76124199D01*
X200098927Y-76187153D01*
X200327870Y-76269582D01*
X200528163Y-76371097D01*
X200600147Y-76418450D01*
X200717041Y-76510086D01*
X200832282Y-76615918D01*
X200935592Y-76726263D01*
X201016693Y-76831434D01*
X201108725Y-76984619D01*
X201213274Y-77209815D01*
X201299426Y-77462917D01*
X201367405Y-77744733D01*
X201417435Y-78056074D01*
X201449741Y-78397749D01*
X201451012Y-78425789D01*
X201452755Y-78495010D01*
X201454370Y-78595790D01*
X201455843Y-78725664D01*
X201457164Y-78882165D01*
X201458321Y-79062827D01*
X201459303Y-79265185D01*
X201460099Y-79486772D01*
X201460696Y-79725122D01*
X201461084Y-79977770D01*
X201461251Y-80242248D01*
X201461185Y-80516092D01*
X201460875Y-80796835D01*
X201460349Y-81130914D01*
X201459784Y-81437781D01*
X201459107Y-81713182D01*
X201458236Y-81959265D01*
X201457086Y-82178178D01*
X201455576Y-82372070D01*
X201453621Y-82543088D01*
X201451138Y-82693382D01*
X201448045Y-82825098D01*
X201444258Y-82940386D01*
X201439693Y-83041394D01*
X201434268Y-83130269D01*
X201427900Y-83209161D01*
X201420505Y-83280217D01*
X201412000Y-83345586D01*
X201402302Y-83407416D01*
X201391328Y-83467855D01*
X201378995Y-83529051D01*
X201365219Y-83593153D01*
X201349917Y-83662308D01*
X201315228Y-83804729D01*
X201231601Y-84069070D01*
X201128686Y-84304003D01*
X201005333Y-84510665D01*
X200860391Y-84690190D01*
X200692710Y-84843715D01*
X200501140Y-84972375D01*
X200284530Y-85077306D01*
X200041730Y-85159644D01*
X199771589Y-85220525D01*
X199687902Y-85233568D01*
X199550041Y-85248618D01*
X199387780Y-85259469D01*
X199195534Y-85266566D01*
X198824894Y-85276085D01*
X198824894Y-84409935D01*
X198824894Y-83543785D01*
X199000538Y-83531687D01*
X199152102Y-83516636D01*
X199336938Y-83481762D01*
X199495239Y-83429554D01*
X199630341Y-83358834D01*
X199745583Y-83268421D01*
X199824544Y-83179435D01*
X199896673Y-83059991D01*
X199952721Y-82916600D01*
X199993903Y-82746083D01*
X200021431Y-82545258D01*
X200023284Y-82519241D01*
X200026114Y-82449559D01*
X200028662Y-82349299D01*
X200030930Y-82221618D01*
X200032916Y-82069673D01*
X200034621Y-81896621D01*
X200036046Y-81705620D01*
X200037191Y-81499827D01*
X200038057Y-81282398D01*
X200038643Y-81056492D01*
X200038951Y-80825266D01*
X200038980Y-80591876D01*
X200038730Y-80359479D01*
X200038203Y-80131234D01*
X200037398Y-79910297D01*
X200036316Y-79699826D01*
X200034958Y-79502978D01*
X200033323Y-79322909D01*
X200031412Y-79162778D01*
X200029225Y-79025741D01*
X200026762Y-78914956D01*
X200024025Y-78833579D01*
X200021013Y-78784769D01*
X200007032Y-78669839D01*
X199969283Y-78478626D01*
X199914889Y-78316568D01*
X199842007Y-78181196D01*
X199748794Y-78070038D01*
X199633405Y-77980625D01*
X199493998Y-77910487D01*
X199328730Y-77857153D01*
X199299669Y-77850350D01*
X199208408Y-77833624D01*
X199105443Y-77819580D01*
X199007981Y-77810711D01*
X198824894Y-77799494D01*
X198824894Y-76926962D01*
X198824894Y-76054430D01*
X199062931Y-76054430D01*
X199258104Y-76058259D01*
G37*
G36*
X197592405Y-76924600D02*
G01*
X197592405Y-77799733D01*
X197328938Y-77809932D01*
X197234043Y-77814777D01*
X197069274Y-77830830D01*
X196928219Y-77856801D01*
X196803443Y-77894255D01*
X196687511Y-77944752D01*
X196617085Y-77987603D01*
X196523412Y-78064736D01*
X196440962Y-78154188D01*
X196381239Y-78244690D01*
X196344776Y-78329614D01*
X196306500Y-78449373D01*
X196274851Y-78582028D01*
X196253136Y-78715424D01*
X196251655Y-78731753D01*
X196248648Y-78792383D01*
X196245901Y-78886628D01*
X196243428Y-79013048D01*
X196241240Y-79170204D01*
X196239353Y-79356657D01*
X196237778Y-79570965D01*
X196236530Y-79811690D01*
X196235622Y-80077393D01*
X196235068Y-80366633D01*
X196234880Y-80677970D01*
X196234898Y-80849994D01*
X196235037Y-81133045D01*
X196235338Y-81383803D01*
X196235831Y-81604474D01*
X196236548Y-81797265D01*
X196237519Y-81964381D01*
X196238776Y-82108030D01*
X196240348Y-82230415D01*
X196242267Y-82333745D01*
X196244563Y-82420224D01*
X196247267Y-82492060D01*
X196250411Y-82551456D01*
X196254024Y-82600621D01*
X196258138Y-82641760D01*
X196262784Y-82677078D01*
X196296624Y-82851108D01*
X196349476Y-83016167D01*
X196420683Y-83155258D01*
X196512269Y-83269983D01*
X196626261Y-83361943D01*
X196764684Y-83432741D01*
X196929565Y-83483978D01*
X197122928Y-83517255D01*
X197346800Y-83534175D01*
X197592405Y-83543674D01*
X197592405Y-84409660D01*
X197592405Y-85275646D01*
X197150316Y-85266720D01*
X197055367Y-85264565D01*
X196906727Y-85259778D01*
X196783661Y-85253482D01*
X196679623Y-85245212D01*
X196588068Y-85234505D01*
X196502450Y-85220900D01*
X196315545Y-85181640D01*
X196060015Y-85105461D01*
X195831433Y-85007240D01*
X195628725Y-84885901D01*
X195450815Y-84740366D01*
X195296629Y-84569561D01*
X195165091Y-84372409D01*
X195055127Y-84147833D01*
X194965662Y-83894758D01*
X194895621Y-83612107D01*
X194888189Y-83575594D01*
X194875100Y-83510346D01*
X194863377Y-83449063D01*
X194852938Y-83389538D01*
X194843700Y-83329568D01*
X194835579Y-83266948D01*
X194828494Y-83199472D01*
X194822362Y-83124936D01*
X194817100Y-83041135D01*
X194812624Y-82945863D01*
X194808852Y-82836917D01*
X194805702Y-82712091D01*
X194803091Y-82569180D01*
X194800935Y-82405979D01*
X194799153Y-82220284D01*
X194797660Y-82009889D01*
X194796376Y-81772589D01*
X194795215Y-81506181D01*
X194794097Y-81208457D01*
X194792938Y-80877215D01*
X194792537Y-80758889D01*
X194791509Y-80416038D01*
X194790829Y-80106105D01*
X194790541Y-79826969D01*
X194790688Y-79576510D01*
X194791311Y-79352610D01*
X194792454Y-79153147D01*
X194794160Y-78976003D01*
X194796470Y-78819057D01*
X194799428Y-78680189D01*
X194803077Y-78557279D01*
X194807458Y-78448208D01*
X194812615Y-78350856D01*
X194818590Y-78263103D01*
X194825427Y-78182829D01*
X194833167Y-78107914D01*
X194841853Y-78036238D01*
X194851528Y-77965682D01*
X194870730Y-77844649D01*
X194935103Y-77547336D01*
X195020022Y-77278945D01*
X195125839Y-77039016D01*
X195252906Y-76827084D01*
X195401576Y-76642688D01*
X195572201Y-76485365D01*
X195765134Y-76354654D01*
X195980727Y-76250091D01*
X196219332Y-76171215D01*
X196310222Y-76148145D01*
X196431544Y-76121284D01*
X196550896Y-76100454D01*
X196675810Y-76084759D01*
X196813818Y-76073305D01*
X196972454Y-76065197D01*
X197159247Y-76059540D01*
X197592405Y-76049467D01*
X197592405Y-76924600D01*
G37*
G36*
X197431645Y-106045007D02*
G01*
X197753164Y-106045007D01*
X197753164Y-106917921D01*
X197753164Y-107790836D01*
X197364662Y-107800194D01*
X197222988Y-107804848D01*
X197055320Y-107815192D01*
X196915735Y-107831145D01*
X196799910Y-107853868D01*
X196703521Y-107884521D01*
X196622246Y-107924266D01*
X196551762Y-107974264D01*
X196487746Y-108035674D01*
X196436870Y-108097332D01*
X196388840Y-108175792D01*
X196351807Y-108266267D01*
X196323917Y-108374640D01*
X196303315Y-108506791D01*
X196288145Y-108668605D01*
X196286858Y-108692678D01*
X196284768Y-108759894D01*
X196282760Y-108858841D01*
X196280852Y-108987027D01*
X196279062Y-109141957D01*
X196277407Y-109321135D01*
X196275906Y-109522069D01*
X196274577Y-109742264D01*
X196273436Y-109979224D01*
X196272503Y-110230457D01*
X196271795Y-110493468D01*
X196271330Y-110765761D01*
X196271125Y-111044844D01*
X196270604Y-113195666D01*
X196227700Y-113268876D01*
X196224087Y-113274809D01*
X196172039Y-113336860D01*
X196107131Y-113386549D01*
X196029465Y-113431013D01*
X195448945Y-113431013D01*
X194868424Y-113431013D01*
X194785295Y-113382144D01*
X194716398Y-113329835D01*
X194664725Y-113255935D01*
X194660304Y-113246637D01*
X194655361Y-113234784D01*
X194650939Y-113220725D01*
X194647007Y-113202598D01*
X194643537Y-113178541D01*
X194640501Y-113146692D01*
X194638708Y-113118425D01*
X194929154Y-113118425D01*
X195448051Y-113118425D01*
X195966947Y-113118425D01*
X195967257Y-110907982D01*
X195967402Y-110627961D01*
X195967837Y-110313273D01*
X195968547Y-110018637D01*
X195969521Y-109745620D01*
X195970746Y-109495791D01*
X195972210Y-109270714D01*
X195973901Y-109071959D01*
X195975808Y-108901092D01*
X195977918Y-108759680D01*
X195980220Y-108649291D01*
X195982701Y-108571491D01*
X195985351Y-108527848D01*
X195993039Y-108462880D01*
X196031706Y-108256154D01*
X196090098Y-108077119D01*
X196169608Y-107924558D01*
X196271629Y-107797259D01*
X196397555Y-107694006D01*
X196548780Y-107613586D01*
X196726696Y-107554785D01*
X196932698Y-107516388D01*
X197168178Y-107497181D01*
X197431645Y-107486653D01*
X197431645Y-106917658D01*
X197431645Y-106348664D01*
X197337869Y-106349224D01*
X197233511Y-106351633D01*
X197107997Y-106357421D01*
X196971928Y-106365878D01*
X196834560Y-106376300D01*
X196705145Y-106387984D01*
X196592938Y-106400228D01*
X196507191Y-106412328D01*
X196412727Y-106429891D01*
X196153240Y-106496119D01*
X195921911Y-106584039D01*
X195718465Y-106693793D01*
X195542628Y-106825518D01*
X195394125Y-106979356D01*
X195322034Y-107079548D01*
X195242158Y-107217133D01*
X195168245Y-107371270D01*
X195105078Y-107531877D01*
X195057442Y-107688873D01*
X195051437Y-107712649D01*
X195036310Y-107772625D01*
X195022655Y-107828230D01*
X195010390Y-107881467D01*
X194999437Y-107934342D01*
X194989713Y-107988859D01*
X194981140Y-108047024D01*
X194973636Y-108110840D01*
X194967121Y-108182314D01*
X194961514Y-108263449D01*
X194956736Y-108356251D01*
X194952705Y-108462724D01*
X194949342Y-108584873D01*
X194946565Y-108724702D01*
X194944295Y-108884218D01*
X194942450Y-109065424D01*
X194940952Y-109270325D01*
X194939718Y-109500927D01*
X194938669Y-109759233D01*
X194937725Y-110047249D01*
X194936804Y-110366979D01*
X194935827Y-110720429D01*
X194929154Y-113118425D01*
X194638708Y-113118425D01*
X194637868Y-113105189D01*
X194635612Y-113052169D01*
X194633702Y-112985770D01*
X194632111Y-112904131D01*
X194630808Y-112805389D01*
X194629766Y-112687682D01*
X194628955Y-112549147D01*
X194628348Y-112387923D01*
X194627914Y-112202148D01*
X194627625Y-111989959D01*
X194627453Y-111749494D01*
X194627368Y-111478892D01*
X194627342Y-111176289D01*
X194627346Y-110839824D01*
X194627410Y-110608607D01*
X194627754Y-110254070D01*
X194628389Y-109925442D01*
X194629310Y-109623705D01*
X194630507Y-109349840D01*
X194631975Y-109104828D01*
X194633705Y-108889651D01*
X194635691Y-108705290D01*
X194637925Y-108552727D01*
X194640401Y-108432943D01*
X194643111Y-108346920D01*
X194646047Y-108295640D01*
X194660899Y-108153191D01*
X194709006Y-107840627D01*
X194776117Y-107557193D01*
X194862702Y-107301818D01*
X194969229Y-107073431D01*
X195096164Y-106870960D01*
X195243977Y-106693334D01*
X195413135Y-106539482D01*
X195460079Y-106503499D01*
X195630513Y-106390562D01*
X195815668Y-106294859D01*
X196018222Y-106215721D01*
X196240848Y-106152475D01*
X196486223Y-106104452D01*
X196757023Y-106070980D01*
X197055923Y-106051388D01*
X197385598Y-106045007D01*
X197431645Y-106045007D01*
G37*
G36*
X198985653Y-106049094D02*
G01*
X199034774Y-106050651D01*
X199238197Y-106060131D01*
X199515395Y-106084958D01*
X199765241Y-106123280D01*
X199991451Y-106175856D01*
X200197743Y-106243443D01*
X200387834Y-106326800D01*
X200484437Y-106378296D01*
X200686146Y-106510703D01*
X200864606Y-106665775D01*
X201020296Y-106844427D01*
X201153691Y-107047572D01*
X201265270Y-107276124D01*
X201355510Y-107530998D01*
X201424887Y-107813107D01*
X201473880Y-108123367D01*
X201502965Y-108462690D01*
X201503373Y-108470685D01*
X201505698Y-108537079D01*
X201507845Y-108633668D01*
X201509813Y-108757814D01*
X201511601Y-108906880D01*
X201513209Y-109078232D01*
X201514635Y-109269230D01*
X201515880Y-109477239D01*
X201516942Y-109699622D01*
X201517822Y-109933743D01*
X201518518Y-110176964D01*
X201519029Y-110426649D01*
X201519355Y-110680160D01*
X201519496Y-110934863D01*
X201519451Y-111188118D01*
X201519218Y-111437291D01*
X201518798Y-111679744D01*
X201518190Y-111912841D01*
X201517392Y-112133944D01*
X201516405Y-112340417D01*
X201515228Y-112529623D01*
X201513860Y-112698926D01*
X201512300Y-112845689D01*
X201510548Y-112967275D01*
X201508604Y-113061047D01*
X201506465Y-113124369D01*
X201504133Y-113154603D01*
X201473555Y-113250828D01*
X201414687Y-113336604D01*
X201331071Y-113397240D01*
X201323791Y-113400724D01*
X201300203Y-113409878D01*
X201271005Y-113417131D01*
X201231895Y-113422767D01*
X201178572Y-113427073D01*
X201106732Y-113430335D01*
X201012074Y-113432838D01*
X200890297Y-113434869D01*
X200737097Y-113436714D01*
X200714487Y-113436949D01*
X200528346Y-113437985D01*
X200377311Y-113437018D01*
X200260876Y-113434035D01*
X200178536Y-113429024D01*
X200129783Y-113421974D01*
X200051426Y-113393531D01*
X199964604Y-113332744D01*
X199903603Y-113248934D01*
X199902926Y-113247555D01*
X199898148Y-113236557D01*
X199893838Y-113222988D01*
X199889962Y-113205006D01*
X199886487Y-113180769D01*
X199883380Y-113148436D01*
X199880609Y-113106165D01*
X199878141Y-113052113D01*
X199875942Y-112984439D01*
X199873980Y-112901301D01*
X199872223Y-112800858D01*
X199870636Y-112681267D01*
X199869188Y-112540686D01*
X199867846Y-112377275D01*
X199866576Y-112189190D01*
X199865346Y-111974590D01*
X199864122Y-111731634D01*
X199862873Y-111458478D01*
X199861565Y-111153283D01*
X199860166Y-110814205D01*
X199859416Y-110632087D01*
X199858049Y-110309902D01*
X199856743Y-110020600D01*
X199855467Y-109762315D01*
X199854188Y-109533180D01*
X199852876Y-109331329D01*
X199851499Y-109154897D01*
X199850026Y-109002017D01*
X199848424Y-108870822D01*
X199846664Y-108759448D01*
X199844712Y-108666027D01*
X199842539Y-108588695D01*
X199840111Y-108525583D01*
X199837398Y-108474827D01*
X199834369Y-108434561D01*
X199830991Y-108402918D01*
X199827234Y-108378032D01*
X199823065Y-108358036D01*
X199818454Y-108341066D01*
X199775167Y-108220598D01*
X199714890Y-108107060D01*
X199639188Y-108014569D01*
X199544900Y-107941229D01*
X199428864Y-107885146D01*
X199287921Y-107844424D01*
X199118910Y-107817168D01*
X198918670Y-107801482D01*
X198681997Y-107789990D01*
X198681997Y-106921099D01*
X198985653Y-106921099D01*
X198985653Y-107484614D01*
X199150879Y-107505688D01*
X199181125Y-107509691D01*
X199365007Y-107541879D01*
X199520413Y-107585067D01*
X199652773Y-107641501D01*
X199767519Y-107713426D01*
X199870081Y-107803088D01*
X199958153Y-107907106D01*
X200034121Y-108034920D01*
X200092668Y-108183749D01*
X200135396Y-108357730D01*
X200163910Y-108560999D01*
X200164838Y-108572007D01*
X200167748Y-108631233D01*
X200170422Y-108724773D01*
X200172849Y-108851544D01*
X200175023Y-109010464D01*
X200176935Y-109200452D01*
X200178575Y-109420426D01*
X200179936Y-109669303D01*
X200181010Y-109946001D01*
X200181787Y-110249438D01*
X200182259Y-110578532D01*
X200182419Y-110932202D01*
X200182419Y-113118425D01*
X200691490Y-113118425D01*
X201200562Y-113118425D01*
X201198106Y-110782946D01*
X201198047Y-110730402D01*
X201197593Y-110442375D01*
X201196935Y-110162532D01*
X201196091Y-109893168D01*
X201195074Y-109636579D01*
X201193902Y-109395058D01*
X201192591Y-109170902D01*
X201191155Y-108966405D01*
X201189611Y-108783863D01*
X201187975Y-108625569D01*
X201186263Y-108493820D01*
X201184489Y-108390910D01*
X201182672Y-108319135D01*
X201180825Y-108280789D01*
X201178982Y-108260550D01*
X201139715Y-107956580D01*
X201080778Y-107682115D01*
X201001280Y-107436288D01*
X200900328Y-107218233D01*
X200777032Y-107027085D01*
X200630499Y-106861977D01*
X200459838Y-106722042D01*
X200264157Y-106606415D01*
X200042564Y-106514230D01*
X199794167Y-106444619D01*
X199518075Y-106396717D01*
X199213396Y-106369658D01*
X198985653Y-106357583D01*
X198985653Y-106921099D01*
X198681997Y-106921099D01*
X198681997Y-106914728D01*
X198681997Y-106039467D01*
X198985653Y-106049094D01*
G37*
G36*
X199981469Y-73415924D02*
G01*
X200193793Y-73417427D01*
X200413919Y-73419266D01*
X200604620Y-73421367D01*
X200769305Y-73423933D01*
X200911381Y-73427164D01*
X201034256Y-73431262D01*
X201141340Y-73436426D01*
X201236040Y-73442859D01*
X201321764Y-73450761D01*
X201401921Y-73460333D01*
X201479919Y-73471776D01*
X201559166Y-73485291D01*
X201643071Y-73501080D01*
X201735041Y-73519343D01*
X201856996Y-73546676D01*
X202077381Y-73609245D01*
X202293129Y-73686447D01*
X202496480Y-73775075D01*
X202679674Y-73871922D01*
X202834950Y-73973783D01*
X202906384Y-74029399D01*
X203096988Y-74205711D01*
X203264642Y-74405997D01*
X203409678Y-74630998D01*
X203532426Y-74881455D01*
X203633216Y-75158110D01*
X203712379Y-75461703D01*
X203770247Y-75792977D01*
X203807150Y-76152672D01*
X203807202Y-76153512D01*
X203807897Y-76183690D01*
X203808588Y-76248674D01*
X203809277Y-76347610D01*
X203809962Y-76479644D01*
X203810642Y-76643922D01*
X203811315Y-76839590D01*
X203811982Y-77065794D01*
X203812640Y-77321680D01*
X203813290Y-77606394D01*
X203813930Y-77919082D01*
X203814559Y-78258890D01*
X203815176Y-78624963D01*
X203815780Y-79016449D01*
X203816371Y-79432492D01*
X203816947Y-79872240D01*
X203817507Y-80334837D01*
X203818051Y-80819430D01*
X203818577Y-81325165D01*
X203819084Y-81851188D01*
X203819572Y-82396644D01*
X203820040Y-82960681D01*
X203820486Y-83542443D01*
X203820910Y-84141078D01*
X203821311Y-84755730D01*
X203821687Y-85385546D01*
X203822038Y-86029671D01*
X203822362Y-86687253D01*
X203822660Y-87357436D01*
X203822929Y-88039367D01*
X203823170Y-88732192D01*
X203823380Y-89435057D01*
X203823559Y-90147107D01*
X203823706Y-90867490D01*
X203823816Y-91487447D01*
X203823957Y-92333659D01*
X203824080Y-93145355D01*
X203824184Y-93923243D01*
X203824268Y-94668029D01*
X203824331Y-95380422D01*
X203824372Y-96061128D01*
X203824388Y-96710857D01*
X203824380Y-97330314D01*
X203824346Y-97920208D01*
X203824285Y-98481246D01*
X203824196Y-99014136D01*
X203824076Y-99519585D01*
X203823926Y-99998301D01*
X203823744Y-100450991D01*
X203823529Y-100878363D01*
X203823280Y-101281125D01*
X203822995Y-101659983D01*
X203822673Y-102015646D01*
X203822314Y-102348821D01*
X203821915Y-102660216D01*
X203821476Y-102950538D01*
X203820996Y-103220494D01*
X203820472Y-103470793D01*
X203819905Y-103702141D01*
X203819293Y-103915247D01*
X203818635Y-104110818D01*
X203817930Y-104289561D01*
X203817175Y-104452184D01*
X203816371Y-104599394D01*
X203815516Y-104731899D01*
X203814609Y-104850407D01*
X203813648Y-104955626D01*
X203812633Y-105048261D01*
X203811562Y-105129022D01*
X203810435Y-105198616D01*
X203809249Y-105257750D01*
X203808003Y-105307132D01*
X203806698Y-105347469D01*
X203805330Y-105379469D01*
X203803900Y-105403839D01*
X203802406Y-105421288D01*
X203800846Y-105432522D01*
X203799220Y-105438249D01*
X203787434Y-105460301D01*
X203773459Y-105481280D01*
X203755701Y-105498466D01*
X203730966Y-105512238D01*
X203696061Y-105522974D01*
X203647792Y-105531051D01*
X203582963Y-105536848D01*
X203498381Y-105540743D01*
X203390852Y-105543114D01*
X203257181Y-105544340D01*
X203094174Y-105544798D01*
X202898637Y-105544866D01*
X202129958Y-105544866D01*
X202071624Y-105492745D01*
X202013291Y-105440624D01*
X202003404Y-90903821D01*
X202002845Y-90086570D01*
X202002264Y-89250207D01*
X202001697Y-88448172D01*
X202001140Y-87679744D01*
X202000594Y-86944203D01*
X202000054Y-86240828D01*
X201999521Y-85568899D01*
X201998991Y-84927695D01*
X201998463Y-84316497D01*
X201997935Y-83734584D01*
X201997405Y-83181235D01*
X201996871Y-82655730D01*
X201996332Y-82157349D01*
X201995784Y-81685371D01*
X201995228Y-81239076D01*
X201994659Y-80817743D01*
X201994078Y-80420653D01*
X201993481Y-80047084D01*
X201992867Y-79696317D01*
X201992234Y-79367631D01*
X201991580Y-79060305D01*
X201990903Y-78773619D01*
X201990202Y-78506854D01*
X201989473Y-78259288D01*
X201988717Y-78030200D01*
X201987929Y-77818872D01*
X201987110Y-77624582D01*
X201986256Y-77446610D01*
X201985366Y-77284235D01*
X201984438Y-77136737D01*
X201983470Y-77003397D01*
X201982460Y-76883492D01*
X201981406Y-76776304D01*
X201980307Y-76681111D01*
X201979160Y-76597193D01*
X201977963Y-76523831D01*
X201976715Y-76460303D01*
X201975414Y-76405888D01*
X201974058Y-76359868D01*
X201972645Y-76321521D01*
X201971173Y-76290127D01*
X201969639Y-76264965D01*
X201968043Y-76245316D01*
X201966383Y-76230458D01*
X201964656Y-76219672D01*
X201962373Y-76208155D01*
X201911463Y-76004912D01*
X201844706Y-75830720D01*
X201759547Y-75683113D01*
X201653433Y-75559625D01*
X201523810Y-75457789D01*
X201368125Y-75375141D01*
X201183824Y-75309213D01*
X200968354Y-75257540D01*
X200953095Y-75254702D01*
X200912023Y-75248437D01*
X200863203Y-75243065D01*
X200803527Y-75238484D01*
X200729887Y-75234594D01*
X200639173Y-75231292D01*
X200528278Y-75228476D01*
X200394092Y-75226047D01*
X200233508Y-75223901D01*
X200043417Y-75221937D01*
X199820710Y-75220054D01*
X198824894Y-75212270D01*
X198824894Y-74310184D01*
X198824894Y-73408098D01*
X199981469Y-73415924D01*
G37*
G36*
X197748846Y-114889018D02*
G01*
X197744233Y-115913854D01*
X197378059Y-115925448D01*
X197328838Y-115927165D01*
X197149575Y-115937042D01*
X197000269Y-115952496D01*
X196876477Y-115974765D01*
X196773753Y-116005088D01*
X196687653Y-116044702D01*
X196613733Y-116094845D01*
X196547549Y-116156754D01*
X196528094Y-116178229D01*
X196474694Y-116248184D01*
X196432873Y-116325647D01*
X196398196Y-116420010D01*
X196366229Y-116540664D01*
X196361062Y-116564200D01*
X196356426Y-116589801D01*
X196352332Y-116619397D01*
X196348745Y-116655104D01*
X196345633Y-116699038D01*
X196342961Y-116753313D01*
X196340697Y-116820045D01*
X196338807Y-116901349D01*
X196337257Y-116999340D01*
X196336015Y-117116133D01*
X196335047Y-117253844D01*
X196334320Y-117414588D01*
X196333800Y-117600480D01*
X196333453Y-117813635D01*
X196333247Y-118056169D01*
X196333148Y-118330197D01*
X196333122Y-118637834D01*
X196333125Y-118741933D01*
X196333188Y-119039882D01*
X196333354Y-119304872D01*
X196333653Y-119538992D01*
X196334115Y-119744329D01*
X196334770Y-119922972D01*
X196335650Y-120077008D01*
X196336784Y-120208527D01*
X196338204Y-120319615D01*
X196339938Y-120412361D01*
X196342018Y-120488854D01*
X196344474Y-120551181D01*
X196347336Y-120601430D01*
X196350635Y-120641689D01*
X196354401Y-120674047D01*
X196358664Y-120700592D01*
X196363455Y-120723411D01*
X196407184Y-120875685D01*
X196465866Y-121006825D01*
X196541193Y-121111575D01*
X196637043Y-121194125D01*
X196757296Y-121258665D01*
X196905829Y-121309385D01*
X196917038Y-121312277D01*
X196987573Y-121324931D01*
X197086243Y-121335328D01*
X197215565Y-121343685D01*
X197378059Y-121350220D01*
X197744233Y-121361814D01*
X197748847Y-122377363D01*
X197753461Y-123392912D01*
X197195120Y-123384683D01*
X197132411Y-123383673D01*
X196930032Y-123378815D01*
X196756314Y-123371472D01*
X196605767Y-123360963D01*
X196472905Y-123346603D01*
X196352239Y-123327709D01*
X196238281Y-123303599D01*
X196125544Y-123273590D01*
X196008540Y-123236998D01*
X195854368Y-123180061D01*
X195628181Y-123071146D01*
X195426796Y-122939453D01*
X195249310Y-122783869D01*
X195094821Y-122603282D01*
X194962428Y-122396577D01*
X194851227Y-122162643D01*
X194760318Y-121900366D01*
X194688798Y-121608633D01*
X194675603Y-121543050D01*
X194661975Y-121473179D01*
X194649817Y-121406585D01*
X194639036Y-121340974D01*
X194629538Y-121274052D01*
X194621229Y-121203524D01*
X194614017Y-121127096D01*
X194607806Y-121042474D01*
X194602504Y-120947365D01*
X194598018Y-120839472D01*
X194594252Y-120716504D01*
X194591114Y-120576164D01*
X194588510Y-120416160D01*
X194586347Y-120234196D01*
X194584531Y-120027980D01*
X194582967Y-119795216D01*
X194581564Y-119533610D01*
X194580226Y-119240869D01*
X194578861Y-118914697D01*
X194578727Y-118881994D01*
X194577421Y-118521106D01*
X194576586Y-118193671D01*
X194576410Y-118031361D01*
X194897373Y-118031361D01*
X194897565Y-118287558D01*
X194898037Y-118548429D01*
X194898780Y-118811280D01*
X194899785Y-119073419D01*
X194901043Y-119332153D01*
X194902545Y-119584787D01*
X194904282Y-119828630D01*
X194906245Y-120060987D01*
X194908426Y-120279166D01*
X194910816Y-120480473D01*
X194913405Y-120662216D01*
X194916186Y-120821700D01*
X194919148Y-120956233D01*
X194922283Y-121063121D01*
X194925583Y-121139672D01*
X194929039Y-121183193D01*
X194959434Y-121380672D01*
X195018925Y-121664446D01*
X195093833Y-121917532D01*
X195185318Y-122141384D01*
X195294537Y-122337455D01*
X195422651Y-122507201D01*
X195570819Y-122652073D01*
X195740199Y-122773526D01*
X195931951Y-122873013D01*
X196147234Y-122951988D01*
X196387206Y-123011905D01*
X196489377Y-123030477D01*
X196715004Y-123060257D01*
X196957168Y-123078941D01*
X197203902Y-123085452D01*
X197431645Y-123085513D01*
X197431645Y-122382997D01*
X197431645Y-121680481D01*
X197192203Y-121659283D01*
X197080823Y-121647702D01*
X196883698Y-121616268D01*
X196715051Y-121572440D01*
X196571082Y-121514846D01*
X196447988Y-121442117D01*
X196341968Y-121352883D01*
X196281347Y-121286248D01*
X196200051Y-121167556D01*
X196133331Y-121026676D01*
X196077807Y-120857275D01*
X196029931Y-120683052D01*
X196024390Y-118736076D01*
X196024174Y-118657439D01*
X196023412Y-118298352D01*
X196023122Y-117974780D01*
X196023304Y-117686551D01*
X196023959Y-117433494D01*
X196025089Y-117215439D01*
X196026694Y-117032213D01*
X196028776Y-116883646D01*
X196031335Y-116769568D01*
X196034374Y-116689805D01*
X196037892Y-116644188D01*
X196042619Y-116609943D01*
X196082796Y-116403033D01*
X196140446Y-116224183D01*
X196217460Y-116071710D01*
X196315732Y-115943927D01*
X196437154Y-115839149D01*
X196583619Y-115755692D01*
X196757021Y-115691869D01*
X196959251Y-115645995D01*
X197192203Y-115616385D01*
X197431645Y-115595187D01*
X197431645Y-114881019D01*
X197431645Y-114166852D01*
X197107055Y-114179389D01*
X197025371Y-114182902D01*
X196908139Y-114189053D01*
X196798218Y-114196004D01*
X196705074Y-114203140D01*
X196638174Y-114209847D01*
X196581664Y-114217298D01*
X196319367Y-114264897D01*
X196082836Y-114331538D01*
X195871062Y-114418451D01*
X195683038Y-114526865D01*
X195517758Y-114658010D01*
X195374215Y-114813115D01*
X195251400Y-114993409D01*
X195148308Y-115200122D01*
X195063930Y-115434484D01*
X194997260Y-115697723D01*
X194947291Y-115991069D01*
X194913016Y-116315752D01*
X194912772Y-116318961D01*
X194909682Y-116380292D01*
X194906959Y-116473230D01*
X194904596Y-116595081D01*
X194902584Y-116743151D01*
X194900913Y-116914747D01*
X194899575Y-117107176D01*
X194898561Y-117317745D01*
X194897861Y-117543761D01*
X194897468Y-117782531D01*
X194897373Y-118031361D01*
X194576410Y-118031361D01*
X194576265Y-117897601D01*
X194576498Y-117630806D01*
X194577328Y-117391197D01*
X194578794Y-117176686D01*
X194580940Y-116985184D01*
X194583806Y-116814601D01*
X194587434Y-116662850D01*
X194591866Y-116527840D01*
X194597142Y-116407484D01*
X194603304Y-116299692D01*
X194610394Y-116202376D01*
X194618453Y-116113446D01*
X194627523Y-116030814D01*
X194637645Y-115952391D01*
X194660720Y-115802081D01*
X194721397Y-115507175D01*
X194798774Y-115241758D01*
X194893502Y-115004082D01*
X195006229Y-114792397D01*
X195137604Y-114604953D01*
X195285646Y-114442632D01*
X195463552Y-114294423D01*
X195664972Y-114169688D01*
X195892034Y-114067121D01*
X196146865Y-113985415D01*
X196234433Y-113963192D01*
X196343316Y-113939287D01*
X196453320Y-113920091D01*
X196570211Y-113905006D01*
X196699750Y-113893434D01*
X196847705Y-113884776D01*
X197019837Y-113878434D01*
X197221912Y-113873809D01*
X197431645Y-113870010D01*
X197753459Y-113864182D01*
X197748846Y-114889018D01*
G37*
G36*
X198945317Y-113868651D02*
G01*
X198999050Y-113870139D01*
X199274411Y-113877766D01*
X199593780Y-113907482D01*
X199885346Y-113958410D01*
X200150007Y-114031132D01*
X200388659Y-114126229D01*
X200602199Y-114244286D01*
X200791525Y-114385884D01*
X200957532Y-114551607D01*
X201101119Y-114742037D01*
X201223181Y-114957757D01*
X201324617Y-115199349D01*
X201406322Y-115467396D01*
X201451413Y-115664161D01*
X201502928Y-115971899D01*
X201537762Y-116306821D01*
X201537924Y-116309023D01*
X201540403Y-116362406D01*
X201542691Y-116448491D01*
X201544789Y-116564434D01*
X201546694Y-116707394D01*
X201548405Y-116874526D01*
X201549920Y-117062988D01*
X201551240Y-117269936D01*
X201552361Y-117492529D01*
X201553284Y-117727922D01*
X201554006Y-117973274D01*
X201554526Y-118225740D01*
X201554844Y-118482478D01*
X201554957Y-118740645D01*
X201554864Y-118997398D01*
X201554564Y-119249894D01*
X201554056Y-119495290D01*
X201553339Y-119730743D01*
X201552410Y-119953410D01*
X201551269Y-120160448D01*
X201549915Y-120349014D01*
X201548346Y-120516265D01*
X201546560Y-120659358D01*
X201544557Y-120775451D01*
X201542336Y-120861699D01*
X201539894Y-120915260D01*
X201512338Y-121212464D01*
X201465036Y-121531270D01*
X201400966Y-121820312D01*
X201319590Y-122080823D01*
X201220374Y-122314036D01*
X201102780Y-122521185D01*
X200966272Y-122703504D01*
X200810315Y-122862226D01*
X200634372Y-122998586D01*
X200469088Y-123098967D01*
X200289171Y-123184677D01*
X200094947Y-123253837D01*
X199882525Y-123307426D01*
X199648011Y-123346421D01*
X199387515Y-123371798D01*
X199097144Y-123384536D01*
X198681700Y-123393673D01*
X198686314Y-122377743D01*
X198690928Y-121361814D01*
X198896343Y-121350232D01*
X198971212Y-121345038D01*
X199161168Y-121320765D01*
X199321330Y-121281367D01*
X199454115Y-121225655D01*
X199561943Y-121152438D01*
X199647231Y-121060527D01*
X199712400Y-120948732D01*
X199715951Y-120940992D01*
X199731343Y-120907438D01*
X199745075Y-120876081D01*
X199757241Y-120844816D01*
X199767936Y-120811536D01*
X199777255Y-120774133D01*
X199785292Y-120730500D01*
X199792143Y-120678532D01*
X199797902Y-120616121D01*
X199802663Y-120541160D01*
X199806522Y-120451543D01*
X199809572Y-120345163D01*
X199811909Y-120219913D01*
X199813627Y-120073687D01*
X199814821Y-119904376D01*
X199815586Y-119709876D01*
X199816016Y-119488078D01*
X199816206Y-119236876D01*
X199816250Y-118954164D01*
X199816244Y-118637834D01*
X199816226Y-118384068D01*
X199816136Y-118103674D01*
X199815940Y-117855175D01*
X199815607Y-117636462D01*
X199815104Y-117445428D01*
X199814398Y-117279962D01*
X199813456Y-117137956D01*
X199812246Y-117017301D01*
X199810736Y-116915889D01*
X199808893Y-116831610D01*
X199806685Y-116762355D01*
X199804078Y-116706016D01*
X199801041Y-116660483D01*
X199797540Y-116623648D01*
X199793544Y-116593403D01*
X199789019Y-116567637D01*
X199783933Y-116544243D01*
X199750437Y-116425409D01*
X199693524Y-116291889D01*
X199619437Y-116182223D01*
X199525460Y-116094518D01*
X199408878Y-116026880D01*
X199266975Y-115977416D01*
X199097035Y-115944232D01*
X198896343Y-115925436D01*
X198690928Y-115913854D01*
X198686328Y-114893956D01*
X198985653Y-114893956D01*
X198985653Y-115615620D01*
X199097292Y-115628469D01*
X199194451Y-115643173D01*
X199333071Y-115674508D01*
X199463790Y-115715072D01*
X199572711Y-115760990D01*
X199598048Y-115774224D01*
X199734954Y-115863102D01*
X199848990Y-115971363D01*
X199942761Y-116102530D01*
X200018869Y-116260131D01*
X200079919Y-116447689D01*
X200085055Y-116467226D01*
X200090594Y-116490226D01*
X200095502Y-116514779D01*
X200099826Y-116543021D01*
X200103610Y-116577087D01*
X200106903Y-116619114D01*
X200109749Y-116671237D01*
X200112195Y-116735592D01*
X200114288Y-116814314D01*
X200116074Y-116909539D01*
X200117598Y-117023403D01*
X200118908Y-117158041D01*
X200120049Y-117315589D01*
X200121068Y-117498183D01*
X200122011Y-117707958D01*
X200122924Y-117947051D01*
X200123854Y-118217596D01*
X200124846Y-118521730D01*
X200125187Y-118631218D01*
X200126036Y-118966287D01*
X200126474Y-119267114D01*
X200126495Y-119534831D01*
X200126091Y-119770571D01*
X200125253Y-119975466D01*
X200123975Y-120150649D01*
X200122248Y-120297253D01*
X200120065Y-120416411D01*
X200117418Y-120509255D01*
X200114300Y-120576919D01*
X200110704Y-120620534D01*
X200101289Y-120685895D01*
X200070853Y-120829846D01*
X200029251Y-120970195D01*
X199979906Y-121096239D01*
X199926243Y-121197273D01*
X199913322Y-121216757D01*
X199801457Y-121349067D01*
X199662383Y-121458721D01*
X199496747Y-121545371D01*
X199305191Y-121608671D01*
X199088361Y-121648274D01*
X198985653Y-121660656D01*
X198985653Y-122375765D01*
X198985653Y-123090873D01*
X199204465Y-123078713D01*
X199347774Y-123068739D01*
X199624612Y-123035973D01*
X199872293Y-122986538D01*
X200092805Y-122919770D01*
X200288136Y-122835005D01*
X200460273Y-122731578D01*
X200611205Y-122608827D01*
X200694066Y-122525563D01*
X200809943Y-122385763D01*
X200909525Y-122231979D01*
X200994229Y-122060731D01*
X201065470Y-121868539D01*
X201124666Y-121651924D01*
X201173233Y-121407406D01*
X201212588Y-121131504D01*
X201214174Y-121117834D01*
X201218443Y-121074911D01*
X201222272Y-121025264D01*
X201225690Y-120966820D01*
X201228727Y-120897508D01*
X201231412Y-120815256D01*
X201233775Y-120717995D01*
X201235845Y-120603651D01*
X201237651Y-120470154D01*
X201239224Y-120315432D01*
X201240592Y-120137415D01*
X201241785Y-119934029D01*
X201242832Y-119703205D01*
X201243763Y-119442871D01*
X201244608Y-119150955D01*
X201245396Y-118825387D01*
X201245628Y-118718180D01*
X201246246Y-118373001D01*
X201246562Y-118060954D01*
X201246546Y-117780034D01*
X201246165Y-117528234D01*
X201245389Y-117303548D01*
X201244185Y-117103970D01*
X201242521Y-116927494D01*
X201240367Y-116772115D01*
X201237691Y-116635826D01*
X201234461Y-116516621D01*
X201230646Y-116412494D01*
X201226214Y-116321439D01*
X201221133Y-116241450D01*
X201215372Y-116170521D01*
X201208899Y-116106646D01*
X201201684Y-116047820D01*
X201181626Y-115912415D01*
X201129070Y-115644862D01*
X201062953Y-115400928D01*
X200984304Y-115184124D01*
X200894151Y-114997963D01*
X200891247Y-114992855D01*
X200816110Y-114881010D01*
X200718734Y-114764166D01*
X200608319Y-114651728D01*
X200494067Y-114553101D01*
X200385177Y-114477689D01*
X200302166Y-114432407D01*
X200090862Y-114342861D01*
X199849595Y-114272752D01*
X199578374Y-114222083D01*
X199277209Y-114190856D01*
X199233480Y-114187890D01*
X199144561Y-114181916D01*
X199071440Y-114177081D01*
X199020732Y-114173821D01*
X198999050Y-114172569D01*
X198997908Y-114175165D01*
X198995075Y-114205110D01*
X198992488Y-114265569D01*
X198990213Y-114352781D01*
X198988323Y-114462987D01*
X198986887Y-114592424D01*
X198985973Y-114737334D01*
X198985653Y-114893956D01*
X198686328Y-114893956D01*
X198686316Y-114891245D01*
X198681704Y-113868636D01*
X198945317Y-113868651D01*
G37*
G36*
X112866667Y-99300000D02*
G01*
X112866667Y-99700000D01*
X110800000Y-99700000D01*
X108733333Y-99700000D01*
X108733333Y-99300000D01*
X108733333Y-98900000D01*
X110800000Y-98900000D01*
X112866667Y-98900000D01*
X112866667Y-99300000D01*
G37*
G36*
X112866667Y-109766667D02*
G01*
X112866667Y-110166667D01*
X110800000Y-110166667D01*
X108733333Y-110166667D01*
X108733333Y-109766667D01*
X108733333Y-109366667D01*
X110800000Y-109366667D01*
X112866667Y-109366667D01*
X112866667Y-109766667D01*
G37*
G36*
X112866667Y-116700000D02*
G01*
X112866667Y-117100000D01*
X110800000Y-117100000D01*
X108733333Y-117100000D01*
X108733333Y-116700000D01*
X108733333Y-116300000D01*
X110800000Y-116300000D01*
X112866667Y-116300000D01*
X112866667Y-116700000D01*
G37*
G36*
X114666667Y-95100000D02*
G01*
X114666667Y-95700000D01*
X116366667Y-95700000D01*
X118066667Y-95700000D01*
X118066667Y-96100000D01*
X118066667Y-96500000D01*
X116366667Y-96500000D01*
X114666667Y-96500000D01*
X114666667Y-97100000D01*
X114666667Y-97700000D01*
X114266667Y-97700000D01*
X113866667Y-97700000D01*
X113866667Y-96100000D01*
X113866667Y-94500000D01*
X114266667Y-94500000D01*
X114666667Y-94500000D01*
X114666667Y-95100000D01*
G37*
G36*
X118066667Y-99700000D02*
G01*
X118066667Y-101033333D01*
X117701830Y-101033333D01*
X117336994Y-101033333D01*
X117318497Y-100083333D01*
X117300000Y-99133333D01*
X116816667Y-99113746D01*
X116333333Y-99094159D01*
X116333333Y-99897079D01*
X116333333Y-100700000D01*
X115968782Y-100700000D01*
X115604231Y-100700000D01*
X115585449Y-99916667D01*
X115566667Y-99133333D01*
X115116667Y-99113621D01*
X114666667Y-99093908D01*
X114666667Y-100063621D01*
X114666667Y-101033333D01*
X114266667Y-101033333D01*
X113866667Y-101033333D01*
X113866667Y-99700000D01*
X113866667Y-98366667D01*
X115966667Y-98366667D01*
X118066667Y-98366667D01*
X118066667Y-99700000D01*
G37*
G36*
X118066667Y-106466667D02*
G01*
X118066667Y-106833333D01*
X117200000Y-106833333D01*
X116333333Y-106833333D01*
X116333333Y-107833333D01*
X116333333Y-108833333D01*
X117200000Y-108833333D01*
X118066667Y-108833333D01*
X118066667Y-109233333D01*
X118066667Y-109633333D01*
X115963340Y-109633333D01*
X113860013Y-109633333D01*
X113880006Y-109250000D01*
X113900000Y-108866667D01*
X114750000Y-108848008D01*
X115600000Y-108829350D01*
X115600000Y-107831341D01*
X115600000Y-106833333D01*
X114733333Y-106833333D01*
X113866667Y-106833333D01*
X113866667Y-106466667D01*
X113866667Y-106100000D01*
X115966667Y-106100000D01*
X118066667Y-106100000D01*
X118066667Y-106466667D01*
G37*
G36*
X112866667Y-111765415D02*
G01*
X112866667Y-112164163D01*
X111364614Y-112182082D01*
X109862561Y-112200000D01*
X111363269Y-113266667D01*
X112863977Y-114333333D01*
X112865322Y-114716667D01*
X112866667Y-115100000D01*
X110800000Y-115100000D01*
X108733333Y-115100000D01*
X108733333Y-114700000D01*
X108733333Y-114300000D01*
X110083333Y-114296503D01*
X110243982Y-114296040D01*
X110658537Y-114293829D01*
X110959398Y-114289369D01*
X111161406Y-114281269D01*
X111279406Y-114268141D01*
X111328240Y-114248594D01*
X111322752Y-114221240D01*
X111277786Y-114184688D01*
X111255994Y-114169420D01*
X111124733Y-114076678D01*
X110909470Y-113924050D01*
X110628683Y-113724654D01*
X110300850Y-113491612D01*
X109944452Y-113238042D01*
X108766667Y-112399714D01*
X108747196Y-111883190D01*
X108727725Y-111366667D01*
X110797196Y-111366667D01*
X112866667Y-111366667D01*
X112866667Y-111765415D01*
G37*
G36*
X108818199Y-93986264D02*
G01*
X108936551Y-94035938D01*
X109152817Y-94128864D01*
X109448647Y-94257004D01*
X109805695Y-94412320D01*
X110205611Y-94586777D01*
X110630049Y-94772337D01*
X111060660Y-94960962D01*
X111479095Y-95144617D01*
X111867008Y-95315264D01*
X112206050Y-95464865D01*
X112477872Y-95585385D01*
X112664128Y-95668785D01*
X112746468Y-95707029D01*
X112767870Y-95719555D01*
X112831649Y-95790852D01*
X112857008Y-95918725D01*
X112853206Y-96140807D01*
X112833333Y-96506824D01*
X110800000Y-97391989D01*
X108766667Y-98277153D01*
X108746306Y-97949179D01*
X108745199Y-97929333D01*
X108758057Y-97662493D01*
X108820853Y-97477270D01*
X108885217Y-97420196D01*
X109074765Y-97306516D01*
X109376950Y-97152376D01*
X109784795Y-96961289D01*
X110291319Y-96736771D01*
X110501023Y-96645027D01*
X110870577Y-96479094D01*
X111183464Y-96333015D01*
X111423148Y-96214808D01*
X111573096Y-96132490D01*
X111616771Y-96094079D01*
X111608793Y-96088698D01*
X111506558Y-96037628D01*
X111305513Y-95945154D01*
X111024706Y-95819802D01*
X110683186Y-95670101D01*
X110300000Y-95504579D01*
X109968091Y-95359548D01*
X109557879Y-95171208D01*
X109231210Y-95009509D01*
X109001792Y-94881330D01*
X108883333Y-94793553D01*
X108824978Y-94718171D01*
X108753593Y-94541213D01*
X108733333Y-94289150D01*
X108738050Y-94134101D01*
X108764101Y-94006798D01*
X108816667Y-93985651D01*
X108818199Y-93986264D01*
G37*
G36*
X112845106Y-117761066D02*
G01*
X112863459Y-117864112D01*
X112866667Y-118073361D01*
X112866641Y-118088599D01*
X112853894Y-118319515D01*
X112808468Y-118466634D01*
X112716667Y-118575837D01*
X112695416Y-118591705D01*
X112555699Y-118671670D01*
X112320262Y-118790499D01*
X112009609Y-118938357D01*
X111644243Y-119105411D01*
X111244669Y-119281826D01*
X111130382Y-119331569D01*
X110684385Y-119529860D01*
X110356135Y-119684077D01*
X110140050Y-119797093D01*
X110030548Y-119871780D01*
X110022045Y-119911012D01*
X110048320Y-119924584D01*
X110189281Y-119990414D01*
X110405072Y-120086599D01*
X110660709Y-120197450D01*
X111200000Y-120428276D01*
X111200000Y-120227494D01*
X111243369Y-119969773D01*
X111402978Y-119700680D01*
X111665384Y-119500654D01*
X111738268Y-119464167D01*
X111887844Y-119394376D01*
X111964011Y-119366667D01*
X111975497Y-119403389D01*
X111988164Y-119548600D01*
X111996804Y-119778559D01*
X112000000Y-120065707D01*
X112000000Y-120764747D01*
X112398821Y-120966072D01*
X112462076Y-120998593D01*
X112686831Y-121137236D01*
X112812026Y-121282989D01*
X112860324Y-121474961D01*
X112854386Y-121752259D01*
X112833333Y-122027157D01*
X110800000Y-121138130D01*
X108766667Y-120249103D01*
X108766667Y-119869482D01*
X108766667Y-119489861D01*
X110666667Y-118655999D01*
X110872612Y-118565652D01*
X111336373Y-118362483D01*
X111759200Y-118177627D01*
X112124867Y-118018152D01*
X112417151Y-117891129D01*
X112619825Y-117803628D01*
X112716667Y-117762718D01*
X112798517Y-117737109D01*
X112845106Y-117761066D01*
G37*
G36*
X116178797Y-101528338D02*
G01*
X116561135Y-101581015D01*
X116875152Y-101685320D01*
X116957370Y-101728340D01*
X117351568Y-102009888D01*
X117683169Y-102371584D01*
X117928727Y-102783284D01*
X118064795Y-103214842D01*
X118075202Y-103286105D01*
X118095226Y-103570481D01*
X118087767Y-103833333D01*
X118061170Y-103984076D01*
X117964463Y-104291809D01*
X117823279Y-104612931D01*
X117660067Y-104899193D01*
X117497279Y-105102348D01*
X117322149Y-105266667D01*
X117161075Y-105079616D01*
X117144364Y-105059618D01*
X117023665Y-104830295D01*
X117020011Y-104572693D01*
X117132738Y-104267835D01*
X117282830Y-103858300D01*
X117302318Y-103470936D01*
X117190312Y-103103480D01*
X116946413Y-102752697D01*
X116945293Y-102751456D01*
X116652195Y-102489885D01*
X116337256Y-102344781D01*
X115965497Y-102300000D01*
X115898736Y-102301549D01*
X115510354Y-102378177D01*
X115183922Y-102556760D01*
X114929801Y-102818601D01*
X114758352Y-103145001D01*
X114679936Y-103517262D01*
X114704915Y-103916685D01*
X114843649Y-104324573D01*
X115020631Y-104685433D01*
X114887191Y-104942716D01*
X114852712Y-105006315D01*
X114732909Y-105166765D01*
X114613379Y-105206440D01*
X114476672Y-105124686D01*
X114305336Y-104920846D01*
X114239189Y-104827294D01*
X114009216Y-104404846D01*
X113893871Y-103967382D01*
X113881375Y-103474731D01*
X113893150Y-103346294D01*
X114016548Y-102833741D01*
X114256815Y-102384395D01*
X114612045Y-102001099D01*
X115080329Y-101686699D01*
X115093766Y-101679717D01*
X115397922Y-101577725D01*
X115775329Y-101527253D01*
X116178797Y-101528338D01*
G37*
G36*
X110066667Y-100900000D02*
G01*
X110800000Y-100900000D01*
X112866667Y-100900000D01*
X112866667Y-101300000D01*
X112866667Y-101700000D01*
X112133333Y-101700000D01*
X111400000Y-101700000D01*
X111400000Y-101959963D01*
X111401217Y-102028559D01*
X111417085Y-102131057D01*
X111466392Y-102224289D01*
X111567748Y-102330161D01*
X111739763Y-102470578D01*
X112001048Y-102667447D01*
X112105662Y-102745648D01*
X112404003Y-102976345D01*
X112612681Y-103159291D01*
X112747492Y-103315924D01*
X112824230Y-103467682D01*
X112858690Y-103636002D01*
X112866667Y-103842324D01*
X112863038Y-104015843D01*
X112850446Y-104172820D01*
X112831953Y-104233333D01*
X112819529Y-104227664D01*
X112721581Y-104162920D01*
X112544900Y-104037324D01*
X112309412Y-103865189D01*
X112035040Y-103660830D01*
X111272841Y-103088328D01*
X111059858Y-103330903D01*
X111039956Y-103353285D01*
X110755294Y-103606093D01*
X110442212Y-103746465D01*
X110060170Y-103793149D01*
X109835374Y-103777090D01*
X109453754Y-103655106D01*
X109129448Y-103426379D01*
X108888509Y-103106181D01*
X108834081Y-102995484D01*
X108788715Y-102869373D01*
X108759368Y-102719866D01*
X108742630Y-102519485D01*
X108735089Y-102240749D01*
X108733333Y-101856181D01*
X108733333Y-101700000D01*
X109533333Y-101700000D01*
X109533333Y-102161214D01*
X109535467Y-102364705D01*
X109552515Y-102600503D01*
X109595842Y-102753627D01*
X109676307Y-102855065D01*
X109804768Y-102935799D01*
X109863197Y-102964822D01*
X110049819Y-103024388D01*
X110208936Y-102991998D01*
X110394885Y-102860740D01*
X110447220Y-102815601D01*
X110532099Y-102723371D01*
X110577838Y-102615097D01*
X110596464Y-102451692D01*
X110600000Y-102194074D01*
X110600000Y-101700000D01*
X110066667Y-101700000D01*
X109533333Y-101700000D01*
X108733333Y-101700000D01*
X108733333Y-100900000D01*
X110066667Y-100900000D01*
G37*
G36*
X110914557Y-104489542D02*
G01*
X111431102Y-104578243D01*
X111896541Y-104783096D01*
X112296423Y-105093472D01*
X112616294Y-105498743D01*
X112841703Y-105988278D01*
X112882945Y-106149435D01*
X112921320Y-106546293D01*
X112898650Y-106981172D01*
X112819445Y-107402093D01*
X112688216Y-107757073D01*
X112495893Y-108133333D01*
X111581280Y-108151881D01*
X110666666Y-108170429D01*
X110666667Y-107468548D01*
X110666667Y-106766667D01*
X110928571Y-106766667D01*
X110943627Y-106766773D01*
X111196571Y-106814878D01*
X111348994Y-106950019D01*
X111400000Y-107171428D01*
X111401494Y-107240114D01*
X111427233Y-107326349D01*
X111513581Y-107360569D01*
X111696866Y-107366667D01*
X111804881Y-107365432D01*
X111940518Y-107344007D01*
X112011448Y-107271434D01*
X112063161Y-107116667D01*
X112104485Y-106930831D01*
X112119692Y-106498411D01*
X112022719Y-106103597D01*
X111822791Y-105764501D01*
X111529134Y-105499232D01*
X111150971Y-105325902D01*
X111044938Y-105296285D01*
X110849474Y-105259179D01*
X110675159Y-105269051D01*
X110449028Y-105325902D01*
X110327964Y-105367562D01*
X109979056Y-105572152D01*
X109706800Y-105865410D01*
X109529801Y-106222827D01*
X109466667Y-106619893D01*
X109475453Y-106720205D01*
X109535106Y-106963157D01*
X109633054Y-107205368D01*
X109734279Y-107430803D01*
X109789856Y-107673298D01*
X109752121Y-107873284D01*
X109620630Y-108061472D01*
X109441260Y-108254914D01*
X109225278Y-108005060D01*
X109087340Y-107834129D01*
X108866438Y-107465276D01*
X108744190Y-107068562D01*
X108704284Y-106600000D01*
X108706990Y-106350945D01*
X108730481Y-106115275D01*
X108786681Y-105912322D01*
X108886691Y-105686492D01*
X109039609Y-105421431D01*
X109379668Y-105027007D01*
X109796721Y-104733278D01*
X110275316Y-104549934D01*
X110800000Y-104486667D01*
X110914557Y-104489542D01*
G37*
G36*
X108777613Y-72036274D02*
G01*
X108875072Y-72085331D01*
X109078358Y-72191140D01*
X109378516Y-72348952D01*
X109766588Y-72554015D01*
X110233621Y-72801577D01*
X110770656Y-73086888D01*
X111368740Y-73405196D01*
X112018916Y-73751749D01*
X112712228Y-74121796D01*
X113439720Y-74510587D01*
X113674884Y-74636438D01*
X114389788Y-75020219D01*
X115065708Y-75384832D01*
X115693891Y-75725457D01*
X116265585Y-76037275D01*
X116772040Y-76315463D01*
X117204504Y-76555201D01*
X117554224Y-76751669D01*
X117812450Y-76900046D01*
X117970430Y-76995511D01*
X118019413Y-77033244D01*
X118017287Y-77034775D01*
X117936692Y-77081205D01*
X117750148Y-77184578D01*
X117467840Y-77339357D01*
X117099954Y-77540003D01*
X116656674Y-77780979D01*
X116148188Y-78056747D01*
X115584678Y-78361768D01*
X114976332Y-78690506D01*
X114333333Y-79037421D01*
X113728519Y-79363751D01*
X113017895Y-79748575D01*
X112409246Y-80080925D01*
X111893610Y-80366667D01*
X111462026Y-80611665D01*
X111105531Y-80821784D01*
X110815164Y-81002889D01*
X110581964Y-81160844D01*
X110396967Y-81301515D01*
X110251213Y-81430766D01*
X110135739Y-81554462D01*
X110041585Y-81678467D01*
X109959787Y-81808647D01*
X109881384Y-81950867D01*
X109809275Y-82091631D01*
X109746899Y-82230575D01*
X109694532Y-82377119D01*
X109651380Y-82542693D01*
X109616654Y-82738726D01*
X109589559Y-82976649D01*
X109569304Y-83267890D01*
X109555097Y-83623880D01*
X109546146Y-84056048D01*
X109541659Y-84575825D01*
X109540844Y-85194639D01*
X109542908Y-85923921D01*
X109547060Y-86775100D01*
X109566667Y-90416866D01*
X110200000Y-90073599D01*
X110833333Y-89730333D01*
X110866667Y-88032340D01*
X110900000Y-86334348D01*
X114016667Y-84676882D01*
X117133333Y-83019415D01*
X117133333Y-82224028D01*
X117133333Y-81428642D01*
X116983333Y-81506762D01*
X116894609Y-81553476D01*
X116682383Y-81666373D01*
X116383080Y-81826328D01*
X116011312Y-82025478D01*
X115581691Y-82255959D01*
X115108830Y-82509908D01*
X114607340Y-82779461D01*
X114091834Y-83056754D01*
X113576924Y-83333923D01*
X113077222Y-83603106D01*
X112607341Y-83856438D01*
X112181892Y-84086056D01*
X111815488Y-84284096D01*
X111522741Y-84442695D01*
X111318263Y-84553989D01*
X111216667Y-84610115D01*
X110933333Y-84772287D01*
X110933333Y-83105777D01*
X110933333Y-81439268D01*
X111316667Y-81215154D01*
X111700000Y-80991041D01*
X111733333Y-82174318D01*
X111766667Y-83357595D01*
X114800000Y-81721666D01*
X114996728Y-81615592D01*
X115574192Y-81304519D01*
X116113649Y-81014347D01*
X116603768Y-80751141D01*
X117033220Y-80520970D01*
X117390678Y-80329901D01*
X117664811Y-80184000D01*
X117844291Y-80089334D01*
X117917788Y-80051972D01*
X117940308Y-80060690D01*
X117960960Y-80126086D01*
X117975654Y-80262888D01*
X117984871Y-80483473D01*
X117989090Y-80800216D01*
X117988792Y-81225492D01*
X117984455Y-81771679D01*
X117966667Y-83525151D01*
X114866667Y-85175238D01*
X111766667Y-86825324D01*
X111748906Y-88513943D01*
X111731145Y-90202561D01*
X110272888Y-90984614D01*
X109958251Y-91152840D01*
X109584795Y-91351075D01*
X109263294Y-91520104D01*
X109010095Y-91651397D01*
X108841542Y-91736428D01*
X108773983Y-91766667D01*
X108769853Y-91743146D01*
X108763243Y-91603607D01*
X108757072Y-91348009D01*
X108751435Y-90987154D01*
X108746427Y-90531848D01*
X108742142Y-89992893D01*
X108738674Y-89381094D01*
X108736119Y-88707254D01*
X108734571Y-87982177D01*
X108734124Y-87216667D01*
X108734126Y-87205239D01*
X108734346Y-86284029D01*
X108735129Y-85485678D01*
X108737169Y-84799834D01*
X108741162Y-84216142D01*
X108747802Y-83724249D01*
X108757785Y-83313801D01*
X108771805Y-82974444D01*
X108790558Y-82695826D01*
X108814739Y-82467592D01*
X108845042Y-82279388D01*
X108882162Y-82120862D01*
X108926795Y-81981659D01*
X108979635Y-81851426D01*
X109041378Y-81719808D01*
X109112718Y-81576454D01*
X109141521Y-81522697D01*
X109299568Y-81281503D01*
X109509283Y-81012877D01*
X109733333Y-80765597D01*
X109777080Y-80721985D01*
X109927571Y-80580903D01*
X110087584Y-80449128D01*
X110275296Y-80314950D01*
X110508883Y-80166658D01*
X110806523Y-79992540D01*
X111186392Y-79780885D01*
X111666667Y-79519983D01*
X112108677Y-79281492D01*
X112907966Y-78849864D01*
X113600407Y-78475317D01*
X114193110Y-78153915D01*
X114693188Y-77881720D01*
X115107752Y-77654796D01*
X115443913Y-77469204D01*
X115708785Y-77321009D01*
X115909477Y-77206271D01*
X116053102Y-77121055D01*
X116146772Y-77061423D01*
X116197598Y-77023437D01*
X116212692Y-77003160D01*
X116203460Y-76993155D01*
X116098230Y-76924953D01*
X115876737Y-76796025D01*
X115540347Y-76607113D01*
X115090428Y-76358962D01*
X114528346Y-76052315D01*
X113855468Y-75687917D01*
X113073161Y-75266511D01*
X112182791Y-74788840D01*
X111185727Y-74255650D01*
X110083333Y-73667683D01*
X109533333Y-73374673D01*
X109533333Y-74163545D01*
X109533333Y-74952416D01*
X111366667Y-75936346D01*
X111588668Y-76055860D01*
X112022143Y-76291459D01*
X112408490Y-76504409D01*
X112733580Y-76686741D01*
X112983282Y-76830485D01*
X113143465Y-76927671D01*
X113200000Y-76970330D01*
X113185100Y-76985026D01*
X113074860Y-77058343D01*
X112868967Y-77183789D01*
X112581365Y-77353198D01*
X112225997Y-77558401D01*
X111816806Y-77791232D01*
X111367736Y-78043525D01*
X109535473Y-79066667D01*
X109534403Y-79670860D01*
X109534379Y-79683550D01*
X109531502Y-79967885D01*
X109518321Y-80154465D01*
X109486014Y-80277608D01*
X109425759Y-80371634D01*
X109328731Y-80470860D01*
X109262880Y-80538293D01*
X109088203Y-80743834D01*
X108928731Y-80961429D01*
X108733333Y-81256192D01*
X108733333Y-79914370D01*
X108733333Y-78572548D01*
X109183333Y-78313157D01*
X109270525Y-78263118D01*
X109531740Y-78114453D01*
X109860834Y-77928301D01*
X110224401Y-77723532D01*
X110589035Y-77519021D01*
X111544736Y-76984277D01*
X110139035Y-76228513D01*
X108733333Y-75472750D01*
X108733333Y-73753041D01*
X108734451Y-73333876D01*
X108738081Y-72912542D01*
X108743860Y-72554248D01*
X108751409Y-72276566D01*
X108760351Y-72097070D01*
X108770307Y-72033333D01*
X108777613Y-72036274D01*
G37*
%TD*%
M02*
